<?xml version="1.0" encoding="utf-8"?>
<!-- Generator: Adobe Illustrator 24.0.1, SVG Export Plug-In . SVG Version: 6.00 Build 0)  -->
<svg version="1.1" id="Layer_1" xmlns="http://www.w3.org/2000/svg" xmlns:xlink="http://www.w3.org/1999/xlink" x="0px" y="0px"
	 viewBox="0 0 492.6 753.6" style="enable-background:new 0 0 492.6 753.6;" xml:space="preserve">
<style type="text/css">
	.st0{opacity:0.4;fill:#FBE0B5;}
	.st1{fill:#FFFFFF;}
	.st2{fill:none;stroke:#FFFFFF;stroke-width:1.6437;stroke-miterlimit:10;}
	.st3{opacity:0.4;fill:none;stroke:#FBE0B5;stroke-miterlimit:10;}
	.st4{fill:none;stroke:#FFFFFF;stroke-width:1.6439;stroke-miterlimit:10;}
	.st5{opacity:0.4;fill:#FFFFFF;}
	.st6{fill:none;stroke:#FFFFFF;stroke-width:0.3288;stroke-miterlimit:10;}
	.st7{fill:none;stroke:#FFFFFF;stroke-miterlimit:10;}
	.st8{fill:none;stroke:#FFFFFF;stroke-miterlimit:10;stroke-dasharray:4.9366,1.6455,0.3291,1.6455;}
	.st9{opacity:0.8;fill:#FBE0B5;enable-background:new    ;}
	.st10{enable-background:new    ;}
	.st11{fill:#828282;}
	.st12{opacity:0.2;fill:#FBE0B5;}
	.st13{fill:none;stroke:#FBE0B5;stroke-width:0.5887;stroke-miterlimit:10;}
	.st14{opacity:0.1;fill:#FBE0B5;}
	.st15{fill:none;stroke:#FBE0B5;stroke-width:0.2944;stroke-miterlimit:10;}
	.st16{fill:none;stroke:#FBE0B5;stroke-width:1;stroke-miterlimit:10;}
	.st17{fill:none;stroke:#FBE0B5;stroke-width:0.5;stroke-miterlimit:10;stroke-dasharray:7.5,2.5;}
</style>
<g>
	<g>
		<polygon class="st0" points="344.8,732.3 344.8,729 344.2,729 344.2,729.1 104.1,729.1 104.2,729.1 104.2,729 104.2,728 66.3,728 
			66.3,729 66.3,729.1 66.4,729.1 56.4,729.1 56.4,729 55.7,729 55.7,732.3 43.9,732.3 43.9,729 43.3,729 43.3,729.1 38.2,729.1 
			38.2,725.6 26.6,725.6 26.6,724.5 26.7,724.5 26.7,711.4 26.6,711.4 26.6,706.3 38.2,706.3 38.2,668.7 40.8,668.7 40.8,662.7 
			38.2,662.7 38.2,631 42.2,631 42.2,615.2 104.7,615.2 104.7,612.2 97.6,612.2 97.6,611.2 99,611.2 99,597.3 97.6,597.3 
			97.6,593.1 76.4,593.1 76.4,596.7 76.4,611.6 51.4,611.6 51.4,611.9 38.2,611.9 38.2,594.3 41.8,594.3 41.8,586 39.2,586 
			39.2,582.5 41.8,582.5 41.8,574.1 38.2,574.1 38.2,572.8 38.4,572.8 38.4,572.2 38.4,540.6 38.4,539.9 38.4,539.9 38.4,538.7 
			41.8,538.7 41.8,530.3 39.2,530.3 39.2,526.9 41.8,526.9 41.8,518.5 38.4,518.5 38.4,466.4 41.8,466.4 41.8,458 39.2,458 
			39.2,454.6 41.8,454.6 41.8,446.2 41.5,446.2 41.5,444.5 37.8,444.5 37.8,444.3 35.5,444.3 35.5,420.6 37.8,420.6 37.8,420.4 
			41.5,420.4 41.5,418.7 41.8,418.7 41.8,410.3 39.2,410.3 39.2,406.9 41.8,406.9 41.8,398.4 38.4,398.4 38.4,389.2 39.5,389.2 
			39.5,303.9 38.4,303.9 38.4,294.6 41.8,294.6 41.8,286.2 39.2,286.2 39.2,282.8 41.8,282.8 41.8,274.4 41.5,274.4 41.5,272.7 
			37.8,272.7 37.8,272.5 35.5,272.5 35.5,248.8 37.8,248.8 37.8,248.5 41.5,248.5 41.5,246.9 41.8,246.9 41.8,238.5 39.2,238.5 
			39.2,235 41.8,235 41.8,226.6 38.4,226.6 38.4,221.7 38.9,221.7 38.9,190.2 38.4,190.2 38.4,185.3 41.8,185.3 41.8,176.9 
			39.2,176.9 39.2,173.4 41.8,173.4 41.8,165 41.5,165 41.5,163.4 37.8,163.4 37.8,163.1 35.5,163.1 35.5,139.4 37.8,139.4 
			37.8,139.2 41.5,139.2 41.5,137.6 41.8,137.6 41.8,129.1 39.2,129.1 39.2,125.7 41.8,125.7 41.8,117.3 38.4,117.3 38.4,111.9 
			38.9,111.9 38.9,80.3 38.4,80.3 38.4,74.8 45.6,74.8 45.6,75.9 107.5,75.9 107.5,74.8 114.6,74.8 114.6,78.2 123,78.2 123,75.6 
			126.5,75.6 126.5,78.2 134.9,78.2 134.9,74.8 154,74.8 154,77.8 155.9,77.8 155.9,74.2 156.3,74.2 156.3,71.9 180,71.9 180,74.2 
			180.1,74.2 180.1,77.8 182.1,77.8 182.1,74.8 201.2,74.8 201.2,78.2 209.6,78.2 209.6,75.6 213,75.6 213,78.2 221.4,78.2 
			221.4,74.8 240.5,74.8 240.5,77.8 242.5,77.8 242.5,74.2 242.7,74.2 242.7,71.9 266.4,71.9 266.4,74.2 266.6,74.2 266.6,77.8 
			268.6,77.8 268.6,74.8 287.7,74.8 287.7,78.2 296.1,78.2 296.1,75.6 299.6,75.6 299.6,78.2 307.9,78.2 307.9,74.8 315,74.8 
			315,75.9 377.1,75.9 377.1,74.8 384.1,74.8 384.1,80.3 383.7,80.3 383.7,111.9 384.1,111.9 384.1,117.3 380.8,117.3 380.8,125.7 
			383.4,125.7 383.4,129.1 380.8,129.1 380.8,137.6 381.1,137.6 381.1,139.2 384.8,139.2 384.8,139.4 387.1,139.4 387.1,163.1 
			384.8,163.1 384.8,163.4 380.8,163.4 380.8,173.4 383.4,173.4 383.4,176.9 380.8,176.9 380.8,185.3 384.1,185.3 384.1,190.2 
			383.7,190.2 383.7,221.7 384.1,221.7 384.1,226.6 380.8,226.6 380.8,235 383.4,235 383.4,238.5 380.8,238.5 380.8,246.9 
			381.1,246.9 381.1,248.5 384.8,248.5 384.8,248.8 387.1,248.8 387.1,272.5 384.8,272.5 384.8,272.7 381.1,272.7 381.1,274.4 
			380.8,274.4 380.8,282.8 383.4,282.8 383.4,286.2 380.8,286.2 380.8,294.6 384.1,294.6 384.1,303.9 383.1,303.9 383.1,389.2 
			384.1,389.2 384.1,398.4 380.8,398.4 380.8,406.9 383.4,406.9 383.4,410.3 380.8,410.3 380.8,418.7 381.1,418.7 381.1,420.4 
			384.8,420.4 384.8,420.6 387.1,420.6 387.1,444.3 384.8,444.3 384.8,444.5 381.1,444.5 381.1,446.2 380.8,446.2 380.8,454.6 
			383.4,454.6 383.4,458 380.8,458 380.8,466.4 384.1,466.4 384.1,476.7 383.7,476.7 383.7,508.3 384.1,508.3 384.1,518.5 
			380.8,518.5 380.8,526.9 383.4,526.9 383.4,530.3 380.8,530.3 380.8,538.7 384.1,538.7 384.1,540.1 384.2,540.1 384.2,540.6 
			384.2,572.2 384.2,572.7 384.1,572.7 384.1,574.3 380.8,574.3 380.8,582.7 383.4,582.7 383.4,586.2 380.8,586.2 380.8,594.6 
			384.1,594.6 384.1,611.9 371.2,611.9 371.2,611.6 339.6,611.6 339.6,612.2 317.9,612.2 317.9,615.2 355,615.2 355,631 359,631 
			359,649.3 356.3,649.3 356.3,659.2 359,659.2 359,662.7 356.3,662.7 356.3,668.7 359,668.7 359,729.1 357.3,729.1 357.3,729 
			356.6,729 356.6,732.3 		"/>
		<polygon class="st1" points="43.9,732.3 43.9,744.1 48.9,743.1 52.8,740.1 54.8,737.2 55.8,732.3 		"/>
		<polygon class="st1" points="43.9,732.3 43.9,744.1 48.9,743.1 52.8,740.1 54.8,737.2 55.8,732.3 		"/>
		<line class="st2" x1="55.7" y1="732.2" x2="43.9" y2="732.2"/>
		<polygon class="st1" points="344.8,744.1 344.8,732.2 349.8,733.2 353.7,736.2 355.7,739.1 356.7,744 		"/>
		<polygon class="st3" points="344.8,744.1 344.8,732.2 349.8,733.2 353.7,736.2 355.7,739.1 356.7,744 		"/>
		<line class="st2" x1="356.7" y1="744.1" x2="344.9" y2="744.1"/>
		<polygon class="st1" points="26.7,723.9 38.5,723.9 37.5,719 34.5,715 31.6,713.1 26.7,712.1 		"/>
		<polygon class="st1" points="26.7,723.9 38.5,723.9 37.5,719 34.5,715 31.6,713.1 26.7,712.1 		"/>
		<line class="st2" x1="26.6" y1="712.1" x2="26.6" y2="723.9"/>
		<polygon class="st1" points="384.2,572.3 368.5,572.3 369.8,565.7 373.7,560.5 377.6,557.8 384,556.5 377.7,555.2 373.7,552.6 
			369.8,547.3 368.5,540.7 384.1,540.7 		"/>
		<polygon class="st1" points="384.2,572.3 368.5,572.3 369.8,565.7 373.7,560.5 377.6,557.8 384,556.5 377.7,555.2 373.7,552.6 
			369.8,547.3 368.5,540.7 384.1,540.7 		"/>
		<line class="st4" x1="384.3" y1="572.3" x2="384.2" y2="540.7"/>
		<polygon class="st1" points="387.1,420.6 398.9,420.6 397.9,425.6 395,429.5 392,431.4 387.2,432.4 391.9,433.4 394.9,435.4 
			397.9,439.3 398.9,444.3 387.1,444.3 		"/>
		<polygon class="st0" points="387.1,420.6 398.9,420.6 397.9,425.6 395,429.5 392,431.4 387.2,432.4 391.9,433.4 394.9,435.4 
			397.9,439.3 398.9,444.3 387.1,444.3 		"/>
		<polygon class="st1" points="387.1,248.8 398.9,248.8 397.9,253.7 395,257.6 392,259.6 387.2,260.6 391.9,261.6 394.9,263.5 
			397.9,267.5 398.9,272.4 387.1,272.5 		"/>
		<polygon class="st0" points="387.1,248.8 398.9,248.8 397.9,253.7 395,257.6 392,259.6 387.2,260.6 391.9,261.6 394.9,263.5 
			397.9,267.5 398.9,272.4 387.1,272.5 		"/>
		<polygon class="st1" points="387.1,139.4 398.9,139.4 397.9,144.4 395,148.3 392,150.3 387.2,151.2 391.9,152.2 394.9,154.2 
			397.9,158.2 398.9,163.1 387.1,163.1 		"/>
		<polygon class="st0" points="387.1,139.4 398.9,139.4 397.9,144.4 395,148.3 392,150.3 387.2,151.2 391.9,152.2 394.9,154.2 
			397.9,158.2 398.9,163.1 387.1,163.1 		"/>
		<polygon class="st5" points="242.7,71.9 242.7,60.1 247.7,61.1 251.6,64 253.5,67 254.5,71.7 255.5,67 257.5,64 261.4,61.1 
			266.4,60.1 266.4,71.9 		"/>
		<polygon class="st0" points="242.7,71.9 242.7,60.1 247.7,61.1 251.6,64 253.5,67 254.5,71.7 255.5,67 257.5,64 261.4,61.1 
			266.4,60.1 266.4,71.9 		"/>
		<polygon class="st5" points="156.3,71.9 156.3,60.1 161.2,61.1 165.1,64 167.1,67 168.1,71.7 169.1,67 171,64 175,61.1 
			179.9,60.1 180,71.9 		"/>
		<polygon class="st0" points="156.3,71.9 156.3,60.1 161.2,61.1 165.1,64 167.1,67 168.1,71.7 169.1,67 171,64 175,61.1 
			179.9,60.1 180,71.9 		"/>
		<polygon class="st0" points="35.5,163.1 23.7,163.1 24.7,158.2 27.6,154.3 30.6,152.3 35.4,151.3 30.6,150.4 27.6,148.4 
			24.7,144.4 23.7,139.5 35.5,139.5 		"/>
		<polygon class="st0" points="35.5,272.4 23.7,272.4 24.7,267.5 27.6,263.6 30.6,261.6 35.4,260.6 30.6,259.6 27.6,257.7 
			24.7,253.7 23.7,248.8 35.5,248.7 		"/>
		<polygon class="st0" points="35.5,444.3 23.7,444.3 24.7,439.3 27.6,435.4 30.6,433.5 35.4,432.5 30.6,431.5 27.6,429.5 
			24.7,425.6 23.7,420.6 35.5,420.6 		"/>
		<polygon class="st1" points="38.4,540.6 54.1,540.6 52.8,547.2 48.9,552.4 45,555 38.6,556.3 44.9,557.6 48.9,560.3 52.8,565.6 
			54.1,572.1 38.4,572.2 		"/>
		<polygon class="st6" points="38.4,540.6 54.1,540.6 52.8,547.2 48.9,552.4 45,555 38.6,556.3 44.9,557.6 48.9,560.3 52.8,565.6 
			54.1,572.1 38.4,572.2 		"/>
		<line class="st4" x1="38.3" y1="540.6" x2="38.4" y2="572.2"/>
		<g>
			<polyline class="st7" points="322.6,612.2 322.6,593.1 326.2,593.1 326.2,612.2 329.8,612.2 329.8,593.1 333.5,593.1 
				333.5,612.2 337.1,612.2 337.1,593.1 340.7,593.1 340.7,611.6 344.3,611.6 344.3,593.1 			"/>
			<line class="st7" x1="344.7" y1="593.3" x2="78.4" y2="592.6"/>
		</g>
	</g>
	<g>
		<line class="st8" x1="39.2" y1="408.4" x2="383.4" y2="408.4"/>
		<line class="st8" x1="39.2" y1="236.7" x2="383.4" y2="236.7"/>
	</g>
</g>
<rect x="75.5" y="549.5" class="st9" width="38.4" height="38.6"/>
<rect x="115" y="549.5" class="st9" width="37.7" height="38.6"/>
<g class="st10">
	<path class="st11" d="M174.5,676.7v-3l1,0c0,1,0.3,1.7,0.9,2.2c0.5,0.5,1.4,0.7,2.5,0.7c1,0,1.8-0.2,2.4-0.6c0.5-0.4,0.8-1,0.8-1.8
		c0-0.6-0.2-1.1-0.5-1.5s-1-0.7-2.1-1l-1.7-0.5c-1.3-0.4-2.1-0.9-2.6-1.4c-0.5-0.6-0.8-1.3-0.8-2.3c0-1.1,0.4-2,1.2-2.6
		s1.9-0.9,3.3-0.9c0.6,0,1.3,0.1,2,0.2s1.5,0.3,2.3,0.6v2.8h-1c-0.1-0.9-0.4-1.6-0.9-2c-0.5-0.4-1.3-0.6-2.4-0.6
		c-0.9,0-1.6,0.2-2.1,0.6c-0.5,0.4-0.7,0.9-0.7,1.6c0,0.6,0.2,1.1,0.5,1.5s1.1,0.7,2.3,1.1l1.6,0.5c1.2,0.4,2,0.8,2.5,1.4
		s0.8,1.3,0.8,2.2c0,1.3-0.4,2.2-1.2,2.9s-2,1-3.6,1c-0.7,0-1.5-0.1-2.2-0.2C176.1,677.2,175.3,677,174.5,676.7z"/>
	<path class="st11" d="M186.6,669h-1.4V668h1.4v-2.9h1.6v2.9h3v0.9h-3v5.9c0,0.8,0.1,1.3,0.2,1.5s0.4,0.3,0.8,0.3
		c0.4,0,0.7-0.1,0.9-0.4s0.3-0.7,0.3-1.2h1.2c0,0.8-0.3,1.5-0.7,1.9s-1,0.6-1.9,0.6c-0.9,0-1.6-0.2-2-0.6s-0.6-1.1-0.6-2.1V669z"/>
	<path class="st11" d="M200.2,671.5v4.9h1.4v0.9h-3.1v-1c-0.4,0.4-0.8,0.8-1.2,1s-1,0.3-1.6,0.3c-1,0-1.9-0.3-2.5-0.8
		s-0.9-1.3-0.9-2.2c0-1,0.3-1.7,1-2.2s1.7-0.8,3-0.8h2.3v-0.6c0-0.7-0.2-1.3-0.6-1.6c-0.4-0.4-1-0.6-1.8-0.6c-0.6,0-1.2,0.1-1.5,0.4
		s-0.6,0.7-0.7,1.3H193v-1.9c0.6-0.2,1.1-0.4,1.6-0.5s1-0.2,1.6-0.2c1.3,0,2.3,0.3,3,1C199.8,669.4,200.2,670.3,200.2,671.5z
		 M198.6,674.4v-2h-2.1c-0.8,0-1.4,0.2-1.8,0.5s-0.6,0.9-0.6,1.6c0,0.7,0.2,1.2,0.6,1.5s0.9,0.6,1.6,0.6c0.7,0,1.2-0.2,1.6-0.6
		C198.4,675.6,198.6,675.1,198.6,674.4z"/>
	<path class="st11" d="M211.1,669v8.2c0,1.3-0.4,2.4-1.1,3.1s-1.8,1.1-3.2,1.1c-0.6,0-1.2-0.1-1.8-0.2s-1.1-0.3-1.6-0.5v-2h0.8
		c0.1,0.6,0.4,1.1,0.7,1.3s1,0.4,1.7,0.4c0.9,0,1.6-0.3,2.1-0.8c0.4-0.5,0.7-1.4,0.7-2.5v-1.3c-0.3,0.6-0.7,1-1.2,1.3
		c-0.5,0.3-1.1,0.4-1.8,0.4c-1.1,0-2.1-0.5-2.8-1.4c-0.7-0.9-1.1-2.1-1.1-3.6s0.4-2.7,1.1-3.6s1.7-1.4,2.8-1.4
		c0.7,0,1.3,0.1,1.8,0.4c0.5,0.3,0.9,0.7,1.2,1.3V668h3.2v0.9H211.1z M209.4,672.2c0-1.1-0.2-2-0.6-2.6c-0.4-0.6-1.1-0.9-1.9-0.9
		c-0.8,0-1.5,0.3-1.9,1c-0.4,0.7-0.6,1.6-0.6,2.9c0,1.3,0.2,2.3,0.6,2.9c0.4,0.7,1.1,1,1.9,1c0.8,0,1.4-0.3,1.9-0.9
		c0.4-0.6,0.6-1.4,0.6-2.6V672.2z"/>
	<path class="st11" d="M222.4,672.9h-7v0.1c0,1.3,0.2,2.2,0.7,2.9s1.2,1,2.1,1c0.7,0,1.3-0.2,1.7-0.6c0.5-0.4,0.8-0.9,1-1.7h1.3
		c-0.3,1-0.7,1.8-1.4,2.3c-0.7,0.5-1.6,0.8-2.7,0.8c-1.4,0-2.5-0.5-3.3-1.3c-0.8-0.9-1.2-2.1-1.2-3.6c0-1.5,0.4-2.7,1.2-3.6
		s1.9-1.4,3.2-1.4c1.4,0,2.5,0.4,3.3,1.3S222.3,671.2,222.4,672.9z M220.5,671.9c0-1.1-0.3-1.9-0.7-2.5s-1-0.8-1.8-0.8
		c-0.7,0-1.3,0.3-1.8,0.8s-0.7,1.4-0.8,2.5H220.5z"/>
</g>
<g class="st10">
	<path class="st11" d="M412.1,506.7V506h1.3v-8.8h-1.3v-0.7h4v0.7h-1.3v3.5h5.3v-3.5h-1.3v-0.7h4v0.7h-1.3v8.8h1.3v0.7h-4V506h1.3
		v-4.4h-5.3v4.4h1.3v0.7H412.1z"/>
	<path class="st11" d="M430.7,503.2h-5.4v0.1c0,1,0.2,1.7,0.6,2.2s0.9,0.7,1.6,0.7c0.6,0,1-0.1,1.4-0.4c0.4-0.3,0.6-0.7,0.7-1.3h1
		c-0.2,0.8-0.6,1.4-1.1,1.8c-0.5,0.4-1.2,0.6-2.1,0.6c-1.1,0-1.9-0.3-2.6-1c-0.6-0.7-1-1.6-1-2.8c0-1.1,0.3-2.1,1-2.8
		c0.6-0.7,1.5-1.1,2.5-1.1c1.1,0,1.9,0.3,2.5,1S430.7,501.9,430.7,503.2z M429.2,502.5c0-0.8-0.2-1.5-0.5-1.9
		c-0.3-0.4-0.8-0.6-1.4-0.6c-0.6,0-1,0.2-1.4,0.6c-0.3,0.4-0.5,1.1-0.6,1.9H429.2z"/>
	<path class="st11" d="M437.7,499.5v1.8H437c0-0.4-0.1-0.6-0.3-0.8s-0.4-0.3-0.8-0.3c-0.6,0-1.1,0.2-1.4,0.6c-0.3,0.4-0.5,1-0.5,1.8
		v3.3h1.5v0.7h-3.8V506h1.1v-5.8h-1.2v-0.7h2.5v1.3c0.2-0.5,0.6-0.9,1-1.1c0.4-0.2,0.9-0.4,1.4-0.4c0.2,0,0.4,0,0.6,0
		C437.2,499.4,437.4,499.4,437.7,499.5z"/>
	<path class="st11" d="M440.2,506h1.2v0.7h-3.7V506h1.2v-5.8h-1.2v-0.7h2.5V506z M438.6,497.2c0-0.2,0.1-0.4,0.2-0.5
		c0.2-0.2,0.3-0.2,0.5-0.2c0.2,0,0.4,0.1,0.5,0.2c0.2,0.2,0.2,0.3,0.2,0.5c0,0.2-0.1,0.4-0.2,0.5s-0.3,0.2-0.5,0.2s-0.4-0.1-0.5-0.2
		C438.7,497.6,438.6,497.4,438.6,497.2z"/>
	<path class="st11" d="M442.9,500.2h-1.1v-0.7h1.1v-2.3h1.3v2.3h2.4v0.7h-2.4v4.6c0,0.6,0.1,1,0.2,1.2c0.1,0.2,0.3,0.3,0.7,0.3
		c0.3,0,0.6-0.1,0.7-0.3c0.2-0.2,0.2-0.5,0.2-0.9h1c0,0.7-0.2,1.1-0.5,1.4c-0.3,0.3-0.8,0.5-1.5,0.5c-0.7,0-1.2-0.2-1.5-0.5
		s-0.5-0.9-0.5-1.6V500.2z"/>
	<path class="st11" d="M453.4,502.2v3.8h1.1v0.7h-2.4V506c-0.3,0.3-0.6,0.6-1,0.7c-0.4,0.2-0.8,0.2-1.3,0.2c-0.8,0-1.4-0.2-1.9-0.6
		c-0.5-0.4-0.7-1-0.7-1.7c0-0.8,0.3-1.3,0.8-1.8c0.5-0.4,1.3-0.6,2.3-0.6h1.8v-0.5c0-0.6-0.2-1-0.5-1.3c-0.3-0.3-0.8-0.5-1.4-0.5
		c-0.5,0-0.9,0.1-1.2,0.3c-0.3,0.2-0.5,0.6-0.6,1h-0.6v-1.5c0.4-0.2,0.9-0.3,1.3-0.4c0.4-0.1,0.8-0.1,1.2-0.1c1,0,1.8,0.2,2.3,0.7
		C453.1,500.5,453.4,501.2,453.4,502.2z M452.1,504.5v-1.5h-1.6c-0.6,0-1.1,0.1-1.4,0.4c-0.3,0.3-0.5,0.7-0.5,1.2
		c0,0.5,0.2,0.9,0.5,1.2c0.3,0.3,0.7,0.4,1.3,0.4c0.5,0,0.9-0.2,1.3-0.5C452,505.4,452.1,505,452.1,504.5z"/>
	<path class="st11" d="M461.9,500.2v6.4c0,1-0.3,1.8-0.9,2.4s-1.4,0.9-2.5,0.9c-0.5,0-0.9,0-1.4-0.1c-0.4-0.1-0.9-0.2-1.3-0.4v-1.5
		h0.7c0.1,0.5,0.3,0.8,0.6,1s0.7,0.3,1.3,0.3c0.7,0,1.3-0.2,1.6-0.6c0.3-0.4,0.5-1.1,0.5-2v-1c-0.2,0.5-0.6,0.8-0.9,1
		c-0.4,0.2-0.9,0.3-1.4,0.3c-0.9,0-1.6-0.4-2.2-1.1c-0.6-0.7-0.9-1.6-0.9-2.8c0-1.1,0.3-2.1,0.8-2.8c0.6-0.7,1.3-1.1,2.2-1.1
		c0.6,0,1,0.1,1.4,0.3c0.4,0.2,0.7,0.6,0.9,1v-1.1h2.5v0.7H461.9z M460.6,502.7c0-0.9-0.2-1.5-0.5-2c-0.3-0.5-0.8-0.7-1.5-0.7
		c-0.6,0-1.1,0.3-1.5,0.8c-0.3,0.5-0.5,1.3-0.5,2.3c0,1,0.2,1.8,0.5,2.3c0.3,0.5,0.8,0.8,1.5,0.8c0.6,0,1.1-0.2,1.5-0.7
		c0.3-0.5,0.5-1.1,0.5-2V502.7z"/>
	<path class="st11" d="M470.7,503.2h-5.4v0.1c0,1,0.2,1.7,0.6,2.2s0.9,0.7,1.6,0.7c0.6,0,1-0.1,1.4-0.4c0.4-0.3,0.6-0.7,0.7-1.3h1
		c-0.2,0.8-0.6,1.4-1.1,1.8c-0.5,0.4-1.2,0.6-2.1,0.6c-1.1,0-1.9-0.3-2.6-1c-0.6-0.7-1-1.6-1-2.8c0-1.1,0.3-2.1,1-2.8
		c0.6-0.7,1.5-1.1,2.5-1.1c1.1,0,1.9,0.3,2.5,1S470.6,501.9,470.7,503.2z M469.2,502.5c0-0.8-0.2-1.5-0.5-1.9
		c-0.3-0.4-0.8-0.6-1.4-0.6c-0.6,0-1,0.2-1.4,0.6c-0.3,0.4-0.5,1.1-0.6,1.9H469.2z"/>
	<path class="st11" d="M436.9,520h1.3v0.7h-4V520h1.3v-8.8h-1.3v-0.7h4v0.7h-1.3V520z"/>
	<path class="st11" d="M442,520h1.3v0.7h-4V520h1.3v-8.8h-1.3v-0.7h4v0.7H442V520z"/>
	<path class="st11" d="M447.2,520h1.3v0.7h-4V520h1.3v-8.8h-1.3v-0.7h4v0.7h-1.3V520z"/>
</g>
<g class="st10">
	<path class="st11" d="M330.1,492.6l0-0.4l0.7,0l0-5l-0.7,0l0-0.4l4.8,0l0,1.3l-0.5,0l0-0.8l-2.8,0l0,2l2,0l0-0.7l0.5,0l0,1.9
		l-0.5,0l0-0.7l-2,0l0,2.5l0.9,0l0,0.4L330.1,492.6z"/>
	<path class="st11" d="M336.9,492.7c-0.6,0-1.1-0.2-1.5-0.6s-0.6-0.9-0.6-1.6c0-0.7,0.2-1.2,0.5-1.6c0.4-0.4,0.9-0.6,1.5-0.6
		s1.1,0.2,1.5,0.6s0.5,0.9,0.6,1.6c0,0.7-0.2,1.2-0.5,1.6S337.5,492.7,336.9,492.7z M336.9,492.3c0.4,0,0.7-0.2,0.9-0.5
		c0.2-0.3,0.3-0.8,0.3-1.3c0-0.6-0.1-1-0.3-1.3c-0.2-0.3-0.5-0.5-0.9-0.5c-0.4,0-0.7,0.2-0.9,0.5c-0.2,0.3-0.3,0.8-0.3,1.3
		c0,0.6,0.1,1,0.3,1.3C336.2,492.2,336.5,492.3,336.9,492.3z"/>
	<path class="st11" d="M341.5,492.7c-0.6,0-1.1-0.2-1.5-0.6s-0.6-0.9-0.6-1.6c0-0.7,0.2-1.2,0.5-1.6c0.4-0.4,0.9-0.6,1.5-0.6
		s1.1,0.2,1.5,0.6c0.4,0.4,0.5,0.9,0.6,1.6c0,0.7-0.2,1.2-0.5,1.6C342.6,492.5,342.1,492.7,341.5,492.7z M341.5,492.3
		c0.4,0,0.7-0.2,0.9-0.5c0.2-0.3,0.3-0.8,0.3-1.3s-0.1-1-0.3-1.3c-0.2-0.3-0.5-0.5-0.9-0.5s-0.7,0.2-0.9,0.5
		c-0.2,0.3-0.3,0.8-0.3,1.3s0.1,1,0.3,1.3C340.8,492.2,341.1,492.3,341.5,492.3z"/>
	<path class="st11" d="M347.9,492.2l0.7,0l0,0.4l-1.4,0l0-0.6c-0.1,0.3-0.3,0.5-0.5,0.6c-0.2,0.1-0.5,0.2-0.8,0.2
		c-0.5,0-0.9-0.2-1.3-0.6s-0.5-0.9-0.5-1.6c0-0.7,0.2-1.2,0.5-1.6s0.7-0.6,1.3-0.6c0.3,0,0.6,0.1,0.8,0.2c0.2,0.1,0.4,0.3,0.5,0.6
		l0-2.2l-0.7,0l0-0.4l1.4,0L347.9,492.2z M347.2,490.7l0-0.4c0-0.5-0.1-0.9-0.3-1.1c-0.2-0.3-0.5-0.4-0.8-0.4
		c-0.4,0-0.6,0.1-0.8,0.4c-0.2,0.3-0.3,0.7-0.3,1.3c0,0.6,0.1,1,0.3,1.3c0.2,0.3,0.5,0.4,0.8,0.4c0.4,0,0.6-0.1,0.8-0.4
		C347.1,491.6,347.2,491.2,347.2,490.7z"/>
	<path class="st11" d="M357.6,492.6l-1.6,0l-0.5-0.6c-0.3,0.2-0.6,0.4-0.9,0.5s-0.6,0.2-1,0.2c-0.7,0-1.2-0.2-1.6-0.5
		c-0.4-0.3-0.6-0.8-0.6-1.4c0-0.3,0.1-0.7,0.3-1c0.2-0.3,0.5-0.6,0.9-0.8c-0.1-0.2-0.2-0.3-0.3-0.5c-0.1-0.2-0.1-0.3-0.1-0.5
		c0-0.4,0.1-0.7,0.4-1c0.3-0.2,0.7-0.4,1.2-0.4c0.2,0,0.4,0,0.6,0.1s0.5,0.1,0.8,0.2l0,1l-0.4,0c0-0.3-0.1-0.5-0.3-0.6
		c-0.2-0.1-0.4-0.2-0.7-0.2c-0.3,0-0.5,0.1-0.7,0.2c-0.2,0.1-0.2,0.3-0.2,0.6c0,0.2,0,0.3,0.1,0.5s0.3,0.4,0.6,0.7l2,2.1
		c0.2-0.2,0.3-0.4,0.4-0.7c0.1-0.2,0.2-0.5,0.2-0.8l-0.7,0v-0.4l1.8,0v0.4l-0.7,0c0,0.3-0.1,0.7-0.3,0.9c-0.1,0.3-0.3,0.6-0.5,0.8
		l0.7,0.7l0.9,0L357.6,492.6z M355.2,491.7l-2.3-2.4c-0.2,0.2-0.4,0.4-0.5,0.7c-0.1,0.2-0.2,0.5-0.2,0.8c0,0.4,0.2,0.8,0.5,1.1
		c0.3,0.3,0.7,0.4,1.1,0.4c0.3,0,0.5,0,0.8-0.1C354.8,492,355,491.8,355.2,491.7z"/>
	<path class="st11" d="M325.9,500.6l0-0.4l0.7,0l0-5l-0.7,0l0-0.4l2.9,0c0.6,0,1,0.1,1.3,0.4s0.4,0.6,0.4,1.1c0,0.3-0.1,0.6-0.3,0.8
		s-0.5,0.3-0.9,0.4c0.5,0.1,0.9,0.2,1.1,0.5c0.3,0.3,0.4,0.6,0.4,1c0,0.6-0.2,1-0.5,1.3c-0.4,0.3-0.9,0.4-1.7,0.4L325.9,500.6z
		 M327.5,497.2l1,0c0.4,0,0.7-0.1,0.9-0.2c0.2-0.2,0.3-0.4,0.3-0.8c0-0.4-0.1-0.6-0.3-0.8c-0.2-0.2-0.5-0.2-0.9-0.2l-1,0
		L327.5,497.2z M327.5,500.2l1.2,0c0.5,0,0.8-0.1,1-0.3c0.2-0.2,0.3-0.5,0.3-1c0-0.4-0.1-0.8-0.3-1c-0.2-0.2-0.6-0.3-1-0.3l-1.2,0
		L327.5,500.2z"/>
	<path class="st11" d="M335.5,498.6l-3.1,0v0c0,0.6,0.1,1,0.3,1.3c0.2,0.3,0.5,0.4,0.9,0.4c0.3,0,0.6-0.1,0.8-0.2
		c0.2-0.2,0.3-0.4,0.4-0.7l0.6,0c-0.1,0.5-0.3,0.8-0.6,1c-0.3,0.2-0.7,0.3-1.2,0.3c-0.6,0-1.1-0.2-1.5-0.6c-0.4-0.4-0.6-0.9-0.6-1.6
		c0-0.7,0.2-1.2,0.5-1.6s0.8-0.6,1.4-0.6c0.6,0,1.1,0.2,1.4,0.6C335.3,497.3,335.5,497.9,335.5,498.6z M334.6,498.2
		c0-0.5-0.1-0.8-0.3-1.1c-0.2-0.2-0.5-0.4-0.8-0.4c-0.3,0-0.6,0.1-0.8,0.4c-0.2,0.2-0.3,0.6-0.3,1.1L334.6,498.2z"/>
	<path class="st11" d="M337.6,500.6l-1.5-3.7l-0.5,0l0-0.4l1.9,0l0,0.4l-0.7,0l1.2,2.9l1.2-2.9l-0.6,0l0-0.4l1.6,0l0,0.4l-0.5,0
		l-1.5,3.7L337.6,500.6z"/>
	<path class="st11" d="M344.3,498.6l-3.1,0v0c0,0.6,0.1,1,0.3,1.3c0.2,0.3,0.5,0.4,0.9,0.4c0.3,0,0.6-0.1,0.8-0.2s0.3-0.4,0.4-0.7
		h0.6c-0.1,0.5-0.3,0.8-0.6,1c-0.3,0.2-0.7,0.3-1.2,0.3c-0.6,0-1.1-0.2-1.5-0.6c-0.4-0.4-0.6-0.9-0.6-1.6c0-0.7,0.2-1.2,0.5-1.6
		s0.8-0.6,1.4-0.6c0.6,0,1.1,0.2,1.4,0.6C344.1,497.3,344.2,497.8,344.3,498.6z M343.4,498.2c0-0.5-0.1-0.8-0.3-1.1
		c-0.2-0.2-0.5-0.4-0.8-0.4c-0.3,0-0.6,0.1-0.8,0.4c-0.2,0.2-0.3,0.6-0.3,1.1L343.4,498.2z"/>
	<path class="st11" d="M348.2,496.4l0,1l-0.4,0c0-0.2-0.1-0.4-0.2-0.5s-0.2-0.2-0.4-0.2c-0.4,0-0.6,0.1-0.8,0.4
		c-0.2,0.2-0.3,0.6-0.3,1.1l0,1.9l0.8,0l0,0.4l-2.2,0l0-0.4l0.6,0l0-3.3l-0.7,0l0-0.4l1.4,0l0,0.7c0.1-0.3,0.3-0.5,0.5-0.6
		c0.2-0.1,0.5-0.2,0.8-0.2c0.1,0,0.2,0,0.4,0C348,496.4,348.1,496.4,348.2,496.4z"/>
	<path class="st11" d="M351.9,498l0,2.2l0.6,0l0,0.4l-1.4,0l0-0.4c-0.2,0.2-0.3,0.3-0.5,0.4s-0.5,0.1-0.7,0.1
		c-0.5,0-0.8-0.1-1.1-0.4c-0.3-0.2-0.4-0.6-0.4-1c0-0.4,0.2-0.8,0.5-1c0.3-0.2,0.7-0.4,1.3-0.4l1,0l0-0.3c0-0.3-0.1-0.6-0.3-0.7
		c-0.2-0.2-0.5-0.3-0.8-0.3c-0.3,0-0.5,0.1-0.7,0.2s-0.3,0.3-0.3,0.6h-0.4l0-0.8c0.2-0.1,0.5-0.2,0.7-0.2s0.5-0.1,0.7-0.1
		c0.6,0,1,0.1,1.3,0.4C351.8,497,351.9,497.4,351.9,498z M351.2,499.3l0-0.9l-0.9,0c-0.4,0-0.6,0.1-0.8,0.2s-0.3,0.4-0.3,0.7
		c0,0.3,0.1,0.5,0.3,0.7s0.4,0.3,0.7,0.3c0.3,0,0.5-0.1,0.7-0.3C351.1,499.8,351.2,499.6,351.2,499.3z"/>
	<path class="st11" d="M356.7,496.8l0,3.6c0,0.6-0.2,1.1-0.5,1.4c-0.3,0.3-0.8,0.5-1.4,0.5c-0.3,0-0.5,0-0.8-0.1
		c-0.2,0-0.5-0.1-0.7-0.2l0-0.9l0.4,0c0,0.3,0.2,0.5,0.3,0.6c0.2,0.1,0.4,0.2,0.8,0.2c0.4,0,0.7-0.1,0.9-0.4
		c0.2-0.2,0.3-0.6,0.3-1.1l0-0.6c-0.1,0.3-0.3,0.5-0.5,0.6s-0.5,0.2-0.8,0.2c-0.5,0-0.9-0.2-1.3-0.6s-0.5-0.9-0.5-1.6
		c0-0.7,0.2-1.2,0.5-1.6s0.7-0.6,1.3-0.6c0.3,0,0.6,0.1,0.8,0.2c0.2,0.1,0.4,0.3,0.5,0.6l0-0.6l1.4,0l0,0.4L356.7,496.8z M356,498.3
		c0-0.5-0.1-0.9-0.3-1.1c-0.2-0.3-0.5-0.4-0.8-0.4c-0.4,0-0.6,0.1-0.8,0.4c-0.2,0.3-0.3,0.7-0.3,1.3c0,0.6,0.1,1,0.3,1.3
		c0.2,0.3,0.5,0.4,0.8,0.4c0.4,0,0.6-0.1,0.8-0.4c0.2-0.3,0.3-0.6,0.3-1.1L356,498.3z"/>
	<path class="st11" d="M361.8,498.6l-3.1,0v0c0,0.6,0.1,1,0.3,1.3c0.2,0.3,0.5,0.4,0.9,0.4c0.3,0,0.6-0.1,0.8-0.2
		c0.2-0.2,0.3-0.4,0.4-0.7l0.6,0c-0.1,0.5-0.3,0.8-0.6,1c-0.3,0.2-0.7,0.3-1.2,0.3c-0.6,0-1.1-0.2-1.5-0.6c-0.4-0.4-0.6-0.9-0.6-1.6
		c0-0.7,0.2-1.2,0.5-1.6s0.8-0.6,1.4-0.6c0.6,0,1.1,0.2,1.4,0.6C361.6,497.3,361.8,497.8,361.8,498.6z M360.9,498.1
		c0-0.5-0.1-0.8-0.3-1.1c-0.2-0.2-0.5-0.4-0.8-0.4c-0.3,0-0.6,0.1-0.8,0.4c-0.2,0.2-0.3,0.6-0.3,1.1L360.9,498.1z"/>
</g>
<g class="st10">
	<path class="st11" d="M412.1,331.4v-0.7h1.3V322h-1.3v-0.7h4v0.7h-1.3v3.5h5.3V322h-1.3v-0.7h4v0.7h-1.3v8.8h1.3v0.7h-4v-0.7h1.3
		v-4.4h-5.3v4.4h1.3v0.7H412.1z"/>
	<path class="st11" d="M430.7,327.9h-5.4v0.1c0,1,0.2,1.7,0.6,2.2s0.9,0.7,1.6,0.7c0.6,0,1-0.1,1.4-0.4c0.4-0.3,0.6-0.7,0.7-1.3h1
		c-0.2,0.8-0.6,1.4-1.1,1.8c-0.5,0.4-1.2,0.6-2.1,0.6c-1.1,0-1.9-0.3-2.6-1c-0.6-0.7-1-1.6-1-2.8c0-1.1,0.3-2.1,1-2.8
		s1.5-1.1,2.5-1.1c1.1,0,1.9,0.3,2.5,1S430.7,326.6,430.7,327.9z M429.2,327.2c0-0.8-0.2-1.5-0.5-1.9c-0.3-0.4-0.8-0.6-1.4-0.6
		c-0.6,0-1,0.2-1.4,0.6s-0.5,1.1-0.6,1.9H429.2z"/>
	<path class="st11" d="M437.7,324.1v1.8H437c0-0.4-0.1-0.6-0.3-0.8s-0.4-0.3-0.8-0.3c-0.6,0-1.1,0.2-1.4,0.6c-0.3,0.4-0.5,1-0.5,1.8
		v3.3h1.5v0.7h-3.8v-0.7h1.1v-5.8h-1.2v-0.7h2.5v1.3c0.2-0.5,0.6-0.9,1-1.1s0.9-0.4,1.4-0.4c0.2,0,0.4,0,0.6,0
		C437.2,324,437.4,324.1,437.7,324.1z"/>
	<path class="st11" d="M440.2,330.7h1.2v0.7h-3.7v-0.7h1.2v-5.8h-1.2v-0.7h2.5V330.7z M438.6,321.9c0-0.2,0.1-0.4,0.2-0.5
		c0.2-0.2,0.3-0.2,0.5-0.2c0.2,0,0.4,0.1,0.5,0.2c0.2,0.2,0.2,0.3,0.2,0.5c0,0.2-0.1,0.4-0.2,0.5s-0.3,0.2-0.5,0.2s-0.4-0.1-0.5-0.2
		C438.7,322.3,438.6,322.1,438.6,321.9z"/>
	<path class="st11" d="M442.9,324.9h-1.1v-0.7h1.1v-2.3h1.3v2.3h2.4v0.7h-2.4v4.6c0,0.6,0.1,1,0.2,1.2s0.3,0.3,0.7,0.3
		c0.3,0,0.6-0.1,0.7-0.3s0.2-0.5,0.2-0.9h1c0,0.7-0.2,1.1-0.5,1.4s-0.8,0.5-1.5,0.5c-0.7,0-1.2-0.2-1.5-0.5s-0.5-0.9-0.5-1.6V324.9z
		"/>
	<path class="st11" d="M453.4,326.9v3.8h1.1v0.7h-2.4v-0.8c-0.3,0.3-0.6,0.6-1,0.7s-0.8,0.2-1.3,0.2c-0.8,0-1.4-0.2-1.9-0.6
		s-0.7-1-0.7-1.7c0-0.8,0.3-1.3,0.8-1.8s1.3-0.6,2.3-0.6h1.8v-0.5c0-0.6-0.2-1-0.5-1.3c-0.3-0.3-0.8-0.5-1.4-0.5
		c-0.5,0-0.9,0.1-1.2,0.3s-0.5,0.6-0.6,1h-0.6v-1.5c0.4-0.2,0.9-0.3,1.3-0.4c0.4-0.1,0.8-0.1,1.2-0.1c1,0,1.8,0.2,2.3,0.7
		C453.1,325.2,453.4,325.9,453.4,326.9z M452.1,329.1v-1.5h-1.6c-0.6,0-1.1,0.1-1.4,0.4s-0.5,0.7-0.5,1.2c0,0.5,0.2,0.9,0.5,1.2
		s0.7,0.4,1.3,0.4c0.5,0,0.9-0.2,1.3-0.5C452,330.1,452.1,329.7,452.1,329.1z"/>
	<path class="st11" d="M461.9,324.9v6.4c0,1-0.3,1.8-0.9,2.4s-1.4,0.9-2.5,0.9c-0.5,0-0.9,0-1.4-0.1s-0.9-0.2-1.3-0.4v-1.5h0.7
		c0.1,0.5,0.3,0.8,0.6,1s0.7,0.3,1.3,0.3c0.7,0,1.3-0.2,1.6-0.6c0.3-0.4,0.5-1.1,0.5-2v-1c-0.2,0.5-0.6,0.8-0.9,1
		c-0.4,0.2-0.9,0.3-1.4,0.3c-0.9,0-1.6-0.4-2.2-1.1c-0.6-0.7-0.9-1.6-0.9-2.8s0.3-2.1,0.8-2.8s1.3-1.1,2.2-1.1c0.6,0,1,0.1,1.4,0.3
		c0.4,0.2,0.7,0.6,0.9,1v-1.1h2.5v0.7H461.9z M460.6,327.4c0-0.9-0.2-1.5-0.5-2c-0.3-0.5-0.8-0.7-1.5-0.7c-0.6,0-1.1,0.3-1.5,0.8
		c-0.3,0.5-0.5,1.3-0.5,2.3c0,1,0.2,1.8,0.5,2.3c0.3,0.5,0.8,0.8,1.5,0.8c0.6,0,1.1-0.2,1.5-0.7c0.3-0.5,0.5-1.1,0.5-2V327.4z"/>
	<path class="st11" d="M470.7,327.9h-5.4v0.1c0,1,0.2,1.7,0.6,2.2s0.9,0.7,1.6,0.7c0.6,0,1-0.1,1.4-0.4c0.4-0.3,0.6-0.7,0.7-1.3h1
		c-0.2,0.8-0.6,1.4-1.1,1.8c-0.5,0.4-1.2,0.6-2.1,0.6c-1.1,0-1.9-0.3-2.6-1c-0.6-0.7-1-1.6-1-2.8c0-1.1,0.3-2.1,1-2.8
		s1.5-1.1,2.5-1.1c1.1,0,1.9,0.3,2.5,1S470.6,326.6,470.7,327.9z M469.2,327.2c0-0.8-0.2-1.5-0.5-1.9c-0.3-0.4-0.8-0.6-1.4-0.6
		c-0.6,0-1,0.2-1.4,0.6s-0.5,1.1-0.6,1.9H469.2z"/>
	<path class="st11" d="M439.5,344.7h1.3v0.7h-4v-0.7h1.3V336h-1.3v-0.7h4v0.7h-1.3V344.7z"/>
	<path class="st11" d="M444.6,344.7h1.3v0.7h-4v-0.7h1.3V336h-1.3v-0.7h4v0.7h-1.3V344.7z"/>
</g>
<g class="st10">
	<path class="st11" d="M412.1,155.1v-0.7h1.3v-8.8h-1.3v-0.7h4v0.7h-1.3v3.5h5.3v-3.5h-1.3v-0.7h4v0.7h-1.3v8.8h1.3v0.7h-4v-0.7h1.3
		V150h-5.3v4.4h1.3v0.7H412.1z"/>
	<path class="st11" d="M430.7,151.6h-5.4v0.1c0,1,0.2,1.7,0.6,2.2s0.9,0.7,1.6,0.7c0.6,0,1-0.1,1.4-0.4c0.4-0.3,0.6-0.7,0.7-1.3h1
		c-0.2,0.8-0.6,1.4-1.1,1.8c-0.5,0.4-1.2,0.6-2.1,0.6c-1.1,0-1.9-0.3-2.6-1c-0.6-0.7-1-1.6-1-2.8c0-1.1,0.3-2.1,1-2.8
		s1.5-1.1,2.5-1.1c1.1,0,1.9,0.3,2.5,1S430.7,150.3,430.7,151.6z M429.2,150.9c0-0.8-0.2-1.5-0.5-1.9c-0.3-0.4-0.8-0.6-1.4-0.6
		c-0.6,0-1,0.2-1.4,0.6s-0.5,1.1-0.6,1.9H429.2z"/>
	<path class="st11" d="M437.7,147.8v1.8H437c0-0.4-0.1-0.6-0.3-0.8s-0.4-0.3-0.8-0.3c-0.6,0-1.1,0.2-1.4,0.6c-0.3,0.4-0.5,1-0.5,1.8
		v3.3h1.5v0.7h-3.8v-0.7h1.1v-5.8h-1.2v-0.7h2.5v1.3c0.2-0.5,0.6-0.9,1-1.1s0.9-0.4,1.4-0.4c0.2,0,0.4,0,0.6,0
		C437.2,147.7,437.4,147.8,437.7,147.8z"/>
	<path class="st11" d="M440.2,154.4h1.2v0.7h-3.7v-0.7h1.2v-5.8h-1.2v-0.7h2.5V154.4z M438.6,145.6c0-0.2,0.1-0.4,0.2-0.5
		c0.2-0.2,0.3-0.2,0.5-0.2c0.2,0,0.4,0.1,0.5,0.2c0.2,0.2,0.2,0.3,0.2,0.5c0,0.2-0.1,0.4-0.2,0.5s-0.3,0.2-0.5,0.2s-0.4-0.1-0.5-0.2
		C438.7,146,438.6,145.8,438.6,145.6z"/>
	<path class="st11" d="M442.9,148.6h-1.1v-0.7h1.1v-2.3h1.3v2.3h2.4v0.7h-2.4v4.6c0,0.6,0.1,1,0.2,1.2s0.3,0.3,0.7,0.3
		c0.3,0,0.6-0.1,0.7-0.3s0.2-0.5,0.2-0.9h1c0,0.7-0.2,1.1-0.5,1.4s-0.8,0.5-1.5,0.5c-0.7,0-1.2-0.2-1.5-0.5s-0.5-0.9-0.5-1.6V148.6z
		"/>
	<path class="st11" d="M453.4,150.6v3.8h1.1v0.7h-2.4v-0.8c-0.3,0.3-0.6,0.6-1,0.7s-0.8,0.2-1.3,0.2c-0.8,0-1.4-0.2-1.9-0.6
		s-0.7-1-0.7-1.7c0-0.8,0.3-1.3,0.8-1.8s1.3-0.6,2.3-0.6h1.8v-0.5c0-0.6-0.2-1-0.5-1.3c-0.3-0.3-0.8-0.5-1.4-0.5
		c-0.5,0-0.9,0.1-1.2,0.3s-0.5,0.6-0.6,1h-0.6v-1.5c0.4-0.2,0.9-0.3,1.3-0.4c0.4-0.1,0.8-0.1,1.2-0.1c1,0,1.8,0.2,2.3,0.7
		C453.1,148.9,453.4,149.6,453.4,150.6z M452.1,152.8v-1.5h-1.6c-0.6,0-1.1,0.1-1.4,0.4s-0.5,0.7-0.5,1.2c0,0.5,0.2,0.9,0.5,1.2
		s0.7,0.4,1.3,0.4c0.5,0,0.9-0.2,1.3-0.5C452,153.8,452.1,153.4,452.1,152.8z"/>
	<path class="st11" d="M461.9,148.6v6.4c0,1-0.3,1.8-0.9,2.4s-1.4,0.9-2.5,0.9c-0.5,0-0.9,0-1.4-0.1s-0.9-0.2-1.3-0.4v-1.5h0.7
		c0.1,0.5,0.3,0.8,0.6,1s0.7,0.3,1.3,0.3c0.7,0,1.3-0.2,1.6-0.6c0.3-0.4,0.5-1.1,0.5-2v-1c-0.2,0.5-0.6,0.8-0.9,1
		c-0.4,0.2-0.9,0.3-1.4,0.3c-0.9,0-1.6-0.4-2.2-1.1c-0.6-0.7-0.9-1.6-0.9-2.8s0.3-2.1,0.8-2.8s1.3-1.1,2.2-1.1c0.6,0,1,0.1,1.4,0.3
		c0.4,0.2,0.7,0.6,0.9,1v-1.1h2.5v0.7H461.9z M460.6,151.1c0-0.9-0.2-1.5-0.5-2c-0.3-0.5-0.8-0.7-1.5-0.7c-0.6,0-1.1,0.3-1.5,0.8
		c-0.3,0.5-0.5,1.3-0.5,2.3c0,1,0.2,1.8,0.5,2.3c0.3,0.5,0.8,0.8,1.5,0.8c0.6,0,1.1-0.2,1.5-0.7c0.3-0.5,0.5-1.1,0.5-2V151.1z"/>
	<path class="st11" d="M470.7,151.6h-5.4v0.1c0,1,0.2,1.7,0.6,2.2s0.9,0.7,1.6,0.7c0.6,0,1-0.1,1.4-0.4c0.4-0.3,0.6-0.7,0.7-1.3h1
		c-0.2,0.8-0.6,1.4-1.1,1.8c-0.5,0.4-1.2,0.6-2.1,0.6c-1.1,0-1.9-0.3-2.6-1c-0.6-0.7-1-1.6-1-2.8c0-1.1,0.3-2.1,1-2.8
		s1.5-1.1,2.5-1.1c1.1,0,1.9,0.3,2.5,1S470.6,150.3,470.7,151.6z M469.2,150.9c0-0.8-0.2-1.5-0.5-1.9c-0.3-0.4-0.8-0.6-1.4-0.6
		c-0.6,0-1,0.2-1.4,0.6s-0.5,1.1-0.6,1.9H469.2z"/>
	<path class="st11" d="M442,168.4h1.3v0.7h-4v-0.7h1.3v-8.8h-1.3v-0.7h4v0.7H442V168.4z"/>
</g>
<g class="st10">
	<path class="st11" d="M94.3,573.5h-6v-0.9h2.1V570h-5.7v-1l5.7-8.9h1.7v8.9h2.5v0.9h-2.5v2.6h2.1V573.5z M90.4,569v-7l-4.5,7H90.4z
		"/>
	<path class="st11" d="M103.5,567.6c-0.4,0.4-0.8,0.8-1.4,1s-1.1,0.3-1.7,0.3c-1.3,0-2.3-0.4-3.1-1.2c-0.8-0.8-1.1-1.9-1.1-3.2
		c0-1.3,0.4-2.4,1.2-3.2c0.8-0.8,1.9-1.2,3.3-1.2c1.5,0,2.6,0.6,3.4,1.7c0.8,1.1,1.2,2.7,1.2,4.7c0,2.3-0.5,4.1-1.4,5.3
		s-2.3,1.9-4,1.9c-0.5,0-0.9,0-1.5-0.1s-1-0.2-1.6-0.4V571h1c0.1,0.6,0.3,1,0.7,1.4s0.9,0.5,1.5,0.5c1.1,0,2-0.4,2.5-1.3
		S103.4,569.4,103.5,567.6z M100.6,561c-0.8,0-1.5,0.3-1.9,0.9c-0.4,0.6-0.7,1.5-0.7,2.6s0.2,2,0.7,2.6c0.4,0.6,1.1,0.9,1.9,0.9
		s1.5-0.3,1.9-0.9s0.7-1.4,0.7-2.5c0-1.2-0.2-2.1-0.7-2.7S101.4,561,100.6,561z"/>
</g>
<g class="st10">
	<path class="st11" d="M133,573.5h-6v-0.9h2.1V570h-5.7v-1l5.7-8.9h1.7v8.9h2.5v0.9h-2.5v2.6h2.1V573.5z M129.2,569v-7l-4.5,7H129.2
		z"/>
	<path class="st11" d="M140.9,566.5c1,0.1,1.8,0.5,2.3,1.1s0.8,1.4,0.8,2.3c0,1.2-0.4,2.2-1.2,2.8s-1.9,1-3.3,1
		c-1.4,0-2.6-0.3-3.3-1c-0.8-0.7-1.2-1.6-1.2-2.8c0-0.9,0.3-1.7,0.8-2.3s1.3-1,2.3-1.1c-0.9-0.2-1.6-0.5-2-1s-0.7-1.2-0.7-2
		c0-1.1,0.4-1.9,1.1-2.5s1.7-0.9,3-0.9s2.3,0.3,3,0.9s1.1,1.4,1.1,2.5c0,0.8-0.2,1.5-0.7,2C142.4,566,141.8,566.3,140.9,566.5z
		 M142.2,569.9c0-0.9-0.2-1.7-0.7-2.2c-0.5-0.5-1.1-0.8-2-0.8s-1.5,0.3-2,0.8c-0.5,0.5-0.7,1.2-0.7,2.2c0,0.9,0.2,1.7,0.7,2.2
		c0.5,0.5,1.1,0.8,2,0.8s1.5-0.3,2-0.8C142,571.6,142.2,570.8,142.2,569.9z M141.8,563.5c0-0.8-0.2-1.4-0.6-1.9s-1-0.7-1.7-0.7
		c-0.7,0-1.3,0.2-1.7,0.7s-0.6,1.1-0.6,1.9c0,0.8,0.2,1.4,0.6,1.9s1,0.7,1.7,0.7c0.7,0,1.3-0.2,1.7-0.7S141.8,564.3,141.8,563.5z"/>
</g>
<rect x="153.6" y="549.5" class="st9" width="38.6" height="38.6"/>
<g class="st10">
	<path class="st11" d="M172.1,573.5h-6v-0.9h2.1V570h-5.7v-1l5.7-8.9h1.7v8.9h2.5v0.9H170v2.6h2.1V573.5z M168.3,569v-7l-4.5,7
		H168.3z"/>
	<path class="st11" d="M183.1,561.3l-5.1,12.2h-1.3l4.9-11.7h-6.1v1.6h-1v-3.1h8.6V561.3z"/>
</g>
<rect x="193.1" y="549.5" class="st9" width="36.9" height="38.6"/>
<g class="st10">
	<path class="st11" d="M210.8,573.5h-6v-0.9h2.1V570h-5.7v-1l5.7-8.9h1.7v8.9h2.5v0.9h-2.5v2.6h2.1V573.5z M206.9,569v-7l-4.5,7
		H206.9z"/>
	<path class="st11" d="M214.6,566.3c0.4-0.4,0.8-0.8,1.4-1s1.1-0.3,1.7-0.3c1.3,0,2.3,0.4,3.1,1.2s1.1,1.9,1.1,3.2
		c0,1.3-0.4,2.4-1.2,3.2c-0.8,0.8-1.9,1.2-3.3,1.2c-1.5,0-2.6-0.6-3.4-1.7s-1.2-2.7-1.2-4.7c0-2.3,0.5-4.1,1.4-5.3s2.3-1.9,4-1.9
		c0.5,0,0.9,0,1.5,0.1s1,0.2,1.6,0.4v2.2h-1c-0.1-0.6-0.3-1-0.7-1.4s-0.9-0.5-1.5-0.5c-1.1,0-2,0.4-2.5,1.3S214.6,564.5,214.6,566.3
		z M217.4,572.9c0.8,0,1.5-0.3,1.9-0.9s0.7-1.5,0.7-2.6s-0.2-2-0.7-2.6s-1.1-0.9-1.9-0.9c-0.8,0-1.5,0.3-1.9,0.9s-0.7,1.4-0.7,2.5
		c0,1.2,0.2,2.1,0.7,2.7S216.6,572.9,217.4,572.9z"/>
</g>
<rect x="230.9" y="549.5" class="st9" width="38.5" height="38.6"/>
<g class="st10">
	<path class="st11" d="M248.7,573.5h-6v-0.9h2.1V570h-5.7v-1l5.7-8.9h1.7v8.9h2.5v0.9h-2.5v2.6h2.1V573.5z M244.8,569v-7l-4.5,7
		H244.8z"/>
	<path class="st11" d="M258.5,560.4v1.4h-6v3.8c0.3-0.2,0.7-0.4,1.1-0.5c0.4-0.1,0.9-0.2,1.4-0.2c1.4,0,2.5,0.4,3.4,1.2
		s1.2,1.9,1.2,3.2c0,1.4-0.4,2.5-1.2,3.2c-0.8,0.8-2,1.2-3.5,1.2c-0.6,0-1.2-0.1-1.9-0.2s-1.3-0.4-1.9-0.7v-2.5h1
		c0.1,0.8,0.3,1.5,0.8,1.9c0.5,0.4,1.1,0.7,2,0.7c0.9,0,1.6-0.3,2.1-0.9s0.7-1.5,0.7-2.6c0-1.1-0.2-2-0.7-2.6
		c-0.5-0.6-1.2-0.9-2.1-0.9c-0.5,0-1,0.1-1.4,0.3c-0.4,0.2-0.8,0.5-1.1,0.9h-0.8v-6.6H258.5z"/>
</g>
<rect x="270.5" y="549.5" class="st9" width="38.5" height="38.6"/>
<g class="st10">
	<path class="st11" d="M288.9,573.5h-6v-0.9h2.1V570h-5.7v-1l5.7-8.9h1.7v8.9h2.5v0.9h-2.5v2.6h2.1V573.5z M285.1,569v-7l-4.5,7
		H285.1z"/>
	<path class="st11" d="M299.9,573.5h-6v-0.9h2.1V570h-5.7v-1l5.7-8.9h1.7v8.9h2.5v0.9h-2.5v2.6h2.1V573.5z M296,569v-7l-4.5,7H296z"
		/>
</g>
<rect x="309.9" y="549.5" class="st9" width="37.8" height="38.6"/>
<rect x="366.9" y="459.4" class="st9" width="11.1" height="22.9"/>
<rect x="366.9" y="483.1" class="st9" width="11.1" height="22.9"/>
<rect x="366.9" y="506.9" class="st9" width="11.1" height="22.9"/>
<g class="st10">
	<path class="st11" d="M328,573.5h-6v-0.9h2.1V570h-5.7v-1l5.7-8.9h1.7v8.9h2.5v0.9h-2.5v2.6h2.1V573.5z M324.2,569v-7l-4.5,7H324.2
		z"/>
	<path class="st11" d="M330.6,560.9c0.7-0.3,1.3-0.5,2-0.6c0.6-0.1,1.2-0.2,1.8-0.2c1.3,0,2.3,0.3,3,0.8s1.1,1.3,1.1,2.3
		c0,0.8-0.2,1.5-0.7,2s-1.2,0.9-2.1,1.1c1.1,0.2,1.9,0.5,2.5,1.2c0.6,0.6,0.9,1.4,0.9,2.4c0,1.2-0.4,2.2-1.2,2.8s-2,1-3.6,1
		c-0.7,0-1.4-0.1-2-0.2c-0.7-0.1-1.3-0.4-1.9-0.7v-2.5h1c0.1,0.8,0.3,1.5,0.9,1.9s1.2,0.7,2.2,0.7c0.9,0,1.6-0.3,2.1-0.8
		c0.5-0.5,0.8-1.2,0.8-2.1c0-1-0.3-1.8-0.8-2.3s-1.3-0.8-2.3-0.8h-0.8v-0.9h0.4c1,0,1.8-0.2,2.3-0.6c0.5-0.4,0.8-1.1,0.8-1.9
		c0-0.8-0.2-1.4-0.6-1.8s-1-0.6-1.8-0.6s-1.4,0.2-1.8,0.6s-0.7,0.9-0.8,1.7h-1V560.9z"/>
</g>
<rect x="75.5" y="393.3" class="st9" width="37.7" height="38.6"/>
<rect x="114.3" y="393.3" class="st9" width="38.4" height="38.6"/>
<g class="st10">
	<path class="st11" d="M85.2,406c0.7-0.3,1.3-0.5,2-0.6c0.6-0.1,1.2-0.2,1.8-0.2c1.3,0,2.3,0.3,3,0.8s1.1,1.3,1.1,2.3
		c0,0.8-0.2,1.5-0.7,2s-1.2,0.9-2.1,1.1c1.1,0.2,1.9,0.5,2.5,1.2c0.6,0.6,0.9,1.4,0.9,2.4c0,1.2-0.4,2.2-1.2,2.8s-2,1-3.6,1
		c-0.7,0-1.4-0.1-2-0.2c-0.7-0.1-1.3-0.4-1.9-0.7v-2.5h1c0.1,0.8,0.3,1.5,0.9,1.9s1.2,0.7,2.2,0.7c0.9,0,1.6-0.3,2.1-0.8
		c0.5-0.5,0.8-1.2,0.8-2.1c0-1-0.3-1.8-0.8-2.3s-1.3-0.8-2.3-0.8h-0.8V411h0.4c1,0,1.8-0.2,2.3-0.6c0.5-0.4,0.8-1.1,0.8-1.9
		c0-0.8-0.2-1.4-0.6-1.8s-1-0.6-1.8-0.6s-1.4,0.2-1.8,0.6s-0.7,0.9-0.8,1.7h-1V406z"/>
	<path class="st11" d="M97.4,411.4c0.4-0.4,0.8-0.8,1.4-1s1.1-0.3,1.7-0.3c1.3,0,2.3,0.4,3.1,1.2s1.1,1.9,1.1,3.2
		c0,1.3-0.4,2.4-1.2,3.2c-0.8,0.8-1.9,1.2-3.3,1.2c-1.5,0-2.6-0.6-3.4-1.7s-1.2-2.7-1.2-4.7c0-2.3,0.5-4.1,1.4-5.3s2.3-1.9,4-1.9
		c0.5,0,0.9,0,1.5,0.1s1,0.2,1.6,0.4v2.2h-1c-0.1-0.6-0.3-1-0.7-1.4s-0.9-0.5-1.5-0.5c-1.1,0-2,0.4-2.5,1.3S97.4,409.6,97.4,411.4z
		 M100.3,418c0.8,0,1.5-0.3,1.9-0.9s0.7-1.5,0.7-2.6s-0.2-2-0.7-2.6s-1.1-0.9-1.9-0.9c-0.8,0-1.5,0.3-1.9,0.9s-0.7,1.4-0.7,2.5
		c0,1.2,0.2,2.1,0.7,2.7S99.4,418,100.3,418z"/>
</g>
<g class="st10">
	<path class="st11" d="M124.3,406c0.7-0.3,1.3-0.5,2-0.6c0.6-0.1,1.2-0.2,1.8-0.2c1.3,0,2.3,0.3,3,0.8s1.1,1.3,1.1,2.3
		c0,0.8-0.2,1.5-0.7,2s-1.2,0.9-2.1,1.1c1.1,0.2,1.9,0.5,2.5,1.2c0.6,0.6,0.9,1.4,0.9,2.4c0,1.2-0.4,2.2-1.2,2.8s-2,1-3.6,1
		c-0.7,0-1.4-0.1-2-0.2c-0.7-0.1-1.3-0.4-1.9-0.7v-2.5h1c0.1,0.8,0.3,1.5,0.9,1.9s1.2,0.7,2.2,0.7c0.9,0,1.6-0.3,2.1-0.8
		c0.5-0.5,0.8-1.2,0.8-2.1c0-1-0.3-1.8-0.8-2.3s-1.3-0.8-2.3-0.8h-0.8V411h0.4c1,0,1.8-0.2,2.3-0.6c0.5-0.4,0.8-1.1,0.8-1.9
		c0-0.8-0.2-1.4-0.6-1.8s-1-0.6-1.8-0.6s-1.4,0.2-1.8,0.6s-0.7,0.9-0.8,1.7h-1V406z"/>
	<path class="st11" d="M143.7,406.4l-5.1,12.2h-1.3l4.9-11.7h-6.1v1.6h-1v-3.1h8.6V406.4z"/>
</g>
<rect x="153.8" y="393.3" class="st9" width="38.4" height="38.6"/>
<g class="st10">
	<path class="st11" d="M163.8,406c0.7-0.3,1.3-0.5,2-0.6c0.6-0.1,1.2-0.2,1.8-0.2c1.3,0,2.3,0.3,3,0.8s1.1,1.3,1.1,2.3
		c0,0.8-0.2,1.5-0.7,2s-1.2,0.9-2.1,1.1c1.1,0.2,1.9,0.5,2.5,1.2c0.6,0.6,0.9,1.4,0.9,2.4c0,1.2-0.4,2.2-1.2,2.8s-2,1-3.6,1
		c-0.7,0-1.4-0.1-2-0.2c-0.7-0.1-1.3-0.4-1.9-0.7v-2.5h1c0.1,0.8,0.3,1.5,0.9,1.9s1.2,0.7,2.2,0.7c0.9,0,1.6-0.3,2.1-0.8
		c0.5-0.5,0.8-1.2,0.8-2.1c0-1-0.3-1.8-0.8-2.3s-1.3-0.8-2.3-0.8h-0.8V411h0.4c1,0,1.8-0.2,2.3-0.6c0.5-0.4,0.8-1.1,0.8-1.9
		c0-0.8-0.2-1.4-0.6-1.8s-1-0.6-1.8-0.6s-1.4,0.2-1.8,0.6s-0.7,0.9-0.8,1.7h-1V406z"/>
	<path class="st11" d="M180.1,411.6c1,0.1,1.8,0.5,2.3,1.1s0.8,1.4,0.8,2.3c0,1.2-0.4,2.2-1.2,2.8s-1.9,1-3.3,1
		c-1.4,0-2.6-0.3-3.3-1c-0.8-0.7-1.2-1.6-1.2-2.8c0-0.9,0.3-1.7,0.8-2.3s1.3-1,2.3-1.1c-0.9-0.2-1.6-0.5-2-1s-0.7-1.2-0.7-2
		c0-1.1,0.4-1.9,1.1-2.5s1.7-0.9,3-0.9s2.3,0.3,3,0.9s1.1,1.4,1.1,2.5c0,0.8-0.2,1.5-0.7,2C181.6,411.1,181,411.4,180.1,411.6z
		 M181.4,415c0-0.9-0.2-1.7-0.7-2.2c-0.5-0.5-1.1-0.8-2-0.8s-1.5,0.3-2,0.8c-0.5,0.5-0.7,1.2-0.7,2.2c0,0.9,0.2,1.7,0.7,2.2
		c0.5,0.5,1.1,0.8,2,0.8s1.5-0.3,2-0.8C181.2,416.7,181.4,415.9,181.4,415z M181,408.6c0-0.8-0.2-1.4-0.6-1.9s-1-0.7-1.7-0.7
		c-0.7,0-1.3,0.2-1.7,0.7s-0.6,1.1-0.6,1.9c0,0.8,0.2,1.4,0.6,1.9s1,0.7,1.7,0.7c0.7,0,1.3-0.2,1.7-0.7S181,409.4,181,408.6z"/>
</g>
<rect x="193.1" y="393.3" class="st9" width="36.9" height="38.6"/>
<g class="st10">
	<path class="st11" d="M202.4,406c0.7-0.3,1.3-0.5,2-0.6c0.6-0.1,1.2-0.2,1.8-0.2c1.3,0,2.3,0.3,3,0.8s1.1,1.3,1.1,2.3
		c0,0.8-0.2,1.5-0.7,2s-1.2,0.9-2.1,1.1c1.1,0.2,1.9,0.5,2.5,1.2c0.6,0.6,0.9,1.4,0.9,2.4c0,1.2-0.4,2.2-1.2,2.8s-2,1-3.6,1
		c-0.7,0-1.4-0.1-2-0.2c-0.7-0.1-1.3-0.4-1.9-0.7v-2.5h1c0.1,0.8,0.3,1.5,0.9,1.9s1.2,0.7,2.2,0.7c0.9,0,1.6-0.3,2.1-0.8
		c0.5-0.5,0.8-1.2,0.8-2.1c0-1-0.3-1.8-0.8-2.3s-1.3-0.8-2.3-0.8h-0.8V411h0.4c1,0,1.8-0.2,2.3-0.6c0.5-0.4,0.8-1.1,0.8-1.9
		c0-0.8-0.2-1.4-0.6-1.8s-1-0.6-1.8-0.6s-1.4,0.2-1.8,0.6s-0.7,0.9-0.8,1.7h-1V406z"/>
	<path class="st11" d="M220,412.7c-0.4,0.4-0.8,0.8-1.4,1s-1.1,0.3-1.7,0.3c-1.3,0-2.3-0.4-3.1-1.2c-0.8-0.8-1.1-1.9-1.1-3.2
		c0-1.3,0.4-2.4,1.2-3.2c0.8-0.8,1.9-1.2,3.3-1.2c1.5,0,2.6,0.6,3.4,1.7c0.8,1.1,1.2,2.7,1.2,4.7c0,2.3-0.5,4.1-1.4,5.3
		s-2.3,1.9-4,1.9c-0.5,0-0.9,0-1.5-0.1s-1-0.2-1.6-0.4v-2.2h1c0.1,0.6,0.3,1,0.7,1.4s0.9,0.5,1.5,0.5c1.1,0,2-0.4,2.5-1.3
		S220,414.5,220,412.7z M217.1,406.1c-0.8,0-1.5,0.3-1.9,0.9c-0.4,0.6-0.7,1.5-0.7,2.6s0.2,2,0.7,2.6c0.4,0.6,1.1,0.9,1.9,0.9
		s1.5-0.3,1.9-0.9s0.7-1.4,0.7-2.5c0-1.2-0.2-2.1-0.7-2.7S217.9,406.1,217.1,406.1z"/>
</g>
<rect x="231.1" y="393.3" class="st9" width="38.6" height="38.6"/>
<g class="st10">
	<path class="st11" d="M249.6,418.6h-6v-0.9h2.1v-2.6H240v-1l5.7-8.9h1.7v8.9h2.5v0.9h-2.5v2.6h2.1V418.6z M245.7,414.1v-7l-4.5,7
		H245.7z"/>
	<path class="st11" d="M256.1,418.8c-1.4,0-2.5-0.6-3.3-1.8c-0.8-1.2-1.2-2.9-1.2-5c0-2.2,0.4-3.8,1.2-5c0.8-1.2,1.9-1.8,3.3-1.8
		c1.4,0,2.5,0.6,3.3,1.8s1.2,2.9,1.2,5c0,2.1-0.4,3.8-1.2,5S257.5,418.8,256.1,418.8z M256.1,418c0.9,0,1.6-0.5,2-1.5
		s0.7-2.5,0.7-4.5c0-2-0.2-3.5-0.7-4.5s-1.1-1.5-2-1.5s-1.6,0.5-2,1.5s-0.7,2.5-0.7,4.5c0,2,0.2,3.5,0.7,4.5S255.2,418,256.1,418z"
		/>
</g>
<rect x="270.7" y="393.3" class="st9" width="37.8" height="38.6"/>
<g class="st10">
	<path class="st11" d="M288.8,418.6h-6v-0.9h2.1v-2.6h-5.7v-1l5.7-8.9h1.7v8.9h2.5v0.9h-2.5v2.6h2.1V418.6z M284.9,414.1v-7l-4.5,7
		H284.9z"/>
	<path class="st11" d="M292.1,418.6v-0.9h2.3v-10.9l-2.6,1.7v-1.2l3.2-2.1h1.2v12.4h2.3v0.9H292.1z"/>
</g>
<rect x="309.3" y="393.3" class="st9" width="38.4" height="38.6"/>
<g class="st10">
	<path class="st11" d="M327.8,418.6h-6v-0.9h2.1v-2.6h-5.7v-1l5.7-8.9h1.7v8.9h2.5v0.9h-2.5v2.6h2.1V418.6z M323.9,414.1v-7l-4.5,7
		H323.9z"/>
	<path class="st11" d="M330.8,408.6h-1v-2.3c0.6-0.3,1.3-0.6,1.9-0.8c0.6-0.2,1.3-0.3,1.9-0.3c1.4,0,2.4,0.3,3.2,1s1.2,1.6,1.2,2.7
		c0,1.3-0.9,2.8-2.7,4.6c-0.1,0.1-0.2,0.2-0.3,0.3l-3.3,3.3h5.5v-1.6h1v3.1h-8.5v-1l4-4c0.9-0.9,1.5-1.7,1.9-2.4s0.6-1.5,0.6-2.3
		c0-0.9-0.2-1.6-0.7-2.1c-0.5-0.5-1.1-0.7-1.9-0.7c-0.8,0-1.5,0.2-1.9,0.6S330.9,407.8,330.8,408.6z"/>
</g>
<rect x="75.5" y="353.5" class="st9" width="37.7" height="38.6"/>
<rect x="114.3" y="353.5" class="st9" width="38.4" height="38.6"/>
<g class="st10">
	<path class="st11" d="M85.2,368c0.7-0.3,1.3-0.5,2-0.6c0.6-0.1,1.2-0.2,1.8-0.2c1.3,0,2.3,0.3,3,0.8s1.1,1.3,1.1,2.3
		c0,0.8-0.2,1.5-0.7,2s-1.2,0.9-2.1,1.1c1.1,0.2,1.9,0.5,2.5,1.2c0.6,0.6,0.9,1.4,0.9,2.4c0,1.2-0.4,2.2-1.2,2.8s-2,1-3.6,1
		c-0.7,0-1.4-0.1-2-0.2c-0.7-0.1-1.3-0.4-1.9-0.7v-2.5h1c0.1,0.8,0.3,1.5,0.9,1.9s1.2,0.7,2.2,0.7c0.9,0,1.6-0.3,2.1-0.8
		c0.5-0.5,0.8-1.2,0.8-2.1c0-1-0.3-1.8-0.8-2.3s-1.3-0.8-2.3-0.8h-0.8V373h0.4c1,0,1.8-0.2,2.3-0.6c0.5-0.4,0.8-1.1,0.8-1.9
		c0-0.8-0.2-1.4-0.6-1.8s-1-0.6-1.8-0.6s-1.4,0.2-1.8,0.6s-0.7,0.9-0.8,1.7h-1V368z"/>
	<path class="st11" d="M103.4,367.4v1.4h-6v3.8c0.3-0.2,0.7-0.4,1.1-0.5c0.4-0.1,0.9-0.2,1.4-0.2c1.4,0,2.5,0.4,3.4,1.2
		s1.2,1.9,1.2,3.2c0,1.4-0.4,2.5-1.2,3.2c-0.8,0.8-2,1.2-3.5,1.2c-0.6,0-1.2-0.1-1.9-0.2s-1.3-0.4-1.9-0.7v-2.5h1
		c0.1,0.8,0.3,1.5,0.8,1.9c0.5,0.4,1.1,0.7,2,0.7c0.9,0,1.6-0.3,2.1-0.9s0.7-1.5,0.7-2.6c0-1.1-0.2-2-0.7-2.6
		c-0.5-0.6-1.2-0.9-2.1-0.9c-0.5,0-1,0.1-1.4,0.3c-0.4,0.2-0.8,0.5-1.1,0.9h-0.8v-6.6H103.4z"/>
</g>
<g class="st10">
	<path class="st11" d="M124.3,368c0.7-0.3,1.3-0.5,2-0.6c0.6-0.1,1.2-0.2,1.8-0.2c1.3,0,2.3,0.3,3,0.8s1.1,1.3,1.1,2.3
		c0,0.8-0.2,1.5-0.7,2s-1.2,0.9-2.1,1.1c1.1,0.2,1.9,0.5,2.5,1.2c0.6,0.6,0.9,1.4,0.9,2.4c0,1.2-0.4,2.2-1.2,2.8s-2,1-3.6,1
		c-0.7,0-1.4-0.1-2-0.2c-0.7-0.1-1.3-0.4-1.9-0.7v-2.5h1c0.1,0.8,0.3,1.5,0.9,1.9s1.2,0.7,2.2,0.7c0.9,0,1.6-0.3,2.1-0.8
		c0.5-0.5,0.8-1.2,0.8-2.1c0-1-0.3-1.8-0.8-2.3s-1.3-0.8-2.3-0.8h-0.8V373h0.4c1,0,1.8-0.2,2.3-0.6c0.5-0.4,0.8-1.1,0.8-1.9
		c0-0.8-0.2-1.4-0.6-1.8s-1-0.6-1.8-0.6s-1.4,0.2-1.8,0.6s-0.7,0.9-0.8,1.7h-1V368z"/>
	<path class="st11" d="M143.7,380.5h-6v-0.9h2.1V377h-5.7v-1l5.7-8.9h1.7v8.9h2.5v0.9h-2.5v2.6h2.1V380.5z M139.8,376.1v-7l-4.5,7
		H139.8z"/>
</g>
<rect x="153.8" y="353.5" class="st9" width="38.4" height="38.6"/>
<g class="st10">
	<path class="st11" d="M163.8,368c0.7-0.3,1.3-0.5,2-0.6c0.6-0.1,1.2-0.2,1.8-0.2c1.3,0,2.3,0.3,3,0.8s1.1,1.3,1.1,2.3
		c0,0.8-0.2,1.5-0.7,2s-1.2,0.9-2.1,1.1c1.1,0.2,1.9,0.5,2.5,1.2c0.6,0.6,0.9,1.4,0.9,2.4c0,1.2-0.4,2.2-1.2,2.8s-2,1-3.6,1
		c-0.7,0-1.4-0.1-2-0.2c-0.7-0.1-1.3-0.4-1.9-0.7v-2.5h1c0.1,0.8,0.3,1.5,0.9,1.9s1.2,0.7,2.2,0.7c0.9,0,1.6-0.3,2.1-0.8
		c0.5-0.5,0.8-1.2,0.8-2.1c0-1-0.3-1.8-0.8-2.3s-1.3-0.8-2.3-0.8h-0.8V373h0.4c1,0,1.8-0.2,2.3-0.6c0.5-0.4,0.8-1.1,0.8-1.9
		c0-0.8-0.2-1.4-0.6-1.8s-1-0.6-1.8-0.6s-1.4,0.2-1.8,0.6s-0.7,0.9-0.8,1.7h-1V368z"/>
	<path class="st11" d="M174.8,368c0.7-0.3,1.3-0.5,2-0.6c0.6-0.1,1.2-0.2,1.8-0.2c1.3,0,2.3,0.3,3,0.8s1.1,1.3,1.1,2.3
		c0,0.8-0.2,1.5-0.7,2s-1.2,0.9-2.1,1.1c1.1,0.2,1.9,0.5,2.5,1.2c0.6,0.6,0.9,1.4,0.9,2.4c0,1.2-0.4,2.2-1.2,2.8s-2,1-3.6,1
		c-0.7,0-1.4-0.1-2-0.2c-0.7-0.1-1.3-0.4-1.9-0.7v-2.5h1c0.1,0.8,0.3,1.5,0.9,1.9s1.2,0.7,2.2,0.7c0.9,0,1.6-0.3,2.1-0.8
		c0.5-0.5,0.8-1.2,0.8-2.1c0-1-0.3-1.8-0.8-2.3s-1.3-0.8-2.3-0.8h-0.8V373h0.4c1,0,1.8-0.2,2.3-0.6c0.5-0.4,0.8-1.1,0.8-1.9
		c0-0.8-0.2-1.4-0.6-1.8s-1-0.6-1.8-0.6s-1.4,0.2-1.8,0.6s-0.7,0.9-0.8,1.7h-1V368z"/>
</g>
<rect x="193.1" y="353.5" class="st9" width="36.9" height="38.6"/>
<g class="st10">
	<path class="st11" d="M202.4,368c0.7-0.3,1.3-0.5,2-0.6c0.6-0.1,1.2-0.2,1.8-0.2c1.3,0,2.3,0.3,3,0.8s1.1,1.3,1.1,2.3
		c0,0.8-0.2,1.5-0.7,2s-1.2,0.9-2.1,1.1c1.1,0.2,1.9,0.5,2.5,1.2c0.6,0.6,0.9,1.4,0.9,2.4c0,1.2-0.4,2.2-1.2,2.8s-2,1-3.6,1
		c-0.7,0-1.4-0.1-2-0.2c-0.7-0.1-1.3-0.4-1.9-0.7v-2.5h1c0.1,0.8,0.3,1.5,0.9,1.9s1.2,0.7,2.2,0.7c0.9,0,1.6-0.3,2.1-0.8
		c0.5-0.5,0.8-1.2,0.8-2.1c0-1-0.3-1.8-0.8-2.3s-1.3-0.8-2.3-0.8h-0.8V373h0.4c1,0,1.8-0.2,2.3-0.6c0.5-0.4,0.8-1.1,0.8-1.9
		c0-0.8-0.2-1.4-0.6-1.8s-1-0.6-1.8-0.6s-1.4,0.2-1.8,0.6s-0.7,0.9-0.8,1.7h-1V368z"/>
	<path class="st11" d="M213.9,370.5h-1v-2.3c0.6-0.3,1.3-0.6,1.9-0.8c0.6-0.2,1.3-0.3,1.9-0.3c1.4,0,2.4,0.3,3.2,1s1.2,1.6,1.2,2.7
		c0,1.3-0.9,2.8-2.7,4.6c-0.1,0.1-0.2,0.2-0.3,0.3l-3.3,3.3h5.5v-1.6h1v3.1h-8.5v-1l4-4c0.9-0.9,1.5-1.7,1.9-2.4s0.6-1.5,0.6-2.3
		c0-0.9-0.2-1.6-0.7-2.1c-0.5-0.5-1.1-0.7-1.9-0.7c-0.8,0-1.5,0.2-1.9,0.6S213.9,369.7,213.9,370.5z"/>
</g>
<rect x="231.1" y="353.5" class="st9" width="38.6" height="38.6"/>
<g class="st10">
	<path class="st11" d="M241.2,368c0.7-0.3,1.3-0.5,2-0.6c0.6-0.1,1.2-0.2,1.8-0.2c1.3,0,2.3,0.3,3,0.8s1.1,1.3,1.1,2.3
		c0,0.8-0.2,1.5-0.7,2s-1.2,0.9-2.1,1.1c1.1,0.2,1.9,0.5,2.5,1.2c0.6,0.6,0.9,1.4,0.9,2.4c0,1.2-0.4,2.2-1.2,2.8s-2,1-3.6,1
		c-0.7,0-1.4-0.1-2-0.2c-0.7-0.1-1.3-0.4-1.9-0.7v-2.5h1c0.1,0.8,0.3,1.5,0.9,1.9s1.2,0.7,2.2,0.7c0.9,0,1.6-0.3,2.1-0.8
		c0.5-0.5,0.8-1.2,0.8-2.1c0-1-0.3-1.8-0.8-2.3s-1.3-0.8-2.3-0.8h-0.8V373h0.4c1,0,1.8-0.2,2.3-0.6c0.5-0.4,0.8-1.1,0.8-1.9
		c0-0.8-0.2-1.4-0.6-1.8s-1-0.6-1.8-0.6s-1.4,0.2-1.8,0.6s-0.7,0.9-0.8,1.7h-1V368z"/>
	<path class="st11" d="M252.9,380.5v-0.9h2.3v-10.9l-2.6,1.7v-1.2l3.2-2.1h1.2v12.4h2.3v0.9H252.9z"/>
</g>
<rect x="270.7" y="353.5" class="st9" width="37.8" height="38.6"/>
<g class="st10">
	<path class="st11" d="M280.4,368c0.7-0.3,1.3-0.5,2-0.6c0.6-0.1,1.2-0.2,1.8-0.2c1.3,0,2.3,0.3,3,0.8s1.1,1.3,1.1,2.3
		c0,0.8-0.2,1.5-0.7,2s-1.2,0.9-2.1,1.1c1.1,0.2,1.9,0.5,2.5,1.2c0.6,0.6,0.9,1.4,0.9,2.4c0,1.2-0.4,2.2-1.2,2.8s-2,1-3.6,1
		c-0.7,0-1.4-0.1-2-0.2c-0.7-0.1-1.3-0.4-1.9-0.7v-2.5h1c0.1,0.8,0.3,1.5,0.9,1.9s1.2,0.7,2.2,0.7c0.9,0,1.6-0.3,2.1-0.8
		c0.5-0.5,0.8-1.2,0.8-2.1c0-1-0.3-1.8-0.8-2.3s-1.3-0.8-2.3-0.8h-0.8V373h0.4c1,0,1.8-0.2,2.3-0.6c0.5-0.4,0.8-1.1,0.8-1.9
		c0-0.8-0.2-1.4-0.6-1.8s-1-0.6-1.8-0.6s-1.4,0.2-1.8,0.6s-0.7,0.9-0.8,1.7h-1V368z"/>
	<path class="st11" d="M295.3,380.8c-1.4,0-2.5-0.6-3.3-1.8c-0.8-1.2-1.2-2.9-1.2-5c0-2.2,0.4-3.8,1.2-5c0.8-1.2,1.9-1.8,3.3-1.8
		c1.4,0,2.5,0.6,3.3,1.8s1.2,2.9,1.2,5c0,2.1-0.4,3.8-1.2,5S296.7,380.8,295.3,380.8z M295.3,379.9c0.9,0,1.6-0.5,2-1.5
		s0.7-2.5,0.7-4.5c0-2-0.2-3.5-0.7-4.5s-1.1-1.5-2-1.5s-1.6,0.5-2,1.5s-0.7,2.5-0.7,4.5c0,2,0.2,3.5,0.7,4.5
		S294.4,379.9,295.3,379.9z"/>
</g>
<rect x="309.3" y="353.5" class="st9" width="38.4" height="38.6"/>
<g class="st10">
	<path class="st11" d="M319.9,370.5h-1v-2.3c0.6-0.3,1.3-0.6,1.9-0.8c0.6-0.2,1.3-0.3,1.9-0.3c1.4,0,2.4,0.3,3.2,1s1.2,1.6,1.2,2.7
		c0,1.3-0.9,2.8-2.7,4.6c-0.1,0.1-0.2,0.2-0.3,0.3l-3.3,3.3h5.5v-1.6h1v3.1h-8.5v-1l4-4c0.9-0.9,1.5-1.7,1.9-2.4s0.6-1.5,0.6-2.3
		c0-0.9-0.2-1.6-0.7-2.1c-0.5-0.5-1.1-0.7-1.9-0.7c-0.8,0-1.5,0.2-1.9,0.6S320,369.7,319.9,370.5z"/>
	<path class="st11" d="M337,374.7c-0.4,0.4-0.8,0.8-1.4,1s-1.1,0.3-1.7,0.3c-1.3,0-2.3-0.4-3.1-1.2c-0.8-0.8-1.1-1.9-1.1-3.2
		c0-1.3,0.4-2.4,1.2-3.2c0.8-0.8,1.9-1.2,3.3-1.2c1.5,0,2.6,0.6,3.4,1.7c0.8,1.1,1.2,2.7,1.2,4.7c0,2.3-0.5,4.1-1.4,5.3
		s-2.3,1.9-4,1.9c-0.5,0-0.9,0-1.5-0.1s-1-0.2-1.6-0.4v-2.2h1c0.1,0.6,0.3,1,0.7,1.4s0.9,0.5,1.5,0.5c1.1,0,2-0.4,2.5-1.3
		S336.9,376.4,337,374.7z M334.1,368c-0.8,0-1.5,0.3-1.9,0.9c-0.4,0.6-0.7,1.5-0.7,2.6s0.2,2,0.7,2.6c0.4,0.6,1.1,0.9,1.9,0.9
		s1.5-0.3,1.9-0.9s0.7-1.4,0.7-2.5c0-1.2-0.2-2.1-0.7-2.7S334.9,368,334.1,368z"/>
</g>
<rect x="75.5" y="281.1" class="st9" width="37.7" height="38.6"/>
<rect x="114.3" y="281.1" class="st9" width="38.4" height="38.6"/>
<g class="st10">
	<path class="st11" d="M85.7,296.6h-1v-2.3c0.6-0.3,1.3-0.6,1.9-0.8c0.6-0.2,1.3-0.3,1.9-0.3c1.4,0,2.4,0.3,3.2,1s1.2,1.6,1.2,2.7
		c0,1.3-0.9,2.8-2.7,4.6c-0.1,0.1-0.2,0.2-0.3,0.3l-3.3,3.3h5.5v-1.6h1v3.1h-8.5v-1l4-4c0.9-0.9,1.5-1.7,1.9-2.4s0.6-1.5,0.6-2.3
		c0-0.9-0.2-1.6-0.7-2.1c-0.5-0.5-1.1-0.7-1.9-0.7c-0.8,0-1.5,0.2-1.9,0.6S85.8,295.8,85.7,296.6z"/>
	<path class="st11" d="M96.7,296.6h-1v-2.3c0.6-0.3,1.3-0.6,1.9-0.8c0.6-0.2,1.3-0.3,1.9-0.3c1.4,0,2.4,0.3,3.2,1s1.2,1.6,1.2,2.7
		c0,1.3-0.9,2.8-2.7,4.6c-0.1,0.1-0.2,0.2-0.3,0.3l-3.3,3.3h5.5v-1.6h1v3.1h-8.5v-1l4-4c0.9-0.9,1.5-1.7,1.9-2.4s0.6-1.5,0.6-2.3
		c0-0.9-0.2-1.6-0.7-2.1c-0.5-0.5-1.1-0.7-1.9-0.7c-0.8,0-1.5,0.2-1.9,0.6S96.7,295.8,96.7,296.6z"/>
</g>
<g class="st10">
	<path class="st11" d="M124.9,296.6h-1v-2.3c0.6-0.3,1.3-0.6,1.9-0.8c0.6-0.2,1.3-0.3,1.9-0.3c1.4,0,2.4,0.3,3.2,1s1.2,1.6,1.2,2.7
		c0,1.3-0.9,2.8-2.7,4.6c-0.1,0.1-0.2,0.2-0.3,0.3l-3.3,3.3h5.5v-1.6h1v3.1h-8.5v-1l4-4c0.9-0.9,1.5-1.7,1.9-2.4s0.6-1.5,0.6-2.3
		c0-0.9-0.2-1.6-0.7-2.1c-0.5-0.5-1.1-0.7-1.9-0.7c-0.8,0-1.5,0.2-1.9,0.6S125,295.8,124.9,296.6z"/>
	<path class="st11" d="M135.3,294c0.7-0.3,1.3-0.5,2-0.6c0.6-0.1,1.2-0.2,1.8-0.2c1.3,0,2.3,0.3,3,0.8s1.1,1.3,1.1,2.3
		c0,0.8-0.2,1.5-0.7,2s-1.2,0.9-2.1,1.1c1.1,0.2,1.9,0.5,2.5,1.2c0.6,0.6,0.9,1.4,0.9,2.4c0,1.2-0.4,2.2-1.2,2.8s-2,1-3.6,1
		c-0.7,0-1.4-0.1-2-0.2c-0.7-0.1-1.3-0.4-1.9-0.7v-2.5h1c0.1,0.8,0.3,1.5,0.9,1.9s1.2,0.7,2.2,0.7c0.9,0,1.6-0.3,2.1-0.8
		c0.5-0.5,0.8-1.2,0.8-2.1c0-1-0.3-1.8-0.8-2.3s-1.3-0.8-2.3-0.8h-0.8V299h0.4c1,0,1.8-0.2,2.3-0.6c0.5-0.4,0.8-1.1,0.8-1.9
		c0-0.8-0.2-1.4-0.6-1.8s-1-0.6-1.8-0.6s-1.4,0.2-1.8,0.6s-0.7,0.9-0.8,1.7h-1V294z"/>
</g>
<rect x="153.8" y="281.1" class="st9" width="38.4" height="38.6"/>
<g class="st10">
	<path class="st11" d="M164.4,296.6h-1v-2.3c0.6-0.3,1.3-0.6,1.9-0.8c0.6-0.2,1.3-0.3,1.9-0.3c1.4,0,2.4,0.3,3.2,1s1.2,1.6,1.2,2.7
		c0,1.3-0.9,2.8-2.7,4.6c-0.1,0.1-0.2,0.2-0.3,0.3l-3.3,3.3h5.5v-1.6h1v3.1h-8.5v-1l4-4c0.9-0.9,1.5-1.7,1.9-2.4s0.6-1.5,0.6-2.3
		c0-0.9-0.2-1.6-0.7-2.1c-0.5-0.5-1.1-0.7-1.9-0.7c-0.8,0-1.5,0.2-1.9,0.6S164.5,295.8,164.4,296.6z"/>
	<path class="st11" d="M183.2,306.6h-6v-0.9h2.1v-2.6h-5.7v-1l5.7-8.9h1.7v8.9h2.5v0.9h-2.5v2.6h2.1V306.6z M179.3,302.1v-7l-4.5,7
		H179.3z"/>
</g>
<rect x="193.1" y="281.1" class="st9" width="36.9" height="38.6"/>
<g class="st10">
	<path class="st11" d="M202.9,296.6h-1v-2.3c0.6-0.3,1.3-0.6,1.9-0.8c0.6-0.2,1.3-0.3,1.9-0.3c1.4,0,2.4,0.3,3.2,1s1.2,1.6,1.2,2.7
		c0,1.3-0.9,2.8-2.7,4.6c-0.1,0.1-0.2,0.2-0.3,0.3l-3.3,3.3h5.5v-1.6h1v3.1h-8.5v-1l4-4c0.9-0.9,1.5-1.7,1.9-2.4s0.6-1.5,0.6-2.3
		c0-0.9-0.2-1.6-0.7-2.1c-0.5-0.5-1.1-0.7-1.9-0.7c-0.8,0-1.5,0.2-1.9,0.6S203,295.8,202.9,296.6z"/>
	<path class="st11" d="M220.6,293.5v1.4h-6v3.8c0.3-0.2,0.7-0.4,1.1-0.5c0.4-0.1,0.9-0.2,1.4-0.2c1.4,0,2.5,0.4,3.4,1.2
		s1.2,1.9,1.2,3.2c0,1.4-0.4,2.5-1.2,3.2c-0.8,0.8-2,1.2-3.5,1.2c-0.6,0-1.2-0.1-1.9-0.2s-1.3-0.4-1.9-0.7v-2.5h1
		c0.1,0.8,0.3,1.5,0.8,1.9c0.5,0.4,1.1,0.7,2,0.7c0.9,0,1.6-0.3,2.1-0.9s0.7-1.5,0.7-2.6c0-1.1-0.2-2-0.7-2.6
		c-0.5-0.6-1.2-0.9-2.1-0.9c-0.5,0-1,0.1-1.4,0.3c-0.4,0.2-0.8,0.5-1.1,0.9h-0.8v-6.6H220.6z"/>
</g>
<rect x="231.1" y="281.1" class="st9" width="38.6" height="38.6"/>
<g class="st10">
	<path class="st11" d="M241.8,296.6h-1v-2.3c0.6-0.3,1.3-0.6,1.9-0.8c0.6-0.2,1.3-0.3,1.9-0.3c1.4,0,2.4,0.3,3.2,1s1.2,1.6,1.2,2.7
		c0,1.3-0.9,2.8-2.7,4.6c-0.1,0.1-0.2,0.2-0.3,0.3l-3.3,3.3h5.5v-1.6h1v3.1h-8.5v-1l4-4c0.9-0.9,1.5-1.7,1.9-2.4s0.6-1.5,0.6-2.3
		c0-0.9-0.2-1.6-0.7-2.1c-0.5-0.5-1.1-0.7-1.9-0.7c-0.8,0-1.5,0.2-1.9,0.6S241.8,295.8,241.8,296.6z"/>
	<path class="st11" d="M253.4,299.4c0.4-0.4,0.8-0.8,1.4-1s1.1-0.3,1.7-0.3c1.3,0,2.3,0.4,3.1,1.2s1.1,1.9,1.1,3.2
		c0,1.3-0.4,2.4-1.2,3.2c-0.8,0.8-1.9,1.2-3.3,1.2c-1.5,0-2.6-0.6-3.4-1.7s-1.2-2.7-1.2-4.7c0-2.3,0.5-4.1,1.4-5.3s2.3-1.9,4-1.9
		c0.5,0,0.9,0,1.5,0.1s1,0.2,1.6,0.4v2.2h-1c-0.1-0.6-0.3-1-0.7-1.4s-0.9-0.5-1.5-0.5c-1.1,0-2,0.4-2.5,1.3S253.4,297.6,253.4,299.4
		z M256.3,306c0.8,0,1.5-0.3,1.9-0.9s0.7-1.5,0.7-2.6s-0.2-2-0.7-2.6s-1.1-0.9-1.9-0.9c-0.8,0-1.5,0.3-1.9,0.9s-0.7,1.4-0.7,2.5
		c0,1.2,0.2,2.1,0.7,2.7S255.4,306,256.3,306z"/>
</g>
<rect x="270.7" y="281.1" class="st9" width="37.8" height="38.6"/>
<g class="st10">
	<path class="st11" d="M280.9,296.6h-1v-2.3c0.6-0.3,1.3-0.6,1.9-0.8c0.6-0.2,1.3-0.3,1.9-0.3c1.4,0,2.4,0.3,3.2,1s1.2,1.6,1.2,2.7
		c0,1.3-0.9,2.8-2.7,4.6c-0.1,0.1-0.2,0.2-0.3,0.3l-3.3,3.3h5.5v-1.6h1v3.1h-8.5v-1l4-4c0.9-0.9,1.5-1.7,1.9-2.4s0.6-1.5,0.6-2.3
		c0-0.9-0.2-1.6-0.7-2.1c-0.5-0.5-1.1-0.7-1.9-0.7c-0.8,0-1.5,0.2-1.9,0.6S281,295.8,280.9,296.6z"/>
	<path class="st11" d="M299.7,294.4l-5.1,12.2h-1.3l4.9-11.7h-6.1v1.6h-1v-3.1h8.6V294.4z"/>
</g>
<rect x="309.3" y="281.1" class="st9" width="38.4" height="38.6"/>
<g class="st10">
	<path class="st11" d="M319.9,296.6h-1v-2.3c0.6-0.3,1.3-0.6,1.9-0.8c0.6-0.2,1.3-0.3,1.9-0.3c1.4,0,2.4,0.3,3.2,1s1.2,1.6,1.2,2.7
		c0,1.3-0.9,2.8-2.7,4.6c-0.1,0.1-0.2,0.2-0.3,0.3l-3.3,3.3h5.5v-1.6h1v3.1h-8.5v-1l4-4c0.9-0.9,1.5-1.7,1.9-2.4s0.6-1.5,0.6-2.3
		c0-0.9-0.2-1.6-0.7-2.1c-0.5-0.5-1.1-0.7-1.9-0.7c-0.8,0-1.5,0.2-1.9,0.6S320,295.8,319.9,296.6z"/>
	<path class="st11" d="M335.6,299.6c1,0.1,1.8,0.5,2.3,1.1s0.8,1.4,0.8,2.3c0,1.2-0.4,2.2-1.2,2.8s-1.9,1-3.3,1
		c-1.4,0-2.6-0.3-3.3-1c-0.8-0.7-1.2-1.6-1.2-2.8c0-0.9,0.3-1.7,0.8-2.3s1.3-1,2.3-1.1c-0.9-0.2-1.6-0.5-2-1s-0.7-1.2-0.7-2
		c0-1.1,0.4-1.9,1.1-2.5s1.7-0.9,3-0.9s2.3,0.3,3,0.9s1.1,1.4,1.1,2.5c0,0.8-0.2,1.5-0.7,2C337.2,299.1,336.5,299.4,335.6,299.6z
		 M336.9,303c0-0.9-0.2-1.7-0.7-2.2c-0.5-0.5-1.1-0.8-2-0.8s-1.5,0.3-2,0.8c-0.5,0.5-0.7,1.2-0.7,2.2c0,0.9,0.2,1.7,0.7,2.2
		c0.5,0.5,1.1,0.8,2,0.8s1.5-0.3,2-0.8C336.7,304.7,336.9,303.9,336.9,303z M336.6,296.6c0-0.8-0.2-1.4-0.6-1.9s-1-0.7-1.7-0.7
		c-0.7,0-1.3,0.2-1.7,0.7s-0.6,1.1-0.6,1.9c0,0.8,0.2,1.4,0.6,1.9s1,0.7,1.7,0.7c0.7,0,1.3-0.2,1.7-0.7S336.6,297.4,336.6,296.6z"/>
</g>
<rect x="75.5" y="241.5" class="st9" width="37.7" height="38.6"/>
<rect x="114.5" y="241.5" class="st9" width="38.4" height="38.6"/>
<g class="st10">
	<path class="st11" d="M86.4,257h-1v-2.3c0.6-0.3,1.3-0.6,1.9-0.8c0.6-0.2,1.3-0.3,1.9-0.3c1.4,0,2.4,0.3,3.2,1s1.2,1.6,1.2,2.7
		c0,1.3-0.9,2.8-2.7,4.6c-0.1,0.1-0.2,0.2-0.3,0.3l-3.3,3.3h5.5v-1.6h1v3.1h-8.5v-1l4-4c0.9-0.9,1.5-1.7,1.9-2.4s0.6-1.5,0.6-2.3
		c0-0.9-0.2-1.6-0.7-2.1c-0.5-0.5-1.1-0.7-1.9-0.7c-0.8,0-1.5,0.2-1.9,0.6S86.5,256.2,86.4,257z"/>
	<path class="st11" d="M96.9,267v-0.9h2.3v-10.9l-2.6,1.7v-1.2l3.2-2.1h1.2v12.4h2.3v0.9H96.9z"/>
</g>
<g class="st10">
	<path class="st11" d="M125,257h-1v-2.3c0.6-0.3,1.3-0.6,1.9-0.8c0.6-0.2,1.3-0.3,1.9-0.3c1.4,0,2.4,0.3,3.2,1s1.2,1.6,1.2,2.7
		c0,1.3-0.9,2.8-2.7,4.6c-0.1,0.1-0.2,0.2-0.3,0.3l-3.3,3.3h5.5v-1.6h1v3.1H124v-1l4-4c0.9-0.9,1.5-1.7,1.9-2.4s0.6-1.5,0.6-2.3
		c0-0.9-0.2-1.6-0.7-2.1c-0.5-0.5-1.1-0.7-1.9-0.7c-0.8,0-1.5,0.2-1.9,0.6S125.1,256.2,125,257z"/>
	<path class="st11" d="M139.4,267.3c-1.4,0-2.5-0.6-3.3-1.8c-0.8-1.2-1.2-2.9-1.2-5c0-2.2,0.4-3.8,1.2-5c0.8-1.2,1.9-1.8,3.3-1.8
		c1.4,0,2.5,0.6,3.3,1.8s1.2,2.9,1.2,5c0,2.1-0.4,3.8-1.2,5S140.8,267.3,139.4,267.3z M139.4,266.4c0.9,0,1.6-0.5,2-1.5
		s0.7-2.5,0.7-4.5c0-2-0.2-3.5-0.7-4.5s-1.1-1.5-2-1.5s-1.6,0.5-2,1.5s-0.7,2.5-0.7,4.5c0,2,0.2,3.5,0.7,4.5
		S138.5,266.4,139.4,266.4z"/>
</g>
<rect x="153.8" y="241.5" class="st9" width="38.4" height="38.6"/>
<g class="st10">
	<path class="st11" d="M165.4,267v-0.9h2.3v-10.9l-2.6,1.7v-1.2l3.2-2.1h1.2v12.4h2.3v0.9H165.4z"/>
	<path class="st11" d="M181.4,261.1c-0.4,0.4-0.8,0.8-1.4,1s-1.1,0.3-1.7,0.3c-1.3,0-2.3-0.4-3.1-1.2c-0.8-0.8-1.1-1.9-1.1-3.2
		c0-1.3,0.4-2.4,1.2-3.2c0.8-0.8,1.9-1.2,3.3-1.2c1.5,0,2.6,0.6,3.4,1.7c0.8,1.1,1.2,2.7,1.2,4.7c0,2.3-0.5,4.1-1.4,5.3
		s-2.3,1.9-4,1.9c-0.5,0-0.9,0-1.5-0.1s-1-0.2-1.6-0.4v-2.2h1c0.1,0.6,0.3,1,0.7,1.4s0.9,0.5,1.5,0.5c1.1,0,2-0.4,2.5-1.3
		S181.4,262.9,181.4,261.1z M178.6,254.5c-0.8,0-1.5,0.3-1.9,0.9c-0.4,0.6-0.7,1.5-0.7,2.6s0.2,2,0.7,2.6c0.4,0.6,1.1,0.9,1.9,0.9
		s1.5-0.3,1.9-0.9s0.7-1.4,0.7-2.5c0-1.2-0.2-2.1-0.7-2.7S179.4,254.5,178.6,254.5z"/>
</g>
<rect x="193.2" y="241.5" class="st9" width="36.9" height="38.6"/>
<g class="st10">
	<path class="st11" d="M204,267v-0.9h2.3v-10.9l-2.6,1.7v-1.2l3.2-2.1h1.2v12.4h2.3v0.9H204z"/>
	<path class="st11" d="M218.7,260c1,0.1,1.8,0.5,2.3,1.1s0.8,1.4,0.8,2.3c0,1.2-0.4,2.2-1.2,2.8s-1.9,1-3.3,1c-1.4,0-2.6-0.3-3.3-1
		c-0.8-0.7-1.2-1.6-1.2-2.8c0-0.9,0.3-1.7,0.8-2.3s1.3-1,2.3-1.1c-0.9-0.2-1.6-0.5-2-1s-0.7-1.2-0.7-2c0-1.1,0.4-1.9,1.1-2.5
		s1.7-0.9,3-0.9s2.3,0.3,3,0.9s1.1,1.4,1.1,2.5c0,0.8-0.2,1.5-0.7,2C220.3,259.5,219.6,259.9,218.7,260z M220,263.4
		c0-0.9-0.2-1.7-0.7-2.2c-0.5-0.5-1.1-0.8-2-0.8s-1.5,0.3-2,0.8c-0.5,0.5-0.7,1.2-0.7,2.2c0,0.9,0.2,1.7,0.7,2.2
		c0.5,0.5,1.1,0.8,2,0.8s1.5-0.3,2-0.8C219.8,265.1,220,264.4,220,263.4z M219.7,257c0-0.8-0.2-1.4-0.6-1.9s-1-0.7-1.7-0.7
		c-0.7,0-1.3,0.2-1.7,0.7s-0.6,1.1-0.6,1.9c0,0.8,0.2,1.4,0.6,1.9s1,0.7,1.7,0.7c0.7,0,1.3-0.2,1.7-0.7S219.7,257.8,219.7,257z"/>
</g>
<rect x="231.1" y="241.5" class="st9" width="38.6" height="38.6"/>
<g class="st10">
	<path class="st11" d="M242.7,267v-0.9h2.3v-10.9l-2.6,1.7v-1.2l3.2-2.1h1.2v12.4h2.3v0.9H242.7z"/>
	<path class="st11" d="M260.5,254.8l-5.1,12.2h-1.3l4.9-11.7h-6.1v1.6h-1v-3.1h8.6V254.8z"/>
</g>
<rect x="270.8" y="241.5" class="st9" width="37.8" height="38.6"/>
<g class="st10">
	<path class="st11" d="M282,267v-0.9h2.3v-10.9l-2.6,1.7v-1.2l3.2-2.1h1.2v12.4h2.3v0.9H282z"/>
	<path class="st11" d="M292.6,259.8c0.4-0.4,0.8-0.8,1.4-1s1.1-0.3,1.7-0.3c1.3,0,2.3,0.4,3.1,1.2s1.1,1.9,1.1,3.2
		c0,1.3-0.4,2.4-1.2,3.2c-0.8,0.8-1.9,1.2-3.3,1.2c-1.5,0-2.6-0.6-3.4-1.7s-1.2-2.7-1.2-4.7c0-2.3,0.5-4.1,1.4-5.3s2.3-1.9,4-1.9
		c0.5,0,0.9,0,1.5,0.1s1,0.2,1.6,0.4v2.2h-1c-0.1-0.6-0.3-1-0.7-1.4s-0.9-0.5-1.5-0.5c-1.1,0-2,0.4-2.5,1.3S292.7,258,292.6,259.8z
		 M295.5,266.4c0.8,0,1.5-0.3,1.9-0.9s0.7-1.5,0.7-2.6s-0.2-2-0.7-2.6s-1.1-0.9-1.9-0.9c-0.8,0-1.5,0.3-1.9,0.9s-0.7,1.4-0.7,2.5
		c0,1.2,0.2,2.1,0.7,2.7S294.7,266.4,295.5,266.4z"/>
</g>
<rect x="309.4" y="241.5" class="st9" width="38.4" height="38.6"/>
<g class="st10">
	<path class="st11" d="M321,267v-0.9h2.3v-10.9l-2.6,1.7v-1.2l3.2-2.1h1.2v12.4h2.3v0.9H321z"/>
	<path class="st11" d="M337.7,253.9v1.4h-6v3.8c0.3-0.2,0.7-0.4,1.1-0.5c0.4-0.1,0.9-0.2,1.4-0.2c1.4,0,2.5,0.4,3.4,1.2
		s1.2,1.9,1.2,3.2c0,1.4-0.4,2.5-1.2,3.2c-0.8,0.8-2,1.2-3.5,1.2c-0.6,0-1.2-0.1-1.9-0.2s-1.3-0.4-1.9-0.7v-2.5h1
		c0.1,0.8,0.3,1.5,0.8,1.9c0.5,0.4,1.1,0.7,2,0.7c0.9,0,1.6-0.3,2.1-0.9s0.7-1.5,0.7-2.6c0-1.1-0.2-2-0.7-2.6
		c-0.5-0.6-1.2-0.9-2.1-0.9c-0.5,0-1,0.1-1.4,0.3c-0.4,0.2-0.8,0.5-1.1,0.9h-0.8v-6.6H337.7z"/>
</g>
<rect x="75.5" y="168.3" class="st9" width="37.7" height="38.6"/>
<rect x="114.3" y="168.3" class="st9" width="38.4" height="38.6"/>
<g class="st10">
	<path class="st11" d="M95.9,186.3c1,0.1,1.8,0.5,2.3,1.1s0.8,1.4,0.8,2.3c0,1.2-0.4,2.2-1.2,2.8s-1.9,1-3.3,1c-1.4,0-2.6-0.3-3.3-1
		c-0.8-0.7-1.2-1.6-1.2-2.8c0-0.9,0.3-1.7,0.8-2.3s1.3-1,2.3-1.1c-0.9-0.2-1.6-0.5-2-1s-0.7-1.2-0.7-2c0-1.1,0.4-1.9,1.1-2.5
		s1.7-0.9,3-0.9s2.3,0.3,3,0.9s1.1,1.4,1.1,2.5c0,0.8-0.2,1.5-0.7,2C97.5,185.8,96.8,186.1,95.9,186.3z M97.3,189.7
		c0-0.9-0.2-1.7-0.7-2.2c-0.5-0.5-1.1-0.8-2-0.8s-1.5,0.3-2,0.8c-0.5,0.5-0.7,1.2-0.7,2.2c0,0.9,0.2,1.7,0.7,2.2
		c0.5,0.5,1.1,0.8,2,0.8s1.5-0.3,2-0.8C97,191.4,97.3,190.6,97.3,189.7z M96.9,183.3c0-0.8-0.2-1.4-0.6-1.9s-1-0.7-1.7-0.7
		c-0.7,0-1.3,0.2-1.7,0.7s-0.6,1.1-0.6,1.9c0,0.8,0.2,1.4,0.6,1.9s1,0.7,1.7,0.7c0.7,0,1.3-0.2,1.7-0.7S96.9,184.1,96.9,183.3z"/>
</g>
<g class="st10">
	<path class="st11" d="M136.5,187.4c-0.4,0.4-0.8,0.8-1.4,1s-1.1,0.3-1.7,0.3c-1.3,0-2.3-0.4-3.1-1.2c-0.8-0.8-1.1-1.9-1.1-3.2
		c0-1.3,0.4-2.4,1.2-3.2c0.8-0.8,1.9-1.2,3.3-1.2c1.5,0,2.6,0.6,3.4,1.7c0.8,1.1,1.2,2.7,1.2,4.7c0,2.3-0.5,4.1-1.4,5.3
		s-2.3,1.9-4,1.9c-0.5,0-0.9,0-1.5-0.1s-1-0.2-1.6-0.4v-2.2h1c0.1,0.6,0.3,1,0.7,1.4s0.9,0.5,1.5,0.5c1.1,0,2-0.4,2.5-1.3
		S136.5,189.2,136.5,187.4z M133.6,180.8c-0.8,0-1.5,0.3-1.9,0.9c-0.4,0.6-0.7,1.5-0.7,2.6s0.2,2,0.7,2.6c0.4,0.6,1.1,0.9,1.9,0.9
		s1.5-0.3,1.9-0.9s0.7-1.4,0.7-2.5c0-1.2-0.2-2.1-0.7-2.7S134.4,180.8,133.6,180.8z"/>
</g>
<rect x="153.8" y="168.3" class="st9" width="38.4" height="38.6"/>
<g class="st10">
	<path class="st11" d="M165.3,193.3v-0.9h2.3v-10.9l-2.6,1.7V182l3.2-2.1h1.2v12.4h2.3v0.9H165.3z"/>
	<path class="st11" d="M178.7,193.5c-1.4,0-2.5-0.6-3.3-1.8c-0.8-1.2-1.2-2.9-1.2-5c0-2.2,0.4-3.8,1.2-5c0.8-1.2,1.9-1.8,3.3-1.8
		c1.4,0,2.5,0.6,3.3,1.8s1.2,2.9,1.2,5c0,2.1-0.4,3.8-1.2,5S180.1,193.5,178.7,193.5z M178.7,192.7c0.9,0,1.6-0.5,2-1.5
		s0.7-2.5,0.7-4.5c0-2-0.2-3.5-0.7-4.5s-1.1-1.5-2-1.5s-1.6,0.5-2,1.5s-0.7,2.5-0.7,4.5c0,2,0.2,3.5,0.7,4.5
		S177.8,192.7,178.7,192.7z"/>
</g>
<rect x="193.2" y="168.3" class="st9" width="36.9" height="38.6"/>
<g class="st10">
	<path class="st11" d="M203.7,193.3v-0.9h2.3v-10.9l-2.6,1.7V182l3.2-2.1h1.2v12.4h2.3v0.9H203.7z"/>
	<path class="st11" d="M214.2,193.3v-0.9h2.3v-10.9l-2.6,1.7V182l3.2-2.1h1.2v12.4h2.3v0.9H214.2z"/>
</g>
<rect x="231.1" y="168.3" class="st9" width="38.6" height="38.6"/>
<g class="st10">
	<path class="st11" d="M242.4,193.3v-0.9h2.3v-10.9l-2.6,1.7V182l3.2-2.1h1.2v12.4h2.3v0.9H242.4z"/>
	<path class="st11" d="M252.7,183.3h-1v-2.3c0.6-0.3,1.3-0.6,1.9-0.8c0.6-0.2,1.3-0.3,1.9-0.3c1.4,0,2.4,0.3,3.2,1s1.2,1.6,1.2,2.7
		c0,1.3-0.9,2.8-2.7,4.6c-0.1,0.1-0.2,0.2-0.3,0.3l-3.3,3.3h5.5v-1.6h1v3.1h-8.5v-1l4-4c0.9-0.9,1.5-1.7,1.9-2.4s0.6-1.5,0.6-2.3
		c0-0.9-0.2-1.6-0.7-2.1c-0.5-0.5-1.1-0.7-1.9-0.7c-0.8,0-1.5,0.2-1.9,0.6S252.8,182.4,252.7,183.3z"/>
</g>
<rect x="270.7" y="168.3" class="st9" width="37.8" height="38.6"/>
<g class="st10">
	<path class="st11" d="M281.6,193.3v-0.9h2.3v-10.9l-2.6,1.7V182l3.2-2.1h1.2v12.4h2.3v0.9H281.6z"/>
	<path class="st11" d="M291.3,180.7c0.7-0.3,1.3-0.5,2-0.6c0.6-0.1,1.2-0.2,1.8-0.2c1.3,0,2.3,0.3,3,0.8s1.1,1.3,1.1,2.3
		c0,0.8-0.2,1.5-0.7,2s-1.2,0.9-2.1,1.1c1.1,0.2,1.9,0.5,2.5,1.2c0.6,0.6,0.9,1.4,0.9,2.4c0,1.2-0.4,2.2-1.2,2.8s-2,1-3.6,1
		c-0.7,0-1.4-0.1-2-0.2c-0.7-0.1-1.3-0.4-1.9-0.7v-2.5h1c0.1,0.8,0.3,1.5,0.9,1.9s1.2,0.7,2.2,0.7c0.9,0,1.6-0.3,2.1-0.8
		c0.5-0.5,0.8-1.2,0.8-2.1c0-1-0.3-1.8-0.8-2.3s-1.3-0.8-2.3-0.8h-0.8v-0.9h0.4c1,0,1.8-0.2,2.3-0.6c0.5-0.4,0.8-1.1,0.8-1.9
		c0-0.8-0.2-1.4-0.6-1.8s-1-0.6-1.8-0.6s-1.4,0.2-1.8,0.6s-0.7,0.9-0.8,1.7h-1V180.7z"/>
</g>
<rect x="309.3" y="168.3" class="st9" width="38.4" height="38.6"/>
<g class="st10">
	<path class="st11" d="M320.2,193.3v-0.9h2.3v-10.9l-2.6,1.7V182l3.2-2.1h1.2v12.4h2.3v0.9H320.2z"/>
	<path class="st11" d="M338.3,193.3h-6v-0.9h2.1v-2.6h-5.7v-1l5.7-8.9h1.7v8.9h2.5v0.9h-2.5v2.6h2.1V193.3z M334.4,188.8v-7l-4.5,7
		H334.4z"/>
</g>
<rect x="75.5" y="128.8" class="st9" width="37.7" height="38.6"/>
<rect x="114.3" y="128.8" class="st9" width="38.4" height="38.6"/>
<g class="st10">
	<path class="st11" d="M99,142.5l-5.1,12.2h-1.3l4.9-11.7h-6.1v1.6h-1v-3.1H99V142.5z"/>
</g>
<g class="st10">
	<path class="st11" d="M131.1,147.5c0.4-0.4,0.8-0.8,1.4-1s1.1-0.3,1.7-0.3c1.3,0,2.3,0.4,3.1,1.2c0.8,0.8,1.1,1.9,1.1,3.2
		c0,1.3-0.4,2.4-1.2,3.2c-0.8,0.8-1.9,1.2-3.3,1.2c-1.5,0-2.6-0.6-3.4-1.7s-1.2-2.7-1.2-4.7c0-2.3,0.5-4.1,1.4-5.3s2.3-1.9,4-1.9
		c0.5,0,0.9,0,1.5,0.1s1,0.2,1.6,0.4v2.2h-1c-0.1-0.6-0.3-1-0.7-1.4s-0.9-0.5-1.5-0.5c-1.1,0-2,0.4-2.5,1.3S131.1,145.7,131.1,147.5
		z M133.9,154.1c0.8,0,1.5-0.3,1.9-0.9s0.7-1.5,0.7-2.6s-0.2-2-0.7-2.6s-1.1-0.9-1.9-0.9c-0.8,0-1.5,0.3-1.9,0.9s-0.7,1.4-0.7,2.5
		c0,1.2,0.2,2.1,0.7,2.7S133.1,154.1,133.9,154.1z"/>
</g>
<rect x="153.7" y="128.8" class="st9" width="38.4" height="38.6"/>
<g class="st10">
	<path class="st11" d="M176.5,141.6v1.4h-6v3.8c0.3-0.2,0.7-0.4,1.1-0.5c0.4-0.1,0.9-0.2,1.4-0.2c1.4,0,2.5,0.4,3.4,1.2
		s1.2,1.9,1.2,3.2c0,1.4-0.4,2.5-1.2,3.2c-0.8,0.8-2,1.2-3.5,1.2c-0.6,0-1.2-0.1-1.9-0.2s-1.3-0.4-1.9-0.7v-2.5h1
		c0.1,0.8,0.3,1.5,0.8,1.9c0.5,0.4,1.1,0.7,2,0.7c0.9,0,1.6-0.3,2.1-0.9s0.7-1.5,0.7-2.6c0-1.1-0.2-2-0.7-2.6
		c-0.5-0.6-1.2-0.9-2.1-0.9c-0.5,0-1,0.1-1.4,0.3c-0.4,0.2-0.8,0.5-1.1,0.9h-0.8v-6.6H176.5z"/>
</g>
<rect x="193.1" y="128.8" class="st9" width="36.9" height="38.6"/>
<g class="st10">
	<path class="st11" d="M216.2,154.7h-6v-0.9h2.1v-2.6h-5.7v-1l5.7-8.9h1.7v8.9h2.5v0.9h-2.5v2.6h2.1V154.7z M212.4,150.2v-7l-4.5,7
		H212.4z"/>
</g>
<rect x="231" y="128.8" class="st9" width="38.6" height="38.6"/>
<g class="st10">
	<path class="st11" d="M246.6,142.1c0.7-0.3,1.3-0.5,2-0.6c0.6-0.1,1.2-0.2,1.8-0.2c1.3,0,2.3,0.3,3,0.8s1.1,1.3,1.1,2.3
		c0,0.8-0.2,1.5-0.7,2s-1.2,0.9-2.1,1.1c1.1,0.2,1.9,0.5,2.5,1.2c0.6,0.6,0.9,1.4,0.9,2.4c0,1.2-0.4,2.2-1.2,2.8s-2,1-3.6,1
		c-0.7,0-1.4-0.1-2-0.2c-0.7-0.1-1.3-0.4-1.9-0.7v-2.5h1c0.1,0.8,0.3,1.5,0.9,1.9s1.2,0.7,2.2,0.7c0.9,0,1.6-0.3,2.1-0.8
		c0.5-0.5,0.8-1.2,0.8-2.1c0-1-0.3-1.8-0.8-2.3S251,148,250,148h-0.8v-0.9h0.4c1,0,1.8-0.2,2.3-0.6c0.5-0.4,0.8-1.1,0.8-1.9
		c0-0.8-0.2-1.4-0.6-1.8s-1-0.6-1.8-0.6s-1.4,0.2-1.8,0.6s-0.7,0.9-0.8,1.7h-1V142.1z"/>
</g>
<rect x="270.7" y="128.8" class="st9" width="37.8" height="38.6"/>
<g class="st10">
	<path class="st11" d="M286.4,144.7h-1v-2.3c0.6-0.3,1.3-0.6,1.9-0.8c0.6-0.2,1.3-0.3,1.9-0.3c1.4,0,2.4,0.3,3.2,1s1.2,1.6,1.2,2.7
		c0,1.3-0.9,2.8-2.7,4.6c-0.1,0.1-0.2,0.2-0.3,0.3l-3.3,3.3h5.5v-1.6h1v3.1h-8.5v-1l4-4c0.9-0.9,1.5-1.7,1.9-2.4s0.6-1.5,0.6-2.3
		c0-0.9-0.2-1.6-0.7-2.1c-0.5-0.5-1.1-0.7-1.9-0.7c-0.8,0-1.5,0.2-1.9,0.6S286.5,143.9,286.4,144.7z"/>
</g>
<rect x="309.3" y="128.8" class="st9" width="38.4" height="38.6"/>
<g class="st10">
	<path class="st11" d="M325.6,154.7v-0.9h2.3v-10.9l-2.6,1.7v-1.2l3.2-2.1h1.2v12.4h2.3v0.9H325.6z"/>
</g>
<g class="st10">
	<path class="st11" d="M39.3,39.8v-1.7h3V18.2h-3v-1.7h9.1v1.7h-3v8h12.1v-8h-3v-1.7h9.1v1.7h-3v19.9h3v1.7h-9.1v-1.7h3v-10H45.4v10
		h3v1.7H39.3z"/>
	<path class="st11" d="M81.7,31.9H69.3V32c0,2.2,0.4,3.9,1.3,5.1c0.8,1.1,2.1,1.7,3.7,1.7c1.3,0,2.3-0.3,3.1-1
		c0.8-0.7,1.4-1.6,1.7-2.9h2.3c-0.5,1.8-1.3,3.2-2.5,4.1c-1.2,0.9-2.8,1.4-4.9,1.4c-2.4,0-4.4-0.8-5.8-2.4c-1.5-1.6-2.2-3.7-2.2-6.4
		c0-2.6,0.7-4.7,2.2-6.3c1.4-1.6,3.3-2.4,5.7-2.4c2.5,0,4.4,0.8,5.8,2.3C81,26.7,81.6,28.9,81.7,31.9z M78.3,30.2
		c-0.1-1.9-0.5-3.4-1.2-4.4c-0.8-1-1.8-1.5-3.2-1.5c-1.3,0-2.4,0.5-3.1,1.5c-0.8,1-1.2,2.4-1.4,4.4H78.3z"/>
	<path class="st11" d="M97.6,23.2v4.1H96c-0.1-0.8-0.3-1.4-0.7-1.8c-0.4-0.4-1-0.6-1.8-0.6c-1.4,0-2.5,0.5-3.2,1.5s-1.1,2.4-1.1,4.2
		v7.6h3.3v1.7h-8.8v-1.7h2.6V24.9h-2.7v-1.6h5.6v2.9c0.6-1.2,1.3-2,2.2-2.6c0.9-0.6,2-0.8,3.2-0.8c0.5,0,1,0,1.5,0.1
		C96.5,23,97,23.1,97.6,23.2z"/>
	<path class="st11" d="M103.5,38.2h2.7v1.7h-8.3v-1.7h2.7V24.9h-2.7v-1.7h5.6V38.2z M99.8,18.1c0-0.5,0.2-0.9,0.5-1.2
		c0.3-0.4,0.8-0.5,1.3-0.5c0.5,0,0.9,0.2,1.2,0.5c0.3,0.4,0.5,0.8,0.5,1.2c0,0.5-0.2,0.9-0.5,1.2s-0.8,0.5-1.2,0.5s-0.9-0.2-1.3-0.5
		C100,19,99.8,18.6,99.8,18.1z"/>
	<path class="st11" d="M109.4,24.9h-2.5v-1.7h2.5v-5.1h2.9v5.1h5.4v1.7h-5.4v10.5c0,1.4,0.1,2.3,0.4,2.7s0.8,0.6,1.5,0.6
		c0.7,0,1.3-0.2,1.6-0.7c0.3-0.4,0.5-1.2,0.5-2.1h2.2c-0.1,1.5-0.5,2.6-1.2,3.3c-0.7,0.7-1.9,1-3.4,1c-1.7,0-2.8-0.4-3.5-1.1
		c-0.7-0.7-1-2-1-3.7V24.9z"/>
	<path class="st11" d="M133.4,29.5v8.7h2.6v1.7h-5.4V38c-0.6,0.8-1.4,1.3-2.2,1.7c-0.8,0.4-1.8,0.5-2.9,0.5c-1.8,0-3.3-0.5-4.4-1.5
		c-1.1-1-1.6-2.3-1.6-4c0-1.7,0.6-3,1.9-4c1.2-0.9,3-1.4,5.2-1.4h4v-1.1c0-1.3-0.4-2.2-1.1-2.9c-0.8-0.7-1.8-1-3.2-1
		c-1.1,0-2.1,0.3-2.7,0.8s-1.1,1.3-1.3,2.3h-1.5v-3.4c1-0.4,2-0.7,2.9-1c0.9-0.2,1.9-0.3,2.8-0.3c2.3,0,4,0.6,5.2,1.7
		C132.8,25.7,133.4,27.3,133.4,29.5z M130.6,34.6v-3.5h-3.7c-1.4,0-2.5,0.3-3.2,0.9c-0.7,0.6-1,1.6-1,2.8c0,1.2,0.4,2.1,1.1,2.7
		c0.7,0.7,1.7,1,2.9,1c1.2,0,2.2-0.4,2.9-1.1C130.2,36.8,130.6,35.8,130.6,34.6z"/>
	<path class="st11" d="M152.7,24.9v14.5c0,2.4-0.7,4.2-2,5.5c-1.3,1.3-3.2,1.9-5.6,1.9c-1.1,0-2.1-0.1-3.1-0.3s-2-0.5-2.9-0.9v-3.5
		h1.5c0.2,1.1,0.6,1.9,1.3,2.4c0.7,0.5,1.7,0.7,3,0.7c1.7,0,2.9-0.5,3.7-1.4c0.8-1,1.2-2.4,1.2-4.5v-2.2c-0.6,1-1.3,1.8-2.1,2.3
		c-0.9,0.5-1.9,0.7-3.2,0.7c-2,0-3.7-0.8-5-2.4c-1.3-1.6-1.9-3.7-1.9-6.3c0-2.6,0.6-4.7,1.9-6.3c1.3-1.6,3-2.4,5-2.4
		c1.3,0,2.4,0.2,3.2,0.7c0.9,0.5,1.6,1.3,2.1,2.3v-2.6h5.6v1.7H152.7z M149.9,30.7c0-2-0.4-3.5-1.1-4.6c-0.8-1-1.9-1.6-3.3-1.6
		c-1.5,0-2.6,0.6-3.3,1.7c-0.8,1.2-1.1,2.9-1.1,5.2c0,2.3,0.4,4,1.1,5.2c0.8,1.2,1.9,1.8,3.3,1.8c1.5,0,2.6-0.5,3.3-1.6
		c0.8-1,1.1-2.6,1.1-4.6V30.7z"/>
	<path class="st11" d="M172.8,31.9h-12.4V32c0,2.2,0.4,3.9,1.3,5.1c0.8,1.1,2.1,1.7,3.7,1.7c1.3,0,2.3-0.3,3.1-1
		c0.8-0.7,1.4-1.6,1.7-2.9h2.3c-0.5,1.8-1.3,3.2-2.5,4.1c-1.2,0.9-2.8,1.4-4.9,1.4c-2.4,0-4.4-0.8-5.8-2.4c-1.5-1.6-2.2-3.7-2.2-6.4
		c0-2.6,0.7-4.7,2.2-6.3c1.4-1.6,3.3-2.4,5.7-2.4c2.5,0,4.4,0.8,5.8,2.3C172,26.7,172.7,28.9,172.8,31.9z M169.4,30.2
		c-0.1-1.9-0.5-3.4-1.2-4.4c-0.8-1-1.8-1.5-3.2-1.5c-1.3,0-2.4,0.5-3.1,1.5c-0.8,1-1.2,2.4-1.4,4.4H169.4z"/>
	<path class="st11" d="M184.4,39.8v-1.7h3V18.2h-3v-1.7h18.7v5.2h-1.9v-3.3h-10.7v7.8h7.6v-2.9h1.9v7.7h-1.9v-2.9h-7.6v9.7h10.9
		v-3.3h1.9v5.2H184.4z"/>
	<path class="st11" d="M212.9,39.8l-6.1-14.9h-1.9v-1.7h7.6v1.7h-2.6l4.7,11.4l4.7-11.4h-2.5v-1.7h6.2v1.7h-1.9L215,39.8H212.9z"/>
	<path class="st11" d="M239.4,31.9h-12.4V32c0,2.2,0.4,3.9,1.3,5.1c0.8,1.1,2.1,1.7,3.7,1.7c1.3,0,2.3-0.3,3.1-1
		c0.8-0.7,1.4-1.6,1.7-2.9h2.3c-0.5,1.8-1.3,3.2-2.5,4.1c-1.2,0.9-2.8,1.4-4.9,1.4c-2.4,0-4.4-0.8-5.8-2.4c-1.5-1.6-2.2-3.7-2.2-6.4
		c0-2.6,0.7-4.7,2.2-6.3c1.4-1.6,3.3-2.4,5.7-2.4c2.5,0,4.4,0.8,5.8,2.3C238.7,26.7,239.4,28.9,239.4,31.9z M236.1,30.2
		c-0.1-1.9-0.5-3.4-1.2-4.4c-0.8-1-1.8-1.5-3.2-1.5c-1.3,0-2.4,0.5-3.1,1.5c-0.8,1-1.2,2.4-1.4,4.4H236.1z"/>
	<path class="st11" d="M241.4,39.8v-1.7h2.6V24.9h-2.7v-1.7h5.6v2.9c0.5-1.1,1.2-2,2.1-2.5c0.8-0.6,1.8-0.9,3-0.9
		c1.8,0,3.2,0.5,4,1.6s1.3,2.7,1.3,4.9v8.9h2.6v1.7h-7.9v-1.7h2.5v-8c0-2-0.2-3.4-0.7-4.2c-0.5-0.8-1.4-1.1-2.6-1.1
		c-1.3,0-2.3,0.5-3,1.5c-0.7,1-1,2.4-1,4.2v7.6h2.5v1.7H241.4z"/>
	<path class="st11" d="M263.2,24.9h-2.5v-1.7h2.5v-5.1h2.9v5.1h5.4v1.7h-5.4v10.5c0,1.4,0.1,2.3,0.4,2.7s0.8,0.6,1.5,0.6
		c0.7,0,1.3-0.2,1.6-0.7c0.3-0.4,0.5-1.2,0.5-2.1h2.2c-0.1,1.5-0.5,2.6-1.2,3.3c-0.7,0.7-1.9,1-3.4,1c-1.7,0-2.8-0.4-3.5-1.1
		c-0.7-0.7-1-2-1-3.7V24.9z"/>
	<path class="st11" d="M303.4,33.7c-0.7,2.2-1.8,3.8-3.5,4.9c-1.6,1.1-3.7,1.7-6.1,1.7c-1.5,0-2.9-0.3-4.2-0.8
		c-1.3-0.5-2.5-1.3-3.5-2.3c-1.2-1.2-2-2.5-2.6-4c-0.6-1.5-0.8-3.2-0.8-5c0-3.6,1-6.5,3.1-8.8c2.1-2.2,4.8-3.3,8.3-3.3
		c1.3,0,2.6,0.2,4.1,0.5c1.4,0.3,3,0.8,4.6,1.5v5.4H301c-0.4-2-1.2-3.4-2.3-4.3c-1.2-0.9-2.8-1.4-4.9-1.4c-2.5,0-4.4,0.9-5.6,2.6
		c-1.3,1.8-1.9,4.4-1.9,7.8c0,3.4,0.6,6,1.9,7.8c1.3,1.8,3.2,2.6,5.6,2.6c1.7,0,3.2-0.4,4.3-1.2c1.1-0.8,1.9-2.1,2.4-3.7H303.4z"/>
	<path class="st11" d="M321.7,31.9h-12.4V32c0,2.2,0.4,3.9,1.3,5.1c0.8,1.1,2.1,1.7,3.7,1.7c1.3,0,2.3-0.3,3.1-1
		c0.8-0.7,1.4-1.6,1.7-2.9h2.3c-0.5,1.8-1.3,3.2-2.5,4.1c-1.2,0.9-2.8,1.4-4.9,1.4c-2.4,0-4.4-0.8-5.8-2.4c-1.5-1.6-2.2-3.7-2.2-6.4
		c0-2.6,0.7-4.7,2.2-6.3c1.4-1.6,3.3-2.4,5.7-2.4c2.5,0,4.4,0.8,5.8,2.3C320.9,26.7,321.6,28.9,321.7,31.9z M318.3,30.2
		c-0.1-1.9-0.5-3.4-1.2-4.4c-0.8-1-1.8-1.5-3.2-1.5c-1.3,0-2.4,0.5-3.1,1.5c-0.8,1-1.2,2.4-1.4,4.4H318.3z"/>
	<path class="st11" d="M323.6,39.8v-1.7h2.6V24.9h-2.7v-1.7h5.6v2.9c0.5-1.1,1.2-2,2.1-2.5c0.8-0.6,1.8-0.9,3-0.9
		c1.8,0,3.2,0.5,4,1.6s1.3,2.7,1.3,4.9v8.9h2.6v1.7h-7.9v-1.7h2.5v-8c0-2-0.2-3.4-0.7-4.2c-0.5-0.8-1.4-1.1-2.6-1.1
		c-1.3,0-2.3,0.5-3,1.5c-0.7,1-1,2.4-1,4.2v7.6h2.5v1.7H323.6z"/>
	<path class="st11" d="M345.4,24.9h-2.5v-1.7h2.5v-5.1h2.9v5.1h5.4v1.7h-5.4v10.5c0,1.4,0.1,2.3,0.4,2.7s0.8,0.6,1.5,0.6
		c0.7,0,1.3-0.2,1.6-0.7c0.3-0.4,0.5-1.2,0.5-2.1h2.2c-0.1,1.5-0.5,2.6-1.2,3.3c-0.7,0.7-1.9,1-3.4,1c-1.7,0-2.8-0.4-3.5-1.1
		c-0.7-0.7-1-2-1-3.7V24.9z"/>
	<path class="st11" d="M371.2,31.9h-12.4V32c0,2.2,0.4,3.9,1.3,5.1c0.8,1.1,2.1,1.7,3.7,1.7c1.3,0,2.3-0.3,3.1-1
		c0.8-0.7,1.4-1.6,1.7-2.9h2.3c-0.5,1.8-1.3,3.2-2.5,4.1c-1.2,0.9-2.8,1.4-4.9,1.4c-2.4,0-4.4-0.8-5.8-2.4c-1.5-1.6-2.2-3.7-2.2-6.4
		c0-2.6,0.7-4.7,2.2-6.3c1.4-1.6,3.3-2.4,5.7-2.4c2.5,0,4.4,0.8,5.8,2.3C370.4,26.7,371.1,28.9,371.2,31.9z M367.8,30.2
		c-0.1-1.9-0.5-3.4-1.2-4.4c-0.8-1-1.8-1.5-3.2-1.5c-1.3,0-2.4,0.5-3.1,1.5c-0.8,1-1.2,2.4-1.4,4.4H367.8z"/>
	<path class="st11" d="M387.1,23.2v4.1h-1.7c-0.1-0.8-0.3-1.4-0.7-1.8c-0.4-0.4-1-0.6-1.8-0.6c-1.4,0-2.5,0.5-3.2,1.5
		s-1.1,2.4-1.1,4.2v7.6h3.3v1.7h-8.8v-1.7h2.6V24.9H373v-1.6h5.6v2.9c0.6-1.2,1.3-2,2.2-2.6c0.9-0.6,2-0.8,3.2-0.8
		c0.5,0,1,0,1.5,0.1C386,23,386.5,23.1,387.1,23.2z"/>
</g>
<g>
	<g>
		<polygon class="st12" points="276.2,464.3 275.4,465.3 275.4,475.8 276.2,476.8 284.8,476.8 285.6,475.8 286.4,476.8 293.4,476.8 
			294.2,475.8 295,476.8 303.6,476.8 304.4,475.8 304.4,465.3 303.6,464.3 		"/>
		<polygon class="st13" points="276.2,464.3 275.4,465.3 275.4,475.8 276.2,476.8 284.8,476.8 285.6,475.8 286.4,476.8 293.4,476.8 
			294.2,475.8 295,476.8 303.6,476.8 304.4,475.8 304.4,465.3 303.6,464.3 		"/>
		<polygon class="st14" points="277,467.4 277.7,466.4 284.8,466.4 285.6,467.4 285.6,468.5 284.8,469.5 277.7,469.5 277,468.5 		
			"/>
		<polygon class="st15" points="277,467.4 277.7,466.4 284.8,466.4 285.6,467.4 285.6,468.5 284.8,469.5 277.7,469.5 277,468.5 		
			"/>
		<polygon class="st14" points="285.6,467.4 286.4,466.4 293.4,466.4 294.2,467.4 294.2,468.5 293.4,469.5 286.4,469.5 285.6,468.5 
					"/>
		<polygon class="st15" points="285.6,467.4 286.4,466.4 293.4,466.4 294.2,467.4 294.2,468.5 293.4,469.5 286.4,469.5 285.6,468.5 
					"/>
		<polygon class="st14" points="294.2,467.4 295,466.4 302,466.4 302.8,467.4 302.8,468.5 302,469.5 295,469.5 294.2,468.5 		"/>
		<polygon class="st15" points="294.2,467.4 295,466.4 302,466.4 302.8,467.4 302.8,468.5 302,469.5 295,469.5 294.2,468.5 		"/>
		<line class="st15" x1="294.2" y1="475.8" x2="294.2" y2="466.4"/>
		<line class="st15" x1="285.6" y1="475.8" x2="285.6" y2="466.4"/>
		<polygon class="st12" points="275.4,465.3 275.4,474.7 277,474.7 277,466.4 302.8,466.4 302.8,474.7 304.4,474.7 304.4,465.3 
			303.6,464.3 276.2,464.3 		"/>
		<polygon class="st13" points="275.4,465.3 275.4,474.7 277,474.7 277,466.4 302.8,466.4 302.8,474.7 304.4,474.7 304.4,465.3 
			303.6,464.3 276.2,464.3 		"/>
	</g>
	<g>
		<polygon class="st12" points="157.6,466.4 156.8,467.4 156.8,477.8 157.6,478.9 166.2,478.9 167,477.8 167.8,478.9 174.8,478.9 
			175.6,477.8 176.4,478.9 185,478.9 185.8,477.8 185.8,467.4 185,466.4 		"/>
		<polygon class="st13" points="157.6,466.4 156.8,467.4 156.8,477.8 157.6,478.9 166.2,478.9 167,477.8 167.8,478.9 174.8,478.9 
			175.6,477.8 176.4,478.9 185,478.9 185.8,477.8 185.8,467.4 185,466.4 		"/>
		<polygon class="st14" points="158.4,469.5 159.2,468.5 166.2,468.5 167,469.5 167,470.6 166.2,471.6 159.2,471.6 158.4,470.6 		
			"/>
		<polygon class="st15" points="158.4,469.5 159.2,468.5 166.2,468.5 167,469.5 167,470.6 166.2,471.6 159.2,471.6 158.4,470.6 		
			"/>
		<polygon class="st14" points="167,469.5 167.8,468.5 174.8,468.5 175.6,469.5 175.6,470.6 174.8,471.6 167.8,471.6 167,470.6 		
			"/>
		<polygon class="st15" points="167,469.5 167.8,468.5 174.8,468.5 175.6,469.5 175.6,470.6 174.8,471.6 167.8,471.6 167,470.6 		
			"/>
		<polygon class="st14" points="175.6,469.5 176.4,468.5 183.4,468.5 184.2,469.5 184.2,470.6 183.4,471.6 176.4,471.6 175.6,470.6 
					"/>
		<polygon class="st15" points="175.6,469.5 176.4,468.5 183.4,468.5 184.2,469.5 184.2,470.6 183.4,471.6 176.4,471.6 175.6,470.6 
					"/>
		<line class="st15" x1="175.6" y1="477.8" x2="175.6" y2="468.5"/>
		<line class="st15" x1="167" y1="477.8" x2="167" y2="468.5"/>
		<polygon class="st12" points="156.8,467.4 156.8,476.8 158.4,476.8 158.4,468.5 184.2,468.5 184.2,476.8 185.8,476.8 185.8,467.4 
			185,466.4 157.6,466.4 		"/>
		<polygon class="st13" points="156.8,467.4 156.8,476.8 158.4,476.8 158.4,468.5 184.2,468.5 184.2,476.8 185.8,476.8 185.8,467.4 
			185,466.4 157.6,466.4 		"/>
	</g>
	<g>
		<polygon class="st12" points="157.9,519.9 158.7,518.8 158.7,508.4 157.9,507.4 149.3,507.4 148.5,508.4 147.7,507.4 140.7,507.4 
			139.9,508.4 139.1,507.4 130.5,507.4 129.7,508.4 129.7,518.8 130.5,519.9 		"/>
		<polygon class="st13" points="157.9,519.9 158.7,518.8 158.7,508.4 157.9,507.4 149.3,507.4 148.5,508.4 147.7,507.4 140.7,507.4 
			139.9,508.4 139.1,507.4 130.5,507.4 129.7,508.4 129.7,518.8 130.5,519.9 		"/>
		<polygon class="st14" points="157.1,516.8 156.4,517.8 149.3,517.8 148.5,516.8 148.5,515.7 149.3,514.7 156.4,514.7 157.1,515.7 
					"/>
		<polygon class="st15" points="157.1,516.8 156.4,517.8 149.3,517.8 148.5,516.8 148.5,515.7 149.3,514.7 156.4,514.7 157.1,515.7 
					"/>
		<polygon class="st14" points="148.5,516.8 147.7,517.8 140.7,517.8 139.9,516.8 139.9,515.7 140.7,514.7 147.7,514.7 148.5,515.7 
					"/>
		<polygon class="st15" points="148.5,516.8 147.7,517.8 140.7,517.8 139.9,516.8 139.9,515.7 140.7,514.7 147.7,514.7 148.5,515.7 
					"/>
		<polygon class="st14" points="139.9,516.8 139.1,517.8 132.1,517.8 131.3,516.8 131.3,515.7 132.1,514.7 139.1,514.7 139.9,515.7 
					"/>
		<polygon class="st15" points="139.9,516.8 139.1,517.8 132.1,517.8 131.3,516.8 131.3,515.7 132.1,514.7 139.1,514.7 139.9,515.7 
					"/>
		<line class="st15" x1="139.9" y1="508.4" x2="139.9" y2="517.8"/>
		<line class="st15" x1="148.5" y1="508.4" x2="148.5" y2="517.8"/>
		<polygon class="st12" points="158.7,518.8 158.7,509.5 157.1,509.5 157.1,517.8 131.3,517.8 131.3,509.5 129.7,509.5 129.7,518.8 
			130.5,519.9 157.9,519.9 		"/>
		<polygon class="st13" points="158.7,518.8 158.7,509.5 157.1,509.5 157.1,517.8 131.3,517.8 131.3,509.5 129.7,509.5 129.7,518.8 
			130.5,519.9 157.9,519.9 		"/>
	</g>
	<g>
		<polygon class="st12" points="274.3,517.2 275.1,516.2 275.1,505.8 274.3,504.7 265.7,504.7 264.9,505.8 264.1,504.7 257.1,504.7 
			256.3,505.8 255.5,504.7 246.9,504.7 246.1,505.8 246.1,516.2 246.9,517.2 		"/>
		<polygon class="st13" points="274.3,517.2 275.1,516.2 275.1,505.8 274.3,504.7 265.7,504.7 264.9,505.8 264.1,504.7 257.1,504.7 
			256.3,505.8 255.5,504.7 246.9,504.7 246.1,505.8 246.1,516.2 246.9,517.2 		"/>
		<polygon class="st14" points="273.5,514.1 272.7,515.2 265.7,515.2 264.9,514.1 264.9,513.1 265.7,512 272.7,512 273.5,513.1 		
			"/>
		<polygon class="st15" points="273.5,514.1 272.7,515.2 265.7,515.2 264.9,514.1 264.9,513.1 265.7,512 272.7,512 273.5,513.1 		
			"/>
		<polygon class="st14" points="264.9,514.1 264.1,515.2 257.1,515.2 256.3,514.1 256.3,513.1 257.1,512 264.1,512 264.9,513.1 		
			"/>
		<polygon class="st15" points="264.9,514.1 264.1,515.2 257.1,515.2 256.3,514.1 256.3,513.1 257.1,512 264.1,512 264.9,513.1 		
			"/>
		<polygon class="st14" points="256.3,514.1 255.5,515.2 248.5,515.2 247.7,514.1 247.7,513.1 248.5,512 255.5,512 256.3,513.1 		
			"/>
		<polygon class="st15" points="256.3,514.1 255.5,515.2 248.5,515.2 247.7,514.1 247.7,513.1 248.5,512 255.5,512 256.3,513.1 		
			"/>
		<line class="st15" x1="256.3" y1="505.8" x2="256.3" y2="515.2"/>
		<line class="st15" x1="264.9" y1="505.8" x2="264.9" y2="515.2"/>
		<polygon class="st12" points="275.1,516.2 275.1,506.8 273.5,506.8 273.5,515.2 247.7,515.2 247.7,506.8 246.1,506.8 246.1,516.2 
			246.9,517.2 274.3,517.2 		"/>
		<polygon class="st13" points="275.1,516.2 275.1,506.8 273.5,506.8 273.5,515.2 247.7,515.2 247.7,506.8 246.1,506.8 246.1,516.2 
			246.9,517.2 274.3,517.2 		"/>
	</g>
</g>
<g>
	
		<ellipse transform="matrix(0.7071 -0.7071 0.7071 0.7071 -300.2176 309.8007)" class="st14" cx="223.9" cy="517.3" rx="5.9" ry="5.9"/>
	
		<ellipse transform="matrix(0.7071 -0.7071 0.7071 0.7071 -300.2176 309.8007)" class="st16" cx="223.9" cy="517.3" rx="5.9" ry="5.9"/>
	<path class="st14" d="M223.9,519c-0.9,0-1.7-0.8-1.7-1.7c0-0.9,0.8-1.7,1.7-1.7c0.9,0,1.7,0.8,1.7,1.7
		C225.5,518.2,224.8,519,223.9,519z"/>
	<path class="st17" d="M223.9,519c-0.9,0-1.7-0.8-1.7-1.7c0-0.9,0.8-1.7,1.7-1.7c0.9,0,1.7,0.8,1.7,1.7
		C225.5,518.2,224.8,519,223.9,519z"/>
</g>
<g>
	
		<ellipse transform="matrix(0.7071 -0.7071 0.7071 0.7071 -312.4893 280.1741)" class="st14" cx="182" cy="517.3" rx="5.9" ry="5.9"/>
	
		<ellipse transform="matrix(0.7071 -0.7071 0.7071 0.7071 -312.4893 280.1741)" class="st16" cx="182" cy="517.3" rx="5.9" ry="5.9"/>
	<path class="st14" d="M182,519c-0.9,0-1.7-0.8-1.7-1.7c0-0.9,0.8-1.7,1.7-1.7c0.9,0,1.7,0.8,1.7,1.7C183.6,518.2,182.9,519,182,519
		z"/>
	<path class="st17" d="M182,519c-0.9,0-1.7-0.8-1.7-1.7c0-0.9,0.8-1.7,1.7-1.7c0.9,0,1.7,0.8,1.7,1.7C183.6,518.2,182.9,519,182,519
		z"/>
</g>
<g>
	<circle class="st14" cx="109.3" cy="517.3" r="5.9"/>
	<circle class="st16" cx="109.3" cy="517.3" r="5.9"/>
	<path class="st14" d="M109.3,519c-0.9,0-1.7-0.8-1.7-1.7c0-0.9,0.8-1.7,1.7-1.7c0.9,0,1.7,0.8,1.7,1.7
		C111,518.2,110.3,519,109.3,519z"/>
	<path class="st17" d="M109.3,519c-0.9,0-1.7-0.8-1.7-1.7c0-0.9,0.8-1.7,1.7-1.7c0.9,0,1.7,0.8,1.7,1.7
		C111,518.2,110.3,519,109.3,519z"/>
</g>
<g>
	
		<ellipse transform="matrix(0.7071 -0.7071 0.7071 0.7071 -280.2251 358.0668)" class="st14" cx="292.1" cy="517.3" rx="5.9" ry="5.9"/>
	
		<ellipse transform="matrix(0.7071 -0.7071 0.7071 0.7071 -280.2251 358.0668)" class="st16" cx="292.1" cy="517.3" rx="5.9" ry="5.9"/>
	<path class="st14" d="M292.1,519c-0.9,0-1.7-0.8-1.7-1.7c0-0.9,0.8-1.7,1.7-1.7c0.9,0,1.7,0.8,1.7,1.7
		C293.8,518.2,293,519,292.1,519z"/>
	<path class="st17" d="M292.1,519c-0.9,0-1.7-0.8-1.7-1.7c0-0.9,0.8-1.7,1.7-1.7c0.9,0,1.7,0.8,1.7,1.7
		C293.8,518.2,293,519,292.1,519z"/>
</g>
<g>
	
		<ellipse transform="matrix(0.7071 -0.7071 0.7071 0.7071 -256.5922 315.7016)" class="st14" cx="252.8" cy="467.6" rx="5.9" ry="5.9"/>
	
		<ellipse transform="matrix(0.7071 -0.7071 0.7071 0.7071 -256.5922 315.7016)" class="st16" cx="252.8" cy="467.6" rx="5.9" ry="5.9"/>
	<path class="st14" d="M252.8,469.3c-0.9,0-1.7-0.8-1.7-1.7c0-0.9,0.8-1.7,1.7-1.7c0.9,0,1.7,0.8,1.7,1.7
		C254.5,468.5,253.7,469.3,252.8,469.3z"/>
	<path class="st17" d="M252.8,469.3c-0.9,0-1.7-0.8-1.7-1.7c0-0.9,0.8-1.7,1.7-1.7c0.9,0,1.7,0.8,1.7,1.7
		C254.5,468.5,253.7,469.3,252.8,469.3z"/>
</g>
<g>
	
		<ellipse transform="matrix(0.7071 -0.7071 0.7071 0.7071 -268.8639 286.075)" class="st14" cx="210.9" cy="467.6" rx="5.9" ry="5.9"/>
	
		<ellipse transform="matrix(0.7071 -0.7071 0.7071 0.7071 -268.8639 286.075)" class="st16" cx="210.9" cy="467.6" rx="5.9" ry="5.9"/>
	<path class="st14" d="M210.9,469.3c-0.9,0-1.7-0.8-1.7-1.7c0-0.9,0.8-1.7,1.7-1.7c0.9,0,1.7,0.8,1.7,1.7
		C212.6,468.5,211.8,469.3,210.9,469.3z"/>
	<path class="st17" d="M210.9,469.3c-0.9,0-1.7-0.8-1.7-1.7c0-0.9,0.8-1.7,1.7-1.7c0.9,0,1.7,0.8,1.7,1.7
		C212.6,468.5,211.8,469.3,210.9,469.3z"/>
</g>
<circle class="st14" cx="138.3" cy="467.6" r="5.9"/>
<circle class="st16" cx="138.3" cy="467.6" r="5.9"/>
<path class="st14" d="M138.3,469.3c-0.9,0-1.7-0.8-1.7-1.7c0-0.9,0.8-1.7,1.7-1.7c0.9,0,1.7,0.8,1.7,1.7
	C140,468.5,139.2,469.3,138.3,469.3z"/>
<path class="st17" d="M138.3,469.3c-0.9,0-1.7-0.8-1.7-1.7c0-0.9,0.8-1.7,1.7-1.7c0.9,0,1.7,0.8,1.7,1.7
	C140,468.5,139.2,469.3,138.3,469.3z"/>
<g>
	<circle class="st14" cx="321" cy="467.6" r="5.9"/>
	<circle class="st16" cx="321" cy="467.6" r="5.9"/>
	<path class="st14" d="M321,469.3c-0.9,0-1.7-0.8-1.7-1.7c0-0.9,0.7-1.7,1.7-1.7c0.9,0,1.7,0.8,1.7,1.7
		C322.7,468.5,322,469.3,321,469.3z"/>
	<path class="st17" d="M321,469.3c-0.9,0-1.7-0.8-1.7-1.7c0-0.9,0.7-1.7,1.7-1.7c0.9,0,1.7,0.8,1.7,1.7
		C322.7,468.5,322,469.3,321,469.3z"/>
</g>
</svg>
