<?xml version="1.0" encoding="utf-8"?>
<!-- Generator: Adobe Illustrator 21.1.0, SVG Export Plug-In . SVG Version: 6.00 Build 0)  -->
<svg version="1.1" id="Layer_1" xmlns="http://www.w3.org/2000/svg" xmlns:xlink="http://www.w3.org/1999/xlink" x="0px" y="0px"
	 viewBox="0 0 100 100" style="enable-background:new 0 0 100 100;" xml:space="preserve">
<path d="M50,4C23.3,4,1.6,21.6,1.6,43.4c0,12.6,7.6,22.9,18.9,30.2L11.1,96l26-14.2c3.5,0.7,9.2,1,13,1
	c26.7,0,48.4-17.6,48.4-39.4C98.4,21.6,76.7,4,50,4L50,4z M24,34.7c4.6,0,8.3,3.7,8.3,8.3c0,4.6-3.7,8.3-8.3,8.3s-8.3-3.7-8.3-8.3
	C15.8,38.4,19.5,34.7,24,34.7z M50,34.7c4.6,0,8.3,3.7,8.3,8.3c0,4.6-3.7,8.3-8.3,8.3s-8.3-3.7-8.3-8.3C41.7,38.4,45.4,34.7,50,34.7
	z M76,34.7c4.6,0,8.3,3.7,8.3,8.3c0,4.6-3.7,8.3-8.3,8.3c-4.6,0-8.3-3.7-8.3-8.3C67.7,38.4,71.4,34.7,76,34.7z"/>
</svg>
