<svg id="Layer_1" xmlns="http://www.w3.org/2000/svg" viewBox="0 0 100 100">
  <path d="M50 5.438c-25.4 0-46.4 16.9-46.4 38.2 0 11.8 6.9 21.5 16.8 28.3l-8 19c-.5 1.1 0 2.4 1.1 2.8.6.3 1.3.2 1.9-.1l23.2-12.7c3.5.6 8.1.9 11.4.9 25.4 0 46.4-16.9 46.4-38.3 0-21.2-21-38.1-46.4-38.1zm0 4.3c23.5 0 42.1 15.4 42.1 33.9s-18.6 34-42.1 34c-3.3 0-8.5-.3-11.5-.9-.5-.1-1 0-1.5.2l-18.3 10 6.2-14.8c.4-1 0-2.1-.8-2.6-9.9-6.3-16.3-15.1-16.3-25.8 0-18.6 18.7-34 42.2-34zm-23.8 27c-3.6 0-6.5 2.9-6.5 6.5s2.9 6.5 6.5 6.5 6.5-2.9 6.5-6.5-2.9-6.5-6.5-6.5zm23.8 0c-3.6 0-6.5 2.9-6.5 6.5s2.9 6.5 6.5 6.5 6.5-2.9 6.5-6.5-3-6.5-6.5-6.5zm23.7 0c-3.6 0-6.5 2.9-6.5 6.5s2.9 6.5 6.5 6.5 6.5-2.9 6.5-6.5-2.9-6.5-6.5-6.5zm-47.5 4.4c1.2 0 2.2.9 2.2 2.2s-.9 2.2-2.2 2.2c-1.2 0-2.2-.9-2.2-2.2s1-2.2 2.2-2.2zm23.8 0c1.2 0 2.2.9 2.2 2.2s-.9 2.2-2.2 2.2-2.2-.9-2.2-2.2.9-2.2 2.2-2.2zm23.7 0c1.2 0 2.2.9 2.2 2.2s-.9 2.2-2.2 2.2-2.2-.9-2.2-2.2 1-2.2 2.2-2.2z"/>
</svg>