<?xml version="1.0" encoding="utf-8"?>
<!-- Generator: Adobe Illustrator 21.1.0, SVG Export Plug-In . SVG Version: 6.00 Build 0)  -->
<svg version="1.1" id="Layer_2" xmlns="http://www.w3.org/2000/svg" xmlns:xlink="http://www.w3.org/1999/xlink" x="0px" y="0px"
	 viewBox="0 0 492.6 720" style="enable-background:new 0 0 492.6 720;" xml:space="preserve">
<style type="text/css">
	.st0{opacity:0.4;}
	.st1{fill:#FBE0B5;}
	.st2{opacity:0.8;fill:#FBE0B5;}
	.st3{fill:#828282;}
	.st4{opacity:0.1;fill:#828282;}
	.st5{opacity:0.8;}
	.st6{fill:#FFFFFF;}
</style>
<g>
	<g class="st0">
		
			<rect x="-48.2" y="127.7" transform="matrix(-1.836970e-16 1 -1 -1.836970e-16 613.3212 68.1556)" class="st1" width="641.6" height="426"/>
		<g>
			<path class="st1" d="M435.5,676.7v-15.2h-14.1C421.4,661.6,421.1,674.9,435.5,676.7z"/>
			<path class="st1" d="M408.1,676.7v-15.2h14.1C422.2,661.6,422.5,674.9,408.1,676.7z"/>
		</g>
		<g>
			<path class="st1" d="M403.6,676.7v-15.2h-14.1C389.6,661.6,389.2,674.9,403.6,676.7z"/>
			<path class="st1" d="M376.2,676.7v-15.2h14.1C390.3,661.6,390.6,674.9,376.2,676.7z"/>
		</g>
		<g>
			<path class="st1" d="M195.7,676.7v-15.2h-14.1C181.7,661.6,181.3,674.9,195.7,676.7z"/>
			<path class="st1" d="M168.3,676.7v-15.2h14.1C182.4,661.6,182.7,674.9,168.3,676.7z"/>
		</g>
		<g>
			<path class="st1" d="M163.9,676.7v-15.2h-14.1C149.8,661.6,149.4,674.9,163.9,676.7z"/>
			<path class="st1" d="M136.4,676.7v-15.2h14.1C150.5,661.6,150.8,674.9,136.4,676.7z"/>
		</g>
		<g>
			<path class="st1" d="M44.5,589.8h15.2v-14.1C59.7,575.8,46.3,575.4,44.5,589.8z"/>
			<path class="st1" d="M44.5,562.4h15.2v14.1C59.7,576.5,46.3,576.8,44.5,562.4z"/>
		</g>
		<g>
			<path class="st1" d="M44.5,558h15.2v-14.1C59.7,543.9,46.3,543.6,44.5,558z"/>
			<path class="st1" d="M44.5,530.5h15.2v14.1C59.7,544.6,46.3,545,44.5,530.5z"/>
		</g>
		<g>
			<path class="st1" d="M44.5,370.4h15.2v-14.1C59.7,356.3,46.3,356,44.5,370.4z"/>
			<path class="st1" d="M44.5,343h15.2V357C59.7,357,46.3,357.4,44.5,343z"/>
		</g>
		<g>
			<path class="st1" d="M44.5,338.5h15.2v-14.1C59.7,324.4,46.3,324.1,44.5,338.5z"/>
			<path class="st1" d="M44.5,311.1h15.2v14.1C59.7,325.2,46.3,325.5,44.5,311.1z"/>
		</g>
		<g>
			<path class="st1" d="M44.5,151.9h15.2v-14.1C59.7,137.8,46.3,137.4,44.5,151.9z"/>
			<path class="st1" d="M44.5,124.4h15.2v14.1C59.7,138.5,46.3,138.8,44.5,124.4z"/>
		</g>
		<g>
			<path class="st1" d="M44.5,120h15.2v-14.1C59.7,105.9,46.3,105.6,44.5,120z"/>
			<path class="st1" d="M44.5,92.6h15.2v14.1C59.7,106.6,46.3,107,44.5,92.6z"/>
		</g>
		<g>
			<path class="st1" d="M168.6,4.7v15.2h14.1C182.6,19.9,183,6.6,168.6,4.7z"/>
			<path class="st1" d="M196,4.7v15.2h-14.1C181.9,19.9,181.6,6.6,196,4.7z"/>
		</g>
		<g>
			<path class="st1" d="M271.5,4.7v15.2h14.1C285.5,19.9,285.9,6.6,271.5,4.7z"/>
			<path class="st1" d="M298.9,4.7v15.2h-14.1C284.8,19.9,284.5,6.6,298.9,4.7z"/>
		</g>
		<g>
			<path class="st1" d="M391.9,4.7v15.2H406C406,19.9,406.3,6.6,391.9,4.7z"/>
			<path class="st1" d="M419.3,4.7v15.2h-14.1C405.2,19.9,404.9,6.6,419.3,4.7z"/>
		</g>
		<g>
			<path class="st1" d="M298.9,676.7v-15.2h-14.1C284.8,661.6,284.5,674.9,298.9,676.7z"/>
			<path class="st1" d="M271.5,676.7v-15.2h14.1C285.6,661.6,285.9,674.9,271.5,676.7z"/>
		</g>
	</g>
	
		<rect x="100.5" y="375.7" transform="matrix(-1.836970e-16 1 -1 -1.836970e-16 521.9783 275.1265)" class="st2" width="45.8" height="45.8"/>
	
		<rect x="420.8" y="135.3" transform="matrix(-1.836970e-16 1 -1 -1.836970e-16 601.9189 -285.4874)" class="st2" width="45.8" height="45.8"/>
	
		<rect x="375.1" y="135.3" transform="matrix(-1.836970e-16 1 -1 -1.836970e-16 556.165 -239.7335)" class="st2" width="45.8" height="45.8"/>
	
		<rect x="329.3" y="135.3" transform="matrix(-1.836970e-16 1 -1 -1.836970e-16 510.4111 -193.9796)" class="st2" width="45.8" height="45.8"/>
	
		<rect x="283.6" y="135.3" transform="matrix(-1.836970e-16 1 -1 -1.836970e-16 464.6572 -148.2257)" class="st2" width="45.8" height="45.8"/>
	
		<rect x="237.8" y="135.3" transform="matrix(-1.836970e-16 1 -1 -1.836970e-16 418.9033 -102.4718)" class="st2" width="45.8" height="45.8"/>
	
		<rect x="192.1" y="135.3" transform="matrix(-1.836970e-16 1 -1 -1.836970e-16 373.1494 -56.7179)" class="st2" width="45.8" height="45.8"/>
	
		<rect x="146.3" y="135.3" transform="matrix(-1.836970e-16 1 -1 -1.836970e-16 327.3955 -10.964)" class="st2" width="45.8" height="45.8"/>
	
		<rect x="100.5" y="135.3" transform="matrix(-1.836970e-16 1 -1 -1.836970e-16 281.6416 34.7899)" class="st2" width="45.8" height="45.8"/>
	
		<rect x="420.8" y="499.8" transform="matrix(-1.836970e-16 1 -1 -1.836970e-16 966.3567 78.9503)" class="st2" width="45.8" height="45.8"/>
	
		<rect x="375.1" y="499.8" transform="matrix(-1.836970e-16 1 -1 -1.836970e-16 920.6028 124.7042)" class="st2" width="45.8" height="45.8"/>
	
		<rect x="329.3" y="499.8" transform="matrix(-1.836970e-16 1 -1 -1.836970e-16 874.8489 170.4581)" class="st2" width="45.8" height="45.8"/>
	
		<rect x="283.6" y="499.8" transform="matrix(-1.836970e-16 1 -1 -1.836970e-16 829.095 216.212)" class="st2" width="45.8" height="45.8"/>
	
		<rect x="237.8" y="499.8" transform="matrix(-1.836970e-16 1 -1 -1.836970e-16 783.3411 261.9659)" class="st2" width="45.8" height="45.8"/>
	
		<rect x="100.5" y="499.8" transform="matrix(-1.836970e-16 1 -1 -1.836970e-16 705.0208 399.2276)" class="st2" width="104.7" height="104.7"/>
	
		<rect x="283.6" y="214.6" transform="matrix(-1.836970e-16 1 -1 -1.836970e-16 543.915 -68.968)" class="st2" width="45.8" height="45.8"/>
	
		<rect x="283.6" y="260.4" transform="matrix(-1.836970e-16 1 -1 -1.836970e-16 589.6689 -23.2141)" class="st2" width="45.8" height="45.8"/>
	
		<rect x="237.8" y="214.6" transform="matrix(-1.836970e-16 1 -1 -1.836970e-16 498.1611 -23.2141)" class="st2" width="45.8" height="45.8"/>
	
		<rect x="237.8" y="260.4" transform="matrix(-1.836970e-16 1 -1 -1.836970e-16 543.915 22.5398)" class="st2" width="45.8" height="45.8"/>
	
		<rect x="192.1" y="214.6" transform="matrix(-1.836970e-16 1 -1 -1.836970e-16 452.4072 22.5398)" class="st2" width="45.8" height="45.8"/>
	
		<rect x="192.1" y="260.4" transform="matrix(-1.836970e-16 1 -1 -1.836970e-16 498.1611 68.2937)" class="st2" width="45.8" height="45.8"/>
	
		<rect x="146.3" y="214.6" transform="matrix(-1.836970e-16 1 -1 -1.836970e-16 406.6533 68.2937)" class="st2" width="45.8" height="45.8"/>
	
		<rect x="146.3" y="260.4" transform="matrix(-1.836970e-16 1 -1 -1.836970e-16 452.4072 114.0476)" class="st2" width="45.8" height="45.8"/>
	
		<rect x="100.5" y="214.6" transform="matrix(-1.836970e-16 1 -1 -1.836970e-16 360.8994 114.0476)" class="st2" width="45.8" height="45.8"/>
	
		<rect x="100.5" y="260.4" transform="matrix(-1.836970e-16 1 -1 -1.836970e-16 406.6533 159.8015)" class="st2" width="45.8" height="45.8"/>
	
		<rect x="283.6" y="375.7" transform="matrix(-1.836970e-16 1 -1 -1.836970e-16 704.9939 92.1109)" class="st2" width="45.8" height="45.8"/>
	
		<rect x="283.6" y="421.4" transform="matrix(-1.836970e-16 1 -1 -1.836970e-16 750.7478 137.8648)" class="st2" width="45.8" height="45.8"/>
	
		<rect x="237.8" y="375.7" transform="matrix(-1.836970e-16 1 -1 -1.836970e-16 659.24 137.8648)" class="st2" width="45.8" height="45.8"/>
	
		<rect x="237.8" y="421.4" transform="matrix(-1.836970e-16 1 -1 -1.836970e-16 704.9939 183.6187)" class="st2" width="45.8" height="45.8"/>
	
		<rect x="192.1" y="375.7" transform="matrix(-1.836970e-16 1 -1 -1.836970e-16 613.4861 183.6187)" class="st2" width="45.8" height="45.8"/>
	
		<rect x="192.1" y="421.4" transform="matrix(-1.836970e-16 1 -1 -1.836970e-16 659.24 229.3726)" class="st2" width="45.8" height="45.8"/>
	
		<rect x="146.3" y="375.7" transform="matrix(-1.836970e-16 1 -1 -1.836970e-16 567.7322 229.3726)" class="st2" width="45.8" height="45.8"/>
	
		<rect x="146.3" y="421.4" transform="matrix(-1.836970e-16 1 -1 -1.836970e-16 613.4861 275.1265)" class="st2" width="45.8" height="45.8"/>
	
		<rect x="100.5" y="421.4" transform="matrix(-1.836970e-16 1 -1 -1.836970e-16 567.7322 320.8804)" class="st2" width="45.8" height="45.8"/>
	<g>
		<g>
			<path class="st3" d="M388.4,317.4v-18h-6.7V297h16.2v2.4h-6.8v18H388.4z"/>
			<path class="st3" d="M398.1,317.4v-14.8h2.3v2.2c0.6-1,1.1-1.7,1.6-2.1c0.5-0.3,1-0.5,1.6-0.5c0.8,0,1.7,0.3,2.6,0.8l-0.9,2.3
				c-0.6-0.4-1.2-0.5-1.8-0.5c-0.5,0-1,0.2-1.5,0.5c-0.4,0.3-0.7,0.8-0.9,1.4c-0.3,0.9-0.4,1.9-0.4,2.9v7.7H398.1z"/>
			<path class="st3" d="M406.5,299.9V297h2.5v2.9H406.5z M406.5,317.4v-14.8h2.5v14.8H406.5z"/>
			<path class="st3" d="M414,317.4h-2.3V297h2.5v7.3c1.1-1.3,2.4-2,4.1-2c0.9,0,1.8,0.2,2.6,0.6c0.8,0.4,1.5,0.9,2,1.5
				c0.5,0.7,0.9,1.5,1.2,2.4c0.3,0.9,0.4,1.9,0.4,3c0,2.5-0.6,4.5-1.9,5.9c-1.3,1.4-2.8,2.1-4.5,2.1c-1.7,0-3.1-0.7-4.1-2.2V317.4z
				 M414,309.9c0,1.8,0.2,3.1,0.7,3.8c0.8,1.3,1.9,1.9,3.2,1.9c1.1,0,2-0.5,2.8-1.4s1.2-2.4,1.2-4.3c0-1.9-0.4-3.4-1.1-4.3
				c-0.8-0.9-1.7-1.4-2.8-1.4c-1.1,0-2,0.5-2.8,1.4C414.4,306.8,414,308.1,414,309.9z"/>
			<path class="st3" d="M436.1,315.6c-0.9,0.8-1.8,1.3-2.7,1.7c-0.9,0.3-1.8,0.5-2.8,0.5c-1.6,0-2.9-0.4-3.7-1.2
				c-0.9-0.8-1.3-1.8-1.3-3c0-0.7,0.2-1.4,0.5-2c0.3-0.6,0.8-1.1,1.3-1.4c0.5-0.4,1.1-0.6,1.8-0.8c0.5-0.1,1.2-0.3,2.2-0.4
				c2-0.2,3.5-0.5,4.5-0.9c0-0.3,0-0.6,0-0.7c0-1-0.2-1.7-0.7-2.2c-0.6-0.6-1.6-0.8-2.9-0.8c-1.2,0-2,0.2-2.6,0.6
				c-0.6,0.4-1,1.1-1.2,2.2l-2.5-0.3c0.2-1,0.6-1.9,1.1-2.5c0.5-0.6,1.2-1.1,2.2-1.5c1-0.3,2.1-0.5,3.4-0.5c1.3,0,2.3,0.1,3.1,0.4
				c0.8,0.3,1.4,0.7,1.7,1.1c0.4,0.5,0.6,1,0.8,1.7c0.1,0.4,0.1,1.2,0.1,2.3v3.3c0,2.3,0.1,3.8,0.2,4.4c0.1,0.6,0.3,1.2,0.6,1.8
				h-2.6C436.3,316.9,436.2,316.3,436.1,315.6z M435.9,310c-0.9,0.4-2.3,0.7-4.1,0.9c-1,0.1-1.8,0.3-2.2,0.5c-0.4,0.2-0.8,0.5-1,0.8
				c-0.2,0.4-0.3,0.8-0.3,1.2c0,0.7,0.3,1.2,0.8,1.7c0.5,0.4,1.2,0.7,2.2,0.7c1,0,1.8-0.2,2.6-0.6c0.8-0.4,1.3-1,1.7-1.7
				c0.3-0.6,0.4-1.4,0.4-2.5V310z"/>
			<path class="st3" d="M441.1,317.4V297h2.5v20.4H441.1z"/>
		</g>
		<g>
			<path class="st3" d="M366.1,351.6v-20.4h2.7v18h10.1v2.4H366.1z"/>
			<path class="st3" d="M390.8,346.8l2.6,0.3c-0.4,1.5-1.2,2.7-2.3,3.5c-1.1,0.8-2.5,1.3-4.2,1.3c-2.2,0-3.9-0.7-5.1-2
				c-1.3-1.3-1.9-3.2-1.9-5.6c0-2.5,0.6-4.4,1.9-5.8c1.3-1.4,2.9-2.1,5-2.1c2,0,3.6,0.7,4.8,2c1.3,1.3,1.9,3.2,1.9,5.7
				c0,0.1,0,0.4,0,0.7h-11c0.1,1.6,0.6,2.9,1.4,3.7c0.8,0.9,1.9,1.3,3.1,1.3c0.9,0,1.7-0.2,2.4-0.7
				C389.9,348.7,390.4,347.9,390.8,346.8z M382.5,342.8h8.3c-0.1-1.2-0.4-2.2-0.9-2.8c-0.8-1-1.8-1.4-3.1-1.4
				c-1.2,0-2.1,0.4-2.9,1.2C383.1,340.5,382.6,341.5,382.5,342.8z"/>
			<path class="st3" d="M405,349.8c-0.9,0.8-1.8,1.3-2.7,1.7c-0.9,0.3-1.8,0.5-2.8,0.5c-1.6,0-2.9-0.4-3.7-1.2
				c-0.9-0.8-1.3-1.8-1.3-3c0-0.7,0.2-1.4,0.5-2c0.3-0.6,0.8-1.1,1.3-1.4c0.5-0.4,1.1-0.6,1.8-0.8c0.5-0.1,1.2-0.3,2.2-0.4
				c2-0.2,3.5-0.5,4.5-0.9c0-0.3,0-0.6,0-0.7c0-1-0.2-1.7-0.7-2.2c-0.6-0.6-1.6-0.8-2.9-0.8c-1.2,0-2,0.2-2.6,0.6
				c-0.6,0.4-1,1.1-1.2,2.2L395,341c0.2-1,0.6-1.9,1.1-2.5c0.5-0.6,1.2-1.1,2.2-1.5c1-0.3,2.1-0.5,3.4-0.5c1.3,0,2.3,0.1,3.1,0.4
				c0.8,0.3,1.4,0.7,1.7,1.1c0.4,0.5,0.6,1,0.8,1.7c0.1,0.4,0.1,1.2,0.1,2.3v3.3c0,2.3,0.1,3.8,0.2,4.4c0.1,0.6,0.3,1.2,0.6,1.8
				h-2.6C405.3,351.1,405.1,350.5,405,349.8z M404.8,344.2c-0.9,0.4-2.3,0.7-4.1,0.9c-1,0.1-1.8,0.3-2.2,0.5c-0.4,0.2-0.8,0.5-1,0.8
				c-0.2,0.4-0.3,0.8-0.3,1.2c0,0.7,0.3,1.2,0.8,1.7c0.5,0.4,1.2,0.7,2.2,0.7c1,0,1.8-0.2,2.6-0.6c0.8-0.4,1.3-1,1.7-1.7
				c0.3-0.6,0.4-1.4,0.4-2.5V344.2z"/>
			<path class="st3" d="M419.7,351.6v-1.9c-0.9,1.5-2.3,2.2-4.1,2.2c-1.2,0-2.3-0.3-3.3-1c-1-0.6-1.8-1.6-2.3-2.7
				c-0.5-1.2-0.8-2.5-0.8-4c0-1.5,0.2-2.8,0.7-4c0.5-1.2,1.2-2.1,2.2-2.8c1-0.6,2.1-1,3.3-1c0.9,0,1.7,0.2,2.4,0.6
				c0.7,0.4,1.3,0.9,1.7,1.5v-7.3h2.5v20.4H419.7z M411.8,344.2c0,1.9,0.4,3.3,1.2,4.2s1.7,1.4,2.8,1.4c1.1,0,2-0.4,2.8-1.3
				c0.8-0.9,1.1-2.3,1.1-4.1c0-2-0.4-3.5-1.2-4.5c-0.8-0.9-1.7-1.4-2.9-1.4c-1.1,0-2,0.5-2.8,1.4
				C412.1,340.8,411.8,342.3,411.8,344.2z"/>
			<path class="st3" d="M434.9,346.8l2.6,0.3c-0.4,1.5-1.2,2.7-2.3,3.5c-1.1,0.8-2.5,1.3-4.2,1.3c-2.2,0-3.9-0.7-5.1-2
				c-1.3-1.3-1.9-3.2-1.9-5.6c0-2.5,0.6-4.4,1.9-5.8c1.3-1.4,2.9-2.1,5-2.1c2,0,3.6,0.7,4.8,2c1.3,1.3,1.9,3.2,1.9,5.7
				c0,0.1,0,0.4,0,0.7h-11c0.1,1.6,0.6,2.9,1.4,3.7c0.8,0.9,1.9,1.3,3.1,1.3c0.9,0,1.7-0.2,2.4-0.7
				C434.1,348.7,434.6,347.9,434.9,346.8z M426.7,342.8h8.3c-0.1-1.2-0.4-2.2-0.9-2.8c-0.8-1-1.8-1.4-3.1-1.4
				c-1.2,0-2.1,0.4-2.9,1.2C427.2,340.5,426.8,341.5,426.7,342.8z"/>
			<path class="st3" d="M439.5,351.6v-14.8h2.3v2.2c0.6-1,1.1-1.7,1.6-2.1c0.5-0.3,1-0.5,1.6-0.5c0.8,0,1.7,0.3,2.6,0.8l-0.9,2.3
				c-0.6-0.4-1.2-0.5-1.8-0.5c-0.5,0-1,0.2-1.5,0.5c-0.4,0.3-0.7,0.8-0.9,1.4c-0.3,0.9-0.4,1.9-0.4,2.9v7.7H439.5z"/>
			<path class="st3" d="M446.9,347.2l2.5-0.4c0.1,1,0.5,1.8,1.2,2.3s1.5,0.8,2.7,0.8c1.2,0,2-0.2,2.6-0.7c0.6-0.5,0.8-1,0.8-1.7
				c0-0.6-0.2-1-0.7-1.3c-0.3-0.2-1.2-0.5-2.6-0.8c-1.8-0.5-3.1-0.9-3.8-1.2c-0.7-0.3-1.2-0.8-1.6-1.4c-0.4-0.6-0.5-1.3-0.5-2
				c0-0.7,0.2-1.3,0.5-1.8c0.3-0.6,0.7-1,1.2-1.4c0.4-0.3,0.9-0.5,1.6-0.7c0.7-0.2,1.4-0.3,2.2-0.3c1.2,0,2.2,0.2,3.1,0.5
				c0.9,0.3,1.5,0.8,1.9,1.4c0.4,0.6,0.7,1.3,0.9,2.3l-2.5,0.3c-0.1-0.8-0.4-1.4-1-1.8c-0.5-0.4-1.3-0.6-2.3-0.6
				c-1.2,0-2,0.2-2.5,0.6c-0.5,0.4-0.7,0.8-0.7,1.3c0,0.3,0.1,0.6,0.3,0.9c0.2,0.3,0.5,0.5,1,0.7c0.3,0.1,1,0.3,2.2,0.6
				c1.8,0.5,3,0.9,3.7,1.2c0.7,0.3,1.3,0.7,1.7,1.3c0.4,0.6,0.6,1.3,0.6,2.1c0,0.8-0.2,1.6-0.7,2.4c-0.5,0.7-1.2,1.3-2.1,1.7
				c-0.9,0.4-2,0.6-3.1,0.6c-1.9,0-3.4-0.4-4.4-1.2C447.8,350,447.2,348.8,446.9,347.2z"/>
		</g>
		<g>
			<path class="st3" d="M369.6,385.8v-20.4h2.7v18h10.1v2.4H369.6z"/>
			<path class="st3" d="M383.1,378.4c0-2.7,0.8-4.8,2.3-6.1c1.3-1.1,2.8-1.6,4.7-1.6c2,0,3.7,0.7,5,2c1.3,1.3,1.9,3.2,1.9,5.5
				c0,1.9-0.3,3.4-0.9,4.5c-0.6,1.1-1.4,1.9-2.5,2.5c-1.1,0.6-2.3,0.9-3.6,0.9c-2.1,0-3.7-0.7-5-2
				C383.8,382.8,383.1,380.9,383.1,378.4z M385.7,378.4c0,1.9,0.4,3.3,1.2,4.3c0.8,0.9,1.9,1.4,3.1,1.4c1.2,0,2.3-0.5,3.1-1.4
				c0.8-0.9,1.2-2.4,1.2-4.3c0-1.8-0.4-3.2-1.2-4.2c-0.8-0.9-1.9-1.4-3.1-1.4c-1.3,0-2.3,0.5-3.1,1.4
				C386.1,375.1,385.7,376.5,385.7,378.4z"/>
			<path class="st3" d="M408.5,385.8v-2.2c-1.2,1.7-2.7,2.5-4.7,2.5c-0.9,0-1.7-0.2-2.4-0.5c-0.8-0.3-1.3-0.8-1.7-1.3
				c-0.4-0.5-0.6-1.1-0.8-1.9c-0.1-0.5-0.2-1.3-0.2-2.3V371h2.5v8.2c0,1.3,0.1,2.2,0.2,2.6c0.2,0.7,0.5,1.2,1,1.6
				c0.5,0.4,1.1,0.6,1.9,0.6c0.8,0,1.5-0.2,2.1-0.6c0.7-0.4,1.1-0.9,1.4-1.6c0.3-0.7,0.4-1.6,0.4-2.9V371h2.5v14.8H408.5z"/>
			<path class="st3" d="M413.5,385.8V371h2.3v2.1c1.1-1.6,2.7-2.4,4.7-2.4c0.9,0,1.7,0.2,2.5,0.5c0.7,0.3,1.3,0.7,1.7,1.3
				s0.6,1.1,0.8,1.9c0.1,0.5,0.1,1.3,0.1,2.4v9.1H423v-9c0-1-0.1-1.8-0.3-2.3c-0.2-0.5-0.5-0.9-1-1.2c-0.5-0.3-1.1-0.5-1.7-0.5
				c-1.1,0-2,0.3-2.8,1c-0.8,0.7-1.2,2-1.2,3.9v8.1H413.5z"/>
			<path class="st3" d="M427.8,387l2.4,0.4c0.1,0.8,0.4,1.3,0.8,1.6c0.6,0.5,1.5,0.7,2.5,0.7c1.2,0,2.1-0.2,2.7-0.7s1.1-1.1,1.3-1.9
				c0.1-0.5,0.2-1.6,0.2-3.2c-1.1,1.3-2.5,1.9-4.1,1.9c-2,0-3.6-0.7-4.7-2.2c-1.1-1.5-1.7-3.2-1.7-5.3c0-1.4,0.3-2.7,0.8-3.9
				c0.5-1.2,1.3-2.1,2.2-2.8c1-0.7,2.1-1,3.4-1c1.7,0,3.2,0.7,4.3,2.1V371h2.3v12.8c0,2.3-0.2,3.9-0.7,4.9c-0.5,1-1.2,1.7-2.2,2.3
				c-1,0.6-2.3,0.8-3.8,0.8c-1.8,0-3.2-0.4-4.3-1.2C428.3,389.8,427.7,388.6,427.8,387z M429.9,378.1c0,1.9,0.4,3.4,1.2,4.2
				c0.8,0.9,1.7,1.3,2.9,1.3c1.2,0,2.1-0.4,2.9-1.3s1.2-2.3,1.2-4.2c0-1.8-0.4-3.2-1.2-4.1c-0.8-0.9-1.8-1.4-2.9-1.4
				c-1.1,0-2.1,0.5-2.8,1.4C430.2,375,429.9,376.3,429.9,378.1z"/>
			<path class="st3" d="M453.1,381l2.6,0.3c-0.4,1.5-1.2,2.7-2.3,3.5c-1.1,0.8-2.5,1.3-4.2,1.3c-2.2,0-3.9-0.7-5.1-2
				c-1.3-1.3-1.9-3.2-1.9-5.6c0-2.5,0.6-4.4,1.9-5.8c1.3-1.4,2.9-2.1,5-2.1c2,0,3.6,0.7,4.8,2c1.3,1.3,1.9,3.2,1.9,5.7
				c0,0.1,0,0.4,0,0.7h-11c0.1,1.6,0.6,2.9,1.4,3.7c0.8,0.9,1.9,1.3,3.1,1.3c0.9,0,1.7-0.2,2.4-0.7
				C452.2,382.9,452.7,382.1,453.1,381z M444.9,377h8.3c-0.1-1.2-0.4-2.2-0.9-2.8c-0.8-1-1.8-1.4-3.1-1.4c-1.2,0-2.1,0.4-2.9,1.2
				C445.4,374.6,444.9,375.7,444.9,377z"/>
		</g>
	</g>
	<g>
		<path class="st3" d="M439,162.3v1.3h-7.2c0-0.3,0-0.6,0.2-0.9c0.2-0.5,0.5-1,0.9-1.4c0.4-0.5,1-1,1.7-1.6c1.2-1,2-1.7,2.4-2.3
			c0.4-0.6,0.6-1.1,0.6-1.6c0-0.5-0.2-1-0.6-1.3c-0.4-0.4-0.9-0.5-1.5-0.5c-0.6,0-1.2,0.2-1.5,0.6c-0.4,0.4-0.6,0.9-0.6,1.6
			l-1.4-0.1c0.1-1,0.4-1.8,1.1-2.3c0.6-0.5,1.4-0.8,2.5-0.8c1,0,1.9,0.3,2.5,0.9c0.6,0.6,0.9,1.3,0.9,2.1c0,0.4-0.1,0.9-0.3,1.3
			c-0.2,0.4-0.5,0.9-0.9,1.3c-0.4,0.5-1.1,1.1-2.1,1.9c-0.8,0.7-1.3,1.1-1.5,1.4c-0.2,0.2-0.4,0.5-0.6,0.7H439z"/>
		<path class="st3" d="M445.1,163.5h-1.3V155c-0.3,0.3-0.7,0.6-1.3,0.9c-0.5,0.3-1,0.5-1.4,0.7v-1.3c0.7-0.4,1.4-0.8,2-1.3
			c0.6-0.5,1-1,1.2-1.5h0.9V163.5z"/>
		<path class="st3" d="M452.5,163.5v-2.6h-4.7v-1.2l5-7h1.1v7h1.5v1.2h-1.5v2.6H452.5z M452.5,159.7v-4.9l-3.4,4.9H452.5z"/>
	</g>
	<g>
		<path class="st3" d="M393.3,162.2v1.3h-7.2c0-0.3,0-0.6,0.2-0.9c0.2-0.5,0.5-1,0.9-1.4c0.4-0.5,1-1,1.7-1.6c1.2-1,2-1.7,2.4-2.3
			c0.4-0.6,0.6-1.1,0.6-1.6c0-0.5-0.2-1-0.6-1.3c-0.4-0.4-0.9-0.5-1.5-0.5c-0.6,0-1.2,0.2-1.5,0.6c-0.4,0.4-0.6,0.9-0.6,1.6
			l-1.4-0.1c0.1-1,0.4-1.8,1.1-2.3c0.6-0.5,1.4-0.8,2.5-0.8c1,0,1.9,0.3,2.5,0.9c0.6,0.6,0.9,1.3,0.9,2.1c0,0.4-0.1,0.9-0.3,1.3
			c-0.2,0.4-0.5,0.9-0.9,1.3c-0.4,0.5-1.1,1.1-2.1,1.9c-0.8,0.7-1.3,1.1-1.5,1.4c-0.2,0.2-0.4,0.5-0.6,0.7H393.3z"/>
		<path class="st3" d="M399.4,163.5h-1.3V155c-0.3,0.3-0.7,0.6-1.3,0.9c-0.5,0.3-1,0.5-1.4,0.7v-1.3c0.7-0.4,1.4-0.8,2-1.3
			c0.6-0.5,1-1,1.2-1.5h0.9V163.5z"/>
		<path class="st3" d="M409.5,162.2v1.3h-7.2c0-0.3,0-0.6,0.2-0.9c0.2-0.5,0.5-1,0.9-1.4c0.4-0.5,1-1,1.7-1.6c1.2-1,2-1.7,2.4-2.3
			c0.4-0.6,0.6-1.1,0.6-1.6c0-0.5-0.2-1-0.6-1.3c-0.4-0.4-0.9-0.5-1.5-0.5c-0.6,0-1.2,0.2-1.5,0.6c-0.4,0.4-0.6,0.9-0.6,1.6
			l-1.4-0.1c0.1-1,0.4-1.8,1.1-2.3c0.6-0.5,1.4-0.8,2.5-0.8c1,0,1.9,0.3,2.5,0.9s0.9,1.3,0.9,2.1c0,0.4-0.1,0.9-0.3,1.3
			c-0.2,0.4-0.5,0.9-0.9,1.3c-0.4,0.5-1.1,1.1-2.1,1.9c-0.8,0.7-1.3,1.1-1.5,1.4c-0.2,0.2-0.4,0.5-0.6,0.7H409.5z"/>
	</g>
	<g>
		<path class="st3" d="M347.4,162.2v1.3h-7.2c0-0.3,0-0.6,0.2-0.9c0.2-0.5,0.5-1,0.9-1.4c0.4-0.5,1-1,1.7-1.6c1.2-1,2-1.7,2.4-2.3
			c0.4-0.6,0.6-1.1,0.6-1.6c0-0.5-0.2-1-0.6-1.3c-0.4-0.4-0.9-0.5-1.5-0.5c-0.6,0-1.2,0.2-1.5,0.6c-0.4,0.4-0.6,0.9-0.6,1.6
			l-1.4-0.1c0.1-1,0.4-1.8,1.1-2.3c0.6-0.5,1.4-0.8,2.5-0.8c1,0,1.9,0.3,2.5,0.9s0.9,1.3,0.9,2.1c0,0.4-0.1,0.9-0.3,1.3
			c-0.2,0.4-0.5,0.9-0.9,1.3c-0.4,0.5-1.1,1.1-2.1,1.9c-0.8,0.7-1.3,1.1-1.5,1.4c-0.2,0.2-0.4,0.5-0.6,0.7H347.4z"/>
		<path class="st3" d="M353.5,163.4h-1.3v-8.5c-0.3,0.3-0.7,0.6-1.3,0.9c-0.5,0.3-1,0.5-1.4,0.7v-1.3c0.7-0.4,1.4-0.8,2-1.3
			c0.6-0.5,1-1,1.2-1.5h0.9V163.4z"/>
		<path class="st3" d="M356.6,158.1c0-1.3,0.1-2.3,0.4-3.1c0.3-0.8,0.7-1.4,1.2-1.8c0.5-0.4,1.2-0.6,2-0.6c0.6,0,1.1,0.1,1.5,0.4
			c0.4,0.2,0.8,0.6,1.1,1c0.3,0.4,0.5,1,0.7,1.6c0.2,0.6,0.2,1.5,0.2,2.6c0,1.3-0.1,2.3-0.4,3.1c-0.3,0.8-0.7,1.4-1.2,1.8
			c-0.5,0.4-1.2,0.6-2,0.6c-1,0-1.9-0.4-2.5-1.1C357,161.6,356.6,160.1,356.6,158.1z M358,158.1c0,1.8,0.2,3,0.6,3.6
			c0.4,0.6,0.9,0.9,1.5,0.9c0.6,0,1.1-0.3,1.5-0.9c0.4-0.6,0.6-1.8,0.6-3.6c0-1.8-0.2-3-0.6-3.6c-0.4-0.6-0.9-0.9-1.6-0.9
			c-0.6,0-1.1,0.3-1.5,0.8C358.2,155.1,358,156.3,358,158.1z"/>
	</g>
	<g>
		<path class="st3" d="M301.6,162.2v1.3h-7.2c0-0.3,0-0.6,0.2-0.9c0.2-0.5,0.5-1,0.9-1.4c0.4-0.5,1-1,1.7-1.6c1.2-1,2-1.7,2.4-2.3
			c0.4-0.6,0.6-1.1,0.6-1.6c0-0.5-0.2-1-0.6-1.3c-0.4-0.4-0.9-0.5-1.5-0.5c-0.6,0-1.2,0.2-1.5,0.6c-0.4,0.4-0.6,0.9-0.6,1.6
			l-1.4-0.1c0.1-1,0.4-1.8,1.1-2.3c0.6-0.5,1.4-0.8,2.5-0.8c1,0,1.9,0.3,2.5,0.9c0.6,0.6,0.9,1.3,0.9,2.1c0,0.4-0.1,0.9-0.3,1.3
			c-0.2,0.4-0.5,0.9-0.9,1.3c-0.4,0.5-1.1,1.1-2.1,1.9c-0.8,0.7-1.3,1.1-1.5,1.4c-0.2,0.2-0.4,0.5-0.6,0.7H301.6z"/>
		<path class="st3" d="M302.7,158.1c0-1.3,0.1-2.3,0.4-3.1c0.3-0.8,0.7-1.4,1.2-1.8c0.5-0.4,1.2-0.6,2-0.6c0.6,0,1.1,0.1,1.5,0.4
			c0.4,0.2,0.8,0.6,1.1,1c0.3,0.4,0.5,1,0.7,1.6c0.2,0.6,0.2,1.5,0.2,2.6c0,1.3-0.1,2.3-0.4,3.1c-0.3,0.8-0.7,1.4-1.2,1.8
			c-0.5,0.4-1.2,0.6-2,0.6c-1,0-1.9-0.4-2.5-1.1C303.1,161.6,302.7,160.2,302.7,158.1z M304.1,158.1c0,1.8,0.2,3,0.6,3.6
			c0.4,0.6,0.9,0.9,1.5,0.9c0.6,0,1.1-0.3,1.5-0.9c0.4-0.6,0.6-1.8,0.6-3.6c0-1.8-0.2-3-0.6-3.6c-0.4-0.6-0.9-0.9-1.6-0.9
			c-0.6,0-1.1,0.3-1.5,0.8C304.3,155.1,304.1,156.3,304.1,158.1z"/>
		<path class="st3" d="M312.9,157.6c-0.6-0.2-1-0.5-1.2-0.9c-0.3-0.4-0.4-0.8-0.4-1.3c0-0.8,0.3-1.5,0.9-2c0.6-0.5,1.3-0.8,2.3-0.8
			c0.9,0,1.7,0.3,2.3,0.8c0.6,0.6,0.9,1.2,0.9,2c0,0.5-0.1,0.9-0.4,1.3c-0.3,0.4-0.7,0.7-1.2,0.9c0.7,0.2,1.2,0.6,1.5,1.1
			c0.3,0.5,0.5,1.1,0.5,1.7c0,0.9-0.3,1.7-1,2.3c-0.7,0.6-1.5,0.9-2.6,0.9c-1.1,0-1.9-0.3-2.6-1c-0.7-0.6-1-1.4-1-2.4
			c0-0.7,0.2-1.3,0.5-1.8C311.7,158.1,312.2,157.8,312.9,157.6z M312.2,160.3c0,0.4,0.1,0.7,0.3,1.1c0.2,0.4,0.4,0.6,0.8,0.8
			c0.4,0.2,0.7,0.3,1.1,0.3c0.6,0,1.2-0.2,1.6-0.6c0.4-0.4,0.6-0.9,0.6-1.6c0-0.6-0.2-1.2-0.6-1.6c-0.4-0.4-1-0.6-1.6-0.6
			c-0.6,0-1.1,0.2-1.6,0.6C312.4,159.2,312.2,159.7,312.2,160.3z M312.6,155.3c0,0.5,0.2,0.9,0.5,1.3c0.3,0.3,0.8,0.5,1.3,0.5
			c0.5,0,0.9-0.2,1.3-0.5c0.3-0.3,0.5-0.7,0.5-1.2c0-0.5-0.2-0.9-0.5-1.2c-0.3-0.3-0.8-0.5-1.3-0.5c-0.5,0-0.9,0.2-1.3,0.5
			C312.8,154.5,312.6,154.9,312.6,155.3z"/>
	</g>
	<g>
		<path class="st3" d="M301.6,241.4v1.3h-7.2c0-0.3,0-0.6,0.2-0.9c0.2-0.5,0.5-1,0.9-1.4c0.4-0.5,1-1,1.7-1.6c1.2-1,2-1.7,2.4-2.3
			c0.4-0.6,0.6-1.1,0.6-1.6c0-0.5-0.2-1-0.6-1.3c-0.4-0.4-0.9-0.5-1.5-0.5c-0.6,0-1.2,0.2-1.5,0.6c-0.4,0.4-0.6,0.9-0.6,1.6
			l-1.4-0.1c0.1-1,0.4-1.8,1.1-2.3c0.6-0.5,1.4-0.8,2.5-0.8c1,0,1.9,0.3,2.5,0.9c0.6,0.6,0.9,1.3,0.9,2.1c0,0.4-0.1,0.9-0.3,1.3
			c-0.2,0.4-0.5,0.9-0.9,1.3c-0.4,0.5-1.1,1.1-2.1,1.9c-0.8,0.7-1.3,1.1-1.5,1.4c-0.2,0.2-0.4,0.5-0.6,0.7H301.6z"/>
		<path class="st3" d="M302.7,237.4c0-1.3,0.1-2.3,0.4-3.1c0.3-0.8,0.7-1.4,1.2-1.8c0.5-0.4,1.2-0.6,2-0.6c0.6,0,1.1,0.1,1.5,0.4
			c0.4,0.2,0.8,0.6,1.1,1c0.3,0.4,0.5,1,0.7,1.6c0.2,0.6,0.2,1.5,0.2,2.6c0,1.3-0.1,2.3-0.4,3.1c-0.3,0.8-0.7,1.4-1.2,1.8
			c-0.5,0.4-1.2,0.6-2,0.6c-1,0-1.9-0.4-2.5-1.1C303.1,240.9,302.7,239.4,302.7,237.4z M304.1,237.4c0,1.8,0.2,3,0.6,3.6
			c0.4,0.6,0.9,0.9,1.5,0.9c0.6,0,1.1-0.3,1.5-0.9c0.4-0.6,0.6-1.8,0.6-3.6c0-1.8-0.2-3-0.6-3.6c-0.4-0.6-0.9-0.9-1.6-0.9
			c-0.6,0-1.1,0.3-1.5,0.8C304.3,234.4,304.1,235.6,304.1,237.4z"/>
		<path class="st3" d="M311.1,240.2l1.3-0.1c0.1,0.6,0.3,1,0.6,1.3c0.3,0.3,0.7,0.4,1.2,0.4c0.4,0,0.8-0.1,1.1-0.3
			c0.3-0.2,0.6-0.4,0.8-0.8c0.2-0.3,0.4-0.7,0.5-1.3s0.2-1.1,0.2-1.6c0-0.1,0-0.1,0-0.3c-0.3,0.4-0.6,0.8-1.1,1
			c-0.5,0.3-1,0.4-1.5,0.4c-0.9,0-1.7-0.3-2.3-1c-0.6-0.7-0.9-1.5-0.9-2.6c0-1.1,0.3-2,1-2.7c0.6-0.7,1.5-1,2.4-1
			c0.7,0,1.4,0.2,1.9,0.6c0.6,0.4,1,0.9,1.3,1.6c0.3,0.7,0.5,1.7,0.5,3.1c0,1.4-0.2,2.5-0.5,3.3c-0.3,0.8-0.7,1.4-1.3,1.9
			c-0.6,0.4-1.3,0.6-2.1,0.6c-0.8,0-1.5-0.2-2.1-0.7C311.5,241.7,311.2,241.1,311.1,240.2z M316.5,235.4c0-0.8-0.2-1.4-0.6-1.8
			c-0.4-0.4-0.9-0.7-1.5-0.7c-0.6,0-1.1,0.2-1.5,0.7c-0.4,0.5-0.7,1.1-0.7,1.9c0,0.7,0.2,1.3,0.6,1.7c0.4,0.4,0.9,0.6,1.5,0.6
			c0.6,0,1.1-0.2,1.5-0.6C316.3,236.8,316.5,236.2,316.5,235.4z"/>
	</g>
	<g>
		<path class="st3" d="M294.5,285.7l1.3-0.2c0.2,0.8,0.4,1.3,0.8,1.6c0.4,0.3,0.8,0.5,1.3,0.5c0.6,0,1.2-0.2,1.6-0.7
			c0.4-0.4,0.6-1,0.6-1.6c0-0.6-0.2-1.1-0.6-1.5c-0.4-0.4-0.9-0.6-1.5-0.6c-0.3,0-0.6,0-0.9,0.1l0.1-1.2c0.1,0,0.2,0,0.2,0
			c0.6,0,1.1-0.1,1.5-0.4c0.5-0.3,0.7-0.8,0.7-1.4c0-0.5-0.2-0.9-0.5-1.2c-0.3-0.3-0.8-0.5-1.3-0.5c-0.5,0-1,0.2-1.3,0.5
			c-0.3,0.3-0.6,0.8-0.7,1.5l-1.3-0.2c0.2-0.9,0.5-1.6,1.1-2.1c0.6-0.5,1.3-0.7,2.2-0.7c0.6,0,1.1,0.1,1.6,0.4
			c0.5,0.3,0.9,0.6,1.1,1c0.3,0.4,0.4,0.9,0.4,1.4c0,0.5-0.1,0.9-0.4,1.3c-0.3,0.4-0.6,0.7-1.1,0.9c0.6,0.1,1.1,0.5,1.5,0.9
			c0.4,0.5,0.5,1.1,0.5,1.8c0,0.9-0.3,1.8-1,2.4c-0.7,0.7-1.6,1-2.6,1c-1,0-1.7-0.3-2.4-0.9C294.9,287.3,294.6,286.6,294.5,285.7z"
			/>
		<path class="st3" d="M302.6,283.2c0-1.3,0.1-2.3,0.4-3.1c0.3-0.8,0.7-1.4,1.2-1.8c0.5-0.4,1.2-0.6,2-0.6c0.6,0,1.1,0.1,1.5,0.4
			c0.4,0.2,0.8,0.6,1.1,1c0.3,0.4,0.5,1,0.7,1.6c0.2,0.6,0.2,1.5,0.2,2.6c0,1.3-0.1,2.3-0.4,3.1c-0.3,0.8-0.7,1.4-1.2,1.8
			c-0.5,0.4-1.2,0.6-2,0.6c-1,0-1.9-0.4-2.5-1.1C303,286.7,302.6,285.3,302.6,283.2z M304,283.2c0,1.8,0.2,3,0.6,3.6
			c0.4,0.6,0.9,0.9,1.5,0.9s1.1-0.3,1.5-0.9c0.4-0.6,0.6-1.8,0.6-3.6c0-1.8-0.2-3-0.6-3.6c-0.4-0.6-0.9-0.9-1.6-0.9
			c-0.6,0-1.1,0.3-1.5,0.8C304.2,280.2,304,281.4,304,283.2z"/>
		<path class="st3" d="M312.8,282.7c-0.6-0.2-1-0.5-1.2-0.9c-0.3-0.4-0.4-0.8-0.4-1.3c0-0.8,0.3-1.5,0.9-2c0.6-0.5,1.3-0.8,2.3-0.8
			c0.9,0,1.7,0.3,2.3,0.8c0.6,0.6,0.9,1.2,0.9,2c0,0.5-0.1,0.9-0.4,1.3c-0.3,0.4-0.7,0.7-1.2,0.9c0.7,0.2,1.2,0.6,1.5,1.1
			c0.3,0.5,0.5,1.1,0.5,1.7c0,0.9-0.3,1.7-1,2.3c-0.7,0.6-1.5,0.9-2.6,0.9s-1.9-0.3-2.6-1c-0.7-0.6-1-1.4-1-2.4
			c0-0.7,0.2-1.3,0.5-1.8C311.6,283.2,312.2,282.9,312.8,282.7z M312.1,285.4c0,0.4,0.1,0.7,0.3,1.1c0.2,0.4,0.4,0.6,0.8,0.8
			c0.4,0.2,0.7,0.3,1.1,0.3c0.6,0,1.2-0.2,1.6-0.6c0.4-0.4,0.6-0.9,0.6-1.6c0-0.6-0.2-1.2-0.6-1.6c-0.4-0.4-1-0.6-1.6-0.6
			c-0.6,0-1.1,0.2-1.6,0.6C312.3,284.3,312.1,284.8,312.1,285.4z M312.6,280.4c0,0.5,0.2,0.9,0.5,1.3s0.8,0.5,1.3,0.5
			c0.5,0,0.9-0.2,1.3-0.5c0.3-0.3,0.5-0.7,0.5-1.2c0-0.5-0.2-0.9-0.5-1.2c-0.3-0.3-0.8-0.5-1.3-0.5c-0.5,0-0.9,0.2-1.3,0.5
			C312.7,279.6,312.6,280,312.6,280.4z"/>
	</g>
	<g>
		<path class="st3" d="M255.9,162.2v1.3h-7.2c0-0.3,0-0.6,0.2-0.9c0.2-0.5,0.5-1,0.9-1.4c0.4-0.5,1-1,1.7-1.6c1.2-1,2-1.7,2.4-2.3
			c0.4-0.6,0.6-1.1,0.6-1.6c0-0.5-0.2-1-0.6-1.3c-0.4-0.4-0.9-0.5-1.5-0.5c-0.6,0-1.2,0.2-1.5,0.6s-0.6,0.9-0.6,1.6l-1.4-0.1
			c0.1-1,0.4-1.8,1.1-2.3c0.6-0.5,1.4-0.8,2.5-0.8c1,0,1.9,0.3,2.5,0.9c0.6,0.6,0.9,1.3,0.9,2.1c0,0.4-0.1,0.9-0.3,1.3
			c-0.2,0.4-0.5,0.9-0.9,1.3c-0.4,0.5-1.1,1.1-2.1,1.9c-0.8,0.7-1.3,1.1-1.5,1.4c-0.2,0.2-0.4,0.5-0.6,0.7H255.9z"/>
		<path class="st3" d="M257,158.1c0-1.3,0.1-2.3,0.4-3.1c0.3-0.8,0.7-1.4,1.2-1.8c0.5-0.4,1.2-0.6,2-0.6c0.6,0,1.1,0.1,1.5,0.4
			c0.4,0.2,0.8,0.6,1.1,1c0.3,0.4,0.5,1,0.7,1.6c0.2,0.6,0.2,1.5,0.2,2.6c0,1.3-0.1,2.3-0.4,3.1c-0.3,0.8-0.7,1.4-1.2,1.8
			c-0.5,0.4-1.2,0.6-2,0.6c-1,0-1.9-0.4-2.5-1.1C257.3,161.6,257,160.1,257,158.1z M258.4,158.1c0,1.8,0.2,3,0.6,3.6
			c0.4,0.6,0.9,0.9,1.5,0.9c0.6,0,1.1-0.3,1.5-0.9c0.4-0.6,0.6-1.8,0.6-3.6c0-1.8-0.2-3-0.6-3.6c-0.4-0.6-0.9-0.9-1.6-0.9
			c-0.6,0-1.1,0.3-1.5,0.8C258.6,155.1,258.4,156.3,258.4,158.1z"/>
		<path class="st3" d="M272,155.3l-1.3,0.1c-0.1-0.5-0.3-0.9-0.5-1.1c-0.4-0.4-0.8-0.6-1.3-0.6c-0.4,0-0.8,0.1-1.1,0.4
			c-0.4,0.3-0.8,0.8-1,1.3c-0.2,0.6-0.4,1.4-0.4,2.5c0.3-0.5,0.7-0.9,1.2-1.1c0.5-0.2,1-0.4,1.5-0.4c0.9,0,1.6,0.3,2.3,1
			c0.6,0.7,0.9,1.5,0.9,2.5c0,0.7-0.1,1.3-0.4,1.9c-0.3,0.6-0.7,1-1.2,1.3c-0.5,0.3-1.1,0.5-1.7,0.5c-1.1,0-2-0.4-2.7-1.2
			c-0.7-0.8-1.1-2.2-1.1-4c0-2.1,0.4-3.6,1.2-4.6c0.7-0.8,1.6-1.2,2.7-1.2c0.9,0,1.6,0.2,2.1,0.7C271.6,153.7,271.9,154.4,272,155.3
			z M266.6,159.9c0,0.5,0.1,0.9,0.3,1.3c0.2,0.4,0.5,0.7,0.8,1c0.4,0.2,0.7,0.3,1.1,0.3c0.6,0,1-0.2,1.5-0.7
			c0.4-0.5,0.6-1.1,0.6-1.9c0-0.8-0.2-1.3-0.6-1.8c-0.4-0.4-0.9-0.6-1.5-0.6c-0.6,0-1.1,0.2-1.5,0.6
			C266.8,158.7,266.6,159.2,266.6,159.9z"/>
	</g>
	<g>
		<path class="st3" d="M210.1,162.2v1.3h-7.2c0-0.3,0-0.6,0.2-0.9c0.2-0.5,0.5-1,0.9-1.4c0.4-0.5,1-1,1.7-1.6c1.2-1,2-1.7,2.4-2.3
			c0.4-0.6,0.6-1.1,0.6-1.6c0-0.5-0.2-1-0.6-1.3c-0.4-0.4-0.9-0.5-1.5-0.5c-0.6,0-1.2,0.2-1.5,0.6s-0.6,0.9-0.6,1.6l-1.4-0.1
			c0.1-1,0.4-1.8,1.1-2.3c0.6-0.5,1.4-0.8,2.5-0.8c1,0,1.9,0.3,2.5,0.9c0.6,0.6,0.9,1.3,0.9,2.1c0,0.4-0.1,0.9-0.3,1.3
			c-0.2,0.4-0.5,0.9-0.9,1.3c-0.4,0.5-1.1,1.1-2.1,1.9c-0.8,0.7-1.3,1.1-1.5,1.4c-0.2,0.2-0.4,0.5-0.6,0.7H210.1z"/>
		<path class="st3" d="M211.2,158.1c0-1.3,0.1-2.3,0.4-3.1c0.3-0.8,0.7-1.4,1.2-1.8c0.5-0.4,1.2-0.6,2-0.6c0.6,0,1.1,0.1,1.5,0.4
			c0.4,0.2,0.8,0.6,1.1,1c0.3,0.4,0.5,1,0.7,1.6c0.2,0.6,0.2,1.5,0.2,2.6c0,1.3-0.1,2.3-0.4,3.1c-0.3,0.8-0.7,1.4-1.2,1.8
			c-0.5,0.4-1.2,0.6-2,0.6c-1,0-1.9-0.4-2.5-1.1C211.6,161.6,211.2,160.1,211.2,158.1z M212.6,158.1c0,1.8,0.2,3,0.6,3.6
			c0.4,0.6,0.9,0.9,1.5,0.9c0.6,0,1.1-0.3,1.5-0.9c0.4-0.6,0.6-1.8,0.6-3.6c0-1.8-0.2-3-0.6-3.6c-0.4-0.6-0.9-0.9-1.6-0.9
			c-0.6,0-1.1,0.3-1.5,0.8C212.8,155.1,212.6,156.3,212.6,158.1z"/>
		<path class="st3" d="M223.7,163.4v-2.6h-4.7v-1.2l5-7h1.1v7h1.5v1.2H225v2.6H223.7z M223.7,159.6v-4.9l-3.4,4.9H223.7z"/>
	</g>
	<g>
		<path class="st3" d="M164.4,162.1v1.3h-7.2c0-0.3,0-0.6,0.2-0.9c0.2-0.5,0.5-1,0.9-1.4c0.4-0.5,1-1,1.7-1.6c1.2-1,2-1.7,2.4-2.3
			c0.4-0.6,0.6-1.1,0.6-1.6c0-0.5-0.2-1-0.6-1.3c-0.4-0.4-0.9-0.5-1.5-0.5c-0.6,0-1.2,0.2-1.5,0.6c-0.4,0.4-0.6,0.9-0.6,1.6
			l-1.4-0.1c0.1-1,0.4-1.8,1.1-2.3c0.6-0.5,1.4-0.8,2.5-0.8c1,0,1.9,0.3,2.5,0.9c0.6,0.6,0.9,1.3,0.9,2.1c0,0.4-0.1,0.9-0.3,1.3
			c-0.2,0.4-0.5,0.9-0.9,1.3c-0.4,0.5-1.1,1.1-2.1,1.9c-0.8,0.7-1.3,1.1-1.5,1.4c-0.2,0.2-0.4,0.5-0.6,0.7H164.4z"/>
		<path class="st3" d="M165.5,158c0-1.3,0.1-2.3,0.4-3.1c0.3-0.8,0.7-1.4,1.2-1.8c0.5-0.4,1.2-0.6,2-0.6c0.6,0,1.1,0.1,1.5,0.4
			c0.4,0.2,0.8,0.6,1.1,1c0.3,0.4,0.5,1,0.7,1.6c0.2,0.6,0.2,1.5,0.2,2.6c0,1.3-0.1,2.3-0.4,3.1c-0.3,0.8-0.7,1.4-1.2,1.8
			c-0.5,0.4-1.2,0.6-2,0.6c-1,0-1.9-0.4-2.5-1.1C165.9,161.6,165.5,160.1,165.5,158z M166.9,158c0,1.8,0.2,3,0.6,3.6
			c0.4,0.6,0.9,0.9,1.5,0.9c0.6,0,1.1-0.3,1.5-0.9c0.4-0.6,0.6-1.8,0.6-3.6c0-1.8-0.2-3-0.6-3.6c-0.4-0.6-0.9-0.9-1.6-0.9
			c-0.6,0-1.1,0.3-1.5,0.8C167.1,155,166.9,156.3,166.9,158z"/>
		<path class="st3" d="M180.7,162.1v1.3h-7.2c0-0.3,0-0.6,0.2-0.9c0.2-0.5,0.5-1,0.9-1.4c0.4-0.5,1-1,1.7-1.6c1.2-1,2-1.7,2.4-2.3
			c0.4-0.6,0.6-1.1,0.6-1.6c0-0.5-0.2-1-0.6-1.3c-0.4-0.4-0.9-0.5-1.5-0.5c-0.6,0-1.2,0.2-1.5,0.6s-0.6,0.9-0.6,1.6l-1.4-0.1
			c0.1-1,0.4-1.8,1.1-2.3c0.6-0.5,1.4-0.8,2.5-0.8c1,0,1.9,0.3,2.5,0.9c0.6,0.6,0.9,1.3,0.9,2.1c0,0.4-0.1,0.9-0.3,1.3
			c-0.2,0.4-0.5,0.9-0.9,1.3c-0.4,0.5-1.1,1.1-2.1,1.9c-0.8,0.7-1.3,1.1-1.5,1.4c-0.2,0.2-0.4,0.5-0.6,0.7H180.7z"/>
	</g>
	<g>
		<path class="st3" d="M118.6,162.2v1.3h-7.2c0-0.3,0-0.6,0.2-0.9c0.2-0.5,0.5-1,0.9-1.4c0.4-0.5,1-1,1.7-1.6c1.2-1,2-1.7,2.4-2.3
			c0.4-0.6,0.6-1.1,0.6-1.6c0-0.5-0.2-1-0.6-1.3c-0.4-0.4-0.9-0.5-1.5-0.5c-0.6,0-1.2,0.2-1.5,0.6c-0.4,0.4-0.6,0.9-0.6,1.6
			l-1.4-0.1c0.1-1,0.4-1.8,1.1-2.3c0.6-0.5,1.4-0.8,2.5-0.8c1,0,1.9,0.3,2.5,0.9s0.9,1.3,0.9,2.1c0,0.4-0.1,0.9-0.3,1.3
			c-0.2,0.4-0.5,0.9-0.9,1.3c-0.4,0.5-1.1,1.1-2.1,1.9c-0.8,0.7-1.3,1.1-1.5,1.4c-0.2,0.2-0.4,0.5-0.6,0.7H118.6z"/>
		<path class="st3" d="M119.7,158.1c0-1.3,0.1-2.3,0.4-3.1c0.3-0.8,0.7-1.4,1.2-1.8c0.5-0.4,1.2-0.6,2-0.6c0.6,0,1.1,0.1,1.5,0.4
			c0.4,0.2,0.8,0.6,1.1,1c0.3,0.4,0.5,1,0.7,1.6c0.2,0.6,0.2,1.5,0.2,2.6c0,1.3-0.1,2.3-0.4,3.1c-0.3,0.8-0.7,1.4-1.2,1.8
			c-0.5,0.4-1.2,0.6-2,0.6c-1,0-1.9-0.4-2.5-1.1C120.1,161.6,119.7,160.1,119.7,158.1z M121.1,158.1c0,1.8,0.2,3,0.6,3.6
			c0.4,0.6,0.9,0.9,1.5,0.9c0.6,0,1.1-0.3,1.5-0.9c0.4-0.6,0.6-1.8,0.6-3.6c0-1.8-0.2-3-0.6-3.6c-0.4-0.6-0.9-0.9-1.6-0.9
			c-0.6,0-1.1,0.3-1.5,0.8C121.3,155.1,121.1,156.3,121.1,158.1z"/>
		<path class="st3" d="M127.9,158.1c0-1.3,0.1-2.3,0.4-3.1c0.3-0.8,0.7-1.4,1.2-1.8c0.5-0.4,1.2-0.6,2-0.6c0.6,0,1.1,0.1,1.5,0.4
			c0.4,0.2,0.8,0.6,1.1,1c0.3,0.4,0.5,1,0.7,1.6c0.2,0.6,0.2,1.5,0.2,2.6c0,1.3-0.1,2.3-0.4,3.1c-0.3,0.8-0.7,1.4-1.2,1.8
			c-0.5,0.4-1.2,0.6-2,0.6c-1,0-1.9-0.4-2.5-1.1C128.2,161.6,127.9,160.1,127.9,158.1z M129.2,158.1c0,1.8,0.2,3,0.6,3.6
			c0.4,0.6,0.9,0.9,1.5,0.9c0.6,0,1.1-0.3,1.5-0.9c0.4-0.6,0.6-1.8,0.6-3.6c0-1.8-0.2-3-0.6-3.6c-0.4-0.6-0.9-0.9-1.6-0.9
			c-0.6,0-1.1,0.3-1.5,0.8C129.5,155.1,129.2,156.3,129.2,158.1z"/>
	</g>
	<g>
		<path class="st3" d="M436.2,528.6V526h-4.7v-1.2l5-7h1.1v7h1.5v1.2h-1.5v2.6H436.2z M436.2,524.8v-4.9l-3.4,4.9H436.2z"/>
		<path class="st3" d="M445.1,528.6h-1.3v-8.5c-0.3,0.3-0.7,0.6-1.3,0.9c-0.5,0.3-1,0.5-1.4,0.7v-1.3c0.7-0.4,1.4-0.8,2-1.3
			c0.6-0.5,1-1,1.2-1.5h0.9V528.6z"/>
		<path class="st3" d="M448.2,525.7l1.4-0.1c0.1,0.7,0.3,1.2,0.7,1.5c0.4,0.3,0.8,0.5,1.4,0.5c0.6,0,1.2-0.2,1.6-0.7
			c0.4-0.5,0.7-1.1,0.7-1.9c0-0.8-0.2-1.4-0.6-1.8c-0.4-0.4-1-0.7-1.7-0.7c-0.4,0-0.8,0.1-1.2,0.3c-0.3,0.2-0.6,0.4-0.8,0.8
			l-1.3-0.2l1.1-5.6h5.4v1.3h-4.3l-0.6,2.9c0.7-0.5,1.3-0.7,2.1-0.7c0.9,0,1.7,0.3,2.4,1c0.7,0.7,1,1.5,1,2.5c0,1-0.3,1.8-0.9,2.5
			c-0.7,0.9-1.6,1.3-2.9,1.3c-1,0-1.8-0.3-2.4-0.8C448.7,527.4,448.3,526.7,448.2,525.7z"/>
	</g>
	<g>
		<path class="st3" d="M390.5,528.5v-2.6h-4.7v-1.2l5-7h1.1v7h1.5v1.2h-1.5v2.6H390.5z M390.5,524.7v-4.9l-3.4,4.9H390.5z"/>
		<path class="st3" d="M399.4,528.5h-1.3V520c-0.3,0.3-0.7,0.6-1.3,0.9c-0.5,0.3-1,0.5-1.4,0.7v-1.3c0.7-0.4,1.4-0.8,2-1.3
			c0.6-0.5,1-1,1.2-1.5h0.9V528.5z"/>
		<path class="st3" d="M402.5,525.7l1.3-0.2c0.2,0.8,0.4,1.3,0.8,1.6c0.4,0.3,0.8,0.5,1.3,0.5c0.6,0,1.2-0.2,1.6-0.7
			c0.4-0.4,0.6-1,0.6-1.6c0-0.6-0.2-1.1-0.6-1.5c-0.4-0.4-0.9-0.6-1.5-0.6c-0.3,0-0.6,0-0.9,0.1l0.1-1.2c0.1,0,0.2,0,0.2,0
			c0.6,0,1.1-0.1,1.5-0.4c0.5-0.3,0.7-0.8,0.7-1.4c0-0.5-0.2-0.9-0.5-1.2c-0.3-0.3-0.8-0.5-1.3-0.5c-0.5,0-1,0.2-1.3,0.5
			s-0.6,0.8-0.7,1.5l-1.3-0.2c0.2-0.9,0.5-1.6,1.1-2.1c0.6-0.5,1.3-0.7,2.2-0.7c0.6,0,1.1,0.1,1.6,0.4c0.5,0.3,0.9,0.6,1.1,1
			c0.3,0.4,0.4,0.9,0.4,1.4c0,0.5-0.1,0.9-0.4,1.3c-0.3,0.4-0.6,0.7-1.1,0.9c0.6,0.1,1.1,0.5,1.5,0.9c0.4,0.5,0.5,1.1,0.5,1.8
			c0,0.9-0.3,1.8-1,2.4c-0.7,0.7-1.6,1-2.6,1c-1,0-1.7-0.3-2.4-0.9C403,527.3,402.6,526.6,402.5,525.7z"/>
	</g>
	<g>
		<path class="st3" d="M345.9,527.6V525h-4.7v-1.2l5-7h1.1v7h1.5v1.2h-1.5v2.6H345.9z M345.9,523.8v-4.9l-3.4,4.9H345.9z"/>
		<path class="st3" d="M354.8,527.6h-1.3v-8.5c-0.3,0.3-0.7,0.6-1.3,0.9c-0.5,0.3-1,0.5-1.4,0.7v-1.3c0.7-0.4,1.4-0.8,2-1.3
			c0.6-0.5,1-1,1.2-1.5h0.9V527.6z"/>
		<path class="st3" d="M362.9,527.6h-1.3v-8.5c-0.3,0.3-0.7,0.6-1.3,0.9c-0.5,0.3-1,0.5-1.4,0.7v-1.3c0.7-0.4,1.4-0.8,2-1.3
			c0.6-0.5,1-1,1.2-1.5h0.9V527.6z"/>
	</g>
	<g>
		<path class="st3" d="M299,528.6V526h-4.7v-1.2l5-7h1.1v7h1.5v1.2h-1.5v2.6H299z M299,524.7v-4.9l-3.4,4.9H299z"/>
		<path class="st3" d="M302.9,523.2c0-1.3,0.1-2.3,0.4-3.1c0.3-0.8,0.7-1.4,1.2-1.8c0.5-0.4,1.2-0.6,2-0.6c0.6,0,1.1,0.1,1.5,0.4
			c0.4,0.2,0.8,0.6,1.1,1c0.3,0.4,0.5,1,0.7,1.6c0.2,0.6,0.2,1.5,0.2,2.6c0,1.3-0.1,2.3-0.4,3.1c-0.3,0.8-0.7,1.4-1.2,1.8
			c-0.5,0.4-1.2,0.6-2,0.6c-1,0-1.9-0.4-2.5-1.1C303.2,526.7,302.9,525.2,302.9,523.2z M304.2,523.2c0,1.8,0.2,3,0.6,3.6
			c0.4,0.6,0.9,0.9,1.5,0.9s1.1-0.3,1.5-0.9c0.4-0.6,0.6-1.8,0.6-3.6c0-1.8-0.2-3-0.6-3.6c-0.4-0.6-0.9-0.9-1.6-0.9
			c-0.6,0-1.1,0.3-1.5,0.8C304.5,520.2,304.2,521.4,304.2,523.2z"/>
		<path class="st3" d="M311.2,526l1.3-0.1c0.1,0.6,0.3,1,0.6,1.3c0.3,0.3,0.7,0.4,1.2,0.4c0.4,0,0.8-0.1,1.1-0.3
			c0.3-0.2,0.6-0.4,0.8-0.8c0.2-0.3,0.4-0.7,0.5-1.3s0.2-1.1,0.2-1.6c0-0.1,0-0.1,0-0.3c-0.3,0.4-0.6,0.8-1.1,1
			c-0.5,0.3-1,0.4-1.5,0.4c-0.9,0-1.7-0.3-2.3-1c-0.6-0.7-0.9-1.5-0.9-2.6c0-1.1,0.3-2,1-2.7c0.6-0.7,1.5-1,2.4-1
			c0.7,0,1.4,0.2,1.9,0.6c0.6,0.4,1,0.9,1.3,1.6c0.3,0.7,0.5,1.7,0.5,3.1c0,1.4-0.2,2.5-0.5,3.3c-0.3,0.8-0.7,1.4-1.3,1.9
			c-0.6,0.4-1.3,0.6-2.1,0.6c-0.8,0-1.5-0.2-2.1-0.7C311.6,527.6,311.3,526.9,311.2,526z M316.7,521.2c0-0.8-0.2-1.4-0.6-1.8
			c-0.4-0.4-0.9-0.7-1.5-0.7c-0.6,0-1.1,0.2-1.5,0.7c-0.4,0.5-0.7,1.1-0.7,1.9c0,0.7,0.2,1.3,0.6,1.7c0.4,0.4,0.9,0.6,1.5,0.6
			c0.6,0,1.1-0.2,1.5-0.6C316.5,522.6,316.7,522,316.7,521.2z"/>
	</g>
	<g>
		<path class="st3" d="M253.3,528.5v-2.6h-4.7v-1.2l5-7h1.1v7h1.5v1.2h-1.5v2.6H253.3z M253.3,524.7v-4.9l-3.4,4.9H253.3z"/>
		<path class="st3" d="M257.1,523.2c0-1.3,0.1-2.3,0.4-3.1c0.3-0.8,0.7-1.4,1.2-1.8c0.5-0.4,1.2-0.6,2-0.6c0.6,0,1.1,0.1,1.5,0.4
			c0.4,0.2,0.8,0.6,1.1,1c0.3,0.4,0.5,1,0.7,1.6c0.2,0.6,0.2,1.5,0.2,2.6c0,1.3-0.1,2.3-0.4,3.1c-0.3,0.8-0.7,1.4-1.2,1.8
			c-0.5,0.4-1.2,0.6-2,0.6c-1,0-1.9-0.4-2.5-1.1C257.5,526.7,257.1,525.2,257.1,523.2z M258.5,523.2c0,1.8,0.2,3,0.6,3.6
			c0.4,0.6,0.9,0.9,1.5,0.9c0.6,0,1.1-0.3,1.5-0.9c0.4-0.6,0.6-1.8,0.6-3.6c0-1.8-0.2-3-0.6-3.6c-0.4-0.6-0.9-0.9-1.6-0.9
			c-0.6,0-1.1,0.3-1.5,0.8C258.7,520.2,258.5,521.4,258.5,523.2z"/>
		<path class="st3" d="M265.3,519.1v-1.3h7v1c-0.7,0.7-1.4,1.7-2.1,2.9c-0.7,1.2-1.2,2.5-1.6,3.8c-0.3,0.9-0.4,1.9-0.5,3h-1.4
			c0-0.9,0.2-1.9,0.5-3.1c0.3-1.2,0.8-2.4,1.4-3.5c0.6-1.1,1.2-2.1,1.9-2.8H265.3z"/>
	</g>
	<g>
		<path class="st3" d="M117,527.5v-2.6h-4.7v-1.2l5-7h1.1v7h1.5v1.2h-1.5v2.6H117z M117,523.7v-4.9l-3.4,4.9H117z"/>
		<path class="st3" d="M120.9,522.1c0-1.3,0.1-2.3,0.4-3.1c0.3-0.8,0.7-1.4,1.2-1.8c0.5-0.4,1.2-0.6,2-0.6c0.6,0,1.1,0.1,1.5,0.4
			c0.4,0.2,0.8,0.6,1.1,1c0.3,0.4,0.5,1,0.7,1.6c0.2,0.6,0.2,1.5,0.2,2.6c0,1.3-0.1,2.3-0.4,3.1c-0.3,0.8-0.7,1.4-1.2,1.8
			c-0.5,0.4-1.2,0.6-2,0.6c-1,0-1.9-0.4-2.5-1.1C121.3,525.7,120.9,524.2,120.9,522.1z M122.3,522.1c0,1.8,0.2,3,0.6,3.6
			c0.4,0.6,0.9,0.9,1.5,0.9s1.1-0.3,1.5-0.9c0.4-0.6,0.6-1.8,0.6-3.6c0-1.8-0.2-3-0.6-3.6c-0.4-0.6-0.9-0.9-1.6-0.9
			c-0.6,0-1.1,0.3-1.5,0.8C122.5,519.1,122.3,520.4,122.3,522.1z"/>
		<path class="st3" d="M134.1,527.5h-1.3V519c-0.3,0.3-0.7,0.6-1.3,0.9c-0.5,0.3-1,0.5-1.4,0.7v-1.3c0.7-0.4,1.4-0.8,2-1.3
			c0.6-0.5,1-1,1.2-1.5h0.9V527.5z"/>
	</g>
	<g>
		<path class="st3" d="M255.9,241.4v1.3h-7.2c0-0.3,0-0.6,0.2-0.9c0.2-0.5,0.5-1,0.9-1.4c0.4-0.5,1-1,1.7-1.6c1.2-1,2-1.7,2.4-2.3
			c0.4-0.6,0.6-1.1,0.6-1.6c0-0.5-0.2-1-0.6-1.3c-0.4-0.4-0.9-0.5-1.5-0.5c-0.6,0-1.2,0.2-1.5,0.6s-0.6,0.9-0.6,1.6l-1.4-0.1
			c0.1-1,0.4-1.8,1.1-2.3c0.6-0.5,1.4-0.8,2.5-0.8c1,0,1.9,0.3,2.5,0.9c0.6,0.6,0.9,1.3,0.9,2.1c0,0.4-0.1,0.9-0.3,1.3
			c-0.2,0.4-0.5,0.9-0.9,1.3c-0.4,0.5-1.1,1.1-2.1,1.9c-0.8,0.7-1.3,1.1-1.5,1.4c-0.2,0.2-0.4,0.5-0.6,0.7H255.9z"/>
		<path class="st3" d="M257,237.4c0-1.3,0.1-2.3,0.4-3.1c0.3-0.8,0.7-1.4,1.2-1.8c0.5-0.4,1.2-0.6,2-0.6c0.6,0,1.1,0.1,1.5,0.4
			c0.4,0.2,0.8,0.6,1.1,1c0.3,0.4,0.5,1,0.7,1.6c0.2,0.6,0.2,1.5,0.2,2.6c0,1.3-0.1,2.3-0.4,3.1c-0.3,0.8-0.7,1.4-1.2,1.8
			c-0.5,0.4-1.2,0.6-2,0.6c-1,0-1.9-0.4-2.5-1.1C257.3,240.9,257,239.4,257,237.4z M258.3,237.4c0,1.8,0.2,3,0.6,3.6
			c0.4,0.6,0.9,0.9,1.5,0.9c0.6,0,1.1-0.3,1.5-0.9c0.4-0.6,0.6-1.8,0.6-3.6c0-1.8-0.2-3-0.6-3.6c-0.4-0.6-0.9-0.9-1.6-0.9
			c-0.6,0-1.1,0.3-1.5,0.8C258.6,234.4,258.3,235.6,258.3,237.4z"/>
		<path class="st3" d="M265.2,233.3V232h7v1c-0.7,0.7-1.4,1.7-2.1,2.9c-0.7,1.2-1.2,2.5-1.6,3.8c-0.3,0.9-0.4,1.9-0.5,3h-1.4
			c0-0.9,0.2-1.9,0.5-3.1c0.3-1.2,0.8-2.4,1.4-3.5c0.6-1.1,1.2-2.1,1.9-2.8H265.2z"/>
	</g>
	<g>
		<path class="st3" d="M248.8,285.7l1.3-0.2c0.2,0.8,0.4,1.3,0.8,1.6c0.4,0.3,0.8,0.5,1.3,0.5c0.6,0,1.2-0.2,1.6-0.7
			c0.4-0.4,0.6-1,0.6-1.6c0-0.6-0.2-1.1-0.6-1.5c-0.4-0.4-0.9-0.6-1.5-0.6c-0.3,0-0.6,0-0.9,0.1l0.1-1.2c0.1,0,0.2,0,0.2,0
			c0.6,0,1.1-0.1,1.5-0.4c0.5-0.3,0.7-0.8,0.7-1.4c0-0.5-0.2-0.9-0.5-1.2c-0.3-0.3-0.8-0.5-1.3-0.5c-0.5,0-1,0.2-1.3,0.5
			c-0.3,0.3-0.6,0.8-0.7,1.5l-1.3-0.2c0.2-0.9,0.5-1.6,1.1-2.1c0.6-0.5,1.3-0.7,2.2-0.7c0.6,0,1.1,0.1,1.6,0.4
			c0.5,0.3,0.9,0.6,1.1,1c0.3,0.4,0.4,0.9,0.4,1.4c0,0.5-0.1,0.9-0.4,1.3c-0.3,0.4-0.6,0.7-1.1,0.9c0.6,0.1,1.1,0.5,1.5,0.9
			c0.4,0.5,0.5,1.1,0.5,1.8c0,0.9-0.3,1.8-1,2.4c-0.7,0.7-1.6,1-2.6,1c-1,0-1.7-0.3-2.4-0.9C249.2,287.3,248.8,286.6,248.8,285.7z"
			/>
		<path class="st3" d="M256.9,283.2c0-1.3,0.1-2.3,0.4-3.1c0.3-0.8,0.7-1.4,1.2-1.8c0.5-0.4,1.2-0.6,2-0.6c0.6,0,1.1,0.1,1.5,0.4
			c0.4,0.2,0.8,0.6,1.1,1c0.3,0.4,0.5,1,0.7,1.6c0.2,0.6,0.2,1.5,0.2,2.6c0,1.3-0.1,2.3-0.4,3.1c-0.3,0.8-0.7,1.4-1.2,1.8
			c-0.5,0.4-1.2,0.6-2,0.6c-1,0-1.9-0.4-2.5-1.1C257.2,286.7,256.9,285.2,256.9,283.2z M258.3,283.2c0,1.8,0.2,3,0.6,3.6
			c0.4,0.6,0.9,0.9,1.5,0.9c0.6,0,1.1-0.3,1.5-0.9c0.4-0.6,0.6-1.8,0.6-3.6c0-1.8-0.2-3-0.6-3.6c-0.4-0.6-0.9-0.9-1.6-0.9
			c-0.6,0-1.1,0.3-1.5,0.8C258.5,280.2,258.3,281.4,258.3,283.2z"/>
		<path class="st3" d="M271.9,280.4l-1.3,0.1c-0.1-0.5-0.3-0.9-0.5-1.1c-0.4-0.4-0.8-0.6-1.3-0.6c-0.4,0-0.8,0.1-1.1,0.4
			c-0.4,0.3-0.8,0.8-1,1.3c-0.2,0.6-0.4,1.4-0.4,2.5c0.3-0.5,0.7-0.9,1.2-1.1c0.5-0.2,1-0.4,1.5-0.4c0.9,0,1.6,0.3,2.3,1
			c0.6,0.7,0.9,1.5,0.9,2.5c0,0.7-0.1,1.3-0.4,1.9c-0.3,0.6-0.7,1-1.2,1.3c-0.5,0.3-1.1,0.5-1.7,0.5c-1.1,0-2-0.4-2.7-1.2
			c-0.7-0.8-1.1-2.2-1.1-4c0-2.1,0.4-3.6,1.2-4.6c0.7-0.8,1.6-1.2,2.7-1.2c0.9,0,1.6,0.2,2.1,0.7
			C271.5,278.9,271.8,279.5,271.9,280.4z M266.5,285c0,0.5,0.1,0.9,0.3,1.3c0.2,0.4,0.5,0.7,0.8,1c0.4,0.2,0.7,0.3,1.1,0.3
			c0.6,0,1-0.2,1.5-0.7c0.4-0.5,0.6-1.1,0.6-1.9c0-0.8-0.2-1.3-0.6-1.8c-0.4-0.4-0.9-0.6-1.5-0.6c-0.6,0-1.1,0.2-1.5,0.6
			C266.7,283.8,266.5,284.3,266.5,285z"/>
	</g>
	<g>
		<path class="st3" d="M210.1,241.5v1.3h-7.2c0-0.3,0-0.6,0.2-0.9c0.2-0.5,0.5-1,0.9-1.4c0.4-0.5,1-1,1.7-1.6c1.2-1,2-1.7,2.4-2.3
			c0.4-0.6,0.6-1.1,0.6-1.6c0-0.5-0.2-1-0.6-1.3c-0.4-0.4-0.9-0.5-1.5-0.5c-0.6,0-1.2,0.2-1.5,0.6c-0.4,0.4-0.6,0.9-0.6,1.6
			l-1.4-0.1c0.1-1,0.4-1.8,1.1-2.3c0.6-0.5,1.4-0.8,2.5-0.8c1,0,1.9,0.3,2.5,0.9c0.6,0.6,0.9,1.3,0.9,2.1c0,0.4-0.1,0.9-0.3,1.3
			c-0.2,0.4-0.5,0.9-0.9,1.3c-0.4,0.5-1.1,1.1-2.1,1.9c-0.8,0.7-1.3,1.1-1.5,1.4c-0.2,0.2-0.4,0.5-0.6,0.7H210.1z"/>
		<path class="st3" d="M211.2,237.4c0-1.3,0.1-2.3,0.4-3.1c0.3-0.8,0.7-1.4,1.2-1.8c0.5-0.4,1.2-0.6,2-0.6c0.6,0,1.1,0.1,1.5,0.4
			c0.4,0.2,0.8,0.6,1.1,1c0.3,0.4,0.5,1,0.7,1.6c0.2,0.6,0.2,1.5,0.2,2.6c0,1.3-0.1,2.3-0.4,3.1c-0.3,0.8-0.7,1.4-1.2,1.8
			c-0.5,0.4-1.2,0.6-2,0.6c-1,0-1.9-0.4-2.5-1.1C211.5,240.9,211.2,239.5,211.2,237.4z M212.6,237.4c0,1.8,0.2,3,0.6,3.6
			c0.4,0.6,0.9,0.9,1.5,0.9c0.6,0,1.1-0.3,1.5-0.9c0.4-0.6,0.6-1.8,0.6-3.6c0-1.8-0.2-3-0.6-3.6c-0.4-0.6-0.9-0.9-1.6-0.9
			c-0.6,0-1.1,0.3-1.5,0.8C212.8,234.4,212.6,235.6,212.6,237.4z"/>
		<path class="st3" d="M219.3,239.9l1.4-0.1c0.1,0.7,0.3,1.2,0.7,1.5c0.4,0.3,0.8,0.5,1.4,0.5c0.6,0,1.2-0.2,1.6-0.7
			c0.4-0.5,0.7-1.1,0.7-1.9c0-0.8-0.2-1.4-0.6-1.8c-0.4-0.4-1-0.7-1.7-0.7c-0.4,0-0.8,0.1-1.2,0.3c-0.3,0.2-0.6,0.4-0.8,0.8
			l-1.3-0.2l1.1-5.6h5.4v1.3h-4.3l-0.6,2.9c0.7-0.5,1.3-0.7,2.1-0.7c0.9,0,1.7,0.3,2.4,1c0.7,0.7,1,1.5,1,2.5c0,1-0.3,1.8-0.9,2.5
			c-0.7,0.9-1.6,1.3-2.9,1.3c-1,0-1.8-0.3-2.4-0.8C219.8,241.6,219.4,240.8,219.3,239.9z"/>
	</g>
	<g>
		<path class="st3" d="M203,285.7l1.3-0.2c0.2,0.8,0.4,1.3,0.8,1.6c0.4,0.3,0.8,0.5,1.3,0.5c0.6,0,1.2-0.2,1.6-0.7
			c0.4-0.4,0.6-1,0.6-1.6c0-0.6-0.2-1.1-0.6-1.5c-0.4-0.4-0.9-0.6-1.5-0.6c-0.3,0-0.6,0-0.9,0.1l0.1-1.2c0.1,0,0.2,0,0.2,0
			c0.6,0,1.1-0.1,1.5-0.4c0.5-0.3,0.7-0.8,0.7-1.4c0-0.5-0.2-0.9-0.5-1.2c-0.3-0.3-0.8-0.5-1.3-0.5c-0.5,0-1,0.2-1.3,0.5
			c-0.3,0.3-0.6,0.8-0.7,1.5l-1.3-0.2c0.2-0.9,0.5-1.6,1.1-2.1c0.6-0.5,1.3-0.7,2.2-0.7c0.6,0,1.1,0.1,1.6,0.4
			c0.5,0.3,0.9,0.6,1.1,1c0.3,0.4,0.4,0.9,0.4,1.4c0,0.5-0.1,0.9-0.4,1.3c-0.3,0.4-0.6,0.7-1.1,0.9c0.6,0.1,1.1,0.5,1.5,0.9
			c0.4,0.5,0.5,1.1,0.5,1.8c0,0.9-0.3,1.8-1,2.4c-0.7,0.7-1.6,1-2.6,1c-1,0-1.7-0.3-2.4-0.9C203.5,287.3,203.1,286.6,203,285.7z"/>
		<path class="st3" d="M211.2,283.2c0-1.3,0.1-2.3,0.4-3.1c0.3-0.8,0.7-1.4,1.2-1.8c0.5-0.4,1.2-0.6,2-0.6c0.6,0,1.1,0.1,1.5,0.4
			c0.4,0.2,0.8,0.6,1.1,1c0.3,0.4,0.5,1,0.7,1.6c0.2,0.6,0.2,1.5,0.2,2.6c0,1.3-0.1,2.3-0.4,3.1c-0.3,0.8-0.7,1.4-1.2,1.8
			c-0.5,0.4-1.2,0.6-2,0.6c-1,0-1.9-0.4-2.5-1.1C211.5,286.7,211.2,285.2,211.2,283.2z M212.5,283.2c0,1.8,0.2,3,0.6,3.6
			c0.4,0.6,0.9,0.9,1.5,0.9c0.6,0,1.1-0.3,1.5-0.9c0.4-0.6,0.6-1.8,0.6-3.6c0-1.8-0.2-3-0.6-3.6c-0.4-0.6-0.9-0.9-1.6-0.9
			c-0.6,0-1.1,0.3-1.5,0.8C212.8,280.2,212.5,281.4,212.5,283.2z"/>
		<path class="st3" d="M223.6,288.5v-2.6h-4.7v-1.2l5-7h1.1v7h1.5v1.2h-1.5v2.6H223.6z M223.6,284.7v-4.9l-3.4,4.9H223.6z"/>
	</g>
	<g>
		<path class="st3" d="M164.3,241.4v1.3h-7.2c0-0.3,0-0.6,0.2-0.9c0.2-0.5,0.5-1,0.9-1.4c0.4-0.5,1-1,1.7-1.6c1.2-1,2-1.7,2.4-2.3
			c0.4-0.6,0.6-1.1,0.6-1.6c0-0.5-0.2-1-0.6-1.3c-0.4-0.4-0.9-0.5-1.5-0.5c-0.6,0-1.2,0.2-1.5,0.6c-0.4,0.4-0.6,0.9-0.6,1.6
			l-1.4-0.1c0.1-1,0.4-1.8,1.1-2.3c0.6-0.5,1.4-0.8,2.5-0.8c1,0,1.9,0.3,2.5,0.9c0.6,0.6,0.9,1.3,0.9,2.1c0,0.4-0.1,0.9-0.3,1.3
			c-0.2,0.4-0.5,0.9-0.9,1.3c-0.4,0.5-1.1,1.1-2.1,1.9c-0.8,0.7-1.3,1.1-1.5,1.4c-0.2,0.2-0.4,0.5-0.6,0.7H164.3z"/>
		<path class="st3" d="M165.5,237.4c0-1.3,0.1-2.3,0.4-3.1c0.3-0.8,0.7-1.4,1.2-1.8c0.5-0.4,1.2-0.6,2-0.6c0.6,0,1.1,0.1,1.5,0.4
			c0.4,0.2,0.8,0.6,1.1,1c0.3,0.4,0.5,1,0.7,1.6c0.2,0.6,0.2,1.5,0.2,2.6c0,1.3-0.1,2.3-0.4,3.1c-0.3,0.8-0.7,1.4-1.2,1.8
			c-0.5,0.4-1.2,0.6-2,0.6c-1,0-1.9-0.4-2.5-1.1C165.8,240.9,165.5,239.4,165.5,237.4z M166.8,237.4c0,1.8,0.2,3,0.6,3.6
			c0.4,0.6,0.9,0.9,1.5,0.9c0.6,0,1.1-0.3,1.5-0.9c0.4-0.6,0.6-1.8,0.6-3.6c0-1.8-0.2-3-0.6-3.6c-0.4-0.6-0.9-0.9-1.6-0.9
			c-0.6,0-1.1,0.3-1.5,0.8C167.1,234.4,166.8,235.6,166.8,237.4z"/>
		<path class="st3" d="M173.6,239.9l1.3-0.2c0.2,0.8,0.4,1.3,0.8,1.6c0.4,0.3,0.8,0.5,1.3,0.5c0.6,0,1.2-0.2,1.6-0.7
			c0.4-0.4,0.6-1,0.6-1.6c0-0.6-0.2-1.1-0.6-1.5c-0.4-0.4-0.9-0.6-1.5-0.6c-0.3,0-0.6,0-0.9,0.1l0.1-1.2c0.1,0,0.2,0,0.2,0
			c0.6,0,1.1-0.1,1.5-0.4c0.5-0.3,0.7-0.8,0.7-1.4c0-0.5-0.2-0.9-0.5-1.2c-0.3-0.3-0.8-0.5-1.3-0.5c-0.5,0-1,0.2-1.3,0.5
			s-0.6,0.8-0.7,1.5l-1.3-0.2c0.2-0.9,0.5-1.6,1.1-2.1c0.6-0.5,1.3-0.7,2.2-0.7c0.6,0,1.1,0.1,1.6,0.4c0.5,0.3,0.9,0.6,1.1,1
			c0.3,0.4,0.4,0.9,0.4,1.4c0,0.5-0.1,0.9-0.4,1.3c-0.3,0.4-0.6,0.7-1.1,0.9c0.6,0.1,1.1,0.5,1.5,0.9c0.4,0.5,0.5,1.1,0.5,1.8
			c0,0.9-0.3,1.8-1,2.4c-0.7,0.7-1.6,1-2.6,1c-1,0-1.7-0.3-2.4-0.9C174.1,241.5,173.7,240.8,173.6,239.9z"/>
	</g>
	<g>
		<path class="st3" d="M157.3,285.6l1.3-0.2c0.2,0.8,0.4,1.3,0.8,1.6c0.4,0.3,0.8,0.5,1.3,0.5c0.6,0,1.2-0.2,1.6-0.7
			c0.4-0.4,0.6-1,0.6-1.6c0-0.6-0.2-1.1-0.6-1.5c-0.4-0.4-0.9-0.6-1.5-0.6c-0.3,0-0.6,0-0.9,0.1l0.1-1.2c0.1,0,0.2,0,0.2,0
			c0.6,0,1.1-0.1,1.5-0.4c0.5-0.3,0.7-0.8,0.7-1.4c0-0.5-0.2-0.9-0.5-1.2c-0.3-0.3-0.8-0.5-1.3-0.5c-0.5,0-1,0.2-1.3,0.5
			c-0.3,0.3-0.6,0.8-0.7,1.5l-1.3-0.2c0.2-0.9,0.5-1.6,1.1-2.1c0.6-0.5,1.3-0.7,2.2-0.7c0.6,0,1.1,0.1,1.6,0.4
			c0.5,0.3,0.9,0.6,1.1,1c0.3,0.4,0.4,0.9,0.4,1.4c0,0.5-0.1,0.9-0.4,1.3c-0.3,0.4-0.6,0.7-1.1,0.9c0.6,0.1,1.1,0.5,1.5,0.9
			c0.4,0.5,0.5,1.1,0.5,1.8c0,0.9-0.3,1.8-1,2.4c-0.7,0.7-1.6,1-2.6,1c-1,0-1.7-0.3-2.4-0.9C157.8,287.3,157.4,286.6,157.3,285.6z"
			/>
		<path class="st3" d="M165.4,283.2c0-1.3,0.1-2.3,0.4-3.1c0.3-0.8,0.7-1.4,1.2-1.8c0.5-0.4,1.2-0.6,2-0.6c0.6,0,1.1,0.1,1.5,0.4
			c0.4,0.2,0.8,0.6,1.1,1c0.3,0.4,0.5,1,0.7,1.6c0.2,0.6,0.2,1.5,0.2,2.6c0,1.3-0.1,2.3-0.4,3.1c-0.3,0.8-0.7,1.4-1.2,1.8
			c-0.5,0.4-1.2,0.6-2,0.6c-1,0-1.9-0.4-2.5-1.1C165.8,286.7,165.4,285.2,165.4,283.2z M166.8,283.2c0,1.8,0.2,3,0.6,3.6
			c0.4,0.6,0.9,0.9,1.5,0.9c0.6,0,1.1-0.3,1.5-0.9c0.4-0.6,0.6-1.8,0.6-3.6c0-1.8-0.2-3-0.6-3.6c-0.4-0.6-0.9-0.9-1.6-0.9
			c-0.6,0-1.1,0.3-1.5,0.8C167,280.2,166.8,281.4,166.8,283.2z"/>
		<path class="st3" d="M180.6,287.2v1.3h-7.2c0-0.3,0-0.6,0.2-0.9c0.2-0.5,0.5-1,0.9-1.4c0.4-0.5,1-1,1.7-1.6c1.2-1,2-1.7,2.4-2.3
			c0.4-0.6,0.6-1.1,0.6-1.6c0-0.5-0.2-1-0.6-1.3c-0.4-0.4-0.9-0.5-1.5-0.5c-0.6,0-1.2,0.2-1.5,0.6c-0.4,0.4-0.6,0.9-0.6,1.6
			l-1.4-0.1c0.1-1,0.4-1.8,1.1-2.3c0.6-0.5,1.4-0.8,2.5-0.8c1,0,1.9,0.3,2.5,0.9c0.6,0.6,0.9,1.3,0.9,2.1c0,0.4-0.1,0.9-0.3,1.3
			c-0.2,0.4-0.5,0.9-0.9,1.3c-0.4,0.5-1.1,1.1-2.1,1.9c-0.8,0.7-1.3,1.1-1.5,1.4c-0.2,0.2-0.4,0.5-0.6,0.7H180.6z"/>
	</g>
	<g>
		<path class="st3" d="M119.6,240.4v1.3h-7.2c0-0.3,0-0.6,0.2-0.9c0.2-0.5,0.5-1,0.9-1.4c0.4-0.5,1-1,1.7-1.6c1.2-1,2-1.7,2.4-2.3
			c0.4-0.6,0.6-1.1,0.6-1.6c0-0.5-0.2-1-0.6-1.3c-0.4-0.4-0.9-0.5-1.5-0.5c-0.6,0-1.2,0.2-1.5,0.6c-0.4,0.4-0.6,0.9-0.6,1.6
			l-1.4-0.1c0.1-1,0.4-1.8,1.1-2.3c0.6-0.5,1.4-0.8,2.5-0.8c1,0,1.9,0.3,2.5,0.9c0.6,0.6,0.9,1.3,0.9,2.1c0,0.4-0.1,0.9-0.3,1.3
			c-0.2,0.4-0.5,0.9-0.9,1.3c-0.4,0.5-1.1,1.1-2.1,1.9c-0.8,0.7-1.3,1.1-1.5,1.4c-0.2,0.2-0.4,0.5-0.6,0.7H119.6z"/>
		<path class="st3" d="M120.8,236.3c0-1.3,0.1-2.3,0.4-3.1c0.3-0.8,0.7-1.4,1.2-1.8c0.5-0.4,1.2-0.6,2-0.6c0.6,0,1.1,0.1,1.5,0.4
			c0.4,0.2,0.8,0.6,1.1,1c0.3,0.4,0.5,1,0.7,1.6c0.2,0.6,0.2,1.5,0.2,2.6c0,1.3-0.1,2.3-0.4,3.1c-0.3,0.8-0.7,1.4-1.2,1.8
			c-0.5,0.4-1.2,0.6-2,0.6c-1,0-1.9-0.4-2.5-1.1C121.1,239.8,120.8,238.4,120.8,236.3z M122.1,236.3c0,1.8,0.2,3,0.6,3.6
			c0.4,0.6,0.9,0.9,1.5,0.9c0.6,0,1.1-0.3,1.5-0.9c0.4-0.6,0.6-1.8,0.6-3.6c0-1.8-0.2-3-0.6-3.6c-0.4-0.6-0.9-0.9-1.6-0.9
			c-0.6,0-1.1,0.3-1.5,0.8C122.4,233.3,122.1,234.5,122.1,236.3z"/>
		<path class="st3" d="M133.9,241.7h-1.3v-8.5c-0.3,0.3-0.7,0.6-1.3,0.9c-0.5,0.3-1,0.5-1.4,0.7v-1.3c0.7-0.4,1.4-0.8,2-1.3
			c0.6-0.5,1-1,1.2-1.5h0.9V241.7z"/>
	</g>
	<g>
		<path class="st3" d="M112.5,400l1.3-0.2c0.2,0.8,0.4,1.3,0.8,1.6c0.4,0.3,0.8,0.5,1.3,0.5c0.6,0,1.2-0.2,1.6-0.7
			c0.4-0.4,0.6-1,0.6-1.6c0-0.6-0.2-1.1-0.6-1.5c-0.4-0.4-0.9-0.6-1.5-0.6c-0.3,0-0.6,0-0.9,0.1l0.1-1.2c0.1,0,0.2,0,0.2,0
			c0.6,0,1.1-0.1,1.5-0.4c0.5-0.3,0.7-0.8,0.7-1.4c0-0.5-0.2-0.9-0.5-1.2c-0.3-0.3-0.8-0.5-1.3-0.5c-0.5,0-1,0.2-1.3,0.5
			c-0.3,0.3-0.6,0.8-0.7,1.5l-1.3-0.2c0.2-0.9,0.5-1.6,1.1-2.1c0.6-0.5,1.3-0.7,2.2-0.7c0.6,0,1.1,0.1,1.6,0.4
			c0.5,0.3,0.9,0.6,1.1,1c0.3,0.4,0.4,0.9,0.4,1.4c0,0.5-0.1,0.9-0.4,1.3c-0.3,0.4-0.6,0.7-1.1,0.9c0.6,0.1,1.1,0.5,1.5,0.9
			c0.4,0.5,0.5,1.1,0.5,1.8c0,0.9-0.3,1.8-1,2.4c-0.7,0.7-1.6,1-2.6,1c-1,0-1.7-0.3-2.4-0.9C113,401.6,112.6,400.9,112.5,400z"/>
		<path class="st3" d="M120.7,397.5c0-1.3,0.1-2.3,0.4-3.1c0.3-0.8,0.7-1.4,1.2-1.8c0.5-0.4,1.2-0.6,2-0.6c0.6,0,1.1,0.1,1.5,0.4
			c0.4,0.2,0.8,0.6,1.1,1c0.3,0.4,0.5,1,0.7,1.6c0.2,0.6,0.2,1.5,0.2,2.6c0,1.3-0.1,2.3-0.4,3.1c-0.3,0.8-0.7,1.4-1.2,1.8
			c-0.5,0.4-1.2,0.6-2,0.6c-1,0-1.9-0.4-2.5-1.1C121,401,120.7,399.5,120.7,397.5z M122,397.5c0,1.8,0.2,3,0.6,3.6
			c0.4,0.6,0.9,0.9,1.5,0.9c0.6,0,1.1-0.3,1.5-0.9c0.4-0.6,0.6-1.8,0.6-3.6c0-1.8-0.2-3-0.6-3.6c-0.4-0.6-0.9-0.9-1.6-0.9
			c-0.6,0-1.1,0.3-1.5,0.8C122.3,394.5,122,395.7,122,397.5z"/>
		<path class="st3" d="M133.8,402.8h-1.3v-8.5c-0.3,0.3-0.7,0.6-1.3,0.9c-0.5,0.3-1,0.5-1.4,0.7v-1.3c0.7-0.4,1.4-0.8,2-1.3
			c0.6-0.5,1-1,1.2-1.5h0.9V402.8z"/>
	</g>
	<g>
		<path class="st3" d="M111.5,285.7l1.3-0.2c0.2,0.8,0.4,1.3,0.8,1.6c0.4,0.3,0.8,0.5,1.3,0.5c0.6,0,1.2-0.2,1.6-0.7
			c0.4-0.4,0.6-1,0.6-1.6c0-0.6-0.2-1.1-0.6-1.5c-0.4-0.4-0.9-0.6-1.5-0.6c-0.3,0-0.6,0-0.9,0.1l0.1-1.2c0.1,0,0.2,0,0.2,0
			c0.6,0,1.1-0.1,1.5-0.4c0.5-0.3,0.7-0.8,0.7-1.4c0-0.5-0.2-0.9-0.5-1.2c-0.3-0.3-0.8-0.5-1.3-0.5c-0.5,0-1,0.2-1.3,0.5
			c-0.3,0.3-0.6,0.8-0.7,1.5l-1.3-0.2c0.2-0.9,0.5-1.6,1.1-2.1c0.6-0.5,1.3-0.7,2.2-0.7c0.6,0,1.1,0.1,1.6,0.4
			c0.5,0.3,0.9,0.6,1.1,1c0.3,0.4,0.4,0.9,0.4,1.4c0,0.5-0.1,0.9-0.4,1.3c-0.3,0.4-0.6,0.7-1.1,0.9c0.6,0.1,1.1,0.5,1.5,0.9
			c0.4,0.5,0.5,1.1,0.5,1.8c0,0.9-0.3,1.8-1,2.4c-0.7,0.7-1.6,1-2.6,1c-1,0-1.7-0.3-2.4-0.9C112,287.3,111.6,286.6,111.5,285.7z"/>
		<path class="st3" d="M119.6,283.2c0-1.3,0.1-2.3,0.4-3.1c0.3-0.8,0.7-1.4,1.2-1.8c0.5-0.4,1.2-0.6,2-0.6c0.6,0,1.1,0.1,1.5,0.4
			c0.4,0.2,0.8,0.6,1.1,1c0.3,0.4,0.5,1,0.7,1.6c0.2,0.6,0.2,1.5,0.2,2.6c0,1.3-0.1,2.3-0.4,3.1c-0.3,0.8-0.7,1.4-1.2,1.8
			c-0.5,0.4-1.2,0.6-2,0.6c-1,0-1.9-0.4-2.5-1.1C120,286.7,119.6,285.2,119.6,283.2z M121,283.2c0,1.8,0.2,3,0.6,3.6
			c0.4,0.6,0.9,0.9,1.5,0.9c0.6,0,1.1-0.3,1.5-0.9c0.4-0.6,0.6-1.8,0.6-3.6c0-1.8-0.2-3-0.6-3.6c-0.4-0.6-0.9-0.9-1.6-0.9
			c-0.6,0-1.1,0.3-1.5,0.8C121.2,280.2,121,281.4,121,283.2z"/>
		<path class="st3" d="M127.8,283.2c0-1.3,0.1-2.3,0.4-3.1c0.3-0.8,0.7-1.4,1.2-1.8c0.5-0.4,1.2-0.6,2-0.6c0.6,0,1.1,0.1,1.5,0.4
			c0.4,0.2,0.8,0.6,1.1,1c0.3,0.4,0.5,1,0.7,1.6c0.2,0.6,0.2,1.5,0.2,2.6c0,1.3-0.1,2.3-0.4,3.1c-0.3,0.8-0.7,1.4-1.2,1.8
			c-0.5,0.4-1.2,0.6-2,0.6c-1,0-1.9-0.4-2.5-1.1C128.1,286.7,127.8,285.2,127.8,283.2z M129.1,283.2c0,1.8,0.2,3,0.6,3.6
			c0.4,0.6,0.9,0.9,1.5,0.9c0.6,0,1.1-0.3,1.5-0.9c0.4-0.6,0.6-1.8,0.6-3.6c0-1.8-0.2-3-0.6-3.6c-0.4-0.6-0.9-0.9-1.6-0.9
			c-0.6,0-1.1,0.3-1.5,0.8C129.4,280.2,129.1,281.4,129.1,283.2z"/>
	</g>
	<g>
		<path class="st3" d="M294.5,401l1.3-0.2c0.2,0.8,0.4,1.3,0.8,1.6c0.4,0.3,0.8,0.5,1.3,0.5c0.6,0,1.2-0.2,1.6-0.7
			c0.4-0.4,0.6-1,0.6-1.6c0-0.6-0.2-1.1-0.6-1.5c-0.4-0.4-0.9-0.6-1.5-0.6c-0.3,0-0.6,0-0.9,0.1l0.1-1.2c0.1,0,0.2,0,0.2,0
			c0.6,0,1.1-0.1,1.5-0.4c0.5-0.3,0.7-0.8,0.7-1.4c0-0.5-0.2-0.9-0.5-1.2c-0.3-0.3-0.8-0.5-1.3-0.5c-0.5,0-1,0.2-1.3,0.5
			c-0.3,0.3-0.6,0.8-0.7,1.5l-1.3-0.2c0.2-0.9,0.5-1.6,1.1-2.1c0.6-0.5,1.3-0.7,2.2-0.7c0.6,0,1.1,0.1,1.6,0.4
			c0.5,0.3,0.9,0.6,1.1,1c0.3,0.4,0.4,0.9,0.4,1.4c0,0.5-0.1,0.9-0.4,1.3c-0.3,0.4-0.6,0.7-1.1,0.9c0.6,0.1,1.1,0.5,1.5,0.9
			c0.4,0.5,0.5,1.1,0.5,1.8c0,0.9-0.3,1.8-1,2.4c-0.7,0.7-1.6,1-2.6,1c-1,0-1.7-0.3-2.4-0.9C294.9,402.7,294.6,401.9,294.5,401z"/>
		<path class="st3" d="M302.6,398.5c0-1.3,0.1-2.3,0.4-3.1c0.3-0.8,0.7-1.4,1.2-1.8c0.5-0.4,1.2-0.6,2-0.6c0.6,0,1.1,0.1,1.5,0.4
			c0.4,0.2,0.8,0.6,1.1,1c0.3,0.4,0.5,1,0.7,1.6c0.2,0.6,0.2,1.5,0.2,2.6c0,1.3-0.1,2.3-0.4,3.1c-0.3,0.8-0.7,1.4-1.2,1.8
			c-0.5,0.4-1.2,0.6-2,0.6c-1,0-1.9-0.4-2.5-1.1C303,402.1,302.6,400.6,302.6,398.5z M304,398.5c0,1.8,0.2,3,0.6,3.6
			c0.4,0.6,0.9,0.9,1.5,0.9c0.6,0,1.1-0.3,1.5-0.9c0.4-0.6,0.6-1.8,0.6-3.6c0-1.8-0.2-3-0.6-3.6c-0.4-0.6-0.9-0.9-1.6-0.9
			c-0.6,0-1.1,0.3-1.5,0.8C304.2,395.5,304,396.8,304,398.5z"/>
		<path class="st3" d="M311,401.4l1.3-0.1c0.1,0.6,0.3,1,0.6,1.3c0.3,0.3,0.7,0.4,1.2,0.4c0.4,0,0.8-0.1,1.1-0.3
			c0.3-0.2,0.6-0.4,0.8-0.8c0.2-0.3,0.4-0.7,0.5-1.3c0.1-0.5,0.2-1.1,0.2-1.6c0-0.1,0-0.1,0-0.3c-0.3,0.4-0.6,0.8-1.1,1
			c-0.5,0.3-1,0.4-1.5,0.4c-0.9,0-1.7-0.3-2.3-1c-0.6-0.7-0.9-1.5-0.9-2.6c0-1.1,0.3-2,1-2.7c0.6-0.7,1.5-1,2.4-1
			c0.7,0,1.4,0.2,1.9,0.6c0.6,0.4,1,0.9,1.3,1.6c0.3,0.7,0.5,1.7,0.5,3.1c0,1.4-0.2,2.5-0.5,3.3c-0.3,0.8-0.7,1.4-1.3,1.9
			c-0.6,0.4-1.3,0.6-2.1,0.6c-0.8,0-1.5-0.2-2.1-0.7C311.4,402.9,311.1,402.2,311,401.4z M316.4,396.6c0-0.8-0.2-1.4-0.6-1.8
			c-0.4-0.4-0.9-0.7-1.5-0.7c-0.6,0-1.1,0.2-1.5,0.7c-0.4,0.5-0.7,1.1-0.7,1.9c0,0.7,0.2,1.3,0.6,1.7c0.4,0.4,0.9,0.6,1.5,0.6
			c0.6,0,1.1-0.2,1.5-0.6C316.2,398,316.4,397.4,316.4,396.6z"/>
	</g>
	<g>
		<path class="st3" d="M299,449.4v-2.6h-4.7v-1.2l5-7h1.1v7h1.5v1.2h-1.5v2.6H299z M299,445.6v-4.9l-3.4,4.9H299z"/>
		<path class="st3" d="M302.9,444.1c0-1.3,0.1-2.3,0.4-3.1c0.3-0.8,0.7-1.4,1.2-1.8c0.5-0.4,1.2-0.6,2-0.6c0.6,0,1.1,0.1,1.5,0.4
			c0.4,0.2,0.8,0.6,1.1,1c0.3,0.4,0.5,1,0.7,1.6c0.2,0.6,0.2,1.5,0.2,2.6c0,1.3-0.1,2.3-0.4,3.1c-0.3,0.8-0.7,1.4-1.2,1.8
			c-0.5,0.4-1.2,0.6-2,0.6c-1,0-1.9-0.4-2.5-1.1C303.2,447.6,302.9,446.1,302.9,444.1z M304.2,444.1c0,1.8,0.2,3,0.6,3.6
			c0.4,0.6,0.9,0.9,1.5,0.9s1.1-0.3,1.5-0.9c0.4-0.6,0.6-1.8,0.6-3.6c0-1.8-0.2-3-0.6-3.6c-0.4-0.6-0.9-0.9-1.6-0.9
			c-0.6,0-1.1,0.3-1.5,0.8C304.5,441.1,304.2,442.3,304.2,444.1z"/>
		<path class="st3" d="M313,443.5c-0.6-0.2-1-0.5-1.2-0.9c-0.3-0.4-0.4-0.8-0.4-1.3c0-0.8,0.3-1.5,0.9-2c0.6-0.5,1.3-0.8,2.3-0.8
			c0.9,0,1.7,0.3,2.3,0.8c0.6,0.6,0.9,1.2,0.9,2c0,0.5-0.1,0.9-0.4,1.3c-0.3,0.4-0.7,0.7-1.2,0.9c0.7,0.2,1.2,0.6,1.5,1.1
			c0.3,0.5,0.5,1.1,0.5,1.7c0,0.9-0.3,1.7-1,2.3c-0.7,0.6-1.5,0.9-2.6,0.9s-1.9-0.3-2.6-1c-0.7-0.6-1-1.4-1-2.4
			c0-0.7,0.2-1.3,0.5-1.8C311.9,444,312.4,443.7,313,443.5z M312.3,446.3c0,0.4,0.1,0.7,0.3,1.1c0.2,0.4,0.4,0.6,0.8,0.8
			c0.4,0.2,0.7,0.3,1.1,0.3c0.6,0,1.2-0.2,1.6-0.6c0.4-0.4,0.6-0.9,0.6-1.6c0-0.6-0.2-1.2-0.6-1.6c-0.4-0.4-1-0.6-1.6-0.6
			c-0.6,0-1.1,0.2-1.6,0.6C312.6,445.2,312.3,445.7,312.3,446.3z M312.8,441.3c0,0.5,0.2,0.9,0.5,1.3s0.8,0.5,1.3,0.5
			c0.5,0,0.9-0.2,1.3-0.5c0.3-0.3,0.5-0.7,0.5-1.2c0-0.5-0.2-0.9-0.5-1.2c-0.3-0.3-0.8-0.5-1.3-0.5c-0.5,0-0.9,0.2-1.3,0.5
			C312.9,440.4,312.8,440.8,312.8,441.3z"/>
	</g>
	<g>
		<path class="st3" d="M248.8,401l1.3-0.2c0.2,0.8,0.4,1.3,0.8,1.6c0.4,0.3,0.8,0.5,1.3,0.5c0.6,0,1.2-0.2,1.6-0.7
			c0.4-0.4,0.6-1,0.6-1.6c0-0.6-0.2-1.1-0.6-1.5c-0.4-0.4-0.9-0.6-1.5-0.6c-0.3,0-0.6,0-0.9,0.1l0.1-1.2c0.1,0,0.2,0,0.2,0
			c0.6,0,1.1-0.1,1.5-0.4c0.5-0.3,0.7-0.8,0.7-1.4c0-0.5-0.2-0.9-0.5-1.2c-0.3-0.3-0.8-0.5-1.3-0.5c-0.5,0-1,0.2-1.3,0.5
			c-0.3,0.3-0.6,0.8-0.7,1.5l-1.3-0.2c0.2-0.9,0.5-1.6,1.1-2.1c0.6-0.5,1.3-0.7,2.2-0.7c0.6,0,1.1,0.1,1.6,0.4
			c0.5,0.3,0.9,0.6,1.1,1c0.3,0.4,0.4,0.9,0.4,1.4c0,0.5-0.1,0.9-0.4,1.3c-0.3,0.4-0.6,0.7-1.1,0.9c0.6,0.1,1.1,0.5,1.5,0.9
			c0.4,0.5,0.5,1.1,0.5,1.8c0,0.9-0.3,1.8-1,2.4c-0.7,0.7-1.6,1-2.6,1c-1,0-1.7-0.3-2.4-0.9C249.2,402.7,248.8,401.9,248.8,401z"/>
		<path class="st3" d="M256.9,398.5c0-1.3,0.1-2.3,0.4-3.1c0.3-0.8,0.7-1.4,1.2-1.8c0.5-0.4,1.2-0.6,2-0.6c0.6,0,1.1,0.1,1.5,0.4
			c0.4,0.2,0.8,0.6,1.1,1c0.3,0.4,0.5,1,0.7,1.6c0.2,0.6,0.2,1.5,0.2,2.6c0,1.3-0.1,2.3-0.4,3.1c-0.3,0.8-0.7,1.4-1.2,1.8
			c-0.5,0.4-1.2,0.6-2,0.6c-1,0-1.9-0.4-2.5-1.1C257.2,402.1,256.9,400.6,256.9,398.5z M258.3,398.5c0,1.8,0.2,3,0.6,3.6
			c0.4,0.6,0.9,0.9,1.5,0.9c0.6,0,1.1-0.3,1.5-0.9c0.4-0.6,0.6-1.8,0.6-3.6c0-1.8-0.2-3-0.6-3.6c-0.4-0.6-0.9-0.9-1.6-0.9
			c-0.6,0-1.1,0.3-1.5,0.8C258.5,395.5,258.3,396.8,258.3,398.5z"/>
		<path class="st3" d="M265.1,394.5v-1.3h7v1c-0.7,0.7-1.4,1.7-2.1,2.9c-0.7,1.2-1.2,2.5-1.6,3.8c-0.3,0.9-0.4,1.9-0.5,3h-1.4
			c0-0.9,0.2-1.9,0.5-3.1c0.3-1.2,0.8-2.4,1.4-3.5c0.6-1.1,1.2-2.1,1.9-2.8H265.1z"/>
	</g>
	<g>
		<path class="st3" d="M253.3,449.4v-2.6h-4.7v-1.2l5-7h1.1v7h1.5v1.2h-1.5v2.6H253.3z M253.3,445.6v-4.9l-3.4,4.9H253.3z"/>
		<path class="st3" d="M257.1,444.1c0-1.3,0.1-2.3,0.4-3.1c0.3-0.8,0.7-1.4,1.2-1.8c0.5-0.4,1.2-0.6,2-0.6c0.6,0,1.1,0.1,1.5,0.4
			c0.4,0.2,0.8,0.6,1.1,1c0.3,0.4,0.5,1,0.7,1.6c0.2,0.6,0.2,1.5,0.2,2.6c0,1.3-0.1,2.3-0.4,3.1c-0.3,0.8-0.7,1.4-1.2,1.8
			c-0.5,0.4-1.2,0.6-2,0.6c-1,0-1.9-0.4-2.5-1.1C257.5,447.6,257.1,446.1,257.1,444.1z M258.5,444.1c0,1.8,0.2,3,0.6,3.6
			c0.4,0.6,0.9,0.9,1.5,0.9c0.6,0,1.1-0.3,1.5-0.9c0.4-0.6,0.6-1.8,0.6-3.6c0-1.8-0.2-3-0.6-3.6c-0.4-0.6-0.9-0.9-1.6-0.9
			c-0.6,0-1.1,0.3-1.5,0.8C258.7,441.1,258.5,442.3,258.5,444.1z"/>
		<path class="st3" d="M272.2,441.2l-1.3,0.1c-0.1-0.5-0.3-0.9-0.5-1.1c-0.4-0.4-0.8-0.6-1.3-0.6c-0.4,0-0.8,0.1-1.1,0.4
			c-0.4,0.3-0.8,0.8-1,1.3c-0.2,0.6-0.4,1.4-0.4,2.5c0.3-0.5,0.7-0.9,1.2-1.1c0.5-0.2,1-0.4,1.5-0.4c0.9,0,1.6,0.3,2.3,1
			c0.6,0.7,0.9,1.5,0.9,2.5c0,0.7-0.1,1.3-0.4,1.9c-0.3,0.6-0.7,1-1.2,1.3c-0.5,0.3-1.1,0.5-1.7,0.5c-1.1,0-2-0.4-2.7-1.2
			c-0.7-0.8-1.1-2.2-1.1-4c0-2.1,0.4-3.6,1.2-4.6c0.7-0.8,1.6-1.2,2.7-1.2c0.9,0,1.6,0.2,2.1,0.7
			C271.7,439.7,272.1,440.4,272.2,441.2z M266.7,445.9c0,0.5,0.1,0.9,0.3,1.3c0.2,0.4,0.5,0.7,0.8,1c0.4,0.2,0.7,0.3,1.1,0.3
			c0.6,0,1-0.2,1.5-0.7c0.4-0.5,0.6-1.1,0.6-1.9c0-0.8-0.2-1.3-0.6-1.8c-0.4-0.4-0.9-0.6-1.5-0.6c-0.6,0-1.1,0.2-1.5,0.6
			C266.9,444.6,266.7,445.2,266.7,445.9z"/>
	</g>
	<g>
		<path class="st3" d="M203,401.1l1.3-0.2c0.2,0.8,0.4,1.3,0.8,1.6c0.4,0.3,0.8,0.5,1.3,0.5c0.6,0,1.2-0.2,1.6-0.7
			c0.4-0.4,0.6-1,0.6-1.6c0-0.6-0.2-1.1-0.6-1.5c-0.4-0.4-0.9-0.6-1.5-0.6c-0.3,0-0.6,0-0.9,0.1l0.1-1.2c0.1,0,0.2,0,0.2,0
			c0.6,0,1.1-0.1,1.5-0.4c0.5-0.3,0.7-0.8,0.7-1.4c0-0.5-0.2-0.9-0.5-1.2c-0.3-0.3-0.8-0.5-1.3-0.5c-0.5,0-1,0.2-1.3,0.5
			c-0.3,0.3-0.6,0.8-0.7,1.5l-1.3-0.2c0.2-0.9,0.5-1.6,1.1-2.1c0.6-0.5,1.3-0.7,2.2-0.7c0.6,0,1.1,0.1,1.6,0.4
			c0.5,0.3,0.9,0.6,1.1,1c0.3,0.4,0.4,0.9,0.4,1.4c0,0.5-0.1,0.9-0.4,1.3c-0.3,0.4-0.6,0.7-1.1,0.9c0.6,0.1,1.1,0.5,1.5,0.9
			c0.4,0.5,0.5,1.1,0.5,1.8c0,0.9-0.3,1.8-1,2.4c-0.7,0.7-1.6,1-2.6,1c-1,0-1.7-0.3-2.4-0.9C203.4,402.7,203.1,402,203,401.1z"/>
		<path class="st3" d="M211.1,398.6c0-1.3,0.1-2.3,0.4-3.1c0.3-0.8,0.7-1.4,1.2-1.8c0.5-0.4,1.2-0.6,2-0.6c0.6,0,1.1,0.1,1.5,0.4
			c0.4,0.2,0.8,0.6,1.1,1c0.3,0.4,0.5,1,0.7,1.6c0.2,0.6,0.2,1.5,0.2,2.6c0,1.3-0.1,2.3-0.4,3.1c-0.3,0.8-0.7,1.4-1.2,1.8
			c-0.5,0.4-1.2,0.6-2,0.6c-1,0-1.9-0.4-2.5-1.1C211.4,402.1,211.1,400.6,211.1,398.6z M212.5,398.6c0,1.8,0.2,3,0.6,3.6
			c0.4,0.6,0.9,0.9,1.5,0.9c0.6,0,1.1-0.3,1.5-0.9c0.4-0.6,0.6-1.8,0.6-3.6c0-1.8-0.2-3-0.6-3.6c-0.4-0.6-0.9-0.9-1.6-0.9
			c-0.6,0-1.1,0.3-1.5,0.8C212.7,395.6,212.5,396.8,212.5,398.6z"/>
		<path class="st3" d="M219.2,401.1l1.4-0.1c0.1,0.7,0.3,1.2,0.7,1.5c0.4,0.3,0.8,0.5,1.4,0.5c0.6,0,1.2-0.2,1.6-0.7
			c0.4-0.5,0.7-1.1,0.7-1.9c0-0.8-0.2-1.4-0.6-1.8c-0.4-0.4-1-0.7-1.7-0.7c-0.4,0-0.8,0.1-1.2,0.3c-0.3,0.2-0.6,0.4-0.8,0.8
			l-1.3-0.2l1.1-5.6h5.4v1.3h-4.3l-0.6,2.9c0.7-0.5,1.3-0.7,2.1-0.7c0.9,0,1.7,0.3,2.4,1c0.7,0.7,1,1.5,1,2.5c0,1-0.3,1.8-0.9,2.5
			c-0.7,0.9-1.6,1.3-2.9,1.3c-1,0-1.8-0.3-2.4-0.8C219.7,402.7,219.3,402,219.2,401.1z"/>
	</g>
	<g>
		<path class="st3" d="M207.5,449.4v-2.6h-4.7v-1.2l5-7h1.1v7h1.5v1.2h-1.5v2.6H207.5z M207.5,445.6v-4.9l-3.4,4.9H207.5z"/>
		<path class="st3" d="M211.4,444.1c0-1.3,0.1-2.3,0.4-3.1c0.3-0.8,0.7-1.4,1.2-1.8c0.5-0.4,1.2-0.6,2-0.6c0.6,0,1.1,0.1,1.5,0.4
			c0.4,0.2,0.8,0.6,1.1,1c0.3,0.4,0.5,1,0.7,1.6c0.2,0.6,0.2,1.5,0.2,2.6c0,1.3-0.1,2.3-0.4,3.1c-0.3,0.8-0.7,1.4-1.2,1.8
			c-0.5,0.4-1.2,0.6-2,0.6c-1,0-1.9-0.4-2.5-1.1C211.7,447.6,211.4,446.1,211.4,444.1z M212.8,444.1c0,1.8,0.2,3,0.6,3.6
			c0.4,0.6,0.9,0.9,1.5,0.9c0.6,0,1.1-0.3,1.5-0.9c0.4-0.6,0.6-1.8,0.6-3.6c0-1.8-0.2-3-0.6-3.6c-0.4-0.6-0.9-0.9-1.6-0.9
			c-0.6,0-1.1,0.3-1.5,0.8C213,441,212.8,442.3,212.8,444.1z"/>
		<path class="st3" d="M223.8,449.4v-2.6h-4.7v-1.2l5-7h1.1v7h1.5v1.2h-1.5v2.6H223.8z M223.8,445.6v-4.9l-3.4,4.9H223.8z"/>
	</g>
	<g>
		<path class="st3" d="M157.2,401l1.3-0.2c0.2,0.8,0.4,1.3,0.8,1.6c0.4,0.3,0.8,0.5,1.3,0.5c0.6,0,1.2-0.2,1.6-0.7
			c0.4-0.4,0.6-1,0.6-1.6c0-0.6-0.2-1.1-0.6-1.5c-0.4-0.4-0.9-0.6-1.5-0.6c-0.3,0-0.6,0-0.9,0.1l0.1-1.2c0.1,0,0.2,0,0.2,0
			c0.6,0,1.1-0.1,1.5-0.4c0.5-0.3,0.7-0.8,0.7-1.4c0-0.5-0.2-0.9-0.5-1.2c-0.3-0.3-0.8-0.5-1.3-0.5c-0.5,0-1,0.2-1.3,0.5
			c-0.3,0.3-0.6,0.8-0.7,1.5l-1.3-0.2c0.2-0.9,0.5-1.6,1.1-2.1c0.6-0.5,1.3-0.7,2.2-0.7c0.6,0,1.1,0.1,1.6,0.4
			c0.5,0.3,0.9,0.6,1.1,1c0.3,0.4,0.4,0.9,0.4,1.4c0,0.5-0.1,0.9-0.4,1.3c-0.3,0.4-0.6,0.7-1.1,0.9c0.6,0.1,1.1,0.5,1.5,0.9
			c0.4,0.5,0.5,1.1,0.5,1.8c0,0.9-0.3,1.8-1,2.4c-0.7,0.7-1.6,1-2.6,1c-1,0-1.7-0.3-2.4-0.9C157.7,402.7,157.3,401.9,157.2,401z"/>
		<path class="st3" d="M165.4,398.5c0-1.3,0.1-2.3,0.4-3.1c0.3-0.8,0.7-1.4,1.2-1.8c0.5-0.4,1.2-0.6,2-0.6c0.6,0,1.1,0.1,1.5,0.4
			c0.4,0.2,0.8,0.6,1.1,1c0.3,0.4,0.5,1,0.7,1.6c0.2,0.6,0.2,1.5,0.2,2.6c0,1.3-0.1,2.3-0.4,3.1c-0.3,0.8-0.7,1.4-1.2,1.8
			c-0.5,0.4-1.2,0.6-2,0.6c-1,0-1.9-0.4-2.5-1.1C165.7,402.1,165.4,400.6,165.4,398.5z M166.7,398.5c0,1.8,0.2,3,0.6,3.6
			c0.4,0.6,0.9,0.9,1.5,0.9c0.6,0,1.1-0.3,1.5-0.9c0.4-0.6,0.6-1.8,0.6-3.6c0-1.8-0.2-3-0.6-3.6c-0.4-0.6-0.9-0.9-1.6-0.9
			c-0.6,0-1.1,0.3-1.5,0.8C167,395.5,166.7,396.8,166.7,398.5z"/>
		<path class="st3" d="M173.5,401l1.3-0.2c0.2,0.8,0.4,1.3,0.8,1.6c0.4,0.3,0.8,0.5,1.3,0.5c0.6,0,1.2-0.2,1.6-0.7
			c0.4-0.4,0.6-1,0.6-1.6c0-0.6-0.2-1.1-0.6-1.5c-0.4-0.4-0.9-0.6-1.5-0.6c-0.3,0-0.6,0-0.9,0.1l0.1-1.2c0.1,0,0.2,0,0.2,0
			c0.6,0,1.1-0.1,1.5-0.4c0.5-0.3,0.7-0.8,0.7-1.4c0-0.5-0.2-0.9-0.5-1.2c-0.3-0.3-0.8-0.5-1.3-0.5c-0.5,0-1,0.2-1.3,0.5
			c-0.3,0.3-0.6,0.8-0.7,1.5l-1.3-0.2c0.2-0.9,0.5-1.6,1.1-2.1c0.6-0.5,1.3-0.7,2.2-0.7c0.6,0,1.1,0.1,1.6,0.4
			c0.5,0.3,0.9,0.6,1.1,1c0.3,0.4,0.4,0.9,0.4,1.4c0,0.5-0.1,0.9-0.4,1.3c-0.3,0.4-0.6,0.7-1.1,0.9c0.6,0.1,1.1,0.5,1.5,0.9
			c0.4,0.5,0.5,1.1,0.5,1.8c0,0.9-0.3,1.8-1,2.4c-0.7,0.7-1.6,1-2.6,1c-1,0-1.7-0.3-2.4-0.9C174,402.7,173.6,401.9,173.5,401z"/>
	</g>
	<g>
		<path class="st3" d="M161.8,449.4v-2.6h-4.7v-1.2l5-7h1.1v7h1.5v1.2h-1.5v2.6H161.8z M161.8,445.6v-4.9l-3.4,4.9H161.8z"/>
		<path class="st3" d="M165.7,444c0-1.3,0.1-2.3,0.4-3.1c0.3-0.8,0.7-1.4,1.2-1.8c0.5-0.4,1.2-0.6,2-0.6c0.6,0,1.1,0.1,1.5,0.4
			c0.4,0.2,0.8,0.6,1.1,1c0.3,0.4,0.5,1,0.7,1.6c0.2,0.6,0.2,1.5,0.2,2.6c0,1.3-0.1,2.3-0.4,3.1c-0.3,0.8-0.7,1.4-1.2,1.8
			c-0.5,0.4-1.2,0.6-2,0.6c-1,0-1.9-0.4-2.5-1.1C166,447.5,165.7,446.1,165.7,444z M167,444c0,1.8,0.2,3,0.6,3.6
			c0.4,0.6,0.9,0.9,1.5,0.9c0.6,0,1.1-0.3,1.5-0.9c0.4-0.6,0.6-1.8,0.6-3.6c0-1.8-0.2-3-0.6-3.6c-0.4-0.6-0.9-0.9-1.6-0.9
			c-0.6,0-1.1,0.3-1.5,0.8C167.3,441,167,442.2,167,444z"/>
		<path class="st3" d="M180.8,448.1v1.3h-7.2c0-0.3,0-0.6,0.2-0.9c0.2-0.5,0.5-1,0.9-1.4c0.4-0.5,1-1,1.7-1.6c1.2-1,2-1.7,2.4-2.3
			c0.4-0.6,0.6-1.1,0.6-1.6c0-0.5-0.2-1-0.6-1.3c-0.4-0.4-0.9-0.5-1.5-0.5c-0.6,0-1.2,0.2-1.5,0.6c-0.4,0.4-0.6,0.9-0.6,1.6
			l-1.4-0.1c0.1-1,0.4-1.8,1.1-2.3c0.6-0.5,1.4-0.8,2.5-0.8c1,0,1.9,0.3,2.5,0.9c0.6,0.6,0.9,1.3,0.9,2.1c0,0.4-0.1,0.9-0.3,1.3
			c-0.2,0.4-0.5,0.9-0.9,1.3c-0.4,0.5-1.1,1.1-2.1,1.9c-0.8,0.7-1.3,1.1-1.5,1.4c-0.2,0.2-0.4,0.5-0.6,0.7H180.8z"/>
	</g>
	<g>
		<path class="st3" d="M116,449.4v-2.6h-4.7v-1.2l5-7h1.1v7h1.5v1.2h-1.5v2.6H116z M116,445.6v-4.9l-3.4,4.9H116z"/>
		<path class="st3" d="M119.9,444.1c0-1.3,0.1-2.3,0.4-3.1c0.3-0.8,0.7-1.4,1.2-1.8c0.5-0.4,1.2-0.6,2-0.6c0.6,0,1.1,0.1,1.5,0.4
			c0.4,0.2,0.8,0.6,1.1,1c0.3,0.4,0.5,1,0.7,1.6c0.2,0.6,0.2,1.5,0.2,2.6c0,1.3-0.1,2.3-0.4,3.1c-0.3,0.8-0.7,1.4-1.2,1.8
			c-0.5,0.4-1.2,0.6-2,0.6c-1,0-1.9-0.4-2.5-1.1C120.2,447.6,119.9,446.1,119.9,444.1z M121.2,444.1c0,1.8,0.2,3,0.6,3.6
			c0.4,0.6,0.9,0.9,1.5,0.9c0.6,0,1.1-0.3,1.5-0.9c0.4-0.6,0.6-1.8,0.6-3.6c0-1.8-0.2-3-0.6-3.6c-0.4-0.6-0.9-0.9-1.6-0.9
			c-0.6,0-1.1,0.3-1.5,0.8C121.5,441,121.2,442.3,121.2,444.1z"/>
		<path class="st3" d="M128,444.1c0-1.3,0.1-2.3,0.4-3.1c0.3-0.8,0.7-1.4,1.2-1.8c0.5-0.4,1.2-0.6,2-0.6c0.6,0,1.1,0.1,1.5,0.4
			c0.4,0.2,0.8,0.6,1.1,1c0.3,0.4,0.5,1,0.7,1.6c0.2,0.6,0.2,1.5,0.2,2.6c0,1.3-0.1,2.3-0.4,3.1c-0.3,0.8-0.7,1.4-1.2,1.8
			c-0.5,0.4-1.2,0.6-2,0.6c-1,0-1.9-0.4-2.5-1.1C128.4,447.6,128,446.1,128,444.1z M129.4,444.1c0,1.8,0.2,3,0.6,3.6
			c0.4,0.6,0.9,0.9,1.5,0.9c0.6,0,1.1-0.3,1.5-0.9c0.4-0.6,0.6-1.8,0.6-3.6c0-1.8-0.2-3-0.6-3.6c-0.4-0.6-0.9-0.9-1.6-0.9
			c-0.6,0-1.1,0.3-1.5,0.8C129.6,441,129.4,442.3,129.4,444.1z"/>
	</g>
	<g>
		
			<rect x="2.3" y="624.9" transform="matrix(-1.836970e-16 1 -1 -1.836970e-16 663.8461 598.5179)" class="st4" width="60.7" height="12.6"/>
		<g>
			<path class="st3" d="M9.2,598.6H19v4.4c0,0.9-0.1,1.5-0.3,2c-0.2,0.5-0.5,0.8-0.9,1.1c-0.4,0.3-0.9,0.4-1.5,0.4
				c-0.7,0-1.3-0.2-1.8-0.7c-0.5-0.5-0.8-1.1-0.9-2.1c-0.2,0.3-0.3,0.6-0.5,0.8c-0.3,0.4-0.8,0.7-1.3,1.1l-2.7,1.7v-1.6l2-1.3
				c0.6-0.4,1-0.7,1.4-0.9c0.3-0.2,0.5-0.5,0.7-0.7c0.1-0.2,0.2-0.4,0.3-0.6c0-0.1,0-0.4,0-0.7v-1.5H9.2V598.6z M14.7,599.9v2.8
				c0,0.6,0.1,1.1,0.2,1.4c0.1,0.3,0.3,0.6,0.6,0.8c0.3,0.2,0.6,0.3,0.9,0.3c0.5,0,0.8-0.2,1.1-0.5c0.3-0.3,0.4-0.9,0.4-1.6v-3.1
				H14.7z"/>
			<path class="st3" d="M11.5,612.7l-0.2,1.2c-0.7-0.2-1.3-0.6-1.7-1.1c-0.4-0.5-0.6-1.2-0.6-2c0-1,0.3-1.9,1-2.5
				c0.6-0.6,1.5-0.9,2.7-0.9c1.2,0,2.1,0.3,2.8,0.9c0.7,0.6,1,1.4,1,2.4c0,1-0.3,1.7-1,2.3c-0.6,0.6-1.6,0.9-2.7,0.9
				c-0.1,0-0.2,0-0.3,0v-5.3c-0.8,0-1.4,0.3-1.8,0.7c-0.4,0.4-0.6,0.9-0.6,1.5c0,0.4,0.1,0.8,0.3,1.1S11,612.5,11.5,612.7z
				 M13.5,608.7v4c0.6-0.1,1-0.2,1.3-0.5c0.5-0.4,0.7-0.9,0.7-1.5c0-0.6-0.2-1-0.6-1.4C14.6,609,14.1,608.8,13.5,608.7z"/>
			<path class="st3" d="M8.6,614.7l-0.2,1.2c-0.4,0-0.6,0.2-0.8,0.4c-0.2,0.3-0.3,0.7-0.3,1.2c0,0.6,0.1,1,0.3,1.3
				c0.2,0.3,0.5,0.5,0.9,0.6c0.2,0.1,0.8,0.1,1.5,0.1c-0.6-0.5-0.9-1.2-0.9-2c0-1,0.4-1.7,1.1-2.3s1.6-0.8,2.5-0.8
				c0.7,0,1.3,0.1,1.9,0.4c0.6,0.2,1,0.6,1.3,1.1c0.3,0.5,0.5,1,0.5,1.6c0,0.8-0.3,1.5-1,2.1h0.9v1.1h-6.2c-1.1,0-1.9-0.1-2.4-0.3
				c-0.5-0.2-0.8-0.6-1.1-1.1c-0.3-0.5-0.4-1.1-0.4-1.8c0-0.8,0.2-1.5,0.6-2.1C7.3,614.9,7.9,614.7,8.6,614.7z M12.9,615.7
				c-0.9,0-1.6,0.2-2,0.6c-0.4,0.4-0.6,0.8-0.6,1.4c0,0.6,0.2,1,0.6,1.4c0.4,0.4,1.1,0.6,2,0.6c0.9,0,1.5-0.2,2-0.6
				c0.4-0.4,0.7-0.9,0.7-1.4c0-0.5-0.2-1-0.7-1.4C14.4,615.9,13.8,615.7,12.9,615.7z"/>
			<path class="st3" d="M17.7,622H19v1.2h-1.4V622z M9.2,622h7.1v1.2H9.2V622z"/>
			<path class="st3" d="M11.3,624l0.2,1.2c-0.5,0.1-0.8,0.3-1.1,0.6c-0.3,0.3-0.4,0.7-0.4,1.3c0,0.6,0.1,1,0.3,1.2
				c0.2,0.3,0.5,0.4,0.8,0.4c0.3,0,0.5-0.1,0.6-0.4c0.1-0.2,0.2-0.6,0.4-1.2c0.2-0.9,0.4-1.5,0.6-1.8c0.2-0.3,0.4-0.6,0.7-0.8
				c0.3-0.2,0.6-0.3,1-0.3c0.3,0,0.6,0.1,0.9,0.2c0.3,0.1,0.5,0.3,0.7,0.6c0.1,0.2,0.3,0.4,0.4,0.8c0.1,0.3,0.1,0.7,0.1,1
				c0,0.6-0.1,1-0.2,1.5c-0.2,0.4-0.4,0.7-0.7,0.9c-0.3,0.2-0.6,0.3-1.1,0.4l-0.2-1.2c0.4-0.1,0.7-0.2,0.9-0.5
				c0.2-0.3,0.3-0.6,0.3-1.1c0-0.6-0.1-1-0.3-1.2c-0.2-0.2-0.4-0.4-0.6-0.4c-0.2,0-0.3,0-0.4,0.1c-0.1,0.1-0.2,0.3-0.3,0.5
				c0,0.1-0.1,0.5-0.3,1.1c-0.2,0.9-0.4,1.4-0.6,1.8c-0.1,0.3-0.4,0.6-0.6,0.8c-0.3,0.2-0.6,0.3-1,0.3c-0.4,0-0.8-0.1-1.1-0.4
				c-0.4-0.2-0.6-0.6-0.8-1c-0.2-0.4-0.3-0.9-0.3-1.5c0-0.9,0.2-1.6,0.6-2.1C10,624.5,10.6,624.2,11.3,624z"/>
			<path class="st3" d="M10.3,633.5l-1.1,0.2c-0.1-0.3-0.1-0.6-0.1-0.9c0-0.4,0.1-0.8,0.2-1c0.1-0.2,0.3-0.4,0.5-0.5
				c0.2-0.1,0.7-0.1,1.4-0.1h4.1v-0.9h0.9v0.9h1.8l0.7,1.2h-2.5v1.2h-0.9v-1.2h-4.2c-0.3,0-0.6,0-0.7,0.1c-0.1,0-0.2,0.1-0.2,0.2
				c-0.1,0.1-0.1,0.2-0.1,0.4C10.2,633.1,10.3,633.2,10.3,633.5z"/>
			<path class="st3" d="M9.2,634.1h7.1v1.1h-1.1c0.5,0.3,0.8,0.5,1,0.8c0.2,0.2,0.2,0.5,0.2,0.8c0,0.4-0.1,0.8-0.4,1.2l-1.1-0.4
				c0.2-0.3,0.3-0.6,0.3-0.9c0-0.3-0.1-0.5-0.2-0.7c-0.2-0.2-0.4-0.4-0.7-0.4c-0.4-0.1-0.9-0.2-1.4-0.2H9.2V634.1z"/>
			<path class="st3" d="M10.1,642.8c-0.4-0.4-0.6-0.9-0.8-1.3c-0.2-0.4-0.2-0.9-0.2-1.3c0-0.8,0.2-1.4,0.6-1.8
				c0.4-0.4,0.9-0.6,1.5-0.6c0.3,0,0.7,0.1,1,0.2c0.3,0.2,0.5,0.4,0.7,0.6c0.2,0.3,0.3,0.5,0.4,0.9c0.1,0.2,0.1,0.6,0.2,1.1
				c0.1,1,0.3,1.7,0.4,2.2c0.2,0,0.3,0,0.3,0c0.5,0,0.8-0.1,1-0.3c0.3-0.3,0.4-0.8,0.4-1.4c0-0.6-0.1-1-0.3-1.3
				c-0.2-0.3-0.6-0.5-1.1-0.6l0.2-1.2c0.5,0.1,0.9,0.3,1.2,0.5c0.3,0.2,0.5,0.6,0.7,1.1c0.2,0.5,0.3,1,0.3,1.6
				c0,0.6-0.1,1.1-0.2,1.5c-0.1,0.4-0.3,0.7-0.5,0.8c-0.2,0.2-0.5,0.3-0.8,0.4c-0.2,0-0.6,0.1-1.1,0.1h-1.6c-1.1,0-1.8,0-2.1,0.1
				c-0.3,0.1-0.6,0.2-0.9,0.3V643C9.5,642.9,9.8,642.8,10.1,642.8z M12.8,642.7c-0.2-0.4-0.3-1.1-0.5-2c-0.1-0.5-0.2-0.8-0.2-1.1
				c-0.1-0.2-0.2-0.4-0.4-0.5c-0.2-0.1-0.4-0.2-0.6-0.2c-0.3,0-0.6,0.1-0.8,0.4c-0.2,0.2-0.3,0.6-0.3,1.1c0,0.5,0.1,0.9,0.3,1.2
				c0.2,0.4,0.5,0.6,0.8,0.8c0.3,0.1,0.7,0.2,1.2,0.2H12.8z"/>
			<path class="st3" d="M10.3,647.8L9.2,648c-0.1-0.3-0.1-0.6-0.1-0.9c0-0.4,0.1-0.8,0.2-1c0.1-0.2,0.3-0.4,0.5-0.5
				c0.2-0.1,0.7-0.1,1.4-0.1h4.1v-0.9h0.9v0.9h1.8l0.7,1.2h-2.5v1.2h-0.9v-1.2h-4.2c-0.3,0-0.6,0-0.7,0.1c-0.1,0-0.2,0.1-0.2,0.2
				c-0.1,0.1-0.1,0.2-0.1,0.4C10.2,647.5,10.3,647.6,10.3,647.8z"/>
			<path class="st3" d="M17.7,648.5H19v1.2h-1.4V648.5z M9.2,648.5h7.1v1.2H9.2V648.5z"/>
			<path class="st3" d="M12.8,650.5c1.3,0,2.3,0.4,2.9,1.1c0.5,0.6,0.8,1.4,0.8,2.2c0,1-0.3,1.8-1,2.4c-0.6,0.6-1.5,0.9-2.7,0.9
				c-0.9,0-1.6-0.1-2.2-0.4c-0.5-0.3-0.9-0.7-1.2-1.2c-0.3-0.5-0.4-1.1-0.4-1.7c0-1,0.3-1.8,1-2.4C10.7,650.8,11.6,650.5,12.8,650.5
				z M12.8,651.8c-0.9,0-1.6,0.2-2,0.6c-0.5,0.4-0.7,0.9-0.7,1.5c0,0.6,0.2,1.1,0.7,1.5c0.5,0.4,1.2,0.6,2.1,0.6
				c0.9,0,1.5-0.2,2-0.6c0.5-0.4,0.7-0.9,0.7-1.5c0-0.6-0.2-1.1-0.7-1.5C14.4,652,13.7,651.8,12.8,651.8z"/>
			<path class="st3" d="M9.2,658.1h7.1v1.1h-1c0.8,0.5,1.2,1.3,1.2,2.3c0,0.4-0.1,0.8-0.2,1.2c-0.2,0.4-0.4,0.6-0.6,0.8
				c-0.3,0.2-0.5,0.3-0.9,0.4c-0.2,0-0.6,0.1-1.2,0.1H9.2v-1.2h4.3c0.5,0,0.9,0,1.1-0.1c0.2-0.1,0.4-0.3,0.6-0.5
				c0.1-0.2,0.2-0.5,0.2-0.8c0-0.5-0.2-1-0.5-1.3s-0.9-0.6-1.9-0.6H9.2V658.1z"/>
		</g>
		<g>
			
				<rect x="41.2" y="604.2" transform="matrix(-1.836970e-16 1 -1 -1.836970e-16 654.0649 563.2258)" class="st3" width="8.3" height="8.9"/>
			
				<rect x="41.2" y="618.9" transform="matrix(-1.836970e-16 1 -1 -1.836970e-16 668.7352 577.8961)" class="st3" width="8.3" height="8.9"/>
			
				<rect x="41.2" y="633.5" transform="matrix(-1.836970e-16 1 -1 -1.836970e-16 683.4055 592.5663)" class="st3" width="8.3" height="8.9"/>
			
				<rect x="41.2" y="648.2" transform="matrix(-1.836970e-16 1 -1 -1.836970e-16 698.0759 607.2367)" class="st3" width="8.3" height="8.9"/>
		</g>
	</g>
	<g>
		<rect x="64.8" y="681.7" class="st4" width="60.7" height="12.6"/>
		<g>
			<path class="st3" d="M62.7,711.5v-9.8H67c0.9,0,1.5,0.1,2,0.3c0.5,0.2,0.8,0.5,1.1,0.9c0.3,0.4,0.4,0.9,0.4,1.5
				c0,0.7-0.2,1.3-0.7,1.8c-0.5,0.5-1.1,0.8-2.1,0.9c0.3,0.2,0.6,0.3,0.8,0.5c0.4,0.3,0.7,0.8,1.1,1.3l1.7,2.7h-1.6l-1.3-2
				c-0.4-0.6-0.7-1-0.9-1.4c-0.2-0.3-0.5-0.5-0.7-0.7c-0.2-0.1-0.4-0.2-0.6-0.3c-0.1,0-0.4,0-0.7,0H64v4.4H62.7z M64,706h2.8
				c0.6,0,1.1-0.1,1.4-0.2c0.3-0.1,0.6-0.3,0.8-0.6c0.2-0.3,0.3-0.6,0.3-0.9c0-0.5-0.2-0.8-0.5-1.1s-0.9-0.4-1.6-0.4H64V706z"/>
			<path class="st3" d="M76.7,709.2l1.2,0.2c-0.2,0.7-0.6,1.3-1.1,1.7c-0.5,0.4-1.2,0.6-2,0.6c-1,0-1.9-0.3-2.5-1
				c-0.6-0.6-0.9-1.5-0.9-2.7c0-1.2,0.3-2.1,0.9-2.8c0.6-0.7,1.4-1,2.4-1c1,0,1.7,0.3,2.3,1c0.6,0.6,0.9,1.6,0.9,2.7
				c0,0.1,0,0.2,0,0.3h-5.3c0,0.8,0.3,1.4,0.7,1.8c0.4,0.4,0.9,0.6,1.5,0.6c0.4,0,0.8-0.1,1.1-0.3C76.3,710.1,76.5,709.7,76.7,709.2
				z M72.8,707.2h4c-0.1-0.6-0.2-1-0.5-1.3c-0.4-0.5-0.9-0.7-1.5-0.7c-0.6,0-1,0.2-1.4,0.6C73,706.1,72.8,706.6,72.8,707.2z"/>
			<path class="st3" d="M78.7,712.1l1.2,0.2c0,0.4,0.2,0.6,0.4,0.8c0.3,0.2,0.7,0.3,1.2,0.3c0.6,0,1-0.1,1.3-0.3
				c0.3-0.2,0.5-0.5,0.6-0.9c0.1-0.2,0.1-0.8,0.1-1.5c-0.5,0.6-1.2,0.9-2,0.9c-1,0-1.7-0.4-2.3-1.1c-0.5-0.7-0.8-1.6-0.8-2.5
				c0-0.7,0.1-1.3,0.4-1.9c0.2-0.6,0.6-1,1.1-1.3c0.5-0.3,1-0.5,1.6-0.5c0.8,0,1.5,0.3,2.1,1v-0.9h1.1v6.2c0,1.1-0.1,1.9-0.3,2.4
				c-0.2,0.5-0.6,0.8-1.1,1.1c-0.5,0.3-1.1,0.4-1.8,0.4c-0.8,0-1.5-0.2-2.1-0.6C79,713.4,78.7,712.8,78.7,712.1z M79.7,707.8
				c0,0.9,0.2,1.6,0.6,2c0.4,0.4,0.8,0.6,1.4,0.6c0.6,0,1-0.2,1.4-0.6c0.4-0.4,0.6-1.1,0.6-2c0-0.9-0.2-1.5-0.6-2
				c-0.4-0.4-0.9-0.7-1.4-0.7c-0.5,0-1,0.2-1.4,0.7C79.9,706.3,79.7,706.9,79.7,707.8z"/>
			<path class="st3" d="M86,703v-1.4h1.2v1.4H86z M86,711.5v-7.1h1.2v7.1H86z"/>
			<path class="st3" d="M88,709.3l1.2-0.2c0.1,0.5,0.3,0.8,0.6,1.1c0.3,0.3,0.7,0.4,1.3,0.4c0.6,0,1-0.1,1.2-0.3
				c0.3-0.2,0.4-0.5,0.4-0.8c0-0.3-0.1-0.5-0.4-0.6c-0.2-0.1-0.6-0.2-1.2-0.4c-0.9-0.2-1.5-0.4-1.8-0.6c-0.3-0.2-0.6-0.4-0.8-0.7
				c-0.2-0.3-0.3-0.6-0.3-1c0-0.3,0.1-0.6,0.2-0.9c0.1-0.3,0.3-0.5,0.6-0.7c0.2-0.1,0.4-0.3,0.8-0.4c0.3-0.1,0.7-0.1,1-0.1
				c0.6,0,1,0.1,1.5,0.2c0.4,0.2,0.7,0.4,0.9,0.7c0.2,0.3,0.3,0.6,0.4,1.1l-1.2,0.2c-0.1-0.4-0.2-0.7-0.5-0.9
				c-0.3-0.2-0.6-0.3-1.1-0.3c-0.6,0-0.9,0.1-1.2,0.3c-0.2,0.2-0.4,0.4-0.4,0.6c0,0.2,0,0.3,0.1,0.4c0.1,0.1,0.3,0.2,0.5,0.3
				c0.1,0,0.5,0.1,1.1,0.3c0.9,0.2,1.4,0.4,1.8,0.6c0.3,0.1,0.6,0.4,0.8,0.6c0.2,0.3,0.3,0.6,0.3,1c0,0.4-0.1,0.8-0.4,1.1
				c-0.2,0.4-0.6,0.6-1,0.8c-0.4,0.2-0.9,0.3-1.5,0.3c-0.9,0-1.6-0.2-2.1-0.6C88.5,710.7,88.2,710.1,88,709.3z"/>
			<path class="st3" d="M97.5,710.4l0.2,1.1c-0.3,0.1-0.6,0.1-0.9,0.1c-0.4,0-0.8-0.1-1-0.2c-0.2-0.1-0.4-0.3-0.5-0.5
				c-0.1-0.2-0.1-0.7-0.1-1.4v-4.1h-0.9v-0.9h0.9v-1.8l1.2-0.7v2.5h1.2v0.9h-1.2v4.2c0,0.3,0,0.6,0.1,0.7c0,0.1,0.1,0.2,0.2,0.2
				c0.1,0.1,0.2,0.1,0.4,0.1C97.1,710.4,97.3,710.4,97.5,710.4z"/>
			<path class="st3" d="M98.1,711.5v-7.1h1.1v1.1c0.3-0.5,0.5-0.8,0.8-1s0.5-0.2,0.8-0.2c0.4,0,0.8,0.1,1.2,0.4l-0.4,1.1
				c-0.3-0.2-0.6-0.3-0.9-0.3c-0.3,0-0.5,0.1-0.7,0.2c-0.2,0.2-0.4,0.4-0.4,0.7c-0.1,0.4-0.2,0.9-0.2,1.4v3.7H98.1z"/>
			<path class="st3" d="M106.8,710.6c-0.4,0.4-0.9,0.6-1.3,0.8c-0.4,0.2-0.9,0.2-1.3,0.2c-0.8,0-1.4-0.2-1.8-0.6
				c-0.4-0.4-0.6-0.9-0.6-1.5c0-0.3,0.1-0.7,0.2-1c0.2-0.3,0.4-0.5,0.6-0.7c0.3-0.2,0.5-0.3,0.9-0.4c0.2-0.1,0.6-0.1,1.1-0.2
				c1-0.1,1.7-0.3,2.2-0.4c0-0.2,0-0.3,0-0.3c0-0.5-0.1-0.8-0.3-1c-0.3-0.3-0.8-0.4-1.4-0.4c-0.6,0-1,0.1-1.3,0.3
				c-0.3,0.2-0.5,0.6-0.6,1.1l-1.2-0.2c0.1-0.5,0.3-0.9,0.5-1.2c0.2-0.3,0.6-0.5,1.1-0.7c0.5-0.2,1-0.3,1.6-0.3
				c0.6,0,1.1,0.1,1.5,0.2c0.4,0.1,0.7,0.3,0.8,0.5c0.2,0.2,0.3,0.5,0.4,0.8c0,0.2,0.1,0.6,0.1,1.1v1.6c0,1.1,0,1.8,0.1,2.1
				c0.1,0.3,0.2,0.6,0.3,0.9H107C106.9,711.2,106.8,710.9,106.8,710.6z M106.7,707.9c-0.4,0.2-1.1,0.3-2,0.5
				c-0.5,0.1-0.8,0.2-1.1,0.2c-0.2,0.1-0.4,0.2-0.5,0.4s-0.2,0.4-0.2,0.6c0,0.3,0.1,0.6,0.4,0.8c0.2,0.2,0.6,0.3,1.1,0.3
				c0.5,0,0.9-0.1,1.2-0.3c0.4-0.2,0.6-0.5,0.8-0.8c0.1-0.3,0.2-0.7,0.2-1.2V707.9z"/>
			<path class="st3" d="M111.9,710.4l0.2,1.1c-0.3,0.1-0.6,0.1-0.9,0.1c-0.4,0-0.8-0.1-1-0.2c-0.2-0.1-0.4-0.3-0.5-0.5
				c-0.1-0.2-0.1-0.7-0.1-1.4v-4.1h-0.9v-0.9h0.9v-1.8l1.2-0.7v2.5h1.2v0.9h-1.2v4.2c0,0.3,0,0.6,0.1,0.7c0,0.1,0.1,0.2,0.2,0.2
				s0.2,0.1,0.4,0.1C111.5,710.4,111.6,710.4,111.9,710.4z"/>
			<path class="st3" d="M112.5,703v-1.4h1.2v1.4H112.5z M112.5,711.5v-7.1h1.2v7.1H112.5z"/>
			<path class="st3" d="M114.5,707.9c0-1.3,0.4-2.3,1.1-2.9c0.6-0.5,1.4-0.8,2.2-0.8c1,0,1.8,0.3,2.4,1c0.6,0.6,0.9,1.5,0.9,2.7
				c0,0.9-0.1,1.6-0.4,2.2c-0.3,0.5-0.7,0.9-1.2,1.2c-0.5,0.3-1.1,0.4-1.7,0.4c-1,0-1.8-0.3-2.4-1
				C114.9,710,114.5,709.1,114.5,707.9z M115.8,707.9c0,0.9,0.2,1.6,0.6,2c0.4,0.5,0.9,0.7,1.5,0.7c0.6,0,1.1-0.2,1.5-0.7
				c0.4-0.5,0.6-1.2,0.6-2.1c0-0.9-0.2-1.5-0.6-2c-0.4-0.5-0.9-0.7-1.5-0.7c-0.6,0-1.1,0.2-1.5,0.7C116,706.3,115.8,707,115.8,707.9
				z"/>
			<path class="st3" d="M122.1,711.5v-7.1h1.1v1c0.5-0.8,1.3-1.2,2.3-1.2c0.4,0,0.8,0.1,1.2,0.2c0.4,0.2,0.6,0.4,0.8,0.6
				c0.2,0.3,0.3,0.5,0.4,0.9c0,0.2,0.1,0.6,0.1,1.2v4.4h-1.2v-4.3c0-0.5,0-0.9-0.1-1.1c-0.1-0.2-0.3-0.4-0.5-0.6
				c-0.2-0.1-0.5-0.2-0.8-0.2c-0.5,0-1,0.2-1.3,0.5c-0.4,0.3-0.6,0.9-0.6,1.9v3.9H122.1z"/>
		</g>
		<g>
			<rect x="68.5" y="670.8" class="st3" width="8.3" height="8.9"/>
			<rect x="83.2" y="670.8" class="st3" width="8.3" height="8.9"/>
			<rect x="97.8" y="670.8" class="st3" width="8.3" height="8.9"/>
			<rect x="112.5" y="670.8" class="st3" width="8.3" height="8.9"/>
		</g>
	</g>
	<g>
		<g>
			
				<rect x="130.1" y="271.1" transform="matrix(-1.836970e-16 1 -1 -1.836970e-16 486.5512 197.6128)" class="st3" width="28.7" height="142"/>
			<polygon class="st3" points="205.4,364 205.4,320.8 232.9,342.4 			"/>
		</g>
		<g class="st5">
			<path class="st6" d="M106.4,350v-15.1h10.9v1.8h-8.9v4.6h8.4v1.8h-8.4v5.1h9.3v1.8H106.4z"/>
			<path class="st6" d="M119.3,350V339h1.7v1.6c0.8-1.2,2-1.8,3.5-1.8c0.7,0,1.3,0.1,1.8,0.4c0.6,0.2,1,0.5,1.2,0.9
				c0.3,0.4,0.5,0.8,0.6,1.4c0.1,0.3,0.1,0.9,0.1,1.8v6.7h-1.9v-6.7c0-0.8-0.1-1.3-0.2-1.7s-0.4-0.7-0.8-0.9
				c-0.4-0.2-0.8-0.3-1.3-0.3c-0.8,0-1.5,0.3-2,0.8c-0.6,0.5-0.9,1.5-0.9,2.9v6H119.3z"/>
			<path class="st6" d="M134.3,348.3l0.3,1.6c-0.5,0.1-1,0.2-1.4,0.2c-0.7,0-1.2-0.1-1.6-0.3c-0.4-0.2-0.6-0.5-0.8-0.8
				c-0.2-0.3-0.2-1.1-0.2-2.2v-6.3h-1.4V339h1.4v-2.7l1.8-1.1v3.8h1.9v1.4h-1.9v6.4c0,0.5,0,0.9,0.1,1c0.1,0.2,0.2,0.3,0.3,0.4
				c0.1,0.1,0.4,0.1,0.6,0.1C133.7,348.4,133.9,348.4,134.3,348.3z"/>
			<path class="st6" d="M135.2,350V339h1.7v1.7c0.4-0.8,0.8-1.3,1.2-1.5c0.4-0.2,0.8-0.4,1.2-0.4c0.6,0,1.3,0.2,1.9,0.6l-0.6,1.7
				c-0.5-0.3-0.9-0.4-1.4-0.4c-0.4,0-0.8,0.1-1.1,0.4c-0.3,0.2-0.6,0.6-0.7,1c-0.2,0.7-0.3,1.4-0.3,2.2v5.7H135.2z"/>
			<path class="st6" d="M148.6,348.6c-0.7,0.6-1.3,1-2,1.2c-0.6,0.2-1.3,0.4-2,0.4c-1.2,0-2.1-0.3-2.8-0.9c-0.6-0.6-1-1.3-1-2.3
				c0-0.5,0.1-1,0.4-1.5c0.2-0.4,0.6-0.8,1-1.1c0.4-0.3,0.8-0.5,1.3-0.6c0.4-0.1,0.9-0.2,1.6-0.3c1.5-0.2,2.6-0.4,3.3-0.6
				c0-0.3,0-0.4,0-0.5c0-0.8-0.2-1.3-0.5-1.6c-0.5-0.4-1.2-0.6-2.1-0.6c-0.9,0-1.5,0.2-1.9,0.5c-0.4,0.3-0.7,0.8-0.9,1.6l-1.8-0.2
				c0.2-0.8,0.4-1.4,0.8-1.9c0.4-0.5,0.9-0.8,1.6-1.1c0.7-0.3,1.5-0.4,2.5-0.4c0.9,0,1.7,0.1,2.3,0.3c0.6,0.2,1,0.5,1.3,0.8
				c0.3,0.3,0.5,0.8,0.6,1.3c0.1,0.3,0.1,0.9,0.1,1.7v2.5c0,1.7,0,2.8,0.1,3.3c0.1,0.5,0.2,0.9,0.5,1.3h-1.9
				C148.7,349.6,148.6,349.1,148.6,348.6z M148.4,344.5c-0.7,0.3-1.7,0.5-3,0.7c-0.8,0.1-1.3,0.2-1.6,0.4c-0.3,0.1-0.6,0.3-0.7,0.6
				c-0.2,0.3-0.3,0.6-0.3,0.9c0,0.5,0.2,0.9,0.6,1.2c0.4,0.3,0.9,0.5,1.6,0.5c0.7,0,1.3-0.2,1.9-0.5c0.6-0.3,1-0.7,1.2-1.3
				c0.2-0.4,0.3-1,0.3-1.9V344.5z"/>
			<path class="st6" d="M152.3,350V339h1.7v1.6c0.8-1.2,2-1.8,3.5-1.8c0.7,0,1.3,0.1,1.8,0.4c0.6,0.2,1,0.5,1.2,0.9
				c0.3,0.4,0.5,0.8,0.6,1.4c0.1,0.3,0.1,0.9,0.1,1.8v6.7h-1.9v-6.7c0-0.8-0.1-1.3-0.2-1.7c-0.1-0.4-0.4-0.7-0.8-0.9
				c-0.4-0.2-0.8-0.3-1.3-0.3c-0.8,0-1.5,0.3-2,0.8c-0.6,0.5-0.9,1.5-0.9,2.9v6H152.3z"/>
			<path class="st6" d="M170.4,346l1.8,0.2c-0.2,1.3-0.7,2.2-1.5,3s-1.8,1.1-3,1.1c-1.5,0-2.7-0.5-3.6-1.5c-0.9-1-1.4-2.4-1.4-4.2
				c0-1.2,0.2-2.2,0.6-3.1c0.4-0.9,1-1.6,1.8-2c0.8-0.4,1.7-0.7,2.6-0.7c1.2,0,2.2,0.3,2.9,0.9c0.8,0.6,1.2,1.5,1.5,2.6l-1.8,0.3
				c-0.2-0.7-0.5-1.3-0.9-1.7c-0.4-0.4-1-0.6-1.6-0.6c-0.9,0-1.7,0.3-2.3,1c-0.6,0.7-0.9,1.7-0.9,3.2c0,1.5,0.3,2.5,0.8,3.2
				c0.6,0.7,1.3,1,2.2,1c0.7,0,1.3-0.2,1.8-0.7C169.9,347.6,170.2,346.9,170.4,346z"/>
			<path class="st6" d="M180.4,346.4l1.9,0.2c-0.3,1.1-0.9,2-1.7,2.6s-1.9,0.9-3.1,0.9c-1.6,0-2.9-0.5-3.8-1.5
				c-0.9-1-1.4-2.4-1.4-4.1c0-1.8,0.5-3.3,1.4-4.3c0.9-1,2.2-1.5,3.7-1.5c1.5,0,2.7,0.5,3.6,1.5c0.9,1,1.4,2.4,1.4,4.2
				c0,0.1,0,0.3,0,0.5h-8.2c0.1,1.2,0.4,2.1,1,2.8c0.6,0.6,1.4,1,2.3,1c0.7,0,1.3-0.2,1.7-0.5C179.8,347.8,180.1,347.2,180.4,346.4z
				 M174.3,343.4h6.1c-0.1-0.9-0.3-1.6-0.7-2.1c-0.6-0.7-1.4-1.1-2.3-1.1c-0.9,0-1.6,0.3-2.1,0.9
				C174.7,341.7,174.4,342.5,174.3,343.4z"/>
		</g>
	</g>
</g>
</svg>
