<?xml version="1.0" encoding="utf-8"?>
<!-- Generator: Adobe Illustrator 21.1.0, SVG Export Plug-In . SVG Version: 6.00 Build 0)  -->
<svg version="1.1" id="Layer_4" xmlns="http://www.w3.org/2000/svg" xmlns:xlink="http://www.w3.org/1999/xlink" x="0px" y="0px"
	 viewBox="0 0 8 8" style="enable-background:new 0 0 8 8;" xml:space="preserve">
<style type="text/css">
	.st0{fill:#020202;}
</style>
<g id="LinkedIn">
	<g id="SocialLinkedIn">
		<path class="st0" d="M7.9,4.8v2.8H6.3V5c0-0.7-0.2-1.1-0.8-1.1C5,3.8,4.7,4.2,4.6,4.5c0,0.1-0.1,0.3-0.1,0.4v2.8H2.9
			c0,0,0-4.5,0-5h1.6v0.7l0,0h0v0C4.8,3,5.2,2.5,6.1,2.5C7.1,2.5,7.9,3.3,7.9,4.8z M1.2,0.3c-0.6,0-0.9,0.4-0.9,0.8
			C0.3,1.6,0.6,2,1.2,2h0c0.6,0,0.9-0.4,0.9-0.8C2.1,0.6,1.8,0.3,1.2,0.3z M0.4,7.6H2v-5H0.4V7.6z"/>
	</g>
</g>
</svg>
