<?xml version="1.0" encoding="utf-8"?>
<!-- Generator: Adobe Illustrator 21.1.0, SVG Export Plug-In . SVG Version: 6.00 Build 0)  -->
<svg version="1.1" id="Layer_3" xmlns="http://www.w3.org/2000/svg" xmlns:xlink="http://www.w3.org/1999/xlink" x="0px" y="0px"
	 viewBox="0 0 8 8" style="enable-background:new 0 0 8 8;" xml:space="preserve">
<style type="text/css">
	.st0{fill:#020202;}
</style>
<g id="Twitter">
	<g id="SocialTwitter">
		<path class="st0" d="M7.9,1.5C7.6,1.6,7.3,1.7,7,1.7c0.3-0.2,0.6-0.5,0.7-0.9C7.4,1,7.1,1.2,6.7,1.2C6.4,0.9,6,0.7,5.5,0.7
			c-0.9,0-1.6,0.7-1.6,1.6c0,0.1,0,0.3,0,0.4C2.6,2.6,1.4,2,0.6,1C0.4,1.3,0.4,1.5,0.4,1.8c0,0.6,0.3,1.1,0.7,1.3
			C0.8,3.2,0.6,3.1,0.4,3v0c0,0.8,0.6,1.4,1.3,1.6c-0.1,0-0.3,0.1-0.4,0.1c-0.1,0-0.2,0-0.3,0c0.2,0.6,0.8,1.1,1.5,1.1
			c-0.6,0.4-1.3,0.7-2,0.7c-0.1,0-0.3,0-0.4,0c0.7,0.5,1.6,0.7,2.5,0.7c3,0,4.6-2.5,4.6-4.6V2.3C7.4,2.1,7.7,1.8,7.9,1.5z"/>
	</g>
</g>
</svg>
