<?xml version="1.0" encoding="utf-8"?>
<!-- Generator: Adobe Illustrator 24.0.3, SVG Export Plug-In . SVG Version: 6.00 Build 0)  -->
<svg version="1.1" id="Layer_3" xmlns="http://www.w3.org/2000/svg" xmlns:xlink="http://www.w3.org/1999/xlink" x="0px" y="0px"
	 viewBox="0 0 492.6 753.6" style="enable-background:new 0 0 492.6 753.6;" xml:space="preserve">
<style type="text/css">
	.st0{opacity:0.4;fill:#FBE0B5;}
	.st1{fill:#FFFFFF;}
	.st2{fill:none;stroke:#FFFFFF;stroke-width:1.6439;stroke-miterlimit:10;}
	.st3{fill:none;stroke:#FFFFFF;stroke-width:0.3288;stroke-miterlimit:10;}
	.st4{fill:none;stroke:#FFFFFF;stroke-miterlimit:10;stroke-dasharray:4.9366,1.6455,0.3291,1.6455;}
	.st5{opacity:0.8;fill:#FBE0B5;enable-background:new    ;}
	.st6{enable-background:new    ;}
	.st7{fill:#828282;}
	.st8{fill:none;stroke:#FBE0B5;stroke-width:1;stroke-miterlimit:10;}
	.st9{fill:none;stroke:#FBE0B5;stroke-width:0.5;stroke-miterlimit:10;}
	.st10{fill:none;stroke:#FBE0B5;stroke-miterlimit:10;}
</style>
<g>
	<polygon class="st0" points="385.3,470.7 397.1,470.7 396.1,475.6 393.2,479.5 390.2,481.5 385.4,482.5 390.2,483.4 393.1,485.4 
		396.1,489.4 397.1,494.3 385.3,494.3 	"/>
	<polygon class="st0" points="385.3,189.5 397.1,189.5 396.1,194.4 393.2,198.3 390.2,200.3 385.5,201.3 390.2,202.3 393.2,204.2 
		396.1,208.2 397.1,213.1 385.3,213.2 	"/>
	<polygon class="st0" points="241.1,122.2 241.1,110.4 246.1,111.4 250,114.3 252,117.3 252.9,122.1 253.9,117.4 255.9,114.4 
		259.9,111.4 264.8,110.4 264.8,122.2 	"/>
	<polygon class="st0" points="154.4,122.2 154.4,110.4 159.3,111.4 163.3,114.3 165.2,117.3 166.2,122.1 167.2,117.4 169.2,114.4 
		173.1,111.4 178,110.4 178.1,122.2 	"/>
	<polygon class="st0" points="34.2,213.2 22.4,213.2 23.4,208.2 26.3,204.3 29.3,202.4 34,201.4 29.3,200.4 26.3,198.4 23.4,194.5 
		22.4,189.5 34.2,189.5 	"/>
	<polygon class="st0" points="34.2,322.5 22.4,322.5 23.4,317.5 26.3,313.6 29.3,311.7 34,310.7 29.3,309.7 26.3,307.7 23.4,303.7 
		22.4,298.8 34.2,298.8 	"/>
	<polygon class="st0" points="34.2,494.3 22.4,494.3 23.4,489.4 26.3,485.5 29.3,483.5 34,482.5 29.3,481.5 26.3,479.6 23.4,475.6 
		22.4,470.7 34.2,470.6 	"/>
	<polygon class="st0" points="381.6,460.2 379.1,460.2 379.1,468.6 379.3,468.6 379.3,470.3 383,470.3 383,470.5 385.3,470.5 
		385.3,494.2 383,494.2 383,494.4 379.3,494.4 379.3,496.1 379.1,496.1 379.1,504.5 381.6,504.5 381.6,507.9 379.1,507.9 
		379.1,516.3 382.4,516.3 382.4,526.5 381.9,526.5 381.9,558.1 382.4,558.1 382.4,568.2 379.1,568.2 379.1,576.6 381.6,576.6 
		381.6,580.1 379.1,580.1 379.1,588.5 382.4,588.5 382.4,589.9 382.4,589.9 382.4,622.4 382.4,622.4 382.4,624 379.1,624 
		379.1,632.4 381.6,632.4 381.6,635.9 379.1,635.9 379.1,644.2 382.4,644.2 382.4,661.6 369.5,661.6 369.5,661.2 348,661.2 
		348,640.4 348.7,640.4 348.7,633.8 331.5,631.3 314.3,629.1 297,627.3 279.7,625.8 262.3,624.6 245,623.8 227.6,623.3 210.2,623.1 
		192.8,623.3 175.5,623.7 158.1,624.6 140.7,625.7 123.4,627.2 106.1,629 88.9,631.2 71.7,633.7 70.8,633.8 70.8,640.4 71.4,640.4 
		71.4,661.2 50,661.2 50,661.6 36.9,661.6 36.9,644 40.4,644 40.4,635.6 37.9,635.6 37.9,632.2 40.4,632.2 40.4,623.8 36.9,623.8 
		36.9,622.6 37.1,622.6 37.1,589.7 37.1,589.7 37.1,588.5 40.4,588.5 40.4,580.1 37.9,580.1 37.9,576.6 40.4,576.6 40.4,568.2 
		37.1,568.2 37.1,516.3 40.4,516.3 40.4,507.9 37.9,507.9 37.9,504.5 40.4,504.5 40.4,496.1 40.2,496.1 40.2,494.4 36.5,494.4 
		36.5,494.2 34.2,494.2 34.2,470.5 36.5,470.5 36.5,470.3 40.2,470.3 40.2,468.6 40.4,468.6 40.4,460.2 37.9,460.2 37.9,456.8 
		40.4,456.8 40.4,448.4 37.1,448.4 37.1,439.1 38.2,439.1 38.2,353.9 37.1,353.9 37.1,344.7 40.4,344.7 40.4,336.3 37.9,336.3 
		37.9,332.8 40.4,332.8 40.4,324.4 40.2,324.4 40.2,322.8 36.5,322.8 36.5,322.6 34.2,322.6 34.2,298.9 36.5,298.9 36.5,298.6 
		40.2,298.6 40.2,297 40.4,297 40.4,288.6 37.9,288.6 37.9,285.2 40.4,285.2 40.4,276.8 37.1,276.8 37.1,271.9 37.6,271.9 
		37.6,240.4 37.1,240.4 37.1,235.5 40.4,235.5 40.4,227.1 37.9,227.1 37.9,223.7 40.4,223.7 40.4,215.3 40.2,215.3 40.2,213.6 
		36.5,213.6 36.5,213.4 34.2,213.4 34.2,189.7 36.5,189.7 36.5,189.5 40.2,189.5 40.2,187.8 40.4,187.8 40.4,179.4 37.9,179.4 
		37.9,176 40.4,176 40.4,167.6 37.1,167.6 37.1,162.2 37.6,162.2 37.6,130.6 37.1,130.6 37.1,125.2 44.3,125.2 44.3,126.2 
		106.1,126.2 106.1,125.2 113.2,125.2 113.2,128.5 121.6,128.5 121.6,125.9 125,125.9 125,128.5 133.4,128.5 133.4,125.2 
		152.5,125.2 152.5,128.2 154.5,128.2 154.5,124.6 154.8,124.6 154.8,122.3 178.5,122.3 178.5,124.6 178.6,124.6 178.6,128.2 
		180.6,128.2 180.6,125.2 199.6,125.2 199.6,128.5 208,128.5 208,125.9 211.5,125.9 211.5,128.5 219.9,128.5 219.9,125.2 
		238.9,125.2 238.9,128.2 240.9,128.2 240.9,124.6 241.1,124.6 241.1,122.3 264.8,122.3 264.8,124.6 265,124.6 265,128.2 267,128.2 
		267,125.2 286.1,125.2 286.1,128.5 294.5,128.5 294.5,125.9 297.9,125.9 297.9,128.5 306.3,128.5 306.3,125.2 313.3,125.2 
		313.3,126.2 375.3,126.2 375.3,125.2 382.4,125.2 382.4,130.6 381.9,130.6 381.9,162.2 382.4,162.2 382.4,167.6 379.1,167.6 
		379.1,176 381.6,176 381.6,179.4 379.1,179.4 379.1,187.8 379.3,187.8 379.3,189.5 383,189.5 383,189.7 385.3,189.7 385.3,213.4 
		383,213.4 383,213.6 379.1,213.6 379.1,223.7 381.6,223.7 381.6,227.1 379.1,227.1 379.1,235.5 382.4,235.5 382.4,240.4 
		381.9,240.4 381.9,271.9 382.4,271.9 382.4,276.8 379.1,276.8 379.1,285.2 381.6,285.2 381.6,288.6 379.1,288.6 379.1,297 
		379.3,297 379.3,298.6 383,298.6 383,298.9 385.3,298.9 385.3,322.6 383,322.6 383,322.8 379.3,322.8 379.3,324.4 379.1,324.4 
		379.1,332.8 381.6,332.8 381.6,336.3 379.1,336.3 379.1,344.7 382.4,344.7 382.4,353.9 381.3,353.9 381.3,439.1 382.4,439.1 
		382.4,448.4 379.1,448.4 379.1,456.8 381.6,456.8 	"/>
	<polygon class="st1" points="382.4,622 366.7,622 368,615.4 371.9,610.2 375.9,607.6 382.2,606.3 375.9,605 372,602.3 368,597.1 
		366.7,590.5 382.4,590.4 	"/>
	<polygon class="st1" points="37.1,590.4 52.8,590.4 51.5,596.9 47.6,602.1 43.6,604.7 37.3,606 43.6,607.4 47.5,610 51.5,615.3 
		52.8,621.8 37.1,621.9 	"/>
</g>
<polygon class="st1" points="382.6,622.3 366.9,622.3 368.2,615.7 372.1,610.5 376,607.9 382.4,606.6 376.1,605.3 372.1,602.6 
	368.2,597.4 366.9,590.8 382.6,590.7 "/>
<polygon class="st1" points="382.6,622.3 366.9,622.3 368.2,615.7 372.1,610.5 376,607.9 382.4,606.6 376.1,605.3 372.1,602.6 
	368.2,597.4 366.9,590.8 382.6,590.7 "/>
<line class="st2" x1="382.7" y1="622.3" x2="382.6" y2="590.7"/>
<polygon class="st1" points="385.5,470.7 397.3,470.7 396.3,475.6 393.4,479.5 390.4,481.5 385.6,482.5 390.4,483.4 393.3,485.4 
	396.3,489.4 397.3,494.3 385.5,494.3 "/>
<polygon class="st1" points="385.5,298.8 397.3,298.8 396.3,303.8 393.4,307.7 390.4,309.6 385.6,310.6 390.4,311.6 393.3,313.6 
	396.3,317.5 397.3,322.5 385.5,322.5 "/>
<polygon class="st0" points="385.3,298.8 397.1,298.8 396.1,303.8 393.2,307.7 390.2,309.6 385.4,310.6 390.2,311.6 393.1,313.6 
	396.1,317.5 397.1,322.5 385.3,322.5 "/>
<polygon class="st1" points="385.5,189.5 397.3,189.5 396.3,194.4 393.4,198.3 390.4,200.3 385.6,201.3 390.4,202.3 393.3,204.2 
	396.3,208.2 397.3,213.1 385.5,213.2 "/>
<polygon class="st1" points="36.8,590.6 52.5,590.6 51.2,597.2 47.3,602.4 43.4,605.1 37,606.4 43.3,607.7 47.3,610.3 51.2,615.6 
	52.5,622.2 36.9,622.2 "/>
<polygon class="st3" points="36.8,590.6 52.5,590.6 51.2,597.2 47.3,602.4 43.4,605.1 37,606.4 43.3,607.7 47.3,610.3 51.2,615.6 
	52.5,622.2 36.9,622.2 "/>
<line class="st2" x1="36.7" y1="590.6" x2="36.8" y2="622.2"/>
<g>
	<line class="st4" x1="37.7" y1="458.4" x2="381.8" y2="458.4"/>
	<line class="st4" x1="37.7" y1="286.7" x2="381.8" y2="286.8"/>
</g>
<rect x="92.4" y="581.9" class="st5" width="38.3" height="38.5"/>
<rect x="131.8" y="581.9" class="st5" width="37.6" height="38.5"/>
<g class="st6">
	<path class="st7" d="M410.5,556.8v-0.7h1.3v-8.8h-1.3v-0.7h4v0.7h-1.3v3.5h5.3v-3.5h-1.3v-0.7h4v0.7h-1.3v8.8h1.3v0.7h-4v-0.7h1.3
		v-4.4h-5.3v4.4h1.3v0.7H410.5z"/>
	<path class="st7" d="M429.1,553.3h-5.4v0.1c0,1,0.2,1.7,0.6,2.2s0.9,0.7,1.6,0.7c0.6,0,1-0.1,1.4-0.4c0.4-0.3,0.6-0.7,0.7-1.3h1
		c-0.2,0.8-0.6,1.4-1.1,1.8c-0.5,0.4-1.2,0.6-2.1,0.6c-1.1,0-1.9-0.3-2.6-1c-0.6-0.7-1-1.6-1-2.8c0-1.1,0.3-2.1,1-2.8
		c0.6-0.7,1.5-1.1,2.5-1.1c1.1,0,1.9,0.3,2.5,1S429.1,552,429.1,553.3z M427.6,552.6c0-0.8-0.2-1.5-0.5-1.9
		c-0.3-0.4-0.8-0.6-1.4-0.6c-0.6,0-1,0.2-1.4,0.6c-0.3,0.4-0.5,1.1-0.6,1.9H427.6z"/>
	<path class="st7" d="M436.1,549.5v1.8h-0.7c0-0.4-0.1-0.6-0.3-0.8s-0.4-0.3-0.8-0.3c-0.6,0-1.1,0.2-1.4,0.6c-0.3,0.4-0.5,1-0.5,1.8
		v3.3h1.5v0.7H430v-0.7h1.1v-5.8h-1.2v-0.7h2.5v1.3c0.2-0.5,0.6-0.9,1-1.1c0.4-0.2,0.9-0.4,1.4-0.4c0.2,0,0.4,0,0.6,0
		C435.6,549.4,435.9,549.4,436.1,549.5z"/>
	<path class="st7" d="M438.7,556.1h1.2v0.7h-3.7v-0.7h1.2v-5.8h-1.2v-0.7h2.5V556.1z M437.1,547.3c0-0.2,0.1-0.4,0.2-0.5
		c0.2-0.2,0.3-0.2,0.5-0.2c0.2,0,0.4,0.1,0.5,0.2c0.2,0.2,0.2,0.3,0.2,0.5c0,0.2-0.1,0.4-0.2,0.5s-0.3,0.2-0.5,0.2s-0.4-0.1-0.5-0.2
		C437.1,547.7,437.1,547.5,437.1,547.3z"/>
	<path class="st7" d="M441.3,550.2h-1.1v-0.7h1.1v-2.3h1.3v2.3h2.4v0.7h-2.4v4.6c0,0.6,0.1,1,0.2,1.2c0.1,0.2,0.3,0.3,0.7,0.3
		c0.3,0,0.6-0.1,0.7-0.3c0.2-0.2,0.2-0.5,0.2-0.9h1c0,0.7-0.2,1.1-0.5,1.4c-0.3,0.3-0.8,0.5-1.5,0.5c-0.7,0-1.2-0.2-1.5-0.5
		s-0.5-0.9-0.5-1.6V550.2z"/>
	<path class="st7" d="M451.8,552.2v3.8h1.1v0.7h-2.4V556c-0.3,0.3-0.6,0.6-1,0.7c-0.4,0.2-0.8,0.2-1.3,0.2c-0.8,0-1.4-0.2-1.9-0.6
		c-0.5-0.4-0.7-1-0.7-1.7c0-0.8,0.3-1.3,0.8-1.8c0.5-0.4,1.3-0.6,2.3-0.6h1.8v-0.5c0-0.6-0.2-1-0.5-1.3c-0.3-0.3-0.8-0.5-1.4-0.5
		c-0.5,0-0.9,0.1-1.2,0.3c-0.3,0.2-0.5,0.6-0.6,1h-0.6v-1.5c0.4-0.2,0.9-0.3,1.3-0.4c0.4-0.1,0.8-0.1,1.2-0.1c1,0,1.8,0.2,2.3,0.7
		C451.6,550.6,451.8,551.3,451.8,552.2z M450.6,554.5V553h-1.6c-0.6,0-1.1,0.1-1.4,0.4c-0.3,0.3-0.5,0.7-0.5,1.2
		c0,0.5,0.2,0.9,0.5,1.2c0.3,0.3,0.7,0.4,1.3,0.4c0.5,0,0.9-0.2,1.3-0.5C450.4,555.4,450.6,555,450.6,554.5z"/>
	<path class="st7" d="M460.3,550.2v6.4c0,1-0.3,1.8-0.9,2.4s-1.4,0.9-2.5,0.9c-0.5,0-0.9,0-1.4-0.1c-0.4-0.1-0.9-0.2-1.3-0.4v-1.5
		h0.7c0.1,0.5,0.3,0.8,0.6,1s0.7,0.3,1.3,0.3c0.7,0,1.3-0.2,1.6-0.6c0.3-0.4,0.5-1.1,0.5-2v-1c-0.2,0.5-0.6,0.8-0.9,1
		c-0.4,0.2-0.9,0.3-1.4,0.3c-0.9,0-1.6-0.4-2.2-1.1c-0.6-0.7-0.9-1.6-0.9-2.8c0-1.1,0.3-2.1,0.8-2.8c0.6-0.7,1.3-1.1,2.2-1.1
		c0.6,0,1,0.1,1.4,0.3c0.4,0.2,0.7,0.6,0.9,1v-1.1h2.5v0.7H460.3z M459,552.8c0-0.9-0.2-1.5-0.5-2c-0.3-0.5-0.8-0.7-1.5-0.7
		c-0.6,0-1.1,0.3-1.5,0.8c-0.3,0.5-0.5,1.3-0.5,2.3c0,1,0.2,1.8,0.5,2.3c0.3,0.5,0.8,0.8,1.5,0.8c0.6,0,1.1-0.2,1.5-0.7
		c0.3-0.5,0.5-1.1,0.5-2V552.8z"/>
	<path class="st7" d="M469.1,553.3h-5.4v0.1c0,1,0.2,1.7,0.6,2.2s0.9,0.7,1.6,0.7c0.6,0,1-0.1,1.4-0.4c0.4-0.3,0.6-0.7,0.7-1.3h1
		c-0.2,0.8-0.6,1.4-1.1,1.8c-0.5,0.4-1.2,0.6-2.1,0.6c-1.1,0-1.9-0.3-2.6-1c-0.6-0.7-1-1.6-1-2.8c0-1.1,0.3-2.1,1-2.8
		c0.6-0.7,1.5-1.1,2.5-1.1c1.1,0,1.9,0.3,2.5,1S469.1,552,469.1,553.3z M467.6,552.6c0-0.8-0.2-1.5-0.5-1.9
		c-0.3-0.4-0.8-0.6-1.4-0.6c-0.6,0-1,0.2-1.4,0.6c-0.3,0.4-0.5,1.1-0.6,1.9H467.6z"/>
	<path class="st7" d="M435.3,570.1h1.3v0.7h-4v-0.7h1.3v-8.8h-1.3v-0.7h4v0.7h-1.3V570.1z"/>
	<path class="st7" d="M440.4,570.1h1.3v0.7h-4v-0.7h1.3v-8.8h-1.3v-0.7h4v0.7h-1.3V570.1z"/>
	<path class="st7" d="M445.6,570.1h1.3v0.7h-4v-0.7h1.3v-8.8h-1.3v-0.7h4v0.7h-1.3V570.1z"/>
</g>
<g class="st6">
	<path class="st7" d="M355,512.4l0.4,0l0,0.7l5,0l0-0.7l0.4,0l0,4.8l-1.3,0l0-0.5l0.8,0l0-2.8l-2,0l0,2l0.7,0v0.5l-1.9,0V516l0.7,0
		l0-2l-2.5,0l0,0.9l-0.4,0L355,512.4z"/>
	<path class="st7" d="M354.9,519.3c0-0.6,0.2-1.1,0.6-1.5c0.4-0.4,0.9-0.6,1.6-0.6c0.7,0,1.2,0.2,1.6,0.5c0.4,0.4,0.6,0.9,0.6,1.5
		s-0.2,1.1-0.6,1.5c-0.4,0.4-0.9,0.5-1.6,0.6s-1.2-0.2-1.6-0.5C355.1,520.4,354.9,519.9,354.9,519.3z M355.3,519.3
		c0,0.4,0.2,0.7,0.5,0.9c0.3,0.2,0.8,0.3,1.3,0.3s1-0.1,1.3-0.3c0.3-0.2,0.5-0.5,0.5-0.9s-0.2-0.7-0.5-0.9c-0.3-0.2-0.8-0.3-1.3-0.3
		s-1,0.1-1.3,0.3C355.5,518.6,355.3,518.9,355.3,519.3z"/>
	<path class="st7" d="M354.9,523.9c0-0.6,0.2-1.1,0.6-1.5c0.4-0.4,0.9-0.6,1.6-0.6s1.2,0.2,1.6,0.5c0.4,0.4,0.6,0.9,0.6,1.5
		s-0.2,1.1-0.6,1.5c-0.4,0.4-0.9,0.5-1.6,0.6c-0.7,0-1.2-0.2-1.6-0.5C355.1,525,354.9,524.5,354.9,523.9z M355.3,523.9
		c0,0.4,0.2,0.7,0.5,0.9c0.3,0.2,0.8,0.3,1.3,0.3s1-0.1,1.3-0.3c0.3-0.2,0.5-0.5,0.5-0.9c0-0.4-0.2-0.7-0.5-0.9
		c-0.3-0.2-0.8-0.3-1.3-0.3s-1,0.1-1.3,0.3C355.5,523.2,355.3,523.5,355.3,523.9z"/>
	<path class="st7" d="M355.5,530.2l0,0.7l-0.4,0l0-1.4l0.6,0c-0.3-0.1-0.5-0.3-0.6-0.5c-0.1-0.2-0.2-0.5-0.2-0.8
		c0-0.5,0.2-0.9,0.6-1.3c0.4-0.3,0.9-0.5,1.6-0.5c0.7,0,1.2,0.2,1.6,0.5c0.4,0.3,0.6,0.7,0.6,1.3c0,0.3-0.1,0.6-0.2,0.8
		s-0.3,0.4-0.6,0.5l2.2,0l0-0.7h0.4l0,1.4L355.5,530.2z M356.9,529.5l0.4,0c0.5,0,0.9-0.1,1.1-0.3s0.4-0.5,0.4-0.8
		c0-0.4-0.1-0.6-0.4-0.8c-0.3-0.2-0.7-0.3-1.3-0.3c-0.6,0-1,0.1-1.3,0.3c-0.3,0.2-0.4,0.5-0.4,0.8c0,0.4,0.1,0.6,0.4,0.8
		C356.1,529.4,356.4,529.5,356.9,529.5z"/>
	<path class="st7" d="M355.1,540l0-1.6l0.6-0.5c-0.2-0.3-0.4-0.6-0.5-0.9c-0.1-0.3-0.2-0.6-0.2-1c0-0.7,0.2-1.2,0.5-1.6
		c0.3-0.4,0.8-0.6,1.4-0.6c0.3,0,0.7,0.1,1,0.3c0.3,0.2,0.6,0.5,0.8,0.9c0.2-0.1,0.3-0.2,0.5-0.3s0.3-0.1,0.5-0.1
		c0.4,0,0.7,0.1,1,0.4c0.2,0.3,0.4,0.7,0.4,1.2c0,0.2,0,0.4-0.1,0.6c0,0.2-0.1,0.5-0.2,0.8l-1,0l0-0.4c0.3,0,0.5-0.1,0.6-0.3
		c0.1-0.2,0.2-0.4,0.2-0.7c0-0.3-0.1-0.5-0.2-0.7c-0.1-0.2-0.3-0.2-0.6-0.2c-0.2,0-0.3,0-0.5,0.1c-0.2,0.1-0.4,0.3-0.7,0.6l-2.1,2
		c0.2,0.2,0.4,0.3,0.7,0.4c0.2,0.1,0.5,0.2,0.8,0.2l0-0.7l0.4,0l0,1.8l-0.4,0l0-0.7c-0.3,0-0.7-0.1-1-0.3c-0.3-0.1-0.6-0.3-0.8-0.5
		l-0.7,0.7l0,0.9L355.1,540z M356,537.6l2.4-2.3c-0.2-0.2-0.4-0.4-0.7-0.5c-0.2-0.1-0.5-0.2-0.8-0.2c-0.4,0-0.8,0.2-1.1,0.5
		c-0.3,0.3-0.4,0.7-0.4,1.1c0,0.3,0,0.5,0.1,0.8C355.7,537.2,355.8,537.4,356,537.6z"/>
	<path class="st7" d="M355.1,542.9l0.4,0l0,0.7l5,0l0-0.7l0.4,0l0,2.9c0,0.6-0.1,1-0.4,1.3c-0.2,0.3-0.6,0.4-1.1,0.4
		c-0.3,0-0.6-0.1-0.8-0.3c-0.2-0.2-0.3-0.5-0.4-0.9c-0.1,0.5-0.2,0.9-0.5,1.1c-0.3,0.3-0.6,0.4-1,0.4c-0.6,0-1-0.2-1.3-0.5
		c-0.3-0.4-0.4-0.9-0.4-1.7L355.1,542.9z M355.5,544.4l0,1.2c0,0.5,0.1,0.8,0.3,1c0.2,0.2,0.5,0.3,1,0.3c0.4,0,0.8-0.1,1-0.3
		c0.2-0.2,0.3-0.6,0.3-1l0-1.2L355.5,544.4z M358.5,544.4l0,1c0,0.4,0.1,0.7,0.2,0.9c0.2,0.2,0.4,0.3,0.8,0.3c0.4,0,0.6-0.1,0.8-0.3
		c0.2-0.2,0.2-0.5,0.2-0.9l0-1L358.5,544.4z"/>
	<path class="st7" d="M357.1,552.4l0-3.1h0c-0.6,0-1,0.1-1.3,0.3c-0.3,0.2-0.4,0.5-0.4,0.9c0,0.3,0.1,0.6,0.2,0.8s0.4,0.3,0.7,0.4
		v0.6c-0.5-0.1-0.8-0.3-1-0.6c-0.2-0.3-0.3-0.7-0.3-1.2c0-0.6,0.2-1.1,0.6-1.5c0.4-0.4,0.9-0.6,1.6-0.6c0.7,0,1.2,0.2,1.6,0.5
		c0.4,0.4,0.6,0.8,0.6,1.4c0,0.6-0.2,1.1-0.6,1.4C358.4,552.2,357.8,552.4,357.1,552.4z M357.5,551.6c0.5,0,0.8-0.1,1.1-0.3
		c0.2-0.2,0.4-0.5,0.4-0.8c0-0.3-0.1-0.6-0.4-0.8s-0.6-0.3-1.1-0.3L357.5,551.6z"/>
	<path class="st7" d="M355.1,554.6l3.7-1.5l0-0.5l0.4,0l0,1.9l-0.4,0l0-0.7L356,555l2.9,1.2l0-0.6l0.4,0l0,1.6l-0.4,0v-0.5l-3.7-1.5
		L355.1,554.6z"/>
	<path class="st7" d="M357.1,561.2l0-3.1h0c-0.6,0-1,0.1-1.3,0.3c-0.3,0.2-0.4,0.5-0.4,0.9c0,0.3,0.1,0.6,0.2,0.8
		c0.2,0.2,0.4,0.3,0.7,0.4l0,0.6c-0.5-0.1-0.8-0.3-1-0.6c-0.2-0.3-0.3-0.7-0.3-1.2c0-0.6,0.2-1.1,0.6-1.5c0.4-0.4,0.9-0.6,1.6-0.6
		c0.7,0,1.2,0.2,1.6,0.5c0.4,0.4,0.6,0.8,0.6,1.4c0,0.6-0.2,1.1-0.6,1.4C358.4,561,357.9,561.2,357.1,561.2z M357.5,560.4
		c0.5,0,0.8-0.1,1.1-0.3c0.2-0.2,0.4-0.5,0.4-0.8c0-0.3-0.1-0.6-0.4-0.8c-0.2-0.2-0.6-0.3-1.1-0.3L357.5,560.4z"/>
	<path class="st7" d="M359.3,565.2l-1,0l0-0.4c0.2,0,0.4-0.1,0.5-0.2c0.1-0.1,0.2-0.2,0.2-0.4c0-0.4-0.1-0.6-0.4-0.8
		c-0.2-0.2-0.6-0.3-1.1-0.3l-1.9,0l0,0.8l-0.4,0l0-2.2l0.4,0l0,0.6l3.3,0l0-0.7l0.4,0l0,1.4l-0.7,0c0.3,0.1,0.5,0.3,0.6,0.5
		s0.2,0.5,0.2,0.8c0,0.1,0,0.2,0,0.4C359.3,564.9,359.3,565.1,359.3,565.2z"/>
	<path class="st7" d="M357.7,568.9l-2.2,0v0.6l-0.4,0l0-1.4l0.4,0c-0.2-0.2-0.3-0.3-0.4-0.5c-0.1-0.2-0.1-0.5-0.1-0.7
		c0-0.5,0.1-0.8,0.4-1.1c0.2-0.3,0.6-0.4,1-0.4c0.4,0,0.8,0.2,1,0.5c0.2,0.3,0.4,0.7,0.4,1.3l0,1h0.3c0.3,0,0.6-0.1,0.7-0.3
		c0.2-0.2,0.3-0.5,0.3-0.8c0-0.3-0.1-0.5-0.2-0.7c-0.1-0.2-0.3-0.3-0.6-0.3l0-0.4l0.8,0c0.1,0.2,0.2,0.5,0.2,0.7
		c0.1,0.2,0.1,0.5,0.1,0.7c0,0.6-0.1,1-0.4,1.3C358.7,568.7,358.3,568.9,357.7,568.9z M356.4,568.2l0.9,0l0-0.9
		c0-0.4-0.1-0.6-0.2-0.8c-0.2-0.2-0.4-0.3-0.7-0.3c-0.3,0-0.5,0.1-0.7,0.3c-0.2,0.2-0.3,0.4-0.3,0.7c0,0.3,0.1,0.5,0.3,0.7
		C355.9,568.1,356.1,568.2,356.4,568.2z"/>
	<path class="st7" d="M358.9,573.7l-3.6,0c-0.6,0-1.1-0.2-1.4-0.5c-0.3-0.3-0.5-0.8-0.5-1.4c0-0.3,0-0.5,0.1-0.8s0.1-0.5,0.2-0.7
		l0.9,0v0.4c-0.3,0-0.5,0.2-0.6,0.3c-0.1,0.2-0.2,0.4-0.2,0.8c0,0.4,0.1,0.7,0.4,0.9c0.2,0.2,0.6,0.3,1.1,0.3h0.6
		c-0.3-0.1-0.5-0.3-0.6-0.5c-0.1-0.2-0.2-0.5-0.2-0.8c0-0.5,0.2-0.9,0.6-1.3c0.4-0.3,0.9-0.5,1.6-0.5s1.2,0.2,1.6,0.5
		c0.4,0.3,0.6,0.7,0.6,1.3c0,0.3-0.1,0.6-0.2,0.8c-0.1,0.2-0.3,0.4-0.6,0.5l0.6,0l0,1.4l-0.4,0V573.7z M357.4,573
		c0.5,0,0.9-0.1,1.1-0.3c0.3-0.2,0.4-0.5,0.4-0.8c0-0.4-0.1-0.6-0.4-0.8c-0.3-0.2-0.7-0.3-1.3-0.3c-0.6,0-1,0.1-1.3,0.3
		c-0.3,0.2-0.4,0.5-0.4,0.8c0,0.4,0.1,0.6,0.4,0.8c0.3,0.2,0.6,0.3,1.1,0.3L357.4,573z"/>
	<path class="st7" d="M357.1,578.7l0-3.1h0c-0.6,0-1,0.1-1.3,0.3c-0.3,0.2-0.4,0.5-0.4,0.9c0,0.3,0.1,0.6,0.2,0.8s0.4,0.3,0.7,0.4
		l0,0.6c-0.5-0.1-0.8-0.3-1-0.6c-0.2-0.3-0.3-0.7-0.3-1.2c0-0.6,0.2-1.1,0.6-1.5c0.4-0.4,0.9-0.6,1.6-0.6c0.7,0,1.2,0.2,1.6,0.5
		c0.4,0.4,0.6,0.8,0.6,1.4c0,0.6-0.2,1.1-0.6,1.4C358.4,578.5,357.9,578.7,357.1,578.7z M357.6,577.9c0.5,0,0.8-0.1,1.1-0.3
		s0.4-0.5,0.4-0.8c0-0.3-0.1-0.6-0.4-0.8c-0.2-0.2-0.6-0.3-1.1-0.3L357.6,577.9z"/>
</g>
<g class="st6">
	<path class="st7" d="M385.7,401.7l1.3,0l0,0.4c-0.4,0-0.8,0.1-1,0.4c-0.2,0.2-0.3,0.6-0.3,1.1c0,0.5,0.1,0.8,0.3,1.1
		c0.2,0.2,0.5,0.4,0.8,0.4c0.3,0,0.5-0.1,0.6-0.2c0.2-0.1,0.3-0.5,0.4-0.9l0.2-0.8c0.2-0.6,0.4-1,0.6-1.2c0.3-0.2,0.6-0.3,1-0.3
		c0.5,0,0.9,0.2,1.2,0.5c0.3,0.4,0.4,0.8,0.4,1.5c0,0.3,0,0.6-0.1,0.9s-0.1,0.7-0.3,1l-1.2,0l0-0.4c0.4,0,0.7-0.2,0.9-0.4
		s0.3-0.6,0.3-1.1c0-0.4-0.1-0.7-0.3-0.9c-0.2-0.2-0.4-0.3-0.7-0.3c-0.3,0-0.5,0.1-0.7,0.2c-0.2,0.2-0.3,0.5-0.5,1l-0.2,0.7
		c-0.2,0.5-0.4,0.9-0.6,1.1c-0.2,0.2-0.6,0.3-1,0.3c-0.6,0-1-0.2-1.3-0.5c-0.3-0.4-0.4-0.9-0.4-1.6c0-0.3,0-0.6,0.1-1
		S385.6,402.1,385.7,401.7z"/>
	<path class="st7" d="M387.5,410.5l0-3.1h0c-0.6,0-1,0.1-1.3,0.3c-0.3,0.2-0.4,0.5-0.4,0.9c0,0.3,0.1,0.6,0.2,0.8s0.4,0.3,0.7,0.4
		l0,0.6c-0.5-0.1-0.8-0.3-1-0.6c-0.2-0.3-0.3-0.7-0.3-1.2c0-0.6,0.2-1.1,0.6-1.5c0.4-0.4,0.9-0.6,1.6-0.6c0.7,0,1.2,0.2,1.6,0.5
		c0.4,0.4,0.6,0.8,0.6,1.4c0,0.6-0.2,1.1-0.6,1.4C388.8,410.4,388.2,410.5,387.5,410.5z M387.9,409.7c0.5,0,0.8-0.1,1.1-0.3
		s0.4-0.5,0.4-0.8c0-0.3-0.1-0.6-0.4-0.8c-0.2-0.2-0.6-0.3-1.1-0.3L387.9,409.7z"/>
	<path class="st7" d="M389.6,414.5l-1,0v-0.4c0.2,0,0.4-0.1,0.5-0.2c0.1-0.1,0.2-0.2,0.2-0.4c0-0.4-0.1-0.6-0.4-0.8
		c-0.2-0.2-0.6-0.3-1.1-0.3l-1.9,0l0,0.8l-0.4,0l0-2.2l0.4,0l0,0.6l3.3,0l0-0.7l0.4,0l0,1.4l-0.7,0c0.3,0.1,0.5,0.3,0.6,0.5
		c0.1,0.2,0.2,0.5,0.2,0.8c0,0.1,0,0.2,0,0.4C389.7,414.3,389.7,414.4,389.6,414.5z"/>
	<path class="st7" d="M385.5,416.3l3.7-1.5v-0.5l0.4,0l0,1.9l-0.4,0l0-0.7l-2.9,1.2l2.9,1.2l0-0.6l0.4,0l0,1.6l-0.4,0l0-0.5
		l-3.7-1.5L385.5,416.3z"/>
	<path class="st7" d="M385.9,420.3v0.7l-0.4,0l0-2.1l0.4,0l0,0.7l3.3,0l0-0.7l0.4,0l0,1.4L385.9,420.3z M390.9,419.4
		c0.1,0,0.2,0,0.3,0.1c0.1,0.1,0.1,0.2,0.1,0.3c0,0.1,0,0.2-0.1,0.3c-0.1,0.1-0.2,0.1-0.3,0.1c-0.1,0-0.2,0-0.3-0.1
		c-0.1-0.1-0.1-0.2-0.1-0.3c0-0.1,0-0.2,0.1-0.3S390.8,419.4,390.9,419.4z"/>
	<path class="st7" d="M386.8,425c-0.4-0.1-0.8-0.3-1-0.6c-0.2-0.3-0.3-0.7-0.3-1.1c0-0.6,0.2-1.1,0.6-1.5c0.4-0.4,0.9-0.6,1.6-0.6
		c0.7,0,1.2,0.2,1.6,0.5c0.4,0.4,0.6,0.9,0.6,1.5c0,0.3,0,0.5-0.1,0.8s-0.2,0.5-0.3,0.8l-1.1,0l0-0.4c0.4-0.1,0.6-0.2,0.8-0.4
		c0.2-0.2,0.2-0.4,0.2-0.8c0-0.4-0.2-0.7-0.5-0.9c-0.3-0.2-0.8-0.3-1.4-0.3c-0.6,0-1,0.1-1.4,0.3c-0.3,0.2-0.5,0.5-0.5,0.9
		c0,0.3,0.1,0.6,0.2,0.7s0.4,0.3,0.7,0.4L386.8,425z"/>
	<path class="st7" d="M387.5,429.5l0-3.1h0c-0.6,0-1,0.1-1.3,0.3c-0.3,0.2-0.4,0.5-0.4,0.9c0,0.3,0.1,0.6,0.2,0.8
		c0.2,0.2,0.4,0.3,0.7,0.4v0.6c-0.5-0.1-0.8-0.3-1-0.6c-0.2-0.3-0.3-0.7-0.3-1.2c0-0.6,0.2-1.1,0.6-1.5c0.4-0.4,0.9-0.6,1.6-0.6
		c0.7,0,1.2,0.2,1.6,0.5c0.4,0.4,0.6,0.8,0.6,1.4c0,0.6-0.2,1.1-0.6,1.4C388.8,429.3,388.2,429.5,387.5,429.5z M387.9,428.7
		c0.5,0,0.8-0.1,1.1-0.3c0.2-0.2,0.4-0.5,0.4-0.8c0-0.3-0.1-0.6-0.4-0.8s-0.6-0.3-1.1-0.3L387.9,428.7z"/>
</g>
<g class="st6">
	<path class="st7" d="M410.5,381.5v-0.7h1.3V372h-1.3v-0.7h4v0.7h-1.3v3.5h5.3V372h-1.3v-0.7h4v0.7h-1.3v8.8h1.3v0.7h-4v-0.7h1.3
		v-4.4h-5.3v4.4h1.3v0.7H410.5z"/>
	<path class="st7" d="M429.1,378h-5.4v0.1c0,1,0.2,1.7,0.6,2.2s0.9,0.7,1.6,0.7c0.6,0,1-0.1,1.4-0.4c0.4-0.3,0.6-0.7,0.7-1.3h1
		c-0.2,0.8-0.6,1.4-1.1,1.8c-0.5,0.4-1.2,0.6-2.1,0.6c-1.1,0-1.9-0.3-2.6-1c-0.6-0.7-1-1.6-1-2.8c0-1.1,0.3-2.1,1-2.8
		s1.5-1.1,2.5-1.1c1.1,0,1.9,0.3,2.5,1S429.1,376.7,429.1,378z M427.6,377.2c0-0.8-0.2-1.5-0.5-1.9c-0.3-0.4-0.8-0.6-1.4-0.6
		c-0.6,0-1,0.2-1.4,0.6s-0.5,1.1-0.6,1.9H427.6z"/>
	<path class="st7" d="M436.1,374.2v1.8h-0.7c0-0.4-0.1-0.6-0.3-0.8s-0.4-0.3-0.8-0.3c-0.6,0-1.1,0.2-1.4,0.6c-0.3,0.4-0.5,1-0.5,1.8
		v3.3h1.5v0.7H430v-0.7h1.1v-5.8h-1.2v-0.7h2.5v1.3c0.2-0.5,0.6-0.9,1-1.1s0.9-0.4,1.4-0.4c0.2,0,0.4,0,0.6,0
		C435.6,374.1,435.9,374.1,436.1,374.2z"/>
	<path class="st7" d="M438.7,380.7h1.2v0.7h-3.7v-0.7h1.2v-5.8h-1.2v-0.7h2.5V380.7z M437.1,371.9c0-0.2,0.1-0.4,0.2-0.5
		c0.2-0.2,0.3-0.2,0.5-0.2c0.2,0,0.4,0.1,0.5,0.2c0.2,0.2,0.2,0.3,0.2,0.5c0,0.2-0.1,0.4-0.2,0.5s-0.3,0.2-0.5,0.2s-0.4-0.1-0.5-0.2
		C437.1,372.3,437.1,372.2,437.1,371.9z"/>
	<path class="st7" d="M441.3,374.9h-1.1v-0.7h1.1v-2.3h1.3v2.3h2.4v0.7h-2.4v4.6c0,0.6,0.1,1,0.2,1.2s0.3,0.3,0.7,0.3
		c0.3,0,0.6-0.1,0.7-0.3s0.2-0.5,0.2-0.9h1c0,0.7-0.2,1.1-0.5,1.4s-0.8,0.5-1.5,0.5c-0.7,0-1.2-0.2-1.5-0.5s-0.5-0.9-0.5-1.6V374.9z
		"/>
	<path class="st7" d="M451.8,376.9v3.8h1.1v0.7h-2.4v-0.8c-0.3,0.3-0.6,0.6-1,0.7s-0.8,0.2-1.3,0.2c-0.8,0-1.4-0.2-1.9-0.6
		s-0.7-1-0.7-1.7c0-0.8,0.3-1.3,0.8-1.8s1.3-0.6,2.3-0.6h1.8v-0.5c0-0.6-0.2-1-0.5-1.3c-0.3-0.3-0.8-0.5-1.4-0.5
		c-0.5,0-0.9,0.1-1.2,0.3s-0.5,0.6-0.6,1h-0.6v-1.5c0.4-0.2,0.9-0.3,1.3-0.4c0.4-0.1,0.8-0.1,1.2-0.1c1,0,1.8,0.2,2.3,0.7
		C451.6,375.2,451.8,376,451.8,376.9z M450.6,379.2v-1.5h-1.6c-0.6,0-1.1,0.1-1.4,0.4s-0.5,0.7-0.5,1.2c0,0.5,0.2,0.9,0.5,1.2
		s0.7,0.4,1.3,0.4c0.5,0,0.9-0.2,1.3-0.5C450.4,380.1,450.6,379.7,450.6,379.2z"/>
	<path class="st7" d="M460.3,374.9v6.4c0,1-0.3,1.8-0.9,2.4s-1.4,0.9-2.5,0.9c-0.5,0-0.9,0-1.4-0.1s-0.9-0.2-1.3-0.4v-1.5h0.7
		c0.1,0.5,0.3,0.8,0.6,1s0.7,0.3,1.3,0.3c0.7,0,1.3-0.2,1.6-0.6c0.3-0.4,0.5-1.1,0.5-2v-1c-0.2,0.5-0.6,0.8-0.9,1
		c-0.4,0.2-0.9,0.3-1.4,0.3c-0.9,0-1.6-0.4-2.2-1.1c-0.6-0.7-0.9-1.6-0.9-2.8s0.3-2.1,0.8-2.8s1.3-1.1,2.2-1.1c0.6,0,1,0.1,1.4,0.3
		c0.4,0.2,0.7,0.6,0.9,1v-1.1h2.5v0.7H460.3z M459,377.5c0-0.9-0.2-1.5-0.5-2c-0.3-0.5-0.8-0.7-1.5-0.7c-0.6,0-1.1,0.3-1.5,0.8
		c-0.3,0.5-0.5,1.3-0.5,2.3c0,1,0.2,1.8,0.5,2.3c0.3,0.5,0.8,0.8,1.5,0.8c0.6,0,1.1-0.2,1.5-0.7c0.3-0.5,0.5-1.1,0.5-2V377.5z"/>
	<path class="st7" d="M469.1,378h-5.4v0.1c0,1,0.2,1.7,0.6,2.2s0.9,0.7,1.6,0.7c0.6,0,1-0.1,1.4-0.4c0.4-0.3,0.6-0.7,0.7-1.3h1
		c-0.2,0.8-0.6,1.4-1.1,1.8c-0.5,0.4-1.2,0.6-2.1,0.6c-1.1,0-1.9-0.3-2.6-1c-0.6-0.7-1-1.6-1-2.8c0-1.1,0.3-2.1,1-2.8
		s1.5-1.1,2.5-1.1c1.1,0,1.9,0.3,2.5,1S469.1,376.7,469.1,378z M467.6,377.2c0-0.8-0.2-1.5-0.5-1.9c-0.3-0.4-0.8-0.6-1.4-0.6
		c-0.6,0-1,0.2-1.4,0.6s-0.5,1.1-0.6,1.9H467.6z"/>
	<path class="st7" d="M437.9,394.7h1.3v0.7h-4v-0.7h1.3V386h-1.3v-0.7h4v0.7h-1.3V394.7z"/>
	<path class="st7" d="M443,394.7h1.3v0.7h-4v-0.7h1.3V386h-1.3v-0.7h4v0.7H443V394.7z"/>
</g>
<g class="st6">
	<path class="st7" d="M410.5,205.2v-0.7h1.3v-8.8h-1.3V195h4v0.7h-1.3v3.5h5.3v-3.5h-1.3V195h4v0.7h-1.3v8.8h1.3v0.7h-4v-0.7h1.3
		V200h-5.3v4.4h1.3v0.7H410.5z"/>
	<path class="st7" d="M429.1,201.7h-5.4v0.1c0,1,0.2,1.7,0.6,2.2s0.9,0.7,1.6,0.7c0.6,0,1-0.1,1.4-0.4c0.4-0.3,0.6-0.7,0.7-1.3h1
		c-0.2,0.8-0.6,1.4-1.1,1.8c-0.5,0.4-1.2,0.6-2.1,0.6c-1.1,0-1.9-0.3-2.6-1c-0.6-0.7-1-1.6-1-2.8c0-1.1,0.3-2.1,1-2.8
		s1.5-1.1,2.5-1.1c1.1,0,1.9,0.3,2.5,1S429.1,200.4,429.1,201.7z M427.6,200.9c0-0.8-0.2-1.5-0.5-1.9c-0.3-0.4-0.8-0.6-1.4-0.6
		c-0.6,0-1,0.2-1.4,0.6s-0.5,1.1-0.6,1.9H427.6z"/>
	<path class="st7" d="M436.1,197.9v1.8h-0.7c0-0.4-0.1-0.6-0.3-0.8s-0.4-0.3-0.8-0.3c-0.6,0-1.1,0.2-1.4,0.6c-0.3,0.4-0.5,1-0.5,1.8
		v3.3h1.5v0.7H430v-0.7h1.1v-5.8h-1.2v-0.7h2.5v1.3c0.2-0.5,0.6-0.9,1-1.1s0.9-0.4,1.4-0.4c0.2,0,0.4,0,0.6,0
		C435.6,197.8,435.9,197.8,436.1,197.9z"/>
	<path class="st7" d="M438.7,204.4h1.2v0.7h-3.7v-0.7h1.2v-5.8h-1.2v-0.7h2.5V204.4z M437.1,195.6c0-0.2,0.1-0.4,0.2-0.5
		c0.2-0.2,0.3-0.2,0.5-0.2c0.2,0,0.4,0.1,0.5,0.2c0.2,0.2,0.2,0.3,0.2,0.5c0,0.2-0.1,0.4-0.2,0.5s-0.3,0.2-0.5,0.2s-0.4-0.1-0.5-0.2
		C437.1,196,437.1,195.9,437.1,195.6z"/>
	<path class="st7" d="M441.3,198.6h-1.1v-0.7h1.1v-2.3h1.3v2.3h2.4v0.7h-2.4v4.6c0,0.6,0.1,1,0.2,1.2s0.3,0.3,0.7,0.3
		c0.3,0,0.6-0.1,0.7-0.3s0.2-0.5,0.2-0.9h1c0,0.7-0.2,1.1-0.5,1.4s-0.8,0.5-1.5,0.5c-0.7,0-1.2-0.2-1.5-0.5s-0.5-0.9-0.5-1.6V198.6z
		"/>
	<path class="st7" d="M451.8,200.6v3.8h1.1v0.7h-2.4v-0.8c-0.3,0.3-0.6,0.6-1,0.7s-0.8,0.2-1.3,0.2c-0.8,0-1.4-0.2-1.9-0.6
		s-0.7-1-0.7-1.7c0-0.8,0.3-1.3,0.8-1.8s1.3-0.6,2.3-0.6h1.8v-0.5c0-0.6-0.2-1-0.5-1.3c-0.3-0.3-0.8-0.5-1.4-0.5
		c-0.5,0-0.9,0.1-1.2,0.3s-0.5,0.6-0.6,1h-0.6v-1.5c0.4-0.2,0.9-0.3,1.3-0.4c0.4-0.1,0.8-0.1,1.2-0.1c1,0,1.8,0.2,2.3,0.7
		C451.6,198.9,451.8,199.7,451.8,200.6z M450.6,202.9v-1.5h-1.6c-0.6,0-1.1,0.1-1.4,0.4s-0.5,0.7-0.5,1.2c0,0.5,0.2,0.9,0.5,1.2
		s0.7,0.4,1.3,0.4c0.5,0,0.9-0.2,1.3-0.5C450.4,203.8,450.6,203.4,450.6,202.9z"/>
	<path class="st7" d="M460.3,198.6v6.4c0,1-0.3,1.8-0.9,2.4s-1.4,0.9-2.5,0.9c-0.5,0-0.9,0-1.4-0.1s-0.9-0.2-1.3-0.4v-1.5h0.7
		c0.1,0.5,0.3,0.8,0.6,1s0.7,0.3,1.3,0.3c0.7,0,1.3-0.2,1.6-0.6c0.3-0.4,0.5-1.1,0.5-2v-1c-0.2,0.5-0.6,0.8-0.9,1
		c-0.4,0.2-0.9,0.3-1.4,0.3c-0.9,0-1.6-0.4-2.2-1.1c-0.6-0.7-0.9-1.6-0.9-2.8s0.3-2.1,0.8-2.8s1.3-1.1,2.2-1.1c0.6,0,1,0.1,1.4,0.3
		c0.4,0.2,0.7,0.6,0.9,1v-1.1h2.5v0.7H460.3z M459,201.2c0-0.9-0.2-1.5-0.5-2c-0.3-0.5-0.8-0.7-1.5-0.7c-0.6,0-1.1,0.3-1.5,0.8
		c-0.3,0.5-0.5,1.3-0.5,2.3c0,1,0.2,1.8,0.5,2.3c0.3,0.5,0.8,0.8,1.5,0.8c0.6,0,1.1-0.2,1.5-0.7c0.3-0.5,0.5-1.1,0.5-2V201.2z"/>
	<path class="st7" d="M469.1,201.7h-5.4v0.1c0,1,0.2,1.7,0.6,2.2s0.9,0.7,1.6,0.7c0.6,0,1-0.1,1.4-0.4c0.4-0.3,0.6-0.7,0.7-1.3h1
		c-0.2,0.8-0.6,1.4-1.1,1.8c-0.5,0.4-1.2,0.6-2.1,0.6c-1.1,0-1.9-0.3-2.6-1c-0.6-0.7-1-1.6-1-2.8c0-1.1,0.3-2.1,1-2.8
		s1.5-1.1,2.5-1.1c1.1,0,1.9,0.3,2.5,1S469.1,200.4,469.1,201.7z M467.6,200.9c0-0.8-0.2-1.5-0.5-1.9c-0.3-0.4-0.8-0.6-1.4-0.6
		c-0.6,0-1,0.2-1.4,0.6s-0.5,1.1-0.6,1.9H467.6z"/>
	<path class="st7" d="M440.4,218.4h1.3v0.7h-4v-0.7h1.3v-8.8h-1.3V209h4v0.7h-1.3V218.4z"/>
</g>
<g class="st6">
	<path class="st7" d="M111.1,605.8h-6v-0.9h2.1v-2.6h-5.7v-1l5.7-8.9h1.7v8.9h2.5v0.9H109v2.6h2.1V605.8z M107.3,601.4v-7l-4.5,7
		H107.3z"/>
	<path class="st7" d="M120.3,599.9c-0.4,0.4-0.8,0.8-1.4,1c-0.5,0.2-1.1,0.3-1.7,0.3c-1.3,0-2.3-0.4-3.1-1.2s-1.1-1.9-1.1-3.2
		c0-1.3,0.4-2.4,1.2-3.2s1.9-1.2,3.3-1.2c1.5,0,2.6,0.6,3.4,1.7c0.8,1.1,1.2,2.7,1.2,4.7c0,2.3-0.5,4.1-1.4,5.3s-2.3,1.9-4,1.9
		c-0.5,0-0.9,0-1.5-0.1s-1-0.2-1.6-0.4v-2.2h1c0.1,0.6,0.3,1,0.7,1.4c0.4,0.3,0.9,0.5,1.5,0.5c1.1,0,2-0.4,2.5-1.3
		S120.3,601.7,120.3,599.9z M117.5,593.3c-0.8,0-1.5,0.3-1.9,0.9c-0.4,0.6-0.7,1.5-0.7,2.6c0,1.1,0.2,2,0.7,2.6
		c0.4,0.6,1.1,0.9,1.9,0.9s1.5-0.3,1.9-0.9c0.4-0.6,0.7-1.4,0.7-2.5c0-1.2-0.2-2.1-0.7-2.7C118.9,593.7,118.3,593.3,117.5,593.3z"/>
</g>
<g class="st6">
	<path class="st7" d="M149.8,605.8h-6v-0.9h2.1v-2.6h-5.7v-1l5.7-8.9h1.7v8.9h2.5v0.9h-2.5v2.6h2.1V605.8z M146,601.4v-7l-4.5,7H146
		z"/>
	<path class="st7" d="M157.7,598.8c1,0.1,1.8,0.5,2.3,1.1c0.6,0.6,0.8,1.4,0.8,2.3c0,1.2-0.4,2.2-1.2,2.8c-0.8,0.7-1.9,1-3.3,1
		c-1.4,0-2.6-0.3-3.3-1c-0.8-0.7-1.2-1.6-1.2-2.8c0-0.9,0.3-1.7,0.8-2.3c0.6-0.6,1.3-1,2.3-1.1c-0.9-0.2-1.6-0.5-2-1
		c-0.5-0.5-0.7-1.2-0.7-2c0-1.1,0.4-1.9,1.1-2.5s1.7-0.9,3-0.9c1.3,0,2.3,0.3,3,0.9s1.1,1.4,1.1,2.5c0,0.8-0.2,1.4-0.7,2
		C159.2,598.3,158.6,598.7,157.7,598.8z M159,602.2c0-0.9-0.2-1.7-0.7-2.2c-0.5-0.5-1.1-0.8-2-0.8s-1.5,0.3-2,0.8
		c-0.5,0.5-0.7,1.2-0.7,2.2c0,0.9,0.2,1.7,0.7,2.2c0.5,0.5,1.1,0.8,2,0.8s1.5-0.3,2-0.8C158.8,603.9,159,603.2,159,602.2z
		 M158.6,595.9c0-0.8-0.2-1.4-0.6-1.9c-0.4-0.4-1-0.7-1.7-0.7c-0.7,0-1.3,0.2-1.7,0.7c-0.4,0.4-0.6,1.1-0.6,1.9
		c0,0.8,0.2,1.4,0.6,1.9c0.4,0.4,1,0.7,1.7,0.7c0.7,0,1.3-0.2,1.7-0.7C158.4,597.3,158.6,596.7,158.6,595.9z"/>
</g>
<rect x="170.4" y="581.9" class="st5" width="38.5" height="38.5"/>
<g class="st6">
	<path class="st7" d="M188.9,605.8h-6v-0.9h2.1v-2.6h-5.7v-1l5.7-8.9h1.7v8.9h2.5v0.9h-2.5v2.6h2.1V605.8z M185,601.4v-7l-4.5,7H185
		z"/>
	<path class="st7" d="M199.8,593.6l-5.1,12.2h-1.3l4.9-11.7h-6.1v1.6h-1v-3.1h8.6V593.6z"/>
</g>
<rect x="209.9" y="581.9" class="st5" width="36.8" height="38.5"/>
<g class="st6">
	<path class="st7" d="M227.5,605.8h-6v-0.9h2.1v-2.6h-5.7v-1l5.7-8.9h1.7v8.9h2.5v0.9h-2.5v2.6h2.1V605.8z M223.6,601.4v-7l-4.5,7
		H223.6z"/>
	<path class="st7" d="M231.3,598.6c0.4-0.4,0.8-0.8,1.4-1c0.5-0.2,1.1-0.3,1.7-0.3c1.3,0,2.3,0.4,3.1,1.2s1.1,1.9,1.1,3.2
		c0,1.3-0.4,2.4-1.2,3.2s-1.9,1.2-3.3,1.2c-1.5,0-2.6-0.6-3.4-1.7c-0.8-1.1-1.2-2.7-1.2-4.7c0-2.3,0.5-4.1,1.4-5.3
		c0.9-1.3,2.3-1.9,4-1.9c0.5,0,0.9,0,1.5,0.1c0.5,0.1,1,0.2,1.6,0.4v2.2h-1c-0.1-0.6-0.3-1-0.7-1.4c-0.4-0.3-0.9-0.5-1.5-0.5
		c-1.1,0-2,0.4-2.5,1.3C231.6,595.5,231.3,596.8,231.3,598.6z M234.2,605.2c0.8,0,1.5-0.3,1.9-0.9c0.4-0.6,0.7-1.5,0.7-2.6
		s-0.2-2-0.7-2.6c-0.4-0.6-1.1-0.9-1.9-0.9c-0.8,0-1.5,0.3-1.9,0.9c-0.4,0.6-0.7,1.4-0.7,2.5c0,1.2,0.2,2.1,0.7,2.7
		C232.7,604.9,233.3,605.2,234.2,605.2z"/>
</g>
<rect x="247.6" y="581.9" class="st5" width="38.4" height="38.5"/>
<g class="st6">
	<path class="st7" d="M265.4,605.8h-6v-0.9h2.1v-2.6h-5.7v-1l5.7-8.9h1.7v8.9h2.5v0.9h-2.5v2.6h2.1V605.8z M261.5,601.4v-7l-4.5,7
		H261.5z"/>
	<path class="st7" d="M275.2,592.7v1.4h-6v3.8c0.3-0.2,0.7-0.4,1.1-0.5c0.4-0.1,0.9-0.2,1.4-0.2c1.4,0,2.5,0.4,3.4,1.2
		s1.2,1.9,1.2,3.2c0,1.4-0.4,2.5-1.2,3.2s-2,1.2-3.5,1.2c-0.6,0-1.2-0.1-1.9-0.2s-1.3-0.4-1.9-0.7v-2.5h1c0.1,0.8,0.3,1.5,0.8,1.9
		c0.5,0.4,1.1,0.7,2,0.7c0.9,0,1.6-0.3,2.1-0.9c0.5-0.6,0.7-1.5,0.7-2.6c0-1.1-0.2-2-0.7-2.6c-0.5-0.6-1.2-0.9-2.1-0.9
		c-0.5,0-1,0.1-1.4,0.3c-0.4,0.2-0.8,0.5-1.1,0.9h-0.8v-6.6H275.2z"/>
</g>
<rect x="287.1" y="581.9" class="st5" width="38.4" height="38.5"/>
<g class="st6">
	<path class="st7" d="M305.6,605.8h-6v-0.9h2.1v-2.6H296v-1l5.7-8.9h1.7v8.9h2.5v0.9h-2.5v2.6h2.1V605.8z M301.7,601.4v-7l-4.5,7
		H301.7z"/>
	<path class="st7" d="M316.5,605.8h-6v-0.9h2.1v-2.6h-5.7v-1l5.7-8.9h1.7v8.9h2.5v0.9h-2.5v2.6h2.1V605.8z M312.6,601.4v-7l-4.5,7
		H312.6z"/>
</g>
<rect x="365.3" y="509.5" class="st5" width="11.1" height="22.9"/>
<rect x="365.3" y="533.2" class="st5" width="11.1" height="22.9"/>
<rect x="365.3" y="556.9" class="st5" width="11.1" height="22.9"/>
<rect x="92.8" y="416.7" class="st5" width="37.7" height="38.6"/>
<rect x="131.6" y="416.7" class="st5" width="38.4" height="38.6"/>
<g class="st6">
	<path class="st7" d="M102.4,429.4c0.7-0.3,1.3-0.5,2-0.6c0.6-0.1,1.2-0.2,1.8-0.2c1.3,0,2.3,0.3,3,0.8c0.7,0.6,1.1,1.3,1.1,2.3
		c0,0.8-0.2,1.5-0.7,2c-0.5,0.5-1.2,0.9-2.1,1.1c1.1,0.2,1.9,0.5,2.5,1.2c0.6,0.6,0.9,1.4,0.9,2.4c0,1.2-0.4,2.2-1.2,2.8
		c-0.8,0.7-2,1-3.6,1c-0.7,0-1.4-0.1-2-0.2c-0.7-0.1-1.3-0.4-1.9-0.7v-2.5h1c0.1,0.8,0.3,1.5,0.9,1.9c0.5,0.4,1.2,0.6,2.2,0.6
		c0.9,0,1.6-0.3,2.1-0.8s0.8-1.2,0.8-2.1c0-1-0.3-1.8-0.8-2.3c-0.5-0.5-1.3-0.8-2.3-0.8H105v-0.9h0.4c1,0,1.8-0.2,2.3-0.6
		c0.5-0.4,0.8-1.1,0.8-1.9c0-0.8-0.2-1.4-0.6-1.8c-0.4-0.4-1-0.6-1.8-0.6c-0.8,0-1.4,0.2-1.8,0.6c-0.4,0.4-0.7,0.9-0.8,1.7h-1V429.4
		z"/>
	<path class="st7" d="M114.6,434.7c0.4-0.4,0.8-0.8,1.4-1c0.5-0.2,1.1-0.3,1.7-0.3c1.3,0,2.3,0.4,3.1,1.2c0.8,0.8,1.1,1.9,1.1,3.2
		c0,1.3-0.4,2.4-1.2,3.2c-0.8,0.8-1.9,1.2-3.3,1.2c-1.5,0-2.6-0.6-3.4-1.7c-0.8-1.1-1.2-2.7-1.2-4.7c0-2.3,0.5-4.1,1.4-5.3
		c0.9-1.3,2.3-1.9,4-1.9c0.5,0,0.9,0,1.5,0.1c0.5,0.1,1,0.2,1.6,0.4v2.2h-1c-0.1-0.6-0.3-1-0.7-1.4s-0.9-0.5-1.5-0.5
		c-1.1,0-2,0.4-2.5,1.3C114.9,431.6,114.7,432.9,114.6,434.7z M117.5,441.3c0.8,0,1.5-0.3,1.9-0.9c0.4-0.6,0.7-1.5,0.7-2.6
		c0-1.1-0.2-2-0.7-2.6c-0.4-0.6-1.1-0.9-1.9-0.9c-0.8,0-1.5,0.3-1.9,0.9c-0.4,0.6-0.7,1.4-0.7,2.5c0,1.2,0.2,2.1,0.7,2.7
		C116,441,116.7,441.3,117.5,441.3z"/>
</g>
<g class="st6">
	<path class="st7" d="M141.6,429.4c0.7-0.3,1.3-0.5,2-0.6c0.6-0.1,1.2-0.2,1.8-0.2c1.3,0,2.3,0.3,3,0.8c0.7,0.6,1.1,1.3,1.1,2.3
		c0,0.8-0.2,1.5-0.7,2c-0.5,0.5-1.2,0.9-2.1,1.1c1.1,0.2,1.9,0.5,2.5,1.2c0.6,0.6,0.9,1.4,0.9,2.4c0,1.2-0.4,2.2-1.2,2.8
		c-0.8,0.7-2,1-3.6,1c-0.7,0-1.4-0.1-2-0.2c-0.7-0.1-1.3-0.4-1.9-0.7v-2.5h1c0.1,0.8,0.3,1.5,0.9,1.9c0.5,0.4,1.2,0.6,2.2,0.6
		c0.9,0,1.6-0.3,2.1-0.8s0.8-1.2,0.8-2.1c0-1-0.3-1.8-0.8-2.3c-0.5-0.5-1.3-0.8-2.3-0.8h-0.8v-0.9h0.4c1,0,1.8-0.2,2.3-0.6
		c0.5-0.4,0.8-1.1,0.8-1.9c0-0.8-0.2-1.4-0.6-1.8c-0.4-0.4-1-0.6-1.8-0.6c-0.8,0-1.4,0.2-1.8,0.6c-0.4,0.4-0.7,0.9-0.8,1.7h-1V429.4
		z"/>
	<path class="st7" d="M160.9,429.7l-5.1,12.2h-1.3l4.9-11.7h-6.1v1.6h-1v-3.1h8.6V429.7z"/>
</g>
<rect x="171" y="416.7" class="st5" width="38.4" height="38.6"/>
<g class="st6">
	<path class="st7" d="M181,429.4c0.7-0.3,1.3-0.5,2-0.6c0.6-0.1,1.2-0.2,1.8-0.2c1.3,0,2.3,0.3,3,0.8c0.7,0.6,1.1,1.3,1.1,2.3
		c0,0.8-0.2,1.5-0.7,2c-0.5,0.5-1.2,0.9-2.1,1.1c1.1,0.2,1.9,0.5,2.5,1.2c0.6,0.6,0.9,1.4,0.9,2.4c0,1.2-0.4,2.2-1.2,2.8
		c-0.8,0.7-2,1-3.6,1c-0.7,0-1.4-0.1-2-0.2c-0.7-0.1-1.3-0.4-1.9-0.7v-2.5h1c0.1,0.8,0.3,1.5,0.9,1.9c0.5,0.4,1.2,0.6,2.2,0.6
		c0.9,0,1.6-0.3,2.1-0.8s0.8-1.2,0.8-2.1c0-1-0.3-1.8-0.8-2.3c-0.5-0.5-1.3-0.8-2.3-0.8h-0.8v-0.9h0.4c1,0,1.8-0.2,2.3-0.6
		c0.5-0.4,0.8-1.1,0.8-1.9c0-0.8-0.2-1.4-0.6-1.8c-0.4-0.4-1-0.6-1.8-0.6c-0.8,0-1.4,0.2-1.8,0.6c-0.4,0.4-0.7,0.9-0.8,1.7h-1V429.4
		z"/>
	<path class="st7" d="M197.3,435c1,0.1,1.8,0.5,2.3,1.1c0.6,0.6,0.8,1.4,0.8,2.3c0,1.2-0.4,2.2-1.2,2.8c-0.8,0.7-1.9,1-3.3,1
		c-1.4,0-2.6-0.3-3.3-1c-0.8-0.7-1.2-1.6-1.2-2.8c0-0.9,0.3-1.7,0.8-2.3c0.6-0.6,1.3-1,2.3-1.1c-0.9-0.2-1.6-0.5-2-1s-0.7-1.2-0.7-2
		c0-1.1,0.4-1.9,1.1-2.5c0.7-0.6,1.7-0.9,3-0.9c1.3,0,2.3,0.3,3,0.9c0.7,0.6,1.1,1.4,1.1,2.5c0,0.8-0.2,1.5-0.7,2
		S198.2,434.8,197.3,435z M198.6,438.4c0-0.9-0.2-1.7-0.7-2.2c-0.5-0.5-1.1-0.8-2-0.8c-0.8,0-1.5,0.3-2,0.8
		c-0.5,0.5-0.7,1.2-0.7,2.2c0,0.9,0.2,1.7,0.7,2.2c0.5,0.5,1.1,0.8,2,0.8c0.8,0,1.5-0.3,2-0.8S198.6,439.3,198.6,438.4z M198.2,432
		c0-0.8-0.2-1.4-0.6-1.9c-0.4-0.4-1-0.7-1.7-0.7c-0.7,0-1.3,0.2-1.7,0.7s-0.6,1.1-0.6,1.9c0,0.8,0.2,1.4,0.6,1.9
		c0.4,0.4,1,0.7,1.7,0.7c0.7,0,1.3-0.2,1.7-0.7C198,433.4,198.2,432.8,198.2,432z"/>
</g>
<rect x="210.3" y="416.7" class="st5" width="36.8" height="38.6"/>
<g class="st6">
	<path class="st7" d="M219.6,429.4c0.7-0.3,1.3-0.5,2-0.6c0.6-0.1,1.2-0.2,1.8-0.2c1.3,0,2.3,0.3,3,0.8c0.7,0.6,1.1,1.3,1.1,2.3
		c0,0.8-0.2,1.5-0.7,2c-0.5,0.5-1.2,0.9-2.1,1.1c1.1,0.2,1.9,0.5,2.5,1.2c0.6,0.6,0.9,1.4,0.9,2.4c0,1.2-0.4,2.2-1.2,2.8
		c-0.8,0.7-2,1-3.6,1c-0.7,0-1.4-0.1-2-0.2c-0.7-0.1-1.3-0.4-1.9-0.7v-2.5h1c0.1,0.8,0.3,1.5,0.9,1.9c0.5,0.4,1.2,0.6,2.2,0.6
		c0.9,0,1.6-0.3,2.1-0.8s0.8-1.2,0.8-2.1c0-1-0.3-1.8-0.8-2.3c-0.5-0.5-1.3-0.8-2.3-0.8h-0.8v-0.9h0.4c1,0,1.8-0.2,2.3-0.6
		c0.5-0.4,0.8-1.1,0.8-1.9c0-0.8-0.2-1.4-0.6-1.8c-0.4-0.4-1-0.6-1.8-0.6c-0.8,0-1.4,0.2-1.8,0.6c-0.4,0.4-0.7,0.9-0.8,1.7h-1V429.4
		z"/>
	<path class="st7" d="M237.2,436.1c-0.4,0.4-0.8,0.8-1.4,1s-1.1,0.3-1.7,0.3c-1.3,0-2.3-0.4-3.1-1.2c-0.8-0.8-1.1-1.9-1.1-3.2
		c0-1.3,0.4-2.4,1.2-3.2c0.8-0.8,1.9-1.2,3.3-1.2c1.5,0,2.6,0.6,3.4,1.7c0.8,1.1,1.2,2.7,1.2,4.7c0,2.3-0.5,4.1-1.4,5.3
		c-0.9,1.3-2.3,1.9-4,1.9c-0.5,0-0.9,0-1.5-0.1s-1-0.2-1.6-0.4v-2.2h1c0.1,0.6,0.3,1,0.7,1.4c0.4,0.3,0.9,0.5,1.5,0.5
		c1.1,0,2-0.4,2.5-1.3C236.9,439.2,237.1,437.9,237.2,436.1z M234.3,429.5c-0.8,0-1.5,0.3-1.9,0.9c-0.4,0.6-0.7,1.5-0.7,2.6
		s0.2,2,0.7,2.6c0.4,0.6,1.1,0.9,1.9,0.9c0.8,0,1.5-0.3,1.9-0.9s0.7-1.4,0.7-2.5c0-1.2-0.2-2.1-0.7-2.7
		C235.8,429.8,235.1,429.5,234.3,429.5z"/>
</g>
<rect x="248.3" y="416.7" class="st5" width="38.5" height="38.6"/>
<g class="st6">
	<path class="st7" d="M266.8,441.9h-6V441h2.1v-2.6h-5.7v-1l5.7-8.9h1.7v8.9h2.5v0.9h-2.5v2.6h2.1V441.9z M262.9,437.5v-7l-4.5,7
		H262.9z"/>
	<path class="st7" d="M273.3,442.2c-1.4,0-2.5-0.6-3.3-1.8c-0.8-1.2-1.2-2.9-1.2-5c0-2.1,0.4-3.8,1.2-5c0.8-1.2,1.9-1.8,3.3-1.8
		c1.4,0,2.5,0.6,3.3,1.8c0.8,1.2,1.2,2.9,1.2,5c0,2.1-0.4,3.8-1.2,5C275.8,441.6,274.7,442.2,273.3,442.2z M273.3,441.3
		c0.9,0,1.6-0.5,2-1.5c0.4-1,0.7-2.5,0.7-4.5c0-2-0.2-3.5-0.7-4.5c-0.4-1-1.1-1.5-2-1.5c-0.9,0-1.6,0.5-2,1.5
		c-0.4,1-0.7,2.5-0.7,4.5c0,2,0.2,3.5,0.7,4.5C271.7,440.8,272.4,441.3,273.3,441.3z"/>
</g>
<rect x="287.8" y="416.7" class="st5" width="37.8" height="38.6"/>
<g class="st6">
	<path class="st7" d="M305.9,441.9h-6V441h2.1v-2.6h-5.7v-1l5.7-8.9h1.7v8.9h2.5v0.9h-2.5v2.6h2.1V441.9z M302,437.5v-7l-4.5,7H302z
		"/>
	<path class="st7" d="M309.2,441.9V441h2.3v-10.9l-2.6,1.7v-1.2l3.2-2.1h1.2V441h2.3v0.9H309.2z"/>
</g>
<rect x="92.8" y="376.9" class="st5" width="37.7" height="38.6"/>
<rect x="131.6" y="376.9" class="st5" width="38.4" height="38.6"/>
<g class="st6">
	<path class="st7" d="M102.4,391.4c0.7-0.3,1.3-0.5,2-0.6c0.6-0.1,1.2-0.2,1.8-0.2c1.3,0,2.3,0.3,3,0.8s1.1,1.3,1.1,2.3
		c0,0.8-0.2,1.5-0.7,2c-0.5,0.5-1.2,0.9-2.1,1.1c1.1,0.2,1.9,0.5,2.5,1.2c0.6,0.6,0.9,1.4,0.9,2.4c0,1.2-0.4,2.2-1.2,2.8
		c-0.8,0.7-2,1-3.6,1c-0.7,0-1.4-0.1-2-0.2c-0.7-0.1-1.3-0.4-1.9-0.7v-2.5h1c0.1,0.8,0.3,1.5,0.9,1.9c0.5,0.4,1.2,0.6,2.2,0.6
		c0.9,0,1.6-0.3,2.1-0.8s0.8-1.2,0.8-2.1c0-1-0.3-1.8-0.8-2.3c-0.5-0.5-1.3-0.8-2.3-0.8H105v-0.9h0.4c1,0,1.8-0.2,2.3-0.6
		c0.5-0.4,0.8-1.1,0.8-1.9c0-0.8-0.2-1.4-0.6-1.8c-0.4-0.4-1-0.6-1.8-0.6c-0.8,0-1.4,0.2-1.8,0.6c-0.4,0.4-0.7,0.9-0.8,1.7h-1V391.4
		z"/>
	<path class="st7" d="M120.7,390.8v1.4h-6v3.8c0.3-0.2,0.7-0.4,1.1-0.5s0.9-0.2,1.4-0.2c1.4,0,2.5,0.4,3.4,1.2
		c0.8,0.8,1.2,1.9,1.2,3.2c0,1.4-0.4,2.5-1.2,3.2c-0.8,0.8-2,1.2-3.5,1.2c-0.6,0-1.2-0.1-1.9-0.2s-1.3-0.4-1.9-0.7v-2.5h1
		c0.1,0.8,0.3,1.5,0.8,1.9c0.5,0.4,1.1,0.7,2,0.7c0.9,0,1.6-0.3,2.1-0.9c0.5-0.6,0.7-1.5,0.7-2.6c0-1.1-0.2-2-0.7-2.6
		c-0.5-0.6-1.2-0.9-2.1-0.9c-0.5,0-1,0.1-1.4,0.3s-0.8,0.5-1.1,0.9h-0.8v-6.6H120.7z"/>
</g>
<g class="st6">
	<path class="st7" d="M141.6,391.4c0.7-0.3,1.3-0.5,2-0.6c0.6-0.1,1.2-0.2,1.8-0.2c1.3,0,2.3,0.3,3,0.8s1.1,1.3,1.1,2.3
		c0,0.8-0.2,1.5-0.7,2c-0.5,0.5-1.2,0.9-2.1,1.1c1.1,0.2,1.9,0.5,2.5,1.2c0.6,0.6,0.9,1.4,0.9,2.4c0,1.2-0.4,2.2-1.2,2.8
		c-0.8,0.7-2,1-3.6,1c-0.7,0-1.4-0.1-2-0.2c-0.7-0.1-1.3-0.4-1.9-0.7v-2.5h1c0.1,0.8,0.3,1.5,0.9,1.9c0.5,0.4,1.2,0.6,2.2,0.6
		c0.9,0,1.6-0.3,2.1-0.8s0.8-1.2,0.8-2.1c0-1-0.3-1.8-0.8-2.3c-0.5-0.5-1.3-0.8-2.3-0.8h-0.8v-0.9h0.4c1,0,1.8-0.2,2.3-0.6
		c0.5-0.4,0.8-1.1,0.8-1.9c0-0.8-0.2-1.4-0.6-1.8c-0.4-0.4-1-0.6-1.8-0.6c-0.8,0-1.4,0.2-1.8,0.6c-0.4,0.4-0.7,0.9-0.8,1.7h-1V391.4
		z"/>
	<path class="st7" d="M160.9,403.9h-6V403h2.1v-2.6h-5.7v-1l5.7-8.9h1.7v8.9h2.5v0.9h-2.5v2.6h2.1V403.9z M157,399.5v-7l-4.5,7H157z
		"/>
</g>
<rect x="171" y="376.9" class="st5" width="38.4" height="38.6"/>
<g class="st6">
	<path class="st7" d="M181,391.4c0.7-0.3,1.3-0.5,2-0.6c0.6-0.1,1.2-0.2,1.8-0.2c1.3,0,2.3,0.3,3,0.8s1.1,1.3,1.1,2.3
		c0,0.8-0.2,1.5-0.7,2c-0.5,0.5-1.2,0.9-2.1,1.1c1.1,0.2,1.9,0.5,2.5,1.2c0.6,0.6,0.9,1.4,0.9,2.4c0,1.2-0.4,2.2-1.2,2.8
		c-0.8,0.7-2,1-3.6,1c-0.7,0-1.4-0.1-2-0.2c-0.7-0.1-1.3-0.4-1.9-0.7v-2.5h1c0.1,0.8,0.3,1.5,0.9,1.9c0.5,0.4,1.2,0.6,2.2,0.6
		c0.9,0,1.6-0.3,2.1-0.8s0.8-1.2,0.8-2.1c0-1-0.3-1.8-0.8-2.3c-0.5-0.5-1.3-0.8-2.3-0.8h-0.8v-0.9h0.4c1,0,1.8-0.2,2.3-0.6
		c0.5-0.4,0.8-1.1,0.8-1.9c0-0.8-0.2-1.4-0.6-1.8c-0.4-0.4-1-0.6-1.8-0.6c-0.8,0-1.4,0.2-1.8,0.6c-0.4,0.4-0.7,0.9-0.8,1.7h-1V391.4
		z"/>
	<path class="st7" d="M192,391.4c0.7-0.3,1.3-0.5,2-0.6c0.6-0.1,1.2-0.2,1.8-0.2c1.3,0,2.3,0.3,3,0.8s1.1,1.3,1.1,2.3
		c0,0.8-0.2,1.5-0.7,2c-0.5,0.5-1.2,0.9-2.1,1.1c1.1,0.2,1.9,0.5,2.5,1.2c0.6,0.6,0.9,1.4,0.9,2.4c0,1.2-0.4,2.2-1.2,2.8
		c-0.8,0.7-2,1-3.6,1c-0.7,0-1.4-0.1-2-0.2c-0.7-0.1-1.3-0.4-1.9-0.7v-2.5h1c0.1,0.8,0.3,1.5,0.9,1.9c0.5,0.4,1.2,0.6,2.2,0.6
		c0.9,0,1.6-0.3,2.1-0.8s0.8-1.2,0.8-2.1c0-1-0.3-1.8-0.8-2.3c-0.5-0.5-1.3-0.8-2.3-0.8h-0.8v-0.9h0.4c1,0,1.8-0.2,2.3-0.6
		c0.5-0.4,0.8-1.1,0.8-1.9c0-0.8-0.2-1.4-0.6-1.8c-0.4-0.4-1-0.6-1.8-0.6c-0.8,0-1.4,0.2-1.8,0.6c-0.4,0.4-0.7,0.9-0.8,1.7h-1V391.4
		z"/>
</g>
<rect x="210.3" y="376.9" class="st5" width="36.8" height="38.6"/>
<g class="st6">
	<path class="st7" d="M219.6,391.4c0.7-0.3,1.3-0.5,2-0.6c0.6-0.1,1.2-0.2,1.8-0.2c1.3,0,2.3,0.3,3,0.8s1.1,1.3,1.1,2.3
		c0,0.8-0.2,1.5-0.7,2c-0.5,0.5-1.2,0.9-2.1,1.1c1.1,0.2,1.9,0.5,2.5,1.2c0.6,0.6,0.9,1.4,0.9,2.4c0,1.2-0.4,2.2-1.2,2.8
		c-0.8,0.7-2,1-3.6,1c-0.7,0-1.4-0.1-2-0.2c-0.7-0.1-1.3-0.4-1.9-0.7v-2.5h1c0.1,0.8,0.3,1.5,0.9,1.9c0.5,0.4,1.2,0.6,2.2,0.6
		c0.9,0,1.6-0.3,2.1-0.8s0.8-1.2,0.8-2.1c0-1-0.3-1.8-0.8-2.3c-0.5-0.5-1.3-0.8-2.3-0.8h-0.8v-0.9h0.4c1,0,1.8-0.2,2.3-0.6
		c0.5-0.4,0.8-1.1,0.8-1.9c0-0.8-0.2-1.4-0.6-1.8c-0.4-0.4-1-0.6-1.8-0.6c-0.8,0-1.4,0.2-1.8,0.6c-0.4,0.4-0.7,0.9-0.8,1.7h-1V391.4
		z"/>
	<path class="st7" d="M231,393.9h-1v-2.3c0.6-0.3,1.3-0.6,1.9-0.8c0.6-0.2,1.3-0.3,1.9-0.3c1.4,0,2.4,0.3,3.2,1
		c0.8,0.7,1.2,1.6,1.2,2.7c0,1.3-0.9,2.8-2.7,4.6c-0.1,0.1-0.2,0.2-0.3,0.3l-3.3,3.3h5.5v-1.6h1v3.1H230v-1l4-4
		c0.9-0.9,1.5-1.7,1.9-2.4c0.4-0.7,0.6-1.5,0.6-2.3c0-0.9-0.2-1.6-0.7-2.1c-0.5-0.5-1.1-0.7-1.9-0.7c-0.8,0-1.5,0.2-1.9,0.6
		C231.4,392.5,231.1,393.1,231,393.9z"/>
</g>
<rect x="248.3" y="376.9" class="st5" width="38.5" height="38.6"/>
<g class="st6">
	<path class="st7" d="M258.4,391.4c0.7-0.3,1.3-0.5,2-0.6c0.6-0.1,1.2-0.2,1.8-0.2c1.3,0,2.3,0.3,3,0.8s1.1,1.3,1.1,2.3
		c0,0.8-0.2,1.5-0.7,2c-0.5,0.5-1.2,0.9-2.1,1.1c1.1,0.2,1.9,0.5,2.5,1.2c0.6,0.6,0.9,1.4,0.9,2.4c0,1.2-0.4,2.2-1.2,2.8
		c-0.8,0.7-2,1-3.6,1c-0.7,0-1.4-0.1-2-0.2c-0.7-0.1-1.3-0.4-1.9-0.7v-2.5h1c0.1,0.8,0.3,1.5,0.9,1.9c0.5,0.4,1.2,0.6,2.2,0.6
		c0.9,0,1.6-0.3,2.1-0.8s0.8-1.2,0.8-2.1c0-1-0.3-1.8-0.8-2.3c-0.5-0.5-1.3-0.8-2.3-0.8h-0.8v-0.9h0.4c1,0,1.8-0.2,2.3-0.6
		c0.5-0.4,0.8-1.1,0.8-1.9c0-0.8-0.2-1.4-0.6-1.8c-0.4-0.4-1-0.6-1.8-0.6c-0.8,0-1.4,0.2-1.8,0.6c-0.4,0.4-0.7,0.9-0.8,1.7h-1V391.4
		z"/>
	<path class="st7" d="M270.1,403.9V403h2.3v-10.9l-2.6,1.7v-1.2l3.2-2.1h1.2V403h2.3v0.9H270.1z"/>
</g>
<rect x="287.8" y="376.9" class="st5" width="37.8" height="38.6"/>
<g class="st6">
	<path class="st7" d="M297.5,391.4c0.7-0.3,1.3-0.5,2-0.6c0.6-0.1,1.2-0.2,1.8-0.2c1.3,0,2.3,0.3,3,0.8s1.1,1.3,1.1,2.3
		c0,0.8-0.2,1.5-0.7,2c-0.5,0.5-1.2,0.9-2.1,1.1c1.1,0.2,1.9,0.5,2.5,1.2c0.6,0.6,0.9,1.4,0.9,2.4c0,1.2-0.4,2.2-1.2,2.8
		c-0.8,0.7-2,1-3.6,1c-0.7,0-1.4-0.1-2-0.2c-0.7-0.1-1.3-0.4-1.9-0.7v-2.5h1c0.1,0.8,0.3,1.5,0.9,1.9c0.5,0.4,1.2,0.6,2.2,0.6
		c0.9,0,1.6-0.3,2.1-0.8s0.8-1.2,0.8-2.1c0-1-0.3-1.8-0.8-2.3c-0.5-0.5-1.3-0.8-2.3-0.8H300v-0.9h0.4c1,0,1.8-0.2,2.3-0.6
		c0.5-0.4,0.8-1.1,0.8-1.9c0-0.8-0.2-1.4-0.6-1.8c-0.4-0.4-1-0.6-1.8-0.6c-0.8,0-1.4,0.2-1.8,0.6c-0.4,0.4-0.7,0.9-0.8,1.7h-1V391.4
		z"/>
	<path class="st7" d="M312.4,404.2c-1.4,0-2.5-0.6-3.3-1.8c-0.8-1.2-1.2-2.9-1.2-5c0-2.1,0.4-3.8,1.2-5c0.8-1.2,1.9-1.8,3.3-1.8
		c1.4,0,2.5,0.6,3.3,1.8c0.8,1.2,1.2,2.9,1.2,5c0,2.1-0.4,3.8-1.2,5C315,403.6,313.8,404.2,312.4,404.2z M312.4,403.3
		c0.9,0,1.6-0.5,2-1.5c0.4-1,0.7-2.5,0.7-4.5c0-2-0.2-3.5-0.7-4.5c-0.4-1-1.1-1.5-2-1.5c-0.9,0-1.6,0.5-2,1.5
		c-0.4,1-0.7,2.5-0.7,4.5c0,2,0.2,3.5,0.7,4.5C310.8,402.8,311.5,403.3,312.4,403.3z"/>
</g>
<rect x="92.3" y="309.1" class="st5" width="37.7" height="38.6"/>
<rect x="131.1" y="309.1" class="st5" width="38.4" height="38.6"/>
<g class="st6">
	<path class="st7" d="M102.5,324.6h-1v-2.3c0.6-0.3,1.3-0.6,1.9-0.8c0.6-0.2,1.3-0.3,1.9-0.3c1.4,0,2.4,0.3,3.2,1s1.2,1.6,1.2,2.7
		c0,1.3-0.9,2.8-2.7,4.6c-0.1,0.1-0.2,0.2-0.3,0.3l-3.3,3.3h5.5v-1.6h1v3.1h-8.5v-1l4-4c0.9-0.9,1.5-1.7,1.9-2.4s0.6-1.5,0.6-2.3
		c0-0.9-0.2-1.6-0.7-2.1c-0.5-0.5-1.1-0.7-1.9-0.7c-0.8,0-1.5,0.2-1.9,0.6S102.6,323.8,102.5,324.6z"/>
	<path class="st7" d="M113.5,324.6h-1v-2.3c0.6-0.3,1.3-0.6,1.9-0.8c0.6-0.2,1.3-0.3,1.9-0.3c1.4,0,2.4,0.3,3.2,1s1.2,1.6,1.2,2.7
		c0,1.3-0.9,2.8-2.7,4.6c-0.1,0.1-0.2,0.2-0.3,0.3l-3.3,3.3h5.5v-1.6h1v3.1h-8.5v-1l4-4c0.9-0.9,1.5-1.7,1.9-2.4s0.6-1.5,0.6-2.3
		c0-0.9-0.2-1.6-0.7-2.1c-0.5-0.5-1.1-0.7-1.9-0.7c-0.8,0-1.5,0.2-1.9,0.6S113.5,323.8,113.5,324.6z"/>
</g>
<g class="st6">
	<path class="st7" d="M141.7,324.6h-1v-2.3c0.6-0.3,1.3-0.6,1.9-0.8c0.6-0.2,1.3-0.3,1.9-0.3c1.4,0,2.4,0.3,3.2,1s1.2,1.6,1.2,2.7
		c0,1.3-0.9,2.8-2.7,4.6c-0.1,0.1-0.2,0.2-0.3,0.3l-3.3,3.3h5.5v-1.6h1v3.1h-8.5v-1l4-4c0.9-0.9,1.5-1.7,1.9-2.4s0.6-1.5,0.6-2.3
		c0-0.9-0.2-1.6-0.7-2.1c-0.5-0.5-1.1-0.7-1.9-0.7c-0.8,0-1.5,0.2-1.9,0.6S141.8,323.8,141.7,324.6z"/>
	<path class="st7" d="M152.1,322.1c0.7-0.3,1.3-0.5,2-0.6c0.6-0.1,1.2-0.2,1.8-0.2c1.3,0,2.3,0.3,3,0.8s1.1,1.3,1.1,2.3
		c0,0.8-0.2,1.5-0.7,2s-1.2,0.9-2.1,1.1c1.1,0.2,1.9,0.5,2.5,1.2c0.6,0.6,0.9,1.4,0.9,2.4c0,1.2-0.4,2.2-1.2,2.8s-2,1-3.6,1
		c-0.7,0-1.4-0.1-2-0.2c-0.7-0.1-1.3-0.4-1.9-0.7v-2.5h1c0.1,0.8,0.3,1.5,0.9,1.9s1.2,0.7,2.2,0.7c0.9,0,1.6-0.3,2.1-0.8
		c0.5-0.5,0.8-1.2,0.8-2.1c0-1-0.3-1.8-0.8-2.3s-1.3-0.8-2.3-0.8h-0.8v-0.9h0.4c1,0,1.8-0.2,2.3-0.6c0.5-0.4,0.8-1.1,0.8-1.9
		c0-0.8-0.2-1.4-0.6-1.8s-1-0.6-1.8-0.6s-1.4,0.2-1.8,0.6s-0.7,0.9-0.8,1.7h-1V322.1z"/>
</g>
<rect x="170.6" y="309.1" class="st5" width="38.4" height="38.6"/>
<g class="st6">
	<path class="st7" d="M181.2,324.6h-1v-2.3c0.6-0.3,1.3-0.6,1.9-0.8c0.6-0.2,1.3-0.3,1.9-0.3c1.4,0,2.4,0.3,3.2,1s1.2,1.6,1.2,2.7
		c0,1.3-0.9,2.8-2.7,4.6c-0.1,0.1-0.2,0.2-0.3,0.3l-3.3,3.3h5.5v-1.6h1v3.1h-8.5v-1l4-4c0.9-0.9,1.5-1.7,1.9-2.4s0.6-1.5,0.6-2.3
		c0-0.9-0.2-1.6-0.7-2.1c-0.5-0.5-1.1-0.7-1.9-0.7c-0.8,0-1.5,0.2-1.9,0.6S181.3,323.8,181.2,324.6z"/>
	<path class="st7" d="M200,334.6h-6v-0.9h2.1v-2.6h-5.7v-1l5.7-8.9h1.7v8.9h2.5v0.9h-2.5v2.6h2.1V334.6z M196.1,330.2v-7l-4.5,7
		H196.1z"/>
</g>
<rect x="209.9" y="309.1" class="st5" width="36.9" height="38.6"/>
<g class="st6">
	<path class="st7" d="M219.7,324.6h-1v-2.3c0.6-0.3,1.3-0.6,1.9-0.8c0.6-0.2,1.3-0.3,1.9-0.3c1.4,0,2.4,0.3,3.2,1s1.2,1.6,1.2,2.7
		c0,1.3-0.9,2.8-2.7,4.6c-0.1,0.1-0.2,0.2-0.3,0.3l-3.3,3.3h5.5v-1.6h1v3.1h-8.5v-1l4-4c0.9-0.9,1.5-1.7,1.9-2.4s0.6-1.5,0.6-2.3
		c0-0.9-0.2-1.6-0.7-2.1c-0.5-0.5-1.1-0.7-1.9-0.7c-0.8,0-1.5,0.2-1.9,0.6S219.8,323.8,219.7,324.6z"/>
	<path class="st7" d="M237.4,321.5v1.4h-6v3.8c0.3-0.2,0.7-0.4,1.1-0.5c0.4-0.1,0.9-0.2,1.4-0.2c1.4,0,2.5,0.4,3.4,1.2
		s1.2,1.9,1.2,3.2c0,1.4-0.4,2.5-1.2,3.2c-0.8,0.8-2,1.2-3.5,1.2c-0.6,0-1.2-0.1-1.9-0.2s-1.3-0.4-1.9-0.7v-2.5h1
		c0.1,0.8,0.3,1.5,0.8,1.9c0.5,0.4,1.1,0.7,2,0.7c0.9,0,1.6-0.3,2.1-0.9s0.7-1.5,0.7-2.6c0-1.1-0.2-2-0.7-2.6
		c-0.5-0.6-1.2-0.9-2.1-0.9c-0.5,0-1,0.1-1.4,0.3c-0.4,0.2-0.8,0.5-1.1,0.9h-0.8v-6.6H237.4z"/>
</g>
<rect x="247.9" y="309.1" class="st5" width="38.6" height="38.6"/>
<g class="st6">
	<path class="st7" d="M258.5,324.6h-1v-2.3c0.6-0.3,1.3-0.6,1.9-0.8c0.6-0.2,1.3-0.3,1.9-0.3c1.4,0,2.4,0.3,3.2,1s1.2,1.6,1.2,2.7
		c0,1.3-0.9,2.8-2.7,4.6c-0.1,0.1-0.2,0.2-0.3,0.3l-3.3,3.3h5.5v-1.6h1v3.1h-8.5v-1l4-4c0.9-0.9,1.5-1.7,1.9-2.4s0.6-1.5,0.6-2.3
		c0-0.9-0.2-1.6-0.7-2.1c-0.5-0.5-1.1-0.7-1.9-0.7c-0.8,0-1.5,0.2-1.9,0.6S258.6,323.8,258.5,324.6z"/>
	<path class="st7" d="M270.2,327.4c0.4-0.4,0.8-0.8,1.4-1s1.1-0.3,1.7-0.3c1.3,0,2.3,0.4,3.1,1.2s1.1,1.9,1.1,3.2
		c0,1.3-0.4,2.4-1.2,3.2c-0.8,0.8-1.9,1.2-3.3,1.2c-1.5,0-2.6-0.6-3.4-1.7s-1.2-2.7-1.2-4.7c0-2.3,0.5-4.1,1.4-5.3s2.3-1.9,4-1.9
		c0.5,0,0.9,0,1.5,0.1s1,0.2,1.6,0.4v2.2h-1c-0.1-0.6-0.3-1-0.7-1.4s-0.9-0.5-1.5-0.5c-1.1,0-2,0.4-2.5,1.3S270.2,325.6,270.2,327.4
		z M273.1,334c0.8,0,1.5-0.3,1.9-0.9s0.7-1.5,0.7-2.6s-0.2-2-0.7-2.6s-1.1-0.9-1.9-0.9c-0.8,0-1.5,0.3-1.9,0.9s-0.7,1.4-0.7,2.5
		c0,1.2,0.2,2.1,0.7,2.7S272.2,334,273.1,334z"/>
</g>
<rect x="287.4" y="309.1" class="st5" width="37.8" height="38.6"/>
<g class="st6">
	<path class="st7" d="M297.7,324.6h-1v-2.3c0.6-0.3,1.3-0.6,1.9-0.8c0.6-0.2,1.3-0.3,1.9-0.3c1.4,0,2.4,0.3,3.2,1s1.2,1.6,1.2,2.7
		c0,1.3-0.9,2.8-2.7,4.6c-0.1,0.1-0.2,0.2-0.3,0.3l-3.3,3.3h5.5v-1.6h1v3.1h-8.5v-1l4-4c0.9-0.9,1.5-1.7,1.9-2.4s0.6-1.5,0.6-2.3
		c0-0.9-0.2-1.6-0.7-2.1c-0.5-0.5-1.1-0.7-1.9-0.7c-0.8,0-1.5,0.2-1.9,0.6S297.8,323.8,297.7,324.6z"/>
	<path class="st7" d="M316.5,322.4l-5.1,12.2h-1.3l4.9-11.7h-6.1v1.6h-1v-3.1h8.6V322.4z"/>
</g>
<rect x="92.3" y="269.6" class="st5" width="37.7" height="38.6"/>
<rect x="131.3" y="269.6" class="st5" width="38.4" height="38.6"/>
<g class="st6">
	<path class="st7" d="M103.2,285.1h-1v-2.3c0.6-0.3,1.3-0.6,1.9-0.8c0.6-0.2,1.3-0.3,1.9-0.3c1.4,0,2.4,0.3,3.2,1s1.2,1.6,1.2,2.7
		c0,1.3-0.9,2.8-2.7,4.6c-0.1,0.1-0.2,0.2-0.3,0.3l-3.3,3.3h5.5V292h1v3.1h-8.5v-1l4-4c0.9-0.9,1.5-1.7,1.9-2.4s0.6-1.5,0.6-2.3
		c0-0.9-0.2-1.6-0.7-2.1c-0.5-0.5-1.1-0.7-1.9-0.7c-0.8,0-1.5,0.2-1.9,0.6S103.3,284.2,103.2,285.1z"/>
	<path class="st7" d="M113.7,295.1v-0.9h2.3v-10.9l-2.6,1.7v-1.2l3.2-2.1h1.2v12.4h2.3v0.9H113.7z"/>
</g>
<g class="st6">
	<path class="st7" d="M141.8,285.1h-1v-2.3c0.6-0.3,1.3-0.6,1.9-0.8c0.6-0.2,1.3-0.3,1.9-0.3c1.4,0,2.4,0.3,3.2,1s1.2,1.6,1.2,2.7
		c0,1.3-0.9,2.8-2.7,4.6c-0.1,0.1-0.2,0.2-0.3,0.3l-3.3,3.3h5.5V292h1v3.1h-8.5v-1l4-4c0.9-0.9,1.5-1.7,1.9-2.4s0.6-1.5,0.6-2.3
		c0-0.9-0.2-1.6-0.7-2.1c-0.5-0.5-1.1-0.7-1.9-0.7c-0.8,0-1.5,0.2-1.9,0.6S141.9,284.2,141.8,285.1z"/>
	<path class="st7" d="M156.2,295.3c-1.4,0-2.5-0.6-3.3-1.8c-0.8-1.2-1.2-2.9-1.2-5c0-2.2,0.4-3.8,1.2-5c0.8-1.2,1.9-1.8,3.3-1.8
		c1.4,0,2.5,0.6,3.3,1.8s1.2,2.9,1.2,5c0,2.1-0.4,3.8-1.2,5S157.6,295.3,156.2,295.3z M156.2,294.4c0.9,0,1.6-0.5,2-1.5
		s0.7-2.5,0.7-4.5c0-2-0.2-3.5-0.7-4.5s-1.1-1.5-2-1.5s-1.6,0.5-2,1.5s-0.7,2.5-0.7,4.5c0,2,0.2,3.5,0.7,4.5
		S155.3,294.4,156.2,294.4z"/>
</g>
<rect x="170.6" y="269.6" class="st5" width="38.4" height="38.6"/>
<g class="st6">
	<path class="st7" d="M182.1,295.1v-0.9h2.3v-10.9l-2.6,1.7v-1.2l3.2-2.1h1.2v12.4h2.3v0.9H182.1z"/>
	<path class="st7" d="M198.2,289.2c-0.4,0.4-0.8,0.8-1.4,1s-1.1,0.3-1.7,0.3c-1.3,0-2.3-0.4-3.1-1.2c-0.8-0.8-1.1-1.9-1.1-3.2
		c0-1.3,0.4-2.4,1.2-3.2c0.8-0.8,1.9-1.2,3.3-1.2c1.5,0,2.6,0.6,3.4,1.7c0.8,1.1,1.2,2.7,1.2,4.7c0,2.3-0.5,4.1-1.4,5.3
		s-2.3,1.9-4,1.9c-0.5,0-0.9,0-1.5-0.1s-1-0.2-1.6-0.4v-2.2h1c0.1,0.6,0.3,1,0.7,1.4s0.9,0.5,1.5,0.5c1.1,0,2-0.4,2.5-1.3
		S198.2,291,198.2,289.2z M195.3,282.6c-0.8,0-1.5,0.3-1.9,0.9c-0.4,0.6-0.7,1.5-0.7,2.6s0.2,2,0.7,2.6c0.4,0.6,1.1,0.9,1.9,0.9
		s1.5-0.3,1.9-0.9s0.7-1.4,0.7-2.5c0-1.2-0.2-2.1-0.7-2.7S196.2,282.6,195.3,282.6z"/>
</g>
<rect x="210" y="269.6" class="st5" width="36.9" height="38.6"/>
<g class="st6">
	<path class="st7" d="M220.8,295.1v-0.9h2.3v-10.9l-2.6,1.7v-1.2l3.2-2.1h1.2v12.4h2.3v0.9H220.8z"/>
	<path class="st7" d="M235.5,288.1c1,0.1,1.8,0.5,2.3,1.1s0.8,1.4,0.8,2.3c0,1.2-0.4,2.2-1.2,2.8s-1.9,1-3.3,1c-1.4,0-2.6-0.3-3.3-1
		c-0.8-0.7-1.2-1.6-1.2-2.8c0-0.9,0.3-1.7,0.8-2.3s1.3-1,2.3-1.1c-0.9-0.2-1.6-0.5-2-1s-0.7-1.2-0.7-2c0-1.1,0.4-1.9,1.1-2.5
		s1.7-0.9,3-0.9s2.3,0.3,3,0.9s1.1,1.4,1.1,2.5c0,0.8-0.2,1.5-0.7,2C237,287.6,236.4,287.9,235.5,288.1z M236.8,291.5
		c0-0.9-0.2-1.7-0.7-2.2c-0.5-0.5-1.1-0.8-2-0.8s-1.5,0.3-2,0.8c-0.5,0.5-0.7,1.2-0.7,2.2c0,0.9,0.2,1.7,0.7,2.2
		c0.5,0.5,1.1,0.8,2,0.8s1.5-0.3,2-0.8C236.6,293.2,236.8,292.4,236.8,291.5z M236.4,285.1c0-0.8-0.2-1.4-0.6-1.9s-1-0.7-1.7-0.7
		c-0.7,0-1.3,0.2-1.7,0.7s-0.6,1.1-0.6,1.9c0,0.8,0.2,1.4,0.6,1.9s1,0.7,1.7,0.7c0.7,0,1.3-0.2,1.7-0.7S236.4,285.9,236.4,285.1z"/>
</g>
<rect x="247.9" y="269.6" class="st5" width="38.6" height="38.6"/>
<g class="st6">
	<path class="st7" d="M259.5,295.1v-0.9h2.3v-10.9l-2.6,1.7v-1.2l3.2-2.1h1.2v12.4h2.3v0.9H259.5z"/>
	<path class="st7" d="M277.3,282.8l-5.1,12.2h-1.3l4.9-11.7h-6.1v1.6h-1v-3.1h8.6V282.8z"/>
</g>
<rect x="287.6" y="269.6" class="st5" width="37.8" height="38.6"/>
<g class="st6">
	<path class="st7" d="M298.8,295.1v-0.9h2.3v-10.9l-2.6,1.7v-1.2l3.2-2.1h1.2v12.4h2.3v0.9H298.8z"/>
	<path class="st7" d="M309.4,287.8c0.4-0.4,0.8-0.8,1.4-1s1.1-0.3,1.7-0.3c1.3,0,2.3,0.4,3.1,1.2s1.1,1.9,1.1,3.2
		c0,1.3-0.4,2.4-1.2,3.2c-0.8,0.8-1.9,1.2-3.3,1.2c-1.5,0-2.6-0.6-3.4-1.7s-1.2-2.7-1.2-4.7c0-2.3,0.5-4.1,1.4-5.3s2.3-1.9,4-1.9
		c0.5,0,0.9,0,1.5,0.1s1,0.2,1.6,0.4v2.2h-1c-0.1-0.6-0.3-1-0.7-1.4s-0.9-0.5-1.5-0.5c-1.1,0-2,0.4-2.5,1.3S309.4,286.1,309.4,287.8
		z M312.3,294.4c0.8,0,1.5-0.3,1.9-0.9s0.7-1.5,0.7-2.6s-0.2-2-0.7-2.6s-1.1-0.9-1.9-0.9c-0.8,0-1.5,0.3-1.9,0.9s-0.7,1.4-0.7,2.5
		c0,1.2,0.2,2.1,0.7,2.7S311.5,294.4,312.3,294.4z"/>
</g>
<rect x="71.5" y="200.8" class="st5" width="37.7" height="38.6"/>
<rect x="110.4" y="200.8" class="st5" width="38.4" height="38.6"/>
<g class="st6">
	<path class="st7" d="M92,218.7c1,0.1,1.8,0.5,2.3,1.1s0.8,1.4,0.8,2.3c0,1.2-0.4,2.2-1.2,2.8s-1.9,1-3.3,1c-1.4,0-2.6-0.3-3.3-1
		c-0.8-0.7-1.2-1.6-1.2-2.8c0-0.9,0.3-1.7,0.8-2.3s1.3-1,2.3-1.1c-0.9-0.2-1.6-0.5-2-1s-0.7-1.2-0.7-2c0-1.1,0.4-1.9,1.1-2.5
		s1.7-0.9,3-0.9s2.3,0.3,3,0.9s1.1,1.4,1.1,2.5c0,0.8-0.2,1.5-0.7,2C93.6,218.2,92.9,218.6,92,218.7z M93.3,222.1
		c0-0.9-0.2-1.7-0.7-2.2c-0.5-0.5-1.1-0.8-2-0.8s-1.5,0.3-2,0.8c-0.5,0.5-0.7,1.2-0.7,2.2c0,0.9,0.2,1.7,0.7,2.2
		c0.5,0.5,1.1,0.8,2,0.8s1.5-0.3,2-0.8C93.1,223.8,93.3,223.1,93.3,222.1z M93,215.8c0-0.8-0.2-1.4-0.6-1.9s-1-0.7-1.7-0.7
		c-0.7,0-1.3,0.2-1.7,0.7s-0.6,1.1-0.6,1.9c0,0.8,0.2,1.4,0.6,1.9s1,0.7,1.7,0.7c0.7,0,1.3-0.2,1.7-0.7S93,216.6,93,215.8z"/>
</g>
<g class="st6">
	<path class="st7" d="M132.5,219.8c-0.4,0.4-0.8,0.8-1.4,1s-1.1,0.3-1.7,0.3c-1.3,0-2.3-0.4-3.1-1.2c-0.8-0.8-1.1-1.9-1.1-3.2
		c0-1.3,0.4-2.4,1.2-3.2c0.8-0.8,1.9-1.2,3.3-1.2c1.5,0,2.6,0.6,3.4,1.7c0.8,1.1,1.2,2.7,1.2,4.7c0,2.3-0.5,4.1-1.4,5.3
		s-2.3,1.9-4,1.9c-0.5,0-0.9,0-1.5-0.1s-1-0.2-1.6-0.4v-2.2h1c0.1,0.6,0.3,1,0.7,1.4s0.9,0.5,1.5,0.5c1.1,0,2-0.4,2.5-1.3
		S132.5,221.6,132.5,219.8z M129.7,213.2c-0.8,0-1.5,0.3-1.9,0.9c-0.4,0.6-0.7,1.5-0.7,2.6s0.2,2,0.7,2.6c0.4,0.6,1.1,0.9,1.9,0.9
		s1.5-0.3,1.9-0.9s0.7-1.4,0.7-2.5c0-1.2-0.2-2.1-0.7-2.7S130.5,213.2,129.7,213.2z"/>
</g>
<rect x="149.9" y="200.8" class="st5" width="38.4" height="38.6"/>
<g class="st6">
	<path class="st7" d="M161.4,225.7v-0.9h2.3v-10.9l-2.6,1.7v-1.2l3.2-2.1h1.2v12.4h2.3v0.9H161.4z"/>
	<path class="st7" d="M174.8,226c-1.4,0-2.5-0.6-3.3-1.8c-0.8-1.2-1.2-2.9-1.2-5c0-2.2,0.4-3.8,1.2-5c0.8-1.2,1.9-1.8,3.3-1.8
		c1.4,0,2.5,0.6,3.3,1.8s1.2,2.9,1.2,5c0,2.1-0.4,3.8-1.2,5S176.2,226,174.8,226z M174.8,225.1c0.9,0,1.6-0.5,2-1.5s0.7-2.5,0.7-4.5
		c0-2-0.2-3.5-0.7-4.5s-1.1-1.5-2-1.5s-1.6,0.5-2,1.5s-0.7,2.5-0.7,4.5c0,2,0.2,3.5,0.7,4.5S173.9,225.1,174.8,225.1z"/>
</g>
<rect x="189.3" y="200.8" class="st5" width="36.9" height="38.6"/>
<g class="st6">
	<path class="st7" d="M199.7,225.7v-0.9h2.3v-10.9l-2.6,1.7v-1.2l3.2-2.1h1.2v12.4h2.3v0.9H199.7z"/>
	<path class="st7" d="M210.3,225.7v-0.9h2.3v-10.9l-2.6,1.7v-1.2l3.2-2.1h1.2v12.4h2.3v0.9H210.3z"/>
</g>
<rect x="227.2" y="200.8" class="st5" width="38.6" height="38.6"/>
<g class="st6">
	<path class="st7" d="M238.5,225.7v-0.9h2.3v-10.9l-2.6,1.7v-1.2l3.2-2.1h1.2v12.4h2.3v0.9H238.5z"/>
	<path class="st7" d="M248.8,215.7h-1v-2.3c0.6-0.3,1.3-0.6,1.9-0.8c0.6-0.2,1.3-0.3,1.9-0.3c1.4,0,2.4,0.3,3.2,1s1.2,1.6,1.2,2.7
		c0,1.3-0.9,2.8-2.7,4.6c-0.1,0.1-0.2,0.2-0.3,0.3l-3.3,3.3h5.5v-1.6h1v3.1h-8.5v-1l4-4c0.9-0.9,1.5-1.7,1.9-2.4s0.6-1.5,0.6-2.3
		c0-0.9-0.2-1.6-0.7-2.1c-0.5-0.5-1.1-0.7-1.9-0.7c-0.8,0-1.5,0.2-1.9,0.6S248.8,214.9,248.8,215.7z"/>
</g>
<rect x="266.7" y="200.8" class="st5" width="37.8" height="38.6"/>
<g class="st6">
	<path class="st7" d="M277.6,225.7v-0.9h2.3v-10.9l-2.6,1.7v-1.2l3.2-2.1h1.2v12.4h2.3v0.9H277.6z"/>
	<path class="st7" d="M287.4,213.1c0.7-0.3,1.3-0.5,2-0.6c0.6-0.1,1.2-0.2,1.8-0.2c1.3,0,2.3,0.3,3,0.8s1.1,1.3,1.1,2.3
		c0,0.8-0.2,1.5-0.7,2s-1.2,0.9-2.1,1.1c1.1,0.2,1.9,0.5,2.5,1.2c0.6,0.6,0.9,1.4,0.9,2.4c0,1.2-0.4,2.2-1.2,2.8s-2,1-3.6,1
		c-0.7,0-1.4-0.1-2-0.2c-0.7-0.1-1.3-0.4-1.9-0.7v-2.5h1c0.1,0.8,0.3,1.5,0.9,1.9s1.2,0.7,2.2,0.7c0.9,0,1.6-0.3,2.1-0.8
		c0.5-0.5,0.8-1.2,0.8-2.1c0-1-0.3-1.8-0.8-2.3s-1.3-0.8-2.3-0.8h-0.8v-0.9h0.4c1,0,1.8-0.2,2.3-0.6c0.5-0.4,0.8-1.1,0.8-1.9
		c0-0.8-0.2-1.4-0.6-1.8s-1-0.6-1.8-0.6s-1.4,0.2-1.8,0.6s-0.7,0.9-0.8,1.7h-1V213.1z"/>
</g>
<rect x="305.4" y="200.8" class="st5" width="38.4" height="38.6"/>
<g class="st6">
	<path class="st7" d="M316.2,225.7v-0.9h2.3v-10.9l-2.6,1.7v-1.2l3.2-2.1h1.2v12.4h2.3v0.9H316.2z"/>
	<path class="st7" d="M334.4,225.7h-6v-0.9h2.1v-2.6h-5.7v-1l5.7-8.9h1.7v8.9h2.5v0.9h-2.5v2.6h2.1V225.7z M330.5,221.3v-7l-4.5,7
		H330.5z"/>
</g>
<rect x="71.5" y="161.2" class="st5" width="37.7" height="38.6"/>
<rect x="110.4" y="161.2" class="st5" width="38.4" height="38.6"/>
<g class="st6">
	<path class="st7" d="M95.1,174.9L90,187.1h-1.3l4.9-11.7h-6.1v1.6h-1V174h8.6V174.9z"/>
</g>
<g class="st6">
	<path class="st7" d="M127.1,179.9c0.4-0.4,0.8-0.8,1.4-1s1.1-0.3,1.7-0.3c1.3,0,2.3,0.4,3.1,1.2s1.1,1.9,1.1,3.2
		c0,1.3-0.4,2.4-1.2,3.2c-0.8,0.8-1.9,1.2-3.3,1.2c-1.5,0-2.6-0.6-3.4-1.7s-1.2-2.7-1.2-4.7c0-2.3,0.5-4.1,1.4-5.3s2.3-1.9,4-1.9
		c0.5,0,0.9,0,1.5,0.1s1,0.2,1.6,0.4v2.2h-1c-0.1-0.6-0.3-1-0.7-1.4s-0.9-0.5-1.5-0.5c-1.1,0-2,0.4-2.5,1.3S127.2,178.1,127.1,179.9
		z M130,186.5c0.8,0,1.5-0.3,1.9-0.9s0.7-1.5,0.7-2.6s-0.2-2-0.7-2.6s-1.1-0.9-1.9-0.9c-0.8,0-1.5,0.3-1.9,0.9s-0.7,1.4-0.7,2.5
		c0,1.2,0.2,2.1,0.7,2.7S129.2,186.5,130,186.5z"/>
</g>
<rect x="149.8" y="161.2" class="st5" width="38.4" height="38.6"/>
<g class="st6">
	<path class="st7" d="M172.6,174v1.4h-6v3.8c0.3-0.2,0.7-0.4,1.1-0.5c0.4-0.1,0.9-0.2,1.4-0.2c1.4,0,2.5,0.4,3.4,1.2
		s1.2,1.9,1.2,3.2c0,1.4-0.4,2.5-1.2,3.2c-0.8,0.8-2,1.2-3.5,1.2c-0.6,0-1.2-0.1-1.9-0.2s-1.3-0.4-1.9-0.7V184h1
		c0.1,0.8,0.3,1.5,0.8,1.9c0.5,0.4,1.1,0.7,2,0.7c0.9,0,1.6-0.3,2.1-0.9s0.7-1.5,0.7-2.6c0-1.1-0.2-2-0.7-2.6
		c-0.5-0.6-1.2-0.9-2.1-0.9c-0.5,0-1,0.1-1.4,0.3c-0.4,0.2-0.8,0.5-1.1,0.9h-0.8V174H172.6z"/>
</g>
<rect x="189.2" y="161.2" class="st5" width="36.9" height="38.6"/>
<g class="st6">
	<path class="st7" d="M212.3,187.1h-6v-0.9h2.1v-2.6h-5.7v-1l5.7-8.9h1.7v8.9h2.5v0.9h-2.5v2.6h2.1V187.1z M208.4,182.7v-7l-4.5,7
		H208.4z"/>
</g>
<rect x="227.1" y="161.2" class="st5" width="38.6" height="38.6"/>
<g class="st6">
	<path class="st7" d="M242.7,174.6c0.7-0.3,1.3-0.5,2-0.6c0.6-0.1,1.2-0.2,1.8-0.2c1.3,0,2.3,0.3,3,0.8s1.1,1.3,1.1,2.3
		c0,0.8-0.2,1.5-0.7,2s-1.2,0.9-2.1,1.1c1.1,0.2,1.9,0.5,2.5,1.2c0.6,0.6,0.9,1.4,0.9,2.4c0,1.2-0.4,2.2-1.2,2.8s-2,1-3.6,1
		c-0.7,0-1.4-0.1-2-0.2c-0.7-0.1-1.3-0.4-1.9-0.7V184h1c0.1,0.8,0.3,1.5,0.9,1.9s1.2,0.7,2.2,0.7c0.9,0,1.6-0.3,2.1-0.8
		c0.5-0.5,0.8-1.2,0.8-2.1c0-1-0.3-1.8-0.8-2.3s-1.3-0.8-2.3-0.8h-0.8v-0.9h0.4c1,0,1.8-0.2,2.3-0.6c0.5-0.4,0.8-1.1,0.8-1.9
		c0-0.8-0.2-1.4-0.6-1.8s-1-0.6-1.8-0.6s-1.4,0.2-1.8,0.6s-0.7,0.9-0.8,1.7h-1V174.6z"/>
</g>
<rect x="266.7" y="161.2" class="st5" width="37.8" height="38.6"/>
<g class="st6">
	<path class="st7" d="M282.5,177.1h-1v-2.3c0.6-0.3,1.3-0.6,1.9-0.8c0.6-0.2,1.3-0.3,1.9-0.3c1.4,0,2.4,0.3,3.2,1s1.2,1.6,1.2,2.7
		c0,1.3-0.9,2.8-2.7,4.6c-0.1,0.1-0.2,0.2-0.3,0.3l-3.3,3.3h5.5v-1.6h1v3.1h-8.5v-1l4-4c0.9-0.9,1.5-1.7,1.9-2.4s0.6-1.5,0.6-2.3
		c0-0.9-0.2-1.6-0.7-2.1c-0.5-0.5-1.1-0.7-1.9-0.7c-0.8,0-1.5,0.2-1.9,0.6S282.5,176.3,282.5,177.1z"/>
</g>
<rect x="305.4" y="161.2" class="st5" width="38.4" height="38.6"/>
<g class="st6">
	<path class="st7" d="M321.7,187.1v-0.9h2.3v-10.9l-2.6,1.7v-1.2l3.2-2.1h1.2v12.4h2.3v0.9H321.7z"/>
</g>
<g class="st6">
	<path class="st7" d="M37.7,69.9v-1.7h3V48.3h-3v-1.7h9.1v1.7h-3v8h12.1v-8h-3v-1.7H62v1.7h-3v19.9h3v1.7h-9.1v-1.7h3v-10H43.8v10h3
		v1.7H37.7z"/>
	<path class="st7" d="M80.1,61.9H67.8V62c0,2.2,0.4,3.9,1.3,5.1c0.8,1.1,2.1,1.7,3.7,1.7c1.3,0,2.3-0.3,3.1-1
		c0.8-0.7,1.4-1.6,1.7-2.9h2.3c-0.5,1.8-1.3,3.2-2.5,4.1c-1.2,0.9-2.8,1.4-4.9,1.4c-2.4,0-4.4-0.8-5.8-2.4c-1.5-1.6-2.2-3.7-2.2-6.4
		c0-2.6,0.7-4.7,2.2-6.3c1.4-1.6,3.3-2.4,5.7-2.4c2.5,0,4.4,0.8,5.8,2.3C79.4,56.7,80.1,58.9,80.1,61.9z M76.7,60.2
		c-0.1-1.9-0.5-3.4-1.2-4.4c-0.8-1-1.8-1.5-3.2-1.5c-1.3,0-2.4,0.5-3.1,1.5c-0.8,1-1.2,2.4-1.4,4.4H76.7z"/>
	<path class="st7" d="M96,53.3v4.1h-1.7c-0.1-0.8-0.3-1.4-0.7-1.8c-0.4-0.4-1-0.6-1.8-0.6c-1.4,0-2.5,0.5-3.2,1.5s-1.1,2.4-1.1,4.2
		v7.6h3.3v1.7h-8.8v-1.7h2.6V54.9h-2.7v-1.6h5.6v2.9c0.6-1.2,1.3-2,2.2-2.6c0.9-0.6,2-0.8,3.2-0.8c0.5,0,1,0,1.5,0.1
		C94.9,53,95.5,53.1,96,53.3z"/>
	<path class="st7" d="M101.9,68.2h2.7v1.7h-8.3v-1.7H99V55h-2.7v-1.7h5.6V68.2z M98.2,48.2c0-0.5,0.2-0.9,0.5-1.2
		c0.3-0.4,0.8-0.5,1.3-0.5c0.5,0,0.9,0.2,1.2,0.5c0.3,0.4,0.5,0.8,0.5,1.2c0,0.5-0.2,0.9-0.5,1.2s-0.8,0.5-1.2,0.5s-0.9-0.2-1.3-0.5
		C98.4,49.1,98.2,48.6,98.2,48.2z"/>
	<path class="st7" d="M107.8,55h-2.5v-1.7h2.5v-5.1h2.9v5.1h5.4V55h-5.4v10.5c0,1.4,0.1,2.3,0.4,2.7s0.8,0.6,1.5,0.6
		c0.7,0,1.3-0.2,1.6-0.7c0.3-0.4,0.5-1.2,0.5-2.1h2.2c-0.1,1.5-0.5,2.6-1.2,3.3c-0.7,0.7-1.9,1-3.4,1c-1.7,0-2.8-0.4-3.5-1.1
		c-0.7-0.7-1-2-1-3.7V55z"/>
	<path class="st7" d="M131.9,59.5v8.7h2.6v1.7H129v-1.8c-0.6,0.8-1.4,1.3-2.2,1.7c-0.8,0.4-1.8,0.5-2.9,0.5c-1.8,0-3.3-0.5-4.4-1.5
		c-1.1-1-1.6-2.3-1.6-4c0-1.7,0.6-3,1.9-4c1.2-0.9,3-1.4,5.2-1.4h4v-1.1c0-1.3-0.4-2.2-1.1-2.9c-0.8-0.7-1.8-1-3.2-1
		c-1.1,0-2.1,0.3-2.7,0.8s-1.1,1.3-1.3,2.3h-1.5v-3.4c1-0.4,2-0.7,2.9-1c0.9-0.2,1.9-0.3,2.8-0.3c2.3,0,4,0.6,5.2,1.7
		C131.3,55.7,131.9,57.3,131.9,59.5z M129,64.7v-3.5h-3.7c-1.4,0-2.5,0.3-3.2,0.9c-0.7,0.6-1,1.6-1,2.8c0,1.2,0.4,2.1,1.1,2.7
		c0.7,0.7,1.7,1,2.9,1c1.2,0,2.2-0.4,2.9-1.1C128.6,66.8,129,65.8,129,64.7z"/>
	<path class="st7" d="M151.2,55v14.5c0,2.4-0.7,4.2-2,5.5c-1.3,1.3-3.2,1.9-5.6,1.9c-1.1,0-2.1-0.1-3.1-0.3s-2-0.5-2.9-0.9v-3.5h1.5
		c0.2,1.1,0.6,1.9,1.3,2.4c0.7,0.5,1.7,0.7,3,0.7c1.7,0,2.9-0.5,3.7-1.4c0.8-1,1.2-2.4,1.2-4.5v-2.2c-0.6,1-1.3,1.8-2.1,2.3
		c-0.9,0.5-1.9,0.7-3.2,0.7c-2,0-3.7-0.8-5-2.4c-1.3-1.6-1.9-3.7-1.9-6.3c0-2.6,0.6-4.7,1.9-6.3c1.3-1.6,3-2.4,5-2.4
		c1.3,0,2.4,0.2,3.2,0.7c0.9,0.5,1.6,1.3,2.1,2.3v-2.6h5.6V55H151.2z M148.3,60.8c0-2-0.4-3.5-1.1-4.6c-0.8-1-1.9-1.6-3.3-1.6
		c-1.5,0-2.6,0.6-3.3,1.7c-0.8,1.2-1.1,2.9-1.1,5.2c0,2.3,0.4,4,1.1,5.2c0.8,1.2,1.9,1.8,3.3,1.8c1.5,0,2.6-0.5,3.3-1.6
		c0.8-1,1.1-2.6,1.1-4.6V60.8z"/>
	<path class="st7" d="M171.2,61.9h-12.4V62c0,2.2,0.4,3.9,1.3,5.1c0.8,1.1,2.1,1.7,3.7,1.7c1.3,0,2.3-0.3,3.1-1
		c0.8-0.7,1.4-1.6,1.7-2.9h2.3c-0.5,1.8-1.3,3.2-2.5,4.1c-1.2,0.9-2.8,1.4-4.9,1.4c-2.4,0-4.4-0.8-5.8-2.4c-1.5-1.6-2.2-3.7-2.2-6.4
		c0-2.6,0.7-4.7,2.2-6.3c1.4-1.6,3.3-2.4,5.7-2.4c2.5,0,4.4,0.8,5.8,2.3C170.5,56.7,171.2,58.9,171.2,61.9z M167.8,60.2
		c-0.1-1.9-0.5-3.4-1.2-4.4c-0.8-1-1.8-1.5-3.2-1.5c-1.3,0-2.4,0.5-3.1,1.5c-0.8,1-1.2,2.4-1.4,4.4H167.8z"/>
	<path class="st7" d="M182.8,69.9v-1.7h3V48.3h-3v-1.7h18.7v5.2h-1.9v-3.3H189v7.8h7.6v-2.9h1.9v7.7h-1.9v-2.9H189v9.7h10.9v-3.3
		h1.9v5.2H182.8z"/>
	<path class="st7" d="M211.3,69.9L205.3,55h-1.9v-1.7h7.6V55h-2.6l4.7,11.4l4.7-11.4h-2.5v-1.7h6.2V55h-1.9l-6.1,14.9H211.3z"/>
	<path class="st7" d="M237.9,61.9h-12.4V62c0,2.2,0.4,3.9,1.3,5.1c0.8,1.1,2.1,1.7,3.7,1.7c1.3,0,2.3-0.3,3.1-1
		c0.8-0.7,1.4-1.6,1.7-2.9h2.3c-0.5,1.8-1.3,3.2-2.5,4.1c-1.2,0.9-2.8,1.4-4.9,1.4c-2.4,0-4.4-0.8-5.8-2.4c-1.5-1.6-2.2-3.7-2.2-6.4
		c0-2.6,0.7-4.7,2.2-6.3c1.4-1.6,3.3-2.4,5.7-2.4c2.5,0,4.4,0.8,5.8,2.3C237.1,56.7,237.8,58.9,237.9,61.9z M234.5,60.2
		c-0.1-1.9-0.5-3.4-1.2-4.4c-0.8-1-1.8-1.5-3.2-1.5c-1.3,0-2.4,0.5-3.1,1.5c-0.8,1-1.2,2.4-1.4,4.4H234.5z"/>
	<path class="st7" d="M239.8,69.9v-1.7h2.6V55h-2.7v-1.7h5.6v2.9c0.5-1.1,1.2-2,2.1-2.5c0.8-0.6,1.8-0.9,3-0.9c1.8,0,3.2,0.5,4,1.6
		s1.3,2.7,1.3,4.9v8.9h2.6v1.7h-7.9v-1.7h2.5v-8c0-2-0.2-3.4-0.7-4.2c-0.5-0.8-1.4-1.1-2.6-1.1c-1.3,0-2.3,0.5-3,1.5
		c-0.7,1-1,2.4-1,4.2v7.6h2.5v1.7H239.8z"/>
	<path class="st7" d="M261.6,55h-2.5v-1.7h2.5v-5.1h2.9v5.1h5.4V55h-5.4v10.5c0,1.4,0.1,2.3,0.4,2.7s0.8,0.6,1.5,0.6
		c0.7,0,1.3-0.2,1.6-0.7c0.3-0.4,0.5-1.2,0.5-2.1h2.2c-0.1,1.5-0.5,2.6-1.2,3.3c-0.7,0.7-1.9,1-3.4,1c-1.7,0-2.8-0.4-3.5-1.1
		c-0.7-0.7-1-2-1-3.7V55z"/>
	<path class="st7" d="M301.8,63.7c-0.7,2.2-1.8,3.8-3.5,4.9c-1.6,1.1-3.7,1.7-6.1,1.7c-1.5,0-2.9-0.3-4.2-0.8
		c-1.3-0.5-2.5-1.3-3.5-2.3c-1.2-1.2-2-2.5-2.6-4c-0.6-1.5-0.8-3.2-0.8-5c0-3.6,1-6.5,3.1-8.8c2.1-2.2,4.8-3.3,8.3-3.3
		c1.3,0,2.6,0.2,4.1,0.5c1.4,0.3,3,0.8,4.6,1.5v5.4h-1.8c-0.4-2-1.2-3.4-2.3-4.3c-1.2-0.9-2.8-1.4-4.9-1.4c-2.5,0-4.4,0.9-5.6,2.6
		c-1.3,1.8-1.9,4.4-1.9,7.8c0,3.4,0.6,6,1.9,7.8c1.3,1.8,3.2,2.6,5.6,2.6c1.7,0,3.2-0.4,4.3-1.2c1.1-0.8,1.9-2.1,2.4-3.7H301.8z"/>
	<path class="st7" d="M320.1,61.9h-12.4V62c0,2.2,0.4,3.9,1.3,5.1c0.8,1.1,2.1,1.7,3.7,1.7c1.3,0,2.3-0.3,3.1-1
		c0.8-0.7,1.4-1.6,1.7-2.9h2.3c-0.5,1.8-1.3,3.2-2.5,4.1c-1.2,0.9-2.8,1.4-4.9,1.4c-2.4,0-4.4-0.8-5.8-2.4c-1.5-1.6-2.2-3.7-2.2-6.4
		c0-2.6,0.7-4.7,2.2-6.3c1.4-1.6,3.3-2.4,5.7-2.4c2.5,0,4.4,0.8,5.8,2.3C319.3,56.7,320,58.9,320.1,61.9z M316.7,60.2
		c-0.1-1.9-0.5-3.4-1.2-4.4c-0.8-1-1.8-1.5-3.2-1.5c-1.3,0-2.4,0.5-3.1,1.5c-0.8,1-1.2,2.4-1.4,4.4H316.7z"/>
	<path class="st7" d="M322,69.9v-1.7h2.6V55h-2.7v-1.7h5.6v2.9c0.5-1.1,1.2-2,2.1-2.5c0.8-0.6,1.8-0.9,3-0.9c1.8,0,3.2,0.5,4,1.6
		s1.3,2.7,1.3,4.9v8.9h2.6v1.7h-7.9v-1.7h2.5v-8c0-2-0.2-3.4-0.7-4.2c-0.5-0.8-1.4-1.1-2.6-1.1c-1.3,0-2.3,0.5-3,1.5
		c-0.7,1-1,2.4-1,4.2v7.6h2.5v1.7H322z"/>
	<path class="st7" d="M343.8,55h-2.5v-1.7h2.5v-5.1h2.9v5.1h5.4V55h-5.4v10.5c0,1.4,0.1,2.3,0.4,2.7s0.8,0.6,1.5,0.6
		c0.7,0,1.3-0.2,1.6-0.7c0.3-0.4,0.5-1.2,0.5-2.1h2.2c-0.1,1.5-0.5,2.6-1.2,3.3c-0.7,0.7-1.9,1-3.4,1c-1.7,0-2.8-0.4-3.5-1.1
		c-0.7-0.7-1-2-1-3.7V55z"/>
	<path class="st7" d="M369.6,61.9h-12.4V62c0,2.2,0.4,3.9,1.3,5.1c0.8,1.1,2.1,1.7,3.7,1.7c1.3,0,2.3-0.3,3.1-1
		c0.8-0.7,1.4-1.6,1.7-2.9h2.3c-0.5,1.8-1.3,3.2-2.5,4.1c-1.2,0.9-2.8,1.4-4.9,1.4c-2.4,0-4.4-0.8-5.8-2.4c-1.5-1.6-2.2-3.7-2.2-6.4
		c0-2.6,0.7-4.7,2.2-6.3c1.4-1.6,3.3-2.4,5.7-2.4c2.5,0,4.4,0.8,5.8,2.3C368.8,56.7,369.5,58.9,369.6,61.9z M366.2,60.2
		c-0.1-1.9-0.5-3.4-1.2-4.4c-0.8-1-1.8-1.5-3.2-1.5c-1.3,0-2.4,0.5-3.1,1.5c-0.8,1-1.2,2.4-1.4,4.4H366.2z"/>
	<path class="st7" d="M385.5,53.3v4.1h-1.7c-0.1-0.8-0.3-1.4-0.7-1.8c-0.4-0.4-1-0.6-1.8-0.6c-1.4,0-2.5,0.5-3.2,1.5
		s-1.1,2.4-1.1,4.2v7.6h3.3v1.7h-8.8v-1.7h2.6V54.9h-2.7v-1.6h5.6v2.9c0.6-1.2,1.3-2,2.2-2.6c0.9-0.6,2-0.8,3.2-0.8
		c0.5,0,1,0,1.5,0.1C384.4,53,384.9,53.1,385.5,53.3z"/>
</g>
<g>
	<circle class="st8" cx="147.1" cy="503.4" r="3.9"/>
	<circle class="st9" cx="147.1" cy="503.4" r="1.2"/>
</g>
<g>
	<circle class="st8" cx="224.9" cy="501.4" r="3.9"/>
	<circle class="st9" cx="224.9" cy="501.4" r="1.2"/>
</g>
<g>
	<circle class="st8" cx="295.4" cy="508.6" r="3.9"/>
	<circle class="st9" cx="295.4" cy="508.6" r="1.2"/>
</g>
<g>
	<circle class="st8" cx="119.6" cy="547" r="3.9"/>
	<circle class="st9" cx="119.6" cy="547" r="1.2"/>
</g>
<g>
	<circle class="st8" cx="187.2" cy="545" r="3.9"/>
	<circle class="st9" cx="187.2" cy="545" r="1.2"/>
</g>
<g>
	<circle class="st8" cx="262.8" cy="547.7" r="3.9"/>
	<circle class="st9" cx="262.8" cy="547.7" r="1.2"/>
</g>
<g>
	<circle class="st8" cx="324.9" cy="544.7" r="3.9"/>
	<circle class="st9" cx="324.9" cy="544.7" r="1.2"/>
</g>
<g>
	<circle class="st8" cx="87.4" cy="502.1" r="3.9"/>
	<circle class="st9" cx="87.4" cy="502.1" r="1.2"/>
</g>
<g>
	<circle class="st8" cx="187.2" cy="504.3" r="3.9"/>
	<g>
		<path class="st10" d="M184.4,501.5l0-2.3l0.5-2.8c0,0-0.9,0.1-0.6-0.5c0.3-0.6,0.4-1,1.4-1c1,0,2.2-0.2,3,0.1
			c0.9,0.3,1.4,0.7,1.2,1.2l-0.6,0.4c0,0,0.7,1.8,0.5,4.6"/>
		<path class="st10" d="M185,496.3c0,0,2-0.4,4.5,0"/>
	</g>
	<g>
		<path class="st10" d="M184.4,507.2l0,2.3l0.5,2.8c0,0-0.9-0.1-0.6,0.5c0.3,0.6,0.4,1,1.4,1c1,0,2.2,0.2,3-0.1
			c0.9-0.3,1.4-0.7,1.2-1.2l-0.6-0.4c0,0,0.7-1.8,0.5-4.6"/>
		<path class="st10" d="M185,512.3c0,0,2,0.4,4.5,0"/>
	</g>
</g>
<g>
	<circle class="st8" cx="259.7" cy="507.6" r="3.9"/>
	<g>
		<path class="st10" d="M257,504.8l0-2.3l0.5-2.8c0,0-0.9,0.1-0.6-0.5c0.3-0.6,0.4-1,1.4-1s2.2-0.2,3,0.1s1.4,0.7,1.2,1.2l-0.6,0.4
			c0,0,0.7,1.8,0.5,4.6"/>
		<path class="st10" d="M257.5,499.7c0,0,2-0.4,4.5,0"/>
	</g>
	<g>
		<path class="st10" d="M257,510.5l0,2.3l0.5,2.8c0,0-0.9-0.1-0.6,0.5c0.3,0.6,0.4,1,1.4,1c1,0,2.2,0.2,3-0.1
			c0.9-0.3,1.4-0.7,1.2-1.2l-0.6-0.4c0,0,0.7-1.8,0.5-4.6"/>
		<path class="st10" d="M257.5,515.6c0,0,2,0.4,4.5,0"/>
	</g>
</g>
<g>
	<circle class="st8" cx="301.5" cy="547.4" r="3.9"/>
	<g>
		<path class="st10" d="M298.8,544.6l0-2.3l0.5-2.8c0,0-0.9,0.1-0.6-0.5c0.3-0.6,0.4-1,1.4-1c1,0,2.2-0.2,3,0.1
			c0.9,0.3,1.4,0.7,1.2,1.2l-0.6,0.4c0,0,0.7,1.8,0.5,4.6"/>
		<path class="st10" d="M299.3,539.4c0,0,2-0.4,4.5,0"/>
	</g>
	<g>
		<path class="st10" d="M298.8,550.3l0,2.3l0.5,2.8c0,0-0.9-0.1-0.6,0.5c0.3,0.6,0.4,1,1.4,1c1,0,2.2,0.2,3-0.1s1.4-0.7,1.2-1.2
			l-0.6-0.4c0,0,0.7-1.8,0.5-4.6"/>
		<path class="st10" d="M299.3,555.4c0,0,2,0.4,4.5,0"/>
	</g>
</g>
<g>
	<circle class="st8" cx="225.6" cy="542.7" r="3.9"/>
	<g>
		<path class="st10" d="M222.8,539.9l0-2.3l0.5-2.8c0,0-0.9,0.1-0.6-0.5c0.3-0.6,0.4-1,1.4-1c1,0,2.2-0.2,3,0.1
			c0.9,0.3,1.4,0.7,1.2,1.2l-0.6,0.4c0,0,0.7,1.8,0.5,4.6"/>
		<path class="st10" d="M223.4,534.8c0,0,2-0.4,4.5,0"/>
	</g>
	<g>
		<path class="st10" d="M222.8,545.6l0,2.3l0.5,2.8c0,0-0.9-0.1-0.6,0.5c0.3,0.6,0.4,1,1.4,1c1,0,2.2,0.2,3-0.1
			c0.9-0.3,1.4-0.7,1.2-1.2l-0.6-0.4c0,0,0.7-1.8,0.5-4.6"/>
		<path class="st10" d="M223.4,550.7c0,0,2,0.4,4.5,0"/>
	</g>
</g>
<g>
	<circle class="st8" cx="153.8" cy="544.7" r="3.9"/>
	<g>
		<path class="st10" d="M151,541.9l0-2.3l0.5-2.8c0,0-0.9,0.1-0.6-0.5c0.3-0.6,0.4-1,1.4-1c1,0,2.2-0.2,3,0.1
			c0.9,0.3,1.4,0.7,1.2,1.2L156,537c0,0,0.7,1.8,0.5,4.6"/>
		<path class="st10" d="M151.6,536.8c0,0,2-0.4,4.5,0"/>
	</g>
	<g>
		<path class="st10" d="M151,547.6l0,2.3l0.5,2.8c0,0-0.9-0.1-0.6,0.5c0.3,0.6,0.4,1,1.4,1c1,0,2.2,0.2,3-0.1
			c0.9-0.3,1.4-0.7,1.2-1.2l-0.6-0.4c0,0,0.7-1.8,0.5-4.6"/>
		<path class="st10" d="M151.6,552.7c0,0,2,0.4,4.5,0"/>
	</g>
</g>
<g>
	<circle class="st8" cx="88.5" cy="543.9" r="3.9"/>
	<g>
		<path class="st10" d="M85.8,541.1l0-2.3l0.5-2.8c0,0-0.9,0.1-0.6-0.5c0.3-0.6,0.4-1,1.4-1c1,0,2.2-0.2,3,0.1
			c0.9,0.3,1.4,0.7,1.2,1.2l-0.6,0.4c0,0,0.7,1.8,0.5,4.6"/>
		<path class="st10" d="M86.3,536c0,0,2-0.4,4.5,0"/>
	</g>
	<g>
		<path class="st10" d="M85.8,546.8l0,2.3l0.5,2.8c0,0-0.9-0.1-0.6,0.5c0.3,0.6,0.4,1,1.4,1c1,0,2.2,0.2,3-0.1
			c0.9-0.3,1.4-0.7,1.2-1.2l-0.6-0.4c0,0,0.7-1.8,0.5-4.6"/>
		<path class="st10" d="M86.3,551.9c0,0,2,0.4,4.5,0"/>
	</g>
</g>
<g>
	<circle class="st8" cx="331" cy="499.2" r="3.9"/>
	<g>
		<path class="st10" d="M328.2,496.3l0-2.3l0.5-2.8c0,0-0.9,0.1-0.6-0.5c0.3-0.6,0.4-1,1.4-1c1,0,2.2-0.2,3,0.1
			c0.9,0.3,1.4,0.7,1.2,1.2l-0.6,0.4c0,0,0.7,1.8,0.5,4.6"/>
		<path class="st10" d="M328.8,491.2c0,0,2-0.4,4.5,0"/>
	</g>
	<g>
		<path class="st10" d="M328.2,502l0,2.3l0.5,2.8c0,0-0.9-0.1-0.6,0.5c0.3,0.6,0.4,1,1.4,1c1,0,2.2,0.2,3-0.1
			c0.9-0.3,1.4-0.7,1.2-1.2l-0.6-0.4c0,0,0.7-1.8,0.5-4.6"/>
		<path class="st10" d="M328.8,507.1c0,0,2,0.4,4.5,0"/>
	</g>
</g>
<g>
	<circle class="st8" cx="114.2" cy="500.9" r="3.9"/>
	<g>
		<path class="st10" d="M111.4,498l0-2.3l0.5-2.8c0,0-0.9,0.1-0.6-0.5c0.3-0.6,0.4-1,1.4-1s2.2-0.2,3,0.1c0.9,0.3,1.4,0.7,1.2,1.2
			l-0.6,0.4c0,0,0.7,1.8,0.5,4.6"/>
		<path class="st10" d="M112,492.9c0,0,2-0.4,4.5,0"/>
	</g>
	<g>
		<path class="st10" d="M111.4,503.7l0,2.3l0.5,2.8c0,0-0.9-0.1-0.6,0.5c0.3,0.6,0.4,1,1.4,1s2.2,0.2,3-0.1c0.9-0.3,1.4-0.7,1.2-1.2
			l-0.6-0.4c0,0,0.7-1.8,0.5-4.6"/>
		<path class="st10" d="M112,508.9c0,0,2,0.4,4.5,0"/>
	</g>
</g>
</svg>
