<?xml version="1.0" encoding="utf-8"?>
<!-- Generator: Adobe Illustrator 22.0.1, SVG Export Plug-In . SVG Version: 6.00 Build 0)  -->
<svg version="1.1" id="Layer_1" xmlns="http://www.w3.org/2000/svg" xmlns:xlink="http://www.w3.org/1999/xlink" x="0px" y="0px"
	 viewBox="0 0 1616.1 2364.7" style="enable-background:new 0 0 1616.1 2364.7;" xml:space="preserve">
<style type="text/css">
	.st0{opacity:0.4;}
	.st1{fill:#FBE0B5;}
	.st2{opacity:0.8;fill:#FBE0B5;enable-background:new    ;}
	.st3{enable-background:new    ;}
	.st4{fill:#828282;}
	.st5{fill:none;}
	.st6{opacity:0.1;fill:#828282;enable-background:new    ;}
	.st7{fill:#FFFFFF;}
</style>
<g id="Layer_4">
	<g class="st0">
		<rect x="124.4" y="65.2" class="st1" width="1476" height="2114"/>
		<g>
			<path class="st1" d="M1362.9,2229.2v-50h-46.4C1316.5,2179.2,1315.4,2223.2,1362.9,2229.2z"/>
			<path class="st1" d="M1272.5,2229.2v-50h46.4C1318.9,2179.2,1320,2223.2,1272.5,2229.2z"/>
		</g>
		<g>
			<path class="st1" d="M1257.9,2229.2v-50h-46.4C1211.5,2179.2,1210.4,2223.2,1257.9,2229.2z"/>
			<path class="st1" d="M1167.5,2229.2v-50h46.4C1213.9,2179.2,1215,2223.2,1167.5,2229.2z"/>
		</g>
		<g>
			<path class="st1" d="M572.9,2229.2v-50h-46.4C526.5,2179.2,525.4,2223.2,572.9,2229.2z"/>
			<path class="st1" d="M482.5,2229.2v-50h46.4C528.9,2179.2,530,2223.2,482.5,2229.2z"/>
		</g>
		<g>
			<path class="st1" d="M467.9,2229.2v-50h-46.4C421.5,2179.2,420.4,2223.2,467.9,2229.2z"/>
			<path class="st1" d="M377.5,2229.2v-50h46.4C423.9,2179.2,425,2223.2,377.5,2229.2z"/>
		</g>
		<g>
			<path class="st1" d="M74.7,1943h50v-46.4C124.7,1896.6,80.7,1895.5,74.7,1943z"/>
			<path class="st1" d="M74.7,1852.6h50v46.4C124.7,1898.9,80.7,1900.1,74.7,1852.6z"/>
		</g>
		<g>
			<path class="st1" d="M74.7,1838h50v-46.4C124.7,1791.6,80.7,1790.5,74.7,1838z"/>
			<path class="st1" d="M74.7,1747.6h50v46.4C124.7,1793.9,80.7,1795.1,74.7,1747.6z"/>
		</g>
		<g>
			<path class="st1" d="M74.7,1219.9h50v-46.4C124.7,1173.6,80.7,1172.4,74.7,1219.9z"/>
			<path class="st1" d="M74.7,1129.6h50v46.4C124.7,1175.9,80.7,1177.1,74.7,1129.6z"/>
		</g>
		<g>
			<path class="st1" d="M74.7,1114.9h50v-46.4C124.7,1068.6,80.7,1067.4,74.7,1114.9z"/>
			<path class="st1" d="M74.7,1024.6h50v46.4C124.7,1070.9,80.7,1072,74.7,1024.6z"/>
		</g>
		<g>
			<path class="st1" d="M74.7,499.9h50v-46.4C124.7,453.6,80.7,452.4,74.7,499.9z"/>
			<path class="st1" d="M74.7,409.6h50V456C124.7,455.9,80.7,457.1,74.7,409.6z"/>
		</g>
		<g>
			<path class="st1" d="M74.7,394.9h50v-46.4C124.7,348.6,80.7,347.4,74.7,394.9z"/>
			<path class="st1" d="M74.7,304.6h50V351C124.7,350.9,80.7,352,74.7,304.6z"/>
		</g>
		<g>
			<path class="st1" d="M483.4,15.2v50h46.4C529.8,65.2,530.9,21.2,483.4,15.2z"/>
			<path class="st1" d="M573.8,15.2v50h-46.4C527.5,65.2,526.3,21.2,573.8,15.2z"/>
		</g>
		<g>
			<path class="st1" d="M822.4,15.2v50h46.4C868.8,65.2,869.9,21.2,822.4,15.2z"/>
			<path class="st1" d="M912.8,15.2v50h-46.4C866.5,65.2,865.3,21.2,912.8,15.2z"/>
		</g>
		<g>
			<path class="st1" d="M1219.2,15.2v50h46.4C1265.5,65.2,1266.6,21.2,1219.2,15.2z"/>
			<path class="st1" d="M1309.5,15.2v50h-46.4C1263.2,65.2,1262,21.2,1309.5,15.2z"/>
		</g>
		<g>
			<path class="st1" d="M912.9,2229.2v-50h-46.4C866.5,2179.2,865.4,2223.2,912.9,2229.2z"/>
			<path class="st1" d="M822.5,2229.2v-50h46.4C868.9,2179.2,870,2223.2,822.5,2229.2z"/>
		</g>
	</g>
</g>
<g id="Layer_3">
	<rect x="259.4" y="1196.2" class="st2" width="150.7" height="150.7"/>
	<rect x="1314.6" y="294.7" class="st2" width="150.7" height="150.7"/>
	<rect x="1314.6" y="445.5" class="st2" width="150.7" height="150.7"/>
	<rect x="1163.8" y="294.8" class="st2" width="150.7" height="150.7"/>
	<rect x="1163.9" y="445.5" class="st2" width="150.7" height="150.7"/>
	<rect x="1013.1" y="294.7" class="st2" width="150.7" height="150.7"/>
	<rect x="1013.1" y="445.5" class="st2" width="150.7" height="150.7"/>
	<rect x="862.3" y="294.8" class="st2" width="150.7" height="150.7"/>
	<rect x="862.4" y="445.5" class="st2" width="150.7" height="150.7"/>
	<rect x="711.6" y="294.8" class="st2" width="150.7" height="150.7"/>
	<rect x="711.6" y="445.5" class="st2" width="150.7" height="150.7"/>
	<rect x="560.9" y="294.7" class="st2" width="150.7" height="150.7"/>
	<rect x="560.9" y="445.5" class="st2" width="150.7" height="150.7"/>
	<rect x="410.1" y="294.8" class="st2" width="150.7" height="150.7"/>
	<rect x="410.2" y="445.5" class="st2" width="150.7" height="150.7"/>
	<rect x="259.4" y="294.7" class="st2" width="150.7" height="150.7"/>
	<rect x="259.4" y="445.5" class="st2" width="150.7" height="150.7"/>
	<rect x="1314.6" y="1646.2" class="st2" width="150.7" height="150.7"/>
	<rect x="1314.5" y="1796.9" class="st2" width="150.7" height="150.7"/>
	<rect x="1163.9" y="1646.2" class="st2" width="150.7" height="150.7"/>
	<rect x="1163.8" y="1796.9" class="st2" width="150.7" height="150.7"/>
	<rect x="1013.1" y="1646.1" class="st2" width="150.7" height="150.7"/>
	<rect x="1013.1" y="1796.9" class="st2" width="150.7" height="150.7"/>
	<rect x="862.4" y="1646.2" class="st2" width="150.7" height="150.7"/>
	<rect x="862.3" y="1796.9" class="st2" width="150.7" height="150.7"/>
	<rect x="711.6" y="1646.2" class="st2" width="150.7" height="150.7"/>
	<rect x="711.6" y="1797" class="st2" width="150.7" height="150.7"/>
	<rect x="560.9" y="1646.2" class="st2" width="150.7" height="150.7"/>
	<rect x="560.8" y="1796.9" class="st2" width="150.7" height="150.7"/>
	<rect x="410.1" y="1646.2" class="st2" width="150.7" height="150.7"/>
	<rect x="410.1" y="1797" class="st2" width="150.7" height="150.7"/>
	<rect x="259.4" y="1646.2" class="st2" width="150.7" height="150.7"/>
	<rect x="259.3" y="1796.9" class="st2" width="150.7" height="150.7"/>
	<rect x="862.3" y="747.7" class="st2" width="150.7" height="150.7"/>
	<rect x="862.4" y="898.5" class="st2" width="150.7" height="150.7"/>
	<rect x="711.6" y="747.8" class="st2" width="150.7" height="150.7"/>
	<rect x="711.6" y="898.5" class="st2" width="150.7" height="150.7"/>
	<rect x="560.8" y="747.7" class="st2" width="150.7" height="150.7"/>
	<rect x="560.9" y="898.5" class="st2" width="150.7" height="150.7"/>
	<rect x="410.1" y="747.8" class="st2" width="150.7" height="150.7"/>
	<rect x="410.1" y="898.5" class="st2" width="150.7" height="150.7"/>
	<rect x="259.4" y="747.7" class="st2" width="150.7" height="150.7"/>
	<rect x="259.4" y="898.4" class="st2" width="150.7" height="150.7"/>
	<rect x="862.4" y="1196.2" class="st2" width="150.7" height="150.7"/>
	<rect x="862.3" y="1347" class="st2" width="150.7" height="150.7"/>
	<rect x="711.7" y="1196.3" class="st2" width="150.7" height="150.7"/>
	<rect x="711.6" y="1347" class="st2" width="150.7" height="150.7"/>
	<rect x="560.9" y="1196.2" class="st2" width="150.7" height="150.7"/>
	<rect x="560.9" y="1346.9" class="st2" width="150.7" height="150.7"/>
	<rect x="410.2" y="1196.2" class="st2" width="150.7" height="150.7"/>
	<rect x="410.1" y="1347" class="st2" width="150.7" height="150.7"/>
	<rect x="259.4" y="1196.2" class="st2" width="150.7" height="150.7"/>
	<rect x="259.4" y="1346.9" class="st2" width="150.7" height="150.7"/>
</g>
<g id="Layer_1_1_">
	<g class="st3">
		<g>
			<path class="st4" d="M1208.5,1061.1v-3.5h6.3V1016h-14.4v7.7h-4v-11.6h43.5v11.6h-4v-7.7h-14.4v41.6h6.3v3.5H1208.5z"/>
		</g>
		<g>
			<path class="st4" d="M1270.7,1026.2v8.7h-3.5c-0.1-1.7-0.6-3-1.4-3.9s-2.1-1.3-3.7-1.3c-3,0-5.3,1-6.8,3.1
				c-1.6,2.1-2.4,5-2.4,8.9v16h7v3.5h-18.5v-3.5h5.5v-28h-5.8v-3.4h11.8v6.2c1.2-2.4,2.7-4.2,4.6-5.4c1.9-1.2,4.1-1.8,6.8-1.8
				c1,0,2,0.1,3.1,0.2C1268.4,1025.7,1269.5,1025.9,1270.7,1026.2z"/>
		</g>
		<g>
			<path class="st4" d="M1283,1057.6h5.7v3.5h-17.5v-3.5h5.8v-27.9h-5.8v-3.5h11.8V1057.6z M1275.3,1015.4c0-1,0.4-1.9,1.1-2.6
				s1.6-1.1,2.6-1.1c1,0,1.9,0.4,2.6,1.1c0.7,0.7,1.1,1.6,1.1,2.6c0,1-0.4,1.9-1.1,2.6c-0.7,0.7-1.6,1.1-2.6,1.1
				c-1,0-1.9-0.4-2.6-1.1C1275.7,1017.3,1275.3,1016.4,1275.3,1015.4z"/>
		</g>
		<g>
			<path class="st4" d="M1296.1,1057.6v-44.1h-5.8v-3.5h11.9v21.6c1.2-2.2,2.7-3.8,4.5-4.8c1.8-1,4.1-1.6,6.8-1.6
				c4.3,0,7.8,1.7,10.5,5.1c2.7,3.4,4.1,7.8,4.1,13.3s-1.4,9.9-4.1,13.3c-2.7,3.4-6.2,5.1-10.5,5.1c-2.7,0-5-0.5-6.8-1.6
				c-1.8-1-3.3-2.7-4.5-4.8v5.5h-11.9v-3.5H1296.1z M1302.1,1045.4c0,4.2,0.8,7.4,2.4,9.6c1.6,2.2,3.9,3.3,7,3.3
				c3.1,0,5.4-1.2,7-3.7s2.4-6.1,2.4-10.9c0-4.8-0.8-8.5-2.4-10.9c-1.6-2.5-3.9-3.7-7-3.7c-3.1,0-5.4,1.1-7,3.3
				c-1.6,2.2-2.4,5.4-2.4,9.6V1045.4z"/>
		</g>
		<g>
			<path class="st4" d="M1362.2,1039.3v18.3h5.4v3.5h-11.4v-3.8c-1.3,1.6-2.9,2.8-4.6,3.6c-1.8,0.8-3.8,1.1-6.1,1.1
				c-3.9,0-7-1-9.2-3.1c-2.3-2.1-3.4-4.8-3.4-8.3c0-3.6,1.3-6.4,3.9-8.4c2.6-2,6.3-3,11-3h8.5v-2.4c0-2.6-0.8-4.7-2.4-6.2
				c-1.6-1.5-3.9-2.2-6.8-2.2c-2.4,0-4.3,0.5-5.7,1.6s-2.3,2.7-2.7,4.9h-3.1v-7.1c2.1-0.9,4.1-1.6,6.1-2c2-0.4,3.9-0.7,5.8-0.7
				c4.8,0,8.5,1.2,11,3.6C1361,1031.3,1362.2,1034.8,1362.2,1039.3z M1356.2,1050.2v-7.4h-7.8c-3,0-5.2,0.6-6.7,1.9
				c-1.5,1.3-2.2,3.3-2.2,5.9c0,2.4,0.7,4.4,2.2,5.8c1.5,1.4,3.5,2.1,6,2.1c2.5,0,4.5-0.8,6.1-2.3
				C1355.4,1054.7,1356.2,1052.7,1356.2,1050.2z"/>
		</g>
		<g>
			<path class="st4" d="M1381.4,1057.6h5.7v3.5h-17.6v-3.5h5.8v-44.1h-5.8v-3.5h11.9V1057.6z"/>
		</g>
	</g>
	<g class="st3">
		<g>
			<path class="st4" d="M1165.3,1130.6v-3.5h6.2v-42h-6.2v-3.5h19.1v3.5h-6.2v41.5h22.4v-8.2h4v12.2H1165.3z"/>
		</g>
		<g>
			<path class="st4" d="M1240.7,1113.8h-26v0.3c0,4.7,0.9,8.3,2.7,10.7c1.8,2.4,4.4,3.6,7.8,3.6c2.6,0,4.8-0.7,6.5-2.1
				c1.7-1.4,2.9-3.5,3.6-6.2h4.9c-1,3.8-2.7,6.7-5.3,8.6c-2.6,1.9-6,2.9-10.2,2.9c-5.1,0-9.2-1.7-12.3-5c-3.1-3.4-4.6-7.8-4.6-13.4
				c0-5.5,1.5-10,4.6-13.3c3-3.4,7-5.1,12-5.1c5.3,0,9.3,1.6,12.1,4.9S1240.6,1107.6,1240.7,1113.8z M1233.6,1110.3
				c-0.1-4.1-1-7.1-2.6-9.2c-1.6-2.1-3.9-3.1-6.8-3.1c-2.8,0-5,1-6.6,3.1c-1.6,2.1-2.6,5.1-2.9,9.2H1233.6z"/>
		</g>
		<g>
			<path class="st4" d="M1274.9,1108.8v18.3h5.4v3.5h-11.4v-3.8c-1.3,1.6-2.9,2.8-4.6,3.6c-1.8,0.8-3.8,1.1-6.1,1.1
				c-3.9,0-7-1-9.2-3.1c-2.3-2.1-3.4-4.8-3.4-8.3c0-3.6,1.3-6.4,3.9-8.4c2.6-2,6.3-3,11-3h8.5v-2.4c0-2.6-0.8-4.7-2.4-6.2
				c-1.6-1.5-3.9-2.2-6.8-2.2c-2.4,0-4.3,0.5-5.7,1.6c-1.4,1.1-2.3,2.7-2.7,4.9h-3.1v-7.1c2.1-0.9,4.1-1.6,6.1-2
				c2-0.4,3.9-0.7,5.8-0.7c4.8,0,8.5,1.2,11,3.6C1273.7,1100.8,1274.9,1104.3,1274.9,1108.8z M1268.9,1119.7v-7.4h-7.8
				c-3,0-5.2,0.6-6.7,1.9c-1.5,1.3-2.2,3.3-2.2,5.9c0,2.4,0.7,4.4,2.2,5.8s3.5,2.1,6,2.1c2.5,0,4.5-0.8,6.1-2.3
				C1268.1,1124.2,1268.9,1122.2,1268.9,1119.7z"/>
		</g>
		<g>
			<path class="st4" d="M1315.6,1127.1h5.8v3.5h-11.8v-5.5c-1.2,2.2-2.7,3.8-4.5,4.8c-1.8,1-4.1,1.6-6.8,1.6
				c-4.3,0-7.8-1.7-10.5-5.1c-2.7-3.4-4.1-7.8-4.1-13.3s1.4-9.9,4.1-13.3c2.7-3.4,6.2-5.1,10.5-5.1c2.7,0,5,0.5,6.8,1.6
				c1.8,1,3.3,2.7,4.5,4.8V1083h-5.7v-3.5h11.8V1127.1z M1309.5,1114.9v-3.4c0-4.2-0.8-7.4-2.4-9.6c-1.6-2.2-3.9-3.3-7-3.3
				c-3.1,0-5.5,1.2-7,3.7c-1.6,2.5-2.4,6.1-2.4,10.9c0,4.8,0.8,8.5,2.4,10.9c1.6,2.5,3.9,3.7,7,3.7c3.1,0,5.4-1.1,7-3.3
				C1308.7,1122.3,1309.5,1119.1,1309.5,1114.9z"/>
		</g>
		<g>
			<path class="st4" d="M1357.8,1113.8h-26v0.3c0,4.7,0.9,8.3,2.7,10.7c1.8,2.4,4.4,3.6,7.8,3.6c2.6,0,4.8-0.7,6.5-2.1
				c1.7-1.4,2.9-3.5,3.6-6.2h4.9c-1,3.8-2.7,6.7-5.3,8.6c-2.6,1.9-6,2.9-10.2,2.9c-5.1,0-9.2-1.7-12.3-5c-3.1-3.4-4.6-7.8-4.6-13.4
				c0-5.5,1.5-10,4.6-13.3c3-3.4,7-5.1,12-5.1c5.3,0,9.3,1.6,12.1,4.9S1357.7,1107.6,1357.8,1113.8z M1350.7,1110.3
				c-0.1-4.1-1-7.1-2.6-9.2c-1.6-2.1-3.9-3.1-6.8-3.1c-2.8,0-5,1-6.6,3.1c-1.6,2.1-2.6,5.1-2.9,9.2H1350.7z"/>
		</g>
		<g>
			<path class="st4" d="M1391.4,1095.7v8.7h-3.5c-0.1-1.7-0.6-3-1.4-3.9s-2.1-1.3-3.7-1.3c-3,0-5.3,1-6.8,3.1
				c-1.6,2.1-2.4,5-2.4,8.9v16h7v3.5H1362v-3.5h5.5v-28h-5.8v-3.4h11.8v6.2c1.2-2.4,2.7-4.2,4.6-5.4s4.1-1.8,6.8-1.8
				c1,0,2,0.1,3.1,0.2C1389,1095.2,1390.2,1095.4,1391.4,1095.7z"/>
		</g>
		<g>
			<path class="st4" d="M1393.2,1128.7v-8.1h3.5c0.1,2.6,0.9,4.6,2.4,5.8c1.5,1.3,3.8,1.9,6.8,1.9c2.7,0,4.8-0.5,6.2-1.5
				c1.4-1,2.1-2.5,2.1-4.4c0-1.5-0.5-2.8-1.6-3.7c-1-0.9-3.2-1.9-6.6-3l-4.4-1.5c-3-1-5.2-2.2-6.5-3.6c-1.3-1.4-2-3.3-2-5.5
				c0-3.2,1.2-5.7,3.5-7.5c2.3-1.8,5.6-2.7,9.7-2.7c1.8,0,3.8,0.2,5.8,0.7s4.1,1.2,6.3,2.1v7.6h-3.5c-0.1-2.3-0.9-4-2.4-5.3
				c-1.5-1.3-3.5-1.9-6.1-1.9c-2.5,0-4.5,0.4-5.8,1.3c-1.3,0.9-2,2.2-2,4c0,1.5,0.5,2.6,1.5,3.5c1,0.9,3,1.8,5.9,2.7l4.8,1.5
				c3.3,1,5.7,2.3,7.1,3.9s2.2,3.5,2.2,6c0,3.3-1.3,5.9-3.8,7.8c-2.5,1.9-6,2.8-10.5,2.8c-2.3,0-4.5-0.2-6.6-0.7
				C1397.5,1130.4,1395.3,1129.7,1393.2,1128.7z"/>
		</g>
	</g>
	<g class="st3">
		<g>
			<path class="st4" d="M1173.7,1200.1v-3.5h6.2v-42h-6.2v-3.5h19.1v3.5h-6.2v41.5h22.4v-8.2h4v12.2H1173.7z"/>
		</g>
		<g>
			<path class="st4" d="M1232.9,1201.1c-5.1,0-9.2-1.7-12.2-5c-3.1-3.4-4.6-7.8-4.6-13.4s1.5-10,4.6-13.4c3.1-3.3,7.2-5,12.3-5
				s9.2,1.7,12.3,5c3.1,3.3,4.6,7.8,4.6,13.4s-1.5,10-4.6,13.4S1238,1201.1,1232.9,1201.1z M1232.9,1197.8c3.2,0,5.7-1.3,7.3-3.8
				c1.7-2.6,2.5-6.3,2.5-11.3c0-5-0.8-8.8-2.5-11.3c-1.7-2.5-4.1-3.8-7.3-3.8s-5.7,1.3-7.3,3.8c-1.7,2.5-2.5,6.3-2.5,11.3
				c0,5,0.8,8.8,2.5,11.3C1227.3,1196.6,1229.7,1197.8,1232.9,1197.8z"/>
		</g>
		<g>
			<path class="st4" d="M1275,1165.2h11.3v31.4h5.7v3.5h-11.8v-6.2c-1.1,2.3-2.6,4.1-4.3,5.3c-1.8,1.2-3.8,1.8-6.2,1.8
				c-3.9,0-6.7-1.1-8.6-3.3c-1.8-2.2-2.7-5.7-2.7-10.4v-18.7h-5.5v-3.5h11.5v20.3c0,4.2,0.5,7.2,1.6,8.7c1,1.6,2.9,2.4,5.6,2.4
				c2.8,0,4.9-1,6.4-3.1c1.5-2.1,2.2-5,2.2-9v-15.9h-5.3V1165.2z"/>
		</g>
		<g>
			<path class="st4" d="M1295.3,1200.1v-3.5h5.5v-27.9h-5.8v-3.5h11.8v6.2c1.1-2.4,2.6-4.1,4.4-5.4c1.8-1.2,3.9-1.8,6.2-1.8
				c3.9,0,6.7,1.1,8.5,3.3c1.8,2.2,2.7,5.7,2.7,10.3v18.7h5.4v3.5h-16.7v-3.5h5.2v-16.8c0-4.3-0.5-7.2-1.6-8.8
				c-1.1-1.6-2.9-2.4-5.5-2.4c-2.8,0-4.9,1-6.4,3.1c-1.5,2-2.2,5-2.2,8.9v16h5.3v3.5H1295.3z"/>
		</g>
		<g>
			<path class="st4" d="M1369.2,1168.7v30.6c0,5-1.4,8.9-4.1,11.6c-2.8,2.7-6.7,4.1-11.8,4.1c-2.3,0-4.5-0.2-6.6-0.6
				c-2.1-0.4-4.1-1-6-1.9v-7.3h3.2c0.4,2.3,1.3,3.9,2.8,5c1.5,1.1,3.6,1.6,6.3,1.6c3.5,0,6.1-1,7.8-3c1.7-2,2.5-5.1,2.5-9.4v-4.7
				c-1.2,2.2-2.7,3.8-4.5,4.8c-1.8,1-4.1,1.6-6.8,1.6c-4.3,0-7.8-1.7-10.5-5.1c-2.7-3.4-4.1-7.8-4.1-13.3s1.4-9.9,4.1-13.3
				c2.7-3.4,6.2-5.1,10.5-5.1c2.7,0,5,0.5,6.8,1.6c1.8,1,3.3,2.7,4.5,4.8v-5.5h11.8v3.5H1369.2z M1363.2,1181c0-4.2-0.8-7.4-2.4-9.6
				c-1.6-2.2-3.9-3.3-7-3.3c-3.1,0-5.5,1.2-7,3.7c-1.6,2.5-2.4,6.1-2.4,10.9c0,4.8,0.8,8.5,2.4,10.9s3.9,3.7,7,3.7
				c3.1,0,5.4-1.1,7-3.3c1.6-2.2,2.4-5.4,2.4-9.6V1181z"/>
		</g>
		<g>
			<path class="st4" d="M1411.5,1183.3h-26v0.3c0,4.7,0.9,8.3,2.7,10.7c1.8,2.4,4.4,3.6,7.8,3.6c2.6,0,4.8-0.7,6.5-2.1
				c1.7-1.4,2.9-3.5,3.6-6.2h4.9c-1,3.8-2.7,6.7-5.3,8.6c-2.6,1.9-6,2.9-10.2,2.9c-5.1,0-9.2-1.7-12.3-5s-4.6-7.8-4.6-13.4
				c0-5.5,1.5-10,4.6-13.3c3-3.4,7-5.1,12-5.1c5.3,0,9.3,1.6,12.1,4.9C1409.9,1172.4,1411.4,1177.1,1411.5,1183.3z M1404.4,1179.8
				c-0.1-4.1-1-7.1-2.6-9.2c-1.6-2.1-3.9-3.1-6.8-3.1c-2.8,0-5,1-6.6,3.1c-1.6,2.1-2.6,5.1-2.9,9.2H1404.4z"/>
		</g>
	</g>
	<g>
		<rect x="1316.7" y="350.9" class="st5" width="150.7" height="92.7"/>
	</g>
	<g class="st3">
		<path class="st4" d="M1375.7,386H1358v-3.9h6.5v-21.3c-2,1.7-4.1,2.1-6.2,2.5v-4.2c3.8-1,6.6-3.4,8.4-5.9h2.1v28.8h6.8V386z"/>
		<path class="st4" d="M1401.6,386h-17.7v-3.9h6.5v-21.3c-2,1.7-4.1,2.1-6.2,2.5v-4.2c3.8-1,6.6-3.4,8.4-5.9h2.1v28.8h6.8V386z"/>
		<path class="st4" d="M1414.2,357.4v8.7c1-0.4,2.1-0.7,4.2-0.7c5.4,0,10.1,4.3,10.1,10c0,6.6-5.1,11.3-12.1,11.3
			c-3.6,0-7.1-1.8-8.8-3.4v-4.8c1.9,1.5,4.9,4.2,8.8,4.2c4.4,0,7.9-2.8,7.9-7c0-4-3.8-6.5-8.2-6.5c-2.5,0-4.5,0.8-6.3,1.5v-17.5
			h17.3v4.1H1414.2z"/>
	</g>
	<g>
		<rect x="1316.7" y="501.6" class="st5" width="150.7" height="92.7"/>
	</g>
	<g class="st3">
		<path class="st4" d="M1376.1,513c0,6.4-5.1,11-13.2,19.7h13.4v4.1h-20.5V535c10-11.1,16.1-16.7,16.1-21c0-4.2-3.2-6.3-7.1-6.3
			c-3.2,0-6.2,2-8.1,3.7v-4.6c1.7-1.6,4.7-3.4,8.4-3.4C1371.7,503.3,1376.1,507,1376.1,513z"/>
		<path class="st4" d="M1401.6,536.8h-17.7v-3.9h6.5v-21.3c-2,1.7-4.1,2.1-6.2,2.5v-4.2c3.8-1,6.6-3.4,8.4-5.9h2.1v28.8h6.8V536.8z"
			/>
		<path class="st4" d="M1430.2,525.8v3.7h-5.1v7.2h-4.4v-7.2h-14.9v-1.6c5.6-6,12.6-14,17.7-23.9h1.6v21.8H1430.2z M1420.7,514.8
			c-2.6,4.1-5.3,7.9-8.1,11h8.1V514.8z"/>
	</g>
	<g>
		<rect x="1165.9" y="350.9" class="st5" width="150.7" height="92.7"/>
	</g>
	<g class="st3">
		<path class="st4" d="M1225,386h-17.7v-3.9h6.5v-21.3c-2,1.7-4.1,2.1-6.2,2.5v-4.2c3.8-1,6.6-3.4,8.4-5.9h2.1v28.8h6.8V386z"/>
		<path class="st4" d="M1250.8,386h-17.7v-3.9h6.5v-21.3c-2,1.7-4.1,2.1-6.2,2.5v-4.2c3.8-1,6.6-3.4,8.4-5.9h2.1v28.8h6.8V386z"/>
		<path class="st4" d="M1276.8,362c0,4.4-4,6.6-6.5,7.3c2.5,0.7,6.5,3.4,6.5,7.8c0,5.5-4.5,9.7-11,9.7c-3.9,0-7-1.6-8.7-3.1v-4.8
			c2.2,1.6,4.5,4,8.8,4c3.9,0,6.7-2.2,6.7-6c0-3.2-3.4-5.6-7-5.6h-2.9v-3.9h2.9c4.1,0,7-1.9,7-5.1c0-3.4-3.2-5.7-7.1-5.7
			c-3.4,0-5.6,1.7-7.4,3.6v-4.8c1.7-1.6,4.6-2.7,7.6-2.7C1272.2,352.6,1276.8,356.6,1276.8,362z"/>
	</g>
	<g>
		<rect x="1165.9" y="501.6" class="st5" width="150.7" height="92.7"/>
	</g>
	<g class="st3">
		<path class="st4" d="M1225.3,513c0,6.4-5.1,11-13.2,19.7h13.4v4.1h-20.5V535c10-11.1,16.1-16.7,16.1-21c0-4.2-3.2-6.3-7.1-6.3
			c-3.2,0-6.2,2-8.1,3.7v-4.6c1.7-1.6,4.7-3.4,8.4-3.4C1220.9,503.3,1225.3,507,1225.3,513z"/>
		<path class="st4" d="M1250.8,536.8h-17.7v-3.9h6.5v-21.3c-2,1.7-4.1,2.1-6.2,2.5v-4.2c3.8-1,6.6-3.4,8.4-5.9h2.1v28.8h6.8V536.8z"
			/>
		<path class="st4" d="M1277,513c0,6.4-5.1,11-13.2,19.7h13.4v4.1h-20.5V535c10-11.1,16.1-16.7,16.1-21c0-4.2-3.2-6.3-7.1-6.3
			c-3.2,0-6.2,2-8.1,3.7v-4.6c1.7-1.6,4.7-3.4,8.4-3.4C1272.6,503.3,1277,507,1277,513z"/>
	</g>
	<g>
		<rect x="1015.2" y="350.9" class="st5" width="150.7" height="92.7"/>
	</g>
	<g class="st3">
		<path class="st4" d="M1074.2,386h-17.7v-3.9h6.5v-21.3c-2,1.7-4.1,2.1-6.2,2.5v-4.2c3.8-1,6.6-3.4,8.4-5.9h2.1v28.8h6.8V386z"/>
		<path class="st4" d="M1100.1,386h-17.7v-3.9h6.5v-21.3c-2,1.7-4.1,2.1-6.2,2.5v-4.2c3.8-1,6.6-3.4,8.4-5.9h2.1v28.8h6.8V386z"/>
		<path class="st4" d="M1126,386h-17.7v-3.9h6.5v-21.3c-2,1.7-4.1,2.1-6.2,2.5v-4.2c3.8-1,6.6-3.4,8.4-5.9h2.1v28.8h6.8V386z"/>
	</g>
	<g>
		<rect x="1015.2" y="501.6" class="st5" width="150.7" height="92.7"/>
	</g>
	<g class="st3">
		<path class="st4" d="M1074.6,513c0,6.4-5.1,11-13.2,19.7h13.4v4.1h-20.5V535c10-11.1,16.1-16.7,16.1-21c0-4.2-3.2-6.3-7.1-6.3
			c-3.2,0-6.2,2-8.1,3.7v-4.6c1.7-1.6,4.7-3.4,8.4-3.4C1070.2,503.3,1074.6,507,1074.6,513z"/>
		<path class="st4" d="M1100.1,536.8h-17.7v-3.9h6.5v-21.3c-2,1.7-4.1,2.1-6.2,2.5v-4.2c3.8-1,6.6-3.4,8.4-5.9h2.1v28.8h6.8V536.8z"
			/>
		<path class="st4" d="M1128.9,520.4c0,8.4-4,17.1-12.4,17.1s-12.4-8.7-12.4-17.1s4-17.1,12.4-17.1S1128.9,512,1128.9,520.4z
			 M1108.3,520.4c0,6.3,2.8,12.8,8.2,12.8s8.2-6.4,8.2-12.8s-2.8-12.8-8.2-12.8S1108.3,514.1,1108.3,520.4z"/>
	</g>
	<g>
		<rect x="864.4" y="350.9" class="st5" width="150.7" height="92.7"/>
	</g>
	<g class="st3">
		<path class="st4" d="M923.5,386h-17.7v-3.9h6.5v-21.3c-2,1.7-4.1,2.1-6.2,2.5v-4.2c3.8-1,6.6-3.4,8.4-5.9h2.1v28.8h6.8V386z"/>
		<path class="st4" d="M952.3,369.7c0,8.4-4,17.1-12.4,17.1s-12.4-8.7-12.4-17.1s4-17.1,12.4-17.1S952.3,361.3,952.3,369.7z
			 M931.7,369.7c0,6.3,2.8,12.8,8.2,12.8s8.2-6.4,8.2-12.8s-2.8-12.8-8.2-12.8S931.7,363.3,931.7,369.7z"/>
		<path class="st4" d="M958.1,386c4-3.8,12-10.4,13.9-15.4c-1.6,2-4.2,4-7.2,4c-6.4,0-10.3-4.9-10.3-10.2c0-5.7,4.2-11.8,11.1-11.8
			c6.5,0,11.8,4.8,11.8,12.6c0,9.7-9.3,17.4-12.7,20.8H958.1z M973.2,363.9c0-4.4-3.7-7.4-7.4-7.4s-7.2,2.9-7.2,7.4
			c0,4,3.5,6.7,7.2,6.7S973.2,367.9,973.2,363.9z"/>
	</g>
	<g>
		<rect x="864.4" y="501.6" class="st5" width="150.7" height="92.7"/>
	</g>
	<g class="st3">
		<path class="st4" d="M923.8,513c0,6.4-5.1,11-13.2,19.7h13.4v4.1h-20.5V535c10-11.1,16.1-16.7,16.1-21c0-4.2-3.2-6.3-7.1-6.3
			c-3.2,0-6.2,2-8.1,3.7v-4.6c1.7-1.6,4.7-3.4,8.4-3.4C919.4,503.3,923.8,507,923.8,513z"/>
		<path class="st4" d="M952.3,520.4c0,8.4-4,17.1-12.4,17.1s-12.4-8.7-12.4-17.1s4-17.1,12.4-17.1S952.3,512,952.3,520.4z
			 M931.7,520.4c0,6.3,2.8,12.8,8.2,12.8s8.2-6.4,8.2-12.8s-2.8-12.8-8.2-12.8S931.7,514.1,931.7,520.4z"/>
		<path class="st4" d="M975.5,512c0,3.8-2.1,6-4.7,7.5c3.1,1.4,5.7,4.4,5.7,8.1c0,5.5-4.3,9.9-10.8,9.9s-10.8-4.4-10.8-9.9
			c0-3.7,2.6-6.7,5.7-8.1c-2.6-1.5-4.7-3.8-4.7-7.5c0-5.1,4.3-8.7,9.8-8.7S975.5,506.9,975.5,512z M959,527.4c0,3.3,2.9,6.2,6.6,6.2
			s6.6-2.9,6.6-6.2s-3.4-5.9-6.6-5.9S959,524.1,959,527.4z M960,512.5c0,3,2.9,4.9,5.7,4.9s5.7-1.9,5.7-4.9s-2.9-5.2-5.7-5.2
			S960,509.5,960,512.5z"/>
	</g>
	<g>
		<rect x="864.4" y="803.9" class="st5" width="150.7" height="92.7"/>
	</g>
	<g class="st3">
		<path class="st4" d="M923.8,815.2c0,6.4-5.1,11-13.2,19.7h13.4v4.1h-20.5v-1.8c10-11.1,16.1-16.7,16.1-21c0-4.2-3.2-6.3-7.1-6.3
			c-3.2,0-6.2,2-8.1,3.7v-4.6c1.7-1.6,4.7-3.4,8.4-3.4C919.4,805.6,923.8,809.3,923.8,815.2z"/>
		<path class="st4" d="M952.3,822.6c0,8.4-4,17.1-12.4,17.1s-12.4-8.7-12.4-17.1s4-17.1,12.4-17.1S952.3,814.2,952.3,822.6z
			 M931.7,822.6c0,6.3,2.8,12.8,8.2,12.8s8.2-6.4,8.2-12.8s-2.8-12.8-8.2-12.8S931.7,816.3,931.7,822.6z"/>
		<path class="st4" d="M958.1,839c4-3.8,12-10.4,13.9-15.4c-1.6,2-4.2,4-7.2,4c-6.4,0-10.3-4.9-10.3-10.2c0-5.7,4.2-11.8,11.1-11.8
			c6.5,0,11.8,4.8,11.8,12.6c0,9.7-9.3,17.4-12.7,20.8H958.1z M973.2,816.9c0-4.4-3.7-7.4-7.4-7.4s-7.2,2.9-7.2,7.4
			c0,4,3.5,6.7,7.2,6.7S973.2,820.8,973.2,816.9z"/>
	</g>
	<g>
		<rect x="864.4" y="954.6" class="st5" width="150.7" height="92.7"/>
	</g>
	<g class="st3">
		<path class="st4" d="M923.6,965.7c0,4.4-4,6.6-6.5,7.3c2.5,0.7,6.5,3.4,6.5,7.8c0,5.5-4.5,9.7-11,9.7c-3.9,0-7-1.6-8.7-3.1v-4.8
			c2.2,1.6,4.5,4,8.8,4c3.9,0,6.7-2.2,6.7-6c0-3.2-3.4-5.6-7-5.6h-2.9V971h2.9c4.1,0,7-1.9,7-5.1c0-3.4-3.2-5.7-7.1-5.7
			c-3.4,0-5.6,1.7-7.4,3.6V959c1.7-1.6,4.6-2.7,7.6-2.7C919,956.3,923.6,960.3,923.6,965.7z"/>
		<path class="st4" d="M952.3,973.4c0,8.4-4,17.1-12.4,17.1s-12.4-8.7-12.4-17.1s4-17.1,12.4-17.1S952.3,965,952.3,973.4z
			 M931.7,973.4c0,6.3,2.8,12.8,8.2,12.8s8.2-6.4,8.2-12.8s-2.8-12.8-8.2-12.8S931.7,967,931.7,973.4z"/>
		<path class="st4" d="M975.5,965c0,3.8-2.1,6-4.7,7.5c3.1,1.4,5.7,4.4,5.7,8.1c0,5.5-4.3,9.9-10.8,9.9s-10.8-4.4-10.8-9.9
			c0-3.7,2.6-6.7,5.7-8.1c-2.6-1.5-4.7-3.8-4.7-7.5c0-5.1,4.3-8.7,9.8-8.7S975.5,959.9,975.5,965z M959,980.4c0,3.3,2.9,6.2,6.6,6.2
			s6.6-2.9,6.6-6.2s-3.4-5.9-6.6-5.9S959,977.1,959,980.4z M960,965.5c0,3,2.9,4.9,5.7,4.9s5.7-1.9,5.7-4.9s-2.9-5.2-5.7-5.2
			S960,962.4,960,965.5z"/>
	</g>
	<g>
		<rect x="713.7" y="350.9" class="st5" width="150.7" height="92.7"/>
	</g>
	<g class="st3">
		<path class="st4" d="M772.8,386H755v-3.9h6.5v-21.3c-2,1.7-4.1,2.1-6.2,2.5v-4.2c3.8-1,6.6-3.4,8.4-5.9h2.1v28.8h6.8V386z"/>
		<path class="st4" d="M801.5,369.7c0,8.4-4,17.1-12.4,17.1s-12.4-8.7-12.4-17.1s4-17.1,12.4-17.1S801.5,361.3,801.5,369.7z
			 M781,369.7c0,6.3,2.8,12.8,8.2,12.8s8.2-6.4,8.2-12.8s-2.8-12.8-8.2-12.8S781,363.3,781,369.7z"/>
		<path class="st4" d="M826.6,355.4c-8.2,11.7-12.8,19.8-12.8,30.7h-5c0-11.3,6.4-19.6,12.6-28.7H804v-4.1h22.6V355.4z"/>
	</g>
	<g>
		<rect x="713.7" y="501.6" class="st5" width="150.7" height="92.7"/>
	</g>
	<g class="st3">
		<path class="st4" d="M773.1,513c0,6.4-5.1,11-13.2,19.7h13.4v4.1h-20.5V535c10-11.1,16.1-16.7,16.1-21c0-4.2-3.2-6.3-7.1-6.3
			c-3.2,0-6.2,2-8.1,3.7v-4.6c1.7-1.6,4.7-3.4,8.4-3.4C768.7,503.3,773.1,507,773.1,513z"/>
		<path class="st4" d="M801.5,520.4c0,8.4-4,17.1-12.4,17.1s-12.4-8.7-12.4-17.1s4-17.1,12.4-17.1S801.5,512,801.5,520.4z
			 M781,520.4c0,6.3,2.8,12.8,8.2,12.8s8.2-6.4,8.2-12.8s-2.8-12.8-8.2-12.8S781,514.1,781,520.4z"/>
		<path class="st4" d="M823,504.1c-4,3.8-12,10.4-13.9,15.4c1.6-2,4.2-4,7.2-4c6.4,0,10.3,4.9,10.3,10.2c0,5.7-4.2,11.8-11.1,11.8
			c-6.5,0-11.8-4.8-11.8-12.6c0-9.7,9.3-17.4,12.7-20.8H823z M808,526.2c0,4.4,3.7,7.4,7.4,7.4s7.2-2.9,7.2-7.4c0-4-3.5-6.7-7.2-6.7
			S808,522.2,808,526.2z"/>
	</g>
	<g>
		<rect x="563" y="350.9" class="st5" width="150.7" height="92.7"/>
	</g>
	<g class="st3">
		<path class="st4" d="M622,386h-17.7v-3.9h6.5v-21.3c-2,1.7-4.1,2.1-6.2,2.5v-4.2c3.8-1,6.6-3.4,8.4-5.9h2.1v28.8h6.8V386z"/>
		<path class="st4" d="M650.8,369.7c0,8.4-4,17.1-12.4,17.1s-12.4-8.7-12.4-17.1s4-17.1,12.4-17.1S650.8,361.3,650.8,369.7z
			 M630.2,369.7c0,6.3,2.8,12.8,8.2,12.8s8.2-6.4,8.2-12.8s-2.8-12.8-8.2-12.8S630.2,363.3,630.2,369.7z"/>
		<path class="st4" d="M660.4,357.4v8.7c1-0.4,2.1-0.7,4.2-0.7c5.4,0,10.1,4.3,10.1,10c0,6.6-5.1,11.3-12.1,11.3
			c-3.6,0-7.1-1.8-8.8-3.4v-4.8c1.9,1.5,4.9,4.2,8.8,4.2c4.4,0,7.9-2.8,7.9-7c0-4-3.8-6.5-8.2-6.5c-2.5,0-4.5,0.8-6.3,1.5v-17.5
			h17.3v4.1H660.4z"/>
	</g>
	<g>
		<rect x="563" y="501.6" class="st5" width="150.7" height="92.7"/>
	</g>
	<g class="st3">
		<path class="st4" d="M622.4,513c0,6.4-5.1,11-13.2,19.7h13.4v4.1h-20.5V535c10-11.1,16.1-16.7,16.1-21c0-4.2-3.2-6.3-7.1-6.3
			c-3.2,0-6.2,2-8.1,3.7v-4.6c1.7-1.6,4.7-3.4,8.4-3.4C618,503.3,622.4,507,622.4,513z"/>
		<path class="st4" d="M650.8,520.4c0,8.4-4,17.1-12.4,17.1s-12.4-8.7-12.4-17.1s4-17.1,12.4-17.1S650.8,512,650.8,520.4z
			 M630.2,520.4c0,6.3,2.8,12.8,8.2,12.8s8.2-6.4,8.2-12.8s-2.8-12.8-8.2-12.8S630.2,514.1,630.2,520.4z"/>
		<path class="st4" d="M676.5,525.8v3.7h-5.1v7.2H667v-7.2H652v-1.6c5.6-6,12.6-14,17.7-23.9h1.6v21.8H676.5z M667,514.8
			c-2.6,4.1-5.3,7.9-8.1,11h8.1V514.8z"/>
	</g>
	<g>
		<rect x="412.2" y="350.9" class="st5" width="150.7" height="92.7"/>
	</g>
	<g class="st3">
		<path class="st4" d="M471.3,386h-17.7v-3.9h6.5v-21.3c-2,1.7-4.1,2.1-6.2,2.5v-4.2c3.8-1,6.6-3.4,8.4-5.9h2.1v28.8h6.8V386z"/>
		<path class="st4" d="M500.1,369.7c0,8.4-4,17.1-12.4,17.1s-12.4-8.7-12.4-17.1s4-17.1,12.4-17.1S500.1,361.3,500.1,369.7z
			 M479.5,369.7c0,6.3,2.8,12.8,8.2,12.8s8.2-6.4,8.2-12.8s-2.8-12.8-8.2-12.8S479.5,363.3,479.5,369.7z"/>
		<path class="st4" d="M523.1,362c0,4.4-4,6.6-6.5,7.3c2.5,0.7,6.5,3.4,6.5,7.8c0,5.5-4.5,9.7-11,9.7c-3.9,0-7-1.6-8.7-3.1v-4.8
			c2.2,1.6,4.5,4,8.8,4c3.9,0,6.7-2.2,6.7-6c0-3.2-3.4-5.6-7-5.6h-2.9v-3.9h2.9c4.1,0,7-1.9,7-5.1c0-3.4-3.2-5.7-7.1-5.7
			c-3.4,0-5.6,1.7-7.4,3.6v-4.8c1.7-1.6,4.6-2.7,7.6-2.7C518.4,352.6,523.1,356.6,523.1,362z"/>
	</g>
	<g>
		<rect x="412.2" y="501.6" class="st5" width="150.7" height="92.7"/>
	</g>
	<g class="st3">
		<path class="st4" d="M471.6,513c0,6.4-5.1,11-13.2,19.7h13.4v4.1h-20.5V535c10-11.1,16.1-16.7,16.1-21c0-4.2-3.2-6.3-7.1-6.3
			c-3.2,0-6.2,2-8.1,3.7v-4.6c1.7-1.6,4.7-3.4,8.4-3.4C467.2,503.3,471.6,507,471.6,513z"/>
		<path class="st4" d="M500.1,520.4c0,8.4-4,17.1-12.4,17.1s-12.4-8.7-12.4-17.1s4-17.1,12.4-17.1S500.1,512,500.1,520.4z
			 M479.5,520.4c0,6.3,2.8,12.8,8.2,12.8s8.2-6.4,8.2-12.8s-2.8-12.8-8.2-12.8S479.5,514.1,479.5,520.4z"/>
		<path class="st4" d="M523.3,513c0,6.4-5.1,11-13.2,19.7h13.4v4.1h-20.5V535c10-11.1,16.1-16.7,16.1-21c0-4.2-3.2-6.3-7.1-6.3
			c-3.2,0-6.2,2-8.1,3.7v-4.6c1.7-1.6,4.7-3.4,8.4-3.4C518.9,503.3,523.3,507,523.3,513z"/>
	</g>
	<g>
		<rect x="261.5" y="350.9" class="st5" width="150.7" height="92.7"/>
	</g>
	<g class="st3">
		<path class="st4" d="M320.5,386h-17.7v-3.9h6.5v-21.3c-2,1.7-4.1,2.1-6.2,2.5v-4.2c3.8-1,6.6-3.4,8.4-5.9h2.1v28.8h6.8V386z"/>
		<path class="st4" d="M349.3,369.7c0,8.4-4,17.1-12.4,17.1s-12.4-8.7-12.4-17.1s4-17.1,12.4-17.1S349.3,361.3,349.3,369.7z
			 M328.8,369.7c0,6.3,2.8,12.8,8.2,12.8s8.2-6.4,8.2-12.8s-2.8-12.8-8.2-12.8S328.8,363.3,328.8,369.7z"/>
		<path class="st4" d="M372.2,386h-17.7v-3.9h6.5v-21.3c-2,1.7-4.1,2.1-6.2,2.5v-4.2c3.8-1,6.6-3.4,8.4-5.9h2.1v28.8h6.8V386z"/>
	</g>
	<g>
		<rect x="261.5" y="501.6" class="st5" width="150.7" height="92.7"/>
	</g>
	<g class="st3">
		<path class="st4" d="M320.9,513c0,6.4-5.1,11-13.2,19.7h13.4v4.1h-20.5V535c10-11.1,16.1-16.7,16.1-21c0-4.2-3.2-6.3-7.1-6.3
			c-3.2,0-6.2,2-8.1,3.7v-4.6c1.7-1.6,4.7-3.4,8.4-3.4C316.5,503.3,320.9,507,320.9,513z"/>
		<path class="st4" d="M349.3,520.4c0,8.4-4,17.1-12.4,17.1s-12.4-8.7-12.4-17.1s4-17.1,12.4-17.1S349.3,512,349.3,520.4z
			 M328.8,520.4c0,6.3,2.8,12.8,8.2,12.8s8.2-6.4,8.2-12.8s-2.8-12.8-8.2-12.8S328.8,514.1,328.8,520.4z"/>
		<path class="st4" d="M375.2,520.4c0,8.4-4,17.1-12.4,17.1s-12.4-8.7-12.4-17.1s4-17.1,12.4-17.1S375.2,512,375.2,520.4z
			 M354.6,520.4c0,6.3,2.8,12.8,8.2,12.8s8.2-6.4,8.2-12.8s-2.8-12.8-8.2-12.8S354.6,514.1,354.6,520.4z"/>
	</g>
	<g>
		<rect x="1316.7" y="1704.9" class="st5" width="150.7" height="92.7"/>
	</g>
	<g class="st3">
		<path class="st4" d="M1378.5,1729.1v3.7h-5.1v7.2h-4.4v-7.2H1354v-1.6c5.6-6,12.6-14,17.7-23.9h1.6v21.8H1378.5z M1369,1718
			c-2.6,4.1-5.3,7.9-8.1,11h8.1V1718z"/>
		<path class="st4" d="M1401.6,1740h-17.7v-3.9h6.5v-21.3c-2,1.7-4.1,2.1-6.2,2.5v-4.2c3.8-1,6.6-3.4,8.4-5.9h2.1v28.8h6.8V1740z"/>
		<path class="st4" d="M1414.2,1711.4v8.7c1-0.4,2.1-0.7,4.2-0.7c5.4,0,10.1,4.3,10.1,10c0,6.6-5.1,11.3-12.1,11.3
			c-3.6,0-7.1-1.8-8.8-3.4v-4.8c1.9,1.5,4.9,4.2,8.8,4.2c4.4,0,7.9-2.8,7.9-7c0-4-3.8-6.5-8.2-6.5c-2.5,0-4.5,0.8-6.3,1.5v-17.5
			h17.3v4.1H1414.2z"/>
	</g>
	<g>
		<rect x="1316.7" y="1855.6" class="st5" width="150.7" height="92.7"/>
	</g>
	<g class="st3">
		<path class="st4" d="M1362.4,1862.1v8.7c1-0.4,2.1-0.7,4.2-0.7c5.4,0,10.1,4.3,10.1,10c0,6.6-5.1,11.3-12.1,11.3
			c-3.6,0-7.1-1.8-8.8-3.4v-4.8c1.9,1.5,4.9,4.2,8.8,4.2c4.4,0,7.9-2.8,7.9-7c0-4-3.8-6.5-8.2-6.5c-2.5,0-4.5,0.8-6.3,1.5V1858h17.3
			v4.1H1362.4z"/>
		<path class="st4" d="M1401.6,1890.8h-17.7v-3.9h6.5v-21.3c-2,1.7-4.1,2.1-6.2,2.5v-4.2c3.8-1,6.6-3.4,8.4-5.9h2.1v28.8h6.8V1890.8
			z"/>
		<path class="st4" d="M1430.2,1879.8v3.7h-5.1v7.2h-4.4v-7.2h-14.9v-1.6c5.6-6,12.6-14,17.7-23.9h1.6v21.8H1430.2z M1420.7,1868.8
			c-2.6,4.1-5.3,7.9-8.1,11h8.1V1868.8z"/>
	</g>
	<g>
		<rect x="1165.9" y="1704.9" class="st5" width="150.7" height="92.7"/>
	</g>
	<g class="st3">
		<path class="st4" d="M1227.8,1729.1v3.7h-5.1v7.2h-4.4v-7.2h-14.9v-1.6c5.6-6,12.6-14,17.7-23.9h1.6v21.8H1227.8z M1218.2,1718
			c-2.6,4.1-5.3,7.9-8.1,11h8.1V1718z"/>
		<path class="st4" d="M1250.8,1740h-17.7v-3.9h6.5v-21.3c-2,1.7-4.1,2.1-6.2,2.5v-4.2c3.8-1,6.6-3.4,8.4-5.9h2.1v28.8h6.8V1740z"/>
		<path class="st4" d="M1276.8,1716c0,4.4-4,6.6-6.5,7.3c2.5,0.7,6.5,3.4,6.5,7.8c0,5.5-4.5,9.7-11,9.7c-3.9,0-7-1.6-8.7-3.1v-4.8
			c2.2,1.6,4.5,4,8.8,4c3.9,0,6.7-2.2,6.7-6c0-3.2-3.4-5.6-7-5.6h-2.9v-3.9h2.9c4.1,0,7-1.9,7-5.1c0-3.4-3.2-5.7-7.1-5.7
			c-3.4,0-5.6,1.7-7.4,3.6v-4.8c1.7-1.6,4.6-2.7,7.6-2.7C1272.2,1706.6,1276.8,1710.6,1276.8,1716z"/>
	</g>
	<g>
		<rect x="1165.9" y="1855.6" class="st5" width="150.7" height="92.7"/>
	</g>
	<g class="st3">
		<path class="st4" d="M1211.7,1862.1v8.7c1-0.4,2.1-0.7,4.2-0.7c5.4,0,10.1,4.3,10.1,10c0,6.6-5.1,11.3-12.1,11.3
			c-3.6,0-7.1-1.8-8.8-3.4v-4.8c1.9,1.5,4.9,4.2,8.8,4.2c4.4,0,7.9-2.8,7.9-7c0-4-3.8-6.5-8.2-6.5c-2.5,0-4.5,0.8-6.3,1.5V1858h17.3
			v4.1H1211.7z"/>
		<path class="st4" d="M1250.8,1890.8h-17.7v-3.9h6.5v-21.3c-2,1.7-4.1,2.1-6.2,2.5v-4.2c3.8-1,6.6-3.4,8.4-5.9h2.1v28.8h6.8V1890.8
			z"/>
		<path class="st4" d="M1277,1867c0,6.4-5.1,11-13.2,19.7h13.4v4.1h-20.5v-1.8c10-11.1,16.1-16.7,16.1-21c0-4.2-3.2-6.3-7.1-6.3
			c-3.2,0-6.2,2-8.1,3.7v-4.6c1.7-1.6,4.7-3.4,8.4-3.4C1272.6,1857.3,1277,1861,1277,1867z"/>
	</g>
	<g>
		<rect x="1015.2" y="1704.9" class="st5" width="150.7" height="92.7"/>
	</g>
	<g class="st3">
		<path class="st4" d="M1077,1729.1v3.7h-5.1v7.2h-4.4v-7.2h-14.9v-1.6c5.6-6,12.6-14,17.7-23.9h1.6v21.8H1077z M1067.5,1718
			c-2.6,4.1-5.3,7.9-8.1,11h8.1V1718z"/>
		<path class="st4" d="M1100.1,1740h-17.7v-3.9h6.5v-21.3c-2,1.7-4.1,2.1-6.2,2.5v-4.2c3.8-1,6.6-3.4,8.4-5.9h2.1v28.8h6.8V1740z"/>
		<path class="st4" d="M1126,1740h-17.7v-3.9h6.5v-21.3c-2,1.7-4.1,2.1-6.2,2.5v-4.2c3.8-1,6.6-3.4,8.4-5.9h2.1v28.8h6.8V1740z"/>
	</g>
	<g>
		<rect x="1015.2" y="1855.6" class="st5" width="150.7" height="92.7"/>
	</g>
	<g class="st3">
		<path class="st4" d="M1061,1862.1v8.7c1-0.4,2.1-0.7,4.2-0.7c5.4,0,10.1,4.3,10.1,10c0,6.6-5.1,11.3-12.1,11.3
			c-3.6,0-7.1-1.8-8.8-3.4v-4.8c1.9,1.5,4.9,4.2,8.8,4.2c4.4,0,7.9-2.8,7.9-7c0-4-3.8-6.5-8.2-6.5c-2.5,0-4.5,0.8-6.3,1.5V1858h17.3
			v4.1H1061z"/>
		<path class="st4" d="M1100.1,1890.8h-17.7v-3.9h6.5v-21.3c-2,1.7-4.1,2.1-6.2,2.5v-4.2c3.8-1,6.6-3.4,8.4-5.9h2.1v28.8h6.8V1890.8
			z"/>
		<path class="st4" d="M1128.9,1874.4c0,8.4-4,17.1-12.4,17.1s-12.4-8.7-12.4-17.1s4-17.1,12.4-17.1S1128.9,1866,1128.9,1874.4z
			 M1108.3,1874.4c0,6.3,2.8,12.8,8.2,12.8s8.2-6.4,8.2-12.8s-2.8-12.8-8.2-12.8S1108.3,1868.1,1108.3,1874.4z"/>
	</g>
	<g>
		<rect x="864.4" y="1704.9" class="st5" width="150.7" height="92.7"/>
	</g>
	<g class="st3">
		<path class="st4" d="M926.3,1729.1v3.7h-5.1v7.2h-4.4v-7.2h-14.9v-1.6c5.6-6,12.6-14,17.7-23.9h1.6v21.8H926.3z M916.8,1718
			c-2.6,4.1-5.3,7.9-8.1,11h8.1V1718z"/>
		<path class="st4" d="M952.3,1723.7c0,8.4-4,17.1-12.4,17.1s-12.4-8.7-12.4-17.1s4-17.1,12.4-17.1S952.3,1715.3,952.3,1723.7z
			 M931.7,1723.7c0,6.3,2.8,12.8,8.2,12.8s8.2-6.4,8.2-12.8s-2.8-12.8-8.2-12.8S931.7,1717.3,931.7,1723.7z"/>
		<path class="st4" d="M958.1,1740c4-3.8,12-10.4,13.9-15.4c-1.6,2-4.2,4-7.2,4c-6.4,0-10.3-4.9-10.3-10.2c0-5.7,4.2-11.8,11.1-11.8
			c6.5,0,11.8,4.8,11.8,12.6c0,9.7-9.3,17.4-12.7,20.8H958.1z M973.2,1717.9c0-4.4-3.7-7.4-7.4-7.4s-7.2,2.9-7.2,7.4
			c0,4,3.5,6.7,7.2,6.7S973.2,1721.9,973.2,1717.9z"/>
	</g>
	<g>
		<rect x="864.4" y="1855.6" class="st5" width="150.7" height="92.7"/>
	</g>
	<g class="st3">
		<path class="st4" d="M910.2,1862.1v8.7c1-0.4,2.1-0.7,4.2-0.7c5.4,0,10.1,4.3,10.1,10c0,6.6-5.1,11.3-12.1,11.3
			c-3.6,0-7.1-1.8-8.8-3.4v-4.8c1.9,1.5,4.9,4.2,8.8,4.2c4.4,0,7.9-2.8,7.9-7c0-4-3.8-6.5-8.2-6.5c-2.5,0-4.5,0.8-6.3,1.5V1858h17.3
			v4.1H910.2z"/>
		<path class="st4" d="M952.3,1874.4c0,8.4-4,17.1-12.4,17.1s-12.4-8.7-12.4-17.1s4-17.1,12.4-17.1S952.3,1866,952.3,1874.4z
			 M931.7,1874.4c0,6.3,2.8,12.8,8.2,12.8s8.2-6.4,8.2-12.8s-2.8-12.8-8.2-12.8S931.7,1868.1,931.7,1874.4z"/>
		<path class="st4" d="M975.5,1866c0,3.8-2.1,6-4.7,7.5c3.1,1.4,5.7,4.4,5.7,8.1c0,5.5-4.3,9.9-10.8,9.9s-10.8-4.4-10.8-9.9
			c0-3.7,2.6-6.7,5.7-8.1c-2.6-1.5-4.7-3.8-4.7-7.5c0-5.1,4.3-8.7,9.8-8.7S975.5,1860.9,975.5,1866z M959,1881.4
			c0,3.3,2.9,6.2,6.6,6.2s6.6-2.9,6.6-6.2s-3.4-5.9-6.6-5.9S959,1878.1,959,1881.4z M960,1866.5c0,3,2.9,4.9,5.7,4.9
			s5.7-1.9,5.7-4.9s-2.9-5.2-5.7-5.2S960,1863.5,960,1866.5z"/>
	</g>
	<g>
		<rect x="713.7" y="1704.9" class="st5" width="150.7" height="92.7"/>
	</g>
	<g class="st3">
		<path class="st4" d="M775.5,1729.1v3.7h-5.1v7.2H766v-7.2h-14.9v-1.6c5.6-6,12.6-14,17.7-23.9h1.6v21.8H775.5z M766,1718
			c-2.6,4.1-5.3,7.9-8.1,11h8.1V1718z"/>
		<path class="st4" d="M801.5,1723.7c0,8.4-4,17.1-12.4,17.1s-12.4-8.7-12.4-17.1s4-17.1,12.4-17.1S801.5,1715.3,801.5,1723.7z
			 M781,1723.7c0,6.3,2.8,12.8,8.2,12.8s8.2-6.4,8.2-12.8s-2.8-12.8-8.2-12.8S781,1717.3,781,1723.7z"/>
		<path class="st4" d="M826.6,1709.4c-8.2,11.7-12.8,19.8-12.8,30.7h-5c0-11.3,6.4-19.6,12.6-28.7H804v-4.1h22.6V1709.4z"/>
	</g>
	<g>
		<rect x="713.7" y="1855.6" class="st5" width="150.7" height="92.7"/>
	</g>
	<g class="st3">
		<path class="st4" d="M759.5,1862.1v8.7c1-0.4,2.1-0.7,4.2-0.7c5.4,0,10.1,4.3,10.1,10c0,6.6-5.1,11.3-12.1,11.3
			c-3.6,0-7.1-1.8-8.8-3.4v-4.8c1.9,1.5,4.9,4.2,8.8,4.2c4.4,0,7.9-2.8,7.9-7c0-4-3.8-6.5-8.2-6.5c-2.5,0-4.5,0.8-6.3,1.5V1858h17.3
			v4.1H759.5z"/>
		<path class="st4" d="M801.5,1874.4c0,8.4-4,17.1-12.4,17.1s-12.4-8.7-12.4-17.1s4-17.1,12.4-17.1S801.5,1866,801.5,1874.4z
			 M781,1874.4c0,6.3,2.8,12.8,8.2,12.8s8.2-6.4,8.2-12.8s-2.8-12.8-8.2-12.8S781,1868.1,781,1874.4z"/>
		<path class="st4" d="M823,1858c-4,3.8-12,10.4-13.9,15.4c1.6-2,4.2-4,7.2-4c6.4,0,10.3,4.9,10.3,10.2c0,5.7-4.2,11.8-11.1,11.8
			c-6.5,0-11.8-4.8-11.8-12.6c0-9.7,9.3-17.4,12.7-20.8H823z M808,1880.2c0,4.4,3.7,7.4,7.4,7.4s7.2-2.9,7.2-7.4
			c0-4-3.5-6.7-7.2-6.7S808,1876.2,808,1880.2z"/>
	</g>
	<g>
		<rect x="563" y="1704.9" class="st5" width="150.7" height="92.7"/>
	</g>
	<g class="st3">
		<path class="st4" d="M624.8,1729.1v3.7h-5.1v7.2h-4.4v-7.2h-14.9v-1.6c5.6-6,12.6-14,17.7-23.9h1.6v21.8H624.8z M615.3,1718
			c-2.6,4.1-5.3,7.9-8.1,11h8.1V1718z"/>
		<path class="st4" d="M650.8,1723.7c0,8.4-4,17.1-12.4,17.1s-12.4-8.7-12.4-17.1s4-17.1,12.4-17.1S650.8,1715.3,650.8,1723.7z
			 M630.2,1723.7c0,6.3,2.8,12.8,8.2,12.8s8.2-6.4,8.2-12.8s-2.8-12.8-8.2-12.8S630.2,1717.3,630.2,1723.7z"/>
		<path class="st4" d="M660.4,1711.4v8.7c1-0.4,2.1-0.7,4.2-0.7c5.4,0,10.1,4.3,10.1,10c0,6.6-5.1,11.3-12.1,11.3
			c-3.6,0-7.1-1.8-8.8-3.4v-4.8c1.9,1.5,4.9,4.2,8.8,4.2c4.4,0,7.9-2.8,7.9-7c0-4-3.8-6.5-8.2-6.5c-2.5,0-4.5,0.8-6.3,1.5v-17.5
			h17.3v4.1H660.4z"/>
	</g>
	<g>
		<rect x="563" y="1855.6" class="st5" width="150.7" height="92.7"/>
	</g>
	<g class="st3">
		<path class="st4" d="M608.7,1862.1v8.7c1-0.4,2.1-0.7,4.2-0.7c5.4,0,10.1,4.3,10.1,10c0,6.6-5.1,11.3-12.1,11.3
			c-3.6,0-7.1-1.8-8.8-3.4v-4.8c1.9,1.5,4.9,4.2,8.8,4.2c4.4,0,7.9-2.8,7.9-7c0-4-3.8-6.5-8.2-6.5c-2.5,0-4.5,0.8-6.3,1.5V1858h17.3
			v4.1H608.7z"/>
		<path class="st4" d="M650.8,1874.4c0,8.4-4,17.1-12.4,17.1s-12.4-8.7-12.4-17.1s4-17.1,12.4-17.1S650.8,1866,650.8,1874.4z
			 M630.2,1874.4c0,6.3,2.8,12.8,8.2,12.8s8.2-6.4,8.2-12.8s-2.8-12.8-8.2-12.8S630.2,1868.1,630.2,1874.4z"/>
		<path class="st4" d="M676.5,1879.8v3.7h-5.1v7.2H667v-7.2H652v-1.6c5.6-6,12.6-14,17.7-23.9h1.6v21.8H676.5z M667,1868.8
			c-2.6,4.1-5.3,7.9-8.1,11h8.1V1868.8z"/>
	</g>
	<g>
		<rect x="412.2" y="1704.9" class="st5" width="150.7" height="92.7"/>
	</g>
	<g class="st3">
		<path class="st4" d="M474.1,1729.1v3.7h-5.1v7.2h-4.4v-7.2h-14.9v-1.6c5.6-6,12.6-14,17.7-23.9h1.6v21.8H474.1z M464.5,1718
			c-2.6,4.1-5.3,7.9-8.1,11h8.1V1718z"/>
		<path class="st4" d="M500.1,1723.7c0,8.4-4,17.1-12.4,17.1s-12.4-8.7-12.4-17.1s4-17.1,12.4-17.1S500.1,1715.3,500.1,1723.7z
			 M479.5,1723.7c0,6.3,2.8,12.8,8.2,12.8s8.2-6.4,8.2-12.8s-2.8-12.8-8.2-12.8S479.5,1717.3,479.5,1723.7z"/>
		<path class="st4" d="M523.1,1716c0,4.4-4,6.6-6.5,7.3c2.5,0.7,6.5,3.4,6.5,7.8c0,5.5-4.5,9.7-11,9.7c-3.9,0-7-1.6-8.7-3.1v-4.8
			c2.2,1.6,4.5,4,8.8,4c3.9,0,6.7-2.2,6.7-6c0-3.2-3.4-5.6-7-5.6h-2.9v-3.9h2.9c4.1,0,7-1.9,7-5.1c0-3.4-3.2-5.7-7.1-5.7
			c-3.4,0-5.6,1.7-7.4,3.6v-4.8c1.7-1.6,4.6-2.7,7.6-2.7C518.4,1706.6,523.1,1710.6,523.1,1716z"/>
	</g>
	<g>
		<rect x="412.2" y="1855.6" class="st5" width="150.7" height="92.7"/>
	</g>
	<g class="st3">
		<path class="st4" d="M458,1862.1v8.7c1-0.4,2.1-0.7,4.2-0.7c5.4,0,10.1,4.3,10.1,10c0,6.6-5.1,11.3-12.1,11.3
			c-3.6,0-7.1-1.8-8.8-3.4v-4.8c1.9,1.5,4.9,4.2,8.8,4.2c4.4,0,7.9-2.8,7.9-7c0-4-3.8-6.5-8.2-6.5c-2.5,0-4.5,0.8-6.3,1.5V1858h17.3
			v4.1H458z"/>
		<path class="st4" d="M500.1,1874.4c0,8.4-4,17.1-12.4,17.1s-12.4-8.7-12.4-17.1s4-17.1,12.4-17.1S500.1,1866,500.1,1874.4z
			 M479.5,1874.4c0,6.3,2.8,12.8,8.2,12.8s8.2-6.4,8.2-12.8s-2.8-12.8-8.2-12.8S479.5,1868.1,479.5,1874.4z"/>
		<path class="st4" d="M523.3,1867c0,6.4-5.1,11-13.2,19.7h13.4v4.1h-20.5v-1.8c10-11.1,16.1-16.7,16.1-21c0-4.2-3.2-6.3-7.1-6.3
			c-3.2,0-6.2,2-8.1,3.7v-4.6c1.7-1.6,4.7-3.4,8.4-3.4C518.9,1857.3,523.3,1861,523.3,1867z"/>
	</g>
	<g>
		<rect x="261.5" y="1704.9" class="st5" width="150.7" height="92.7"/>
	</g>
	<g class="st3">
		<path class="st4" d="M323.3,1729.1v3.7h-5.1v7.2h-4.4v-7.2h-14.9v-1.6c5.6-6,12.6-14,17.7-23.9h1.6v21.8H323.3z M313.8,1718
			c-2.6,4.1-5.3,7.9-8.1,11h8.1V1718z"/>
		<path class="st4" d="M349.3,1723.7c0,8.4-4,17.1-12.4,17.1s-12.4-8.7-12.4-17.1s4-17.1,12.4-17.1S349.3,1715.3,349.3,1723.7z
			 M328.8,1723.7c0,6.3,2.8,12.8,8.2,12.8s8.2-6.4,8.2-12.8s-2.8-12.8-8.2-12.8S328.8,1717.3,328.8,1723.7z"/>
		<path class="st4" d="M372.2,1740h-17.7v-3.9h6.5v-21.3c-2,1.7-4.1,2.1-6.2,2.5v-4.2c3.8-1,6.6-3.4,8.4-5.9h2.1v28.8h6.8V1740z"/>
	</g>
	<g>
		<rect x="261.5" y="1855.6" class="st5" width="150.7" height="92.7"/>
	</g>
	<g class="st3">
		<path class="st4" d="M307.3,1862.1v8.7c1-0.4,2.1-0.7,4.2-0.7c5.4,0,10.1,4.3,10.1,10c0,6.6-5.1,11.3-12.1,11.3
			c-3.6,0-7.1-1.8-8.8-3.4v-4.8c1.9,1.5,4.9,4.2,8.8,4.2c4.4,0,7.9-2.8,7.9-7c0-4-3.8-6.5-8.2-6.5c-2.5,0-4.5,0.8-6.3,1.5V1858h17.3
			v4.1H307.3z"/>
		<path class="st4" d="M349.3,1874.4c0,8.4-4,17.1-12.4,17.1s-12.4-8.7-12.4-17.1s4-17.1,12.4-17.1S349.3,1866,349.3,1874.4z
			 M328.8,1874.4c0,6.3,2.8,12.8,8.2,12.8s8.2-6.4,8.2-12.8s-2.8-12.8-8.2-12.8S328.8,1868.1,328.8,1874.4z"/>
		<path class="st4" d="M375.2,1874.4c0,8.4-4,17.1-12.4,17.1s-12.4-8.7-12.4-17.1s4-17.1,12.4-17.1S375.2,1866,375.2,1874.4z
			 M354.6,1874.4c0,6.3,2.8,12.8,8.2,12.8s8.2-6.4,8.2-12.8s-2.8-12.8-8.2-12.8S354.6,1868.1,354.6,1874.4z"/>
	</g>
	<g>
		<rect x="713.7" y="803.9" class="st5" width="150.7" height="92.7"/>
	</g>
	<g class="st3">
		<path class="st4" d="M773.1,815.3c0,6.4-5.1,11-13.2,19.7h13.4v4.1h-20.5v-1.8c10-11.1,16.1-16.7,16.1-21c0-4.2-3.2-6.3-7.1-6.3
			c-3.2,0-6.2,2-8.1,3.7V809c1.7-1.6,4.7-3.4,8.4-3.4C768.7,805.6,773.1,809.3,773.1,815.3z"/>
		<path class="st4" d="M801.5,822.7c0,8.4-4,17.1-12.4,17.1s-12.4-8.7-12.4-17.1s4-17.1,12.4-17.1S801.5,814.3,801.5,822.7z
			 M781,822.7c0,6.3,2.8,12.8,8.2,12.8s8.2-6.4,8.2-12.8s-2.8-12.8-8.2-12.8S781,816.3,781,822.7z"/>
		<path class="st4" d="M826.6,808.4c-8.2,11.7-12.8,19.8-12.8,30.7h-5c0-11.3,6.4-19.6,12.6-28.7H804v-4.1h22.6V808.4z"/>
	</g>
	<g>
		<rect x="713.7" y="954.6" class="st5" width="150.7" height="92.7"/>
	</g>
	<g class="st3">
		<path class="st4" d="M772.9,965.8c0,4.4-4,6.6-6.5,7.3c2.5,0.7,6.5,3.4,6.5,7.8c0,5.5-4.5,9.7-11,9.7c-3.9,0-7-1.6-8.7-3.1v-4.8
			c2.2,1.6,4.5,4,8.8,4c3.9,0,6.7-2.2,6.7-6c0-3.2-3.4-5.6-7-5.6h-2.9v-3.9h2.9c4.1,0,7-1.9,7-5.1c0-3.4-3.2-5.7-7.1-5.7
			c-3.4,0-5.6,1.7-7.4,3.6v-4.8c1.7-1.6,4.6-2.7,7.6-2.7C768.2,956.3,772.9,960.3,772.9,965.8z"/>
		<path class="st4" d="M801.5,973.4c0,8.4-4,17.1-12.4,17.1s-12.4-8.7-12.4-17.1s4-17.1,12.4-17.1S801.5,965,801.5,973.4z
			 M781,973.4c0,6.3,2.8,12.8,8.2,12.8s8.2-6.4,8.2-12.8s-2.8-12.8-8.2-12.8S781,967.1,781,973.4z"/>
		<path class="st4" d="M823,957.1c-4,3.8-12,10.4-13.9,15.4c1.6-2,4.2-4,7.2-4c6.4,0,10.3,4.9,10.3,10.2c0,5.7-4.2,11.8-11.1,11.8
			c-6.5,0-11.8-4.8-11.8-12.6c0-9.7,9.3-17.4,12.7-20.8H823z M808,979.2c0,4.4,3.7,7.4,7.4,7.4s7.2-2.9,7.2-7.4c0-4-3.5-6.7-7.2-6.7
			S808,975.2,808,979.2z"/>
	</g>
	<g>
		<rect x="563" y="803.9" class="st5" width="150.7" height="92.7"/>
	</g>
	<g class="st3">
		<path class="st4" d="M622.4,815.3c0,6.4-5.1,11-13.2,19.7h13.4v4.1h-20.5v-1.8c10-11.1,16.1-16.7,16.1-21c0-4.2-3.2-6.3-7.1-6.3
			c-3.2,0-6.2,2-8.1,3.7V809c1.7-1.6,4.7-3.4,8.4-3.4C618,805.6,622.4,809.3,622.4,815.3z"/>
		<path class="st4" d="M650.8,822.7c0,8.4-4,17.1-12.4,17.1s-12.4-8.7-12.4-17.1s4-17.1,12.4-17.1S650.8,814.3,650.8,822.7z
			 M630.2,822.7c0,6.3,2.8,12.8,8.2,12.8s8.2-6.4,8.2-12.8s-2.8-12.8-8.2-12.8S630.2,816.3,630.2,822.7z"/>
		<path class="st4" d="M660.4,810.4v8.7c1-0.4,2.1-0.7,4.2-0.7c5.4,0,10.1,4.3,10.1,10c0,6.6-5.1,11.3-12.1,11.3
			c-3.6,0-7.1-1.8-8.8-3.4v-4.8c1.9,1.5,4.9,4.2,8.8,4.2c4.4,0,7.9-2.8,7.9-7c0-4-3.8-6.5-8.2-6.5c-2.5,0-4.5,0.8-6.3,1.5v-17.5
			h17.3v4.1H660.4z"/>
	</g>
	<g>
		<rect x="563" y="954.6" class="st5" width="150.7" height="92.7"/>
	</g>
	<g class="st3">
		<path class="st4" d="M622.2,965.8c0,4.4-4,6.6-6.5,7.3c2.5,0.7,6.5,3.4,6.5,7.8c0,5.5-4.5,9.7-11,9.7c-3.9,0-7-1.6-8.7-3.1v-4.8
			c2.2,1.6,4.5,4,8.8,4c3.9,0,6.7-2.2,6.7-6c0-3.2-3.4-5.6-7-5.6h-2.9v-3.9h2.9c4.1,0,7-1.9,7-5.1c0-3.4-3.2-5.7-7.1-5.7
			c-3.4,0-5.6,1.7-7.4,3.6v-4.8c1.7-1.6,4.6-2.7,7.6-2.7C617.5,956.3,622.2,960.3,622.2,965.8z"/>
		<path class="st4" d="M650.8,973.4c0,8.4-4,17.1-12.4,17.1s-12.4-8.7-12.4-17.1s4-17.1,12.4-17.1S650.8,965,650.8,973.4z
			 M630.2,973.4c0,6.3,2.8,12.8,8.2,12.8s8.2-6.4,8.2-12.8s-2.8-12.8-8.2-12.8S630.2,967.1,630.2,973.4z"/>
		<path class="st4" d="M676.5,978.8v3.7h-5.1v7.2H667v-7.2H652v-1.6c5.6-6,12.6-14,17.7-23.9h1.6v21.8H676.5z M667,967.8
			c-2.6,4.1-5.3,7.9-8.1,11h8.1V967.8z"/>
	</g>
	<g>
		<rect x="412.2" y="803.9" class="st5" width="150.7" height="92.7"/>
	</g>
	<g class="st3">
		<path class="st4" d="M471.6,815.3c0,6.4-5.1,11-13.2,19.7h13.4v4.1h-20.5v-1.8c10-11.1,16.1-16.7,16.1-21c0-4.2-3.2-6.3-7.1-6.3
			c-3.2,0-6.2,2-8.1,3.7V809c1.7-1.6,4.7-3.4,8.4-3.4C467.2,805.6,471.6,809.3,471.6,815.3z"/>
		<path class="st4" d="M500.1,822.7c0,8.4-4,17.1-12.4,17.1s-12.4-8.7-12.4-17.1s4-17.1,12.4-17.1S500.1,814.3,500.1,822.7z
			 M479.5,822.7c0,6.3,2.8,12.8,8.2,12.8s8.2-6.4,8.2-12.8s-2.8-12.8-8.2-12.8S479.5,816.3,479.5,822.7z"/>
		<path class="st4" d="M523.1,815c0,4.4-4,6.6-6.5,7.3c2.5,0.7,6.5,3.4,6.5,7.8c0,5.5-4.5,9.7-11,9.7c-3.9,0-7-1.6-8.7-3.1v-4.8
			c2.2,1.6,4.5,4,8.8,4c3.9,0,6.7-2.2,6.7-6c0-3.2-3.4-5.6-7-5.6h-2.9v-3.9h2.9c4.1,0,7-1.9,7-5.1c0-3.4-3.2-5.7-7.1-5.7
			c-3.4,0-5.6,1.7-7.4,3.6v-4.8c1.7-1.6,4.6-2.7,7.6-2.7C518.4,805.6,523.1,809.6,523.1,815z"/>
	</g>
	<g>
		<rect x="412.2" y="954.6" class="st5" width="150.7" height="92.7"/>
	</g>
	<g class="st3">
		<path class="st4" d="M471.4,965.8c0,4.4-4,6.6-6.5,7.3c2.5,0.7,6.5,3.4,6.5,7.8c0,5.5-4.5,9.7-11,9.7c-3.9,0-7-1.6-8.7-3.1v-4.8
			c2.2,1.6,4.5,4,8.8,4c3.9,0,6.7-2.2,6.7-6c0-3.2-3.4-5.6-7-5.6h-2.9v-3.9h2.9c4.1,0,7-1.9,7-5.1c0-3.4-3.2-5.7-7.1-5.7
			c-3.4,0-5.6,1.7-7.4,3.6v-4.8c1.7-1.6,4.6-2.7,7.6-2.7C466.7,956.3,471.4,960.3,471.4,965.8z"/>
		<path class="st4" d="M500.1,973.4c0,8.4-4,17.1-12.4,17.1s-12.4-8.7-12.4-17.1s4-17.1,12.4-17.1S500.1,965,500.1,973.4z
			 M479.5,973.4c0,6.3,2.8,12.8,8.2,12.8s8.2-6.4,8.2-12.8s-2.8-12.8-8.2-12.8S479.5,967.1,479.5,973.4z"/>
		<path class="st4" d="M523.3,966c0,6.4-5.1,11-13.2,19.7h13.4v4.1h-20.5V988c10-11.1,16.1-16.7,16.1-21c0-4.2-3.2-6.3-7.1-6.3
			c-3.2,0-6.2,2-8.1,3.7v-4.6c1.7-1.6,4.7-3.4,8.4-3.4C518.9,956.3,523.3,960,523.3,966z"/>
	</g>
	<g>
		<rect x="261.5" y="803.9" class="st5" width="150.7" height="92.7"/>
	</g>
	<g class="st3">
		<path class="st4" d="M320.9,815.3c0,6.4-5.1,11-13.2,19.7h13.4v4.1h-20.5v-1.8c10-11.1,16.1-16.7,16.1-21c0-4.2-3.2-6.3-7.1-6.3
			c-3.2,0-6.2,2-8.1,3.7V809c1.7-1.6,4.7-3.4,8.4-3.4C316.5,805.6,320.9,809.3,320.9,815.3z"/>
		<path class="st4" d="M349.3,822.7c0,8.4-4,17.1-12.4,17.1s-12.4-8.7-12.4-17.1s4-17.1,12.4-17.1S349.3,814.3,349.3,822.7z
			 M328.8,822.7c0,6.3,2.8,12.8,8.2,12.8s8.2-6.4,8.2-12.8s-2.8-12.8-8.2-12.8S328.8,816.3,328.8,822.7z"/>
		<path class="st4" d="M372.2,839h-17.7v-3.9h6.5v-21.3c-2,1.7-4.1,2.1-6.2,2.5v-4.2c3.8-1,6.6-3.4,8.4-5.9h2.1v28.8h6.8V839z"/>
	</g>
	<g>
		<rect x="261.5" y="1252.4" class="st5" width="150.7" height="92.7"/>
	</g>
	<g class="st3">
		<path class="st4" d="M320.7,1263.5c0,4.4-4,6.6-6.5,7.3c2.5,0.7,6.5,3.4,6.5,7.8c0,5.5-4.5,9.7-11,9.7c-3.9,0-7-1.6-8.7-3.1v-4.8
			c2.2,1.6,4.5,4,8.8,4c3.9,0,6.7-2.2,6.7-6c0-3.2-3.4-5.6-7-5.6h-2.9v-3.9h2.9c4.1,0,7-1.9,7-5.1c0-3.4-3.2-5.7-7.1-5.7
			c-3.4,0-5.6,1.7-7.4,3.6v-4.8c1.7-1.6,4.6-2.7,7.6-2.7C316,1254.1,320.7,1258.1,320.7,1263.5z"/>
		<path class="st4" d="M349.3,1271.2c0,8.4-4,17.1-12.4,17.1s-12.4-8.7-12.4-17.1s4-17.1,12.4-17.1S349.3,1262.8,349.3,1271.2z
			 M328.8,1271.2c0,6.3,2.8,12.8,8.2,12.8s8.2-6.4,8.2-12.8s-2.8-12.8-8.2-12.8S328.8,1264.8,328.8,1271.2z"/>
		<path class="st4" d="M372.2,1287.5h-17.7v-3.9h6.5v-21.3c-2,1.7-4.1,2.1-6.2,2.5v-4.2c3.8-1,6.6-3.4,8.4-5.9h2.1v28.8h6.8V1287.5z
			"/>
	</g>
	<g>
		<rect x="261.5" y="954.6" class="st5" width="150.7" height="92.7"/>
	</g>
	<g class="st3">
		<path class="st4" d="M320.7,965.8c0,4.4-4,6.6-6.5,7.3c2.5,0.7,6.5,3.4,6.5,7.8c0,5.5-4.5,9.7-11,9.7c-3.9,0-7-1.6-8.7-3.1v-4.8
			c2.2,1.6,4.5,4,8.8,4c3.9,0,6.7-2.2,6.7-6c0-3.2-3.4-5.6-7-5.6h-2.9v-3.9h2.9c4.1,0,7-1.9,7-5.1c0-3.4-3.2-5.7-7.1-5.7
			c-3.4,0-5.6,1.7-7.4,3.6v-4.8c1.7-1.6,4.6-2.7,7.6-2.7C316,956.3,320.7,960.3,320.7,965.8z"/>
		<path class="st4" d="M349.3,973.4c0,8.4-4,17.1-12.4,17.1s-12.4-8.7-12.4-17.1s4-17.1,12.4-17.1S349.3,965,349.3,973.4z
			 M328.8,973.4c0,6.3,2.8,12.8,8.2,12.8s8.2-6.4,8.2-12.8s-2.8-12.8-8.2-12.8S328.8,967.1,328.8,973.4z"/>
		<path class="st4" d="M375.2,973.4c0,8.4-4,17.1-12.4,17.1s-12.4-8.7-12.4-17.1s4-17.1,12.4-17.1S375.2,965,375.2,973.4z
			 M354.6,973.4c0,6.3,2.8,12.8,8.2,12.8s8.2-6.4,8.2-12.8s-2.8-12.8-8.2-12.8S354.6,967.1,354.6,973.4z"/>
	</g>
	<g>
		<rect x="864.4" y="1252.3" class="st5" width="150.7" height="92.7"/>
	</g>
	<g class="st3">
		<path class="st4" d="M923.6,1263.5c0,4.4-4,6.6-6.5,7.3c2.5,0.7,6.5,3.4,6.5,7.8c0,5.5-4.5,9.7-11,9.7c-3.9,0-7-1.6-8.7-3.1v-4.8
			c2.2,1.6,4.5,4,8.8,4c3.9,0,6.7-2.2,6.7-6c0-3.2-3.4-5.6-7-5.6h-2.9v-3.9h2.9c4.1,0,7-1.9,7-5.1c0-3.4-3.2-5.7-7.1-5.7
			c-3.4,0-5.6,1.7-7.4,3.6v-4.8c1.7-1.6,4.6-2.7,7.6-2.7C919,1254,923.6,1258,923.6,1263.5z"/>
		<path class="st4" d="M952.3,1271.1c0,8.4-4,17.1-12.4,17.1s-12.4-8.7-12.4-17.1s4-17.1,12.4-17.1S952.3,1262.7,952.3,1271.1z
			 M931.7,1271.1c0,6.3,2.8,12.8,8.2,12.8s8.2-6.4,8.2-12.8s-2.8-12.8-8.2-12.8S931.7,1264.8,931.7,1271.1z"/>
		<path class="st4" d="M958.1,1287.5c4-3.8,12-10.4,13.9-15.4c-1.6,2-4.2,4-7.2,4c-6.4,0-10.3-4.9-10.3-10.2
			c0-5.7,4.2-11.8,11.1-11.8c6.5,0,11.8,4.8,11.8,12.6c0,9.7-9.3,17.4-12.7,20.8H958.1z M973.2,1265.4c0-4.4-3.7-7.4-7.4-7.4
			s-7.2,2.9-7.2,7.4c0,4,3.5,6.7,7.2,6.7S973.2,1269.3,973.2,1265.4z"/>
	</g>
	<g>
		<rect x="159.5" y="1864.5" class="st5" width="75.3" height="46.4"/>
	</g>
	<g>
		<rect x="864.4" y="1403.1" class="st5" width="150.7" height="92.7"/>
	</g>
	<g class="st3">
		<path class="st4" d="M926.3,1427.3v3.7h-5.1v7.2h-4.4v-7.2h-14.9v-1.6c5.6-6,12.6-14,17.7-23.9h1.6v21.8H926.3z M916.8,1416.2
			c-2.6,4.1-5.3,7.9-8.1,11h8.1V1416.2z"/>
		<path class="st4" d="M952.3,1421.9c0,8.4-4,17.1-12.4,17.1s-12.4-8.7-12.4-17.1s4-17.1,12.4-17.1S952.3,1413.5,952.3,1421.9z
			 M931.7,1421.9c0,6.3,2.8,12.8,8.2,12.8s8.2-6.4,8.2-12.8s-2.8-12.8-8.2-12.8S931.7,1415.5,931.7,1421.9z"/>
		<path class="st4" d="M975.5,1413.5c0,3.8-2.1,6-4.7,7.5c3.1,1.4,5.7,4.4,5.7,8.1c0,5.5-4.3,9.9-10.8,9.9s-10.8-4.4-10.8-9.9
			c0-3.7,2.6-6.7,5.7-8.1c-2.6-1.5-4.7-3.8-4.7-7.5c0-5.1,4.3-8.7,9.8-8.7S975.5,1408.3,975.5,1413.5z M959,1428.8
			c0,3.3,2.9,6.2,6.6,6.2s6.6-2.9,6.6-6.2s-3.4-5.9-6.6-5.9S959,1425.6,959,1428.8z M960,1414c0,3,2.9,4.9,5.7,4.9s5.7-1.9,5.7-4.9
			s-2.9-5.2-5.7-5.2S960,1410.9,960,1414z"/>
	</g>
	<g>
		<rect x="713.7" y="1252.4" class="st5" width="150.7" height="92.7"/>
	</g>
	<g class="st3">
		<path class="st4" d="M772.9,1263.5c0,4.4-4,6.6-6.5,7.3c2.5,0.7,6.5,3.4,6.5,7.8c0,5.5-4.5,9.7-11,9.7c-3.9,0-7-1.6-8.7-3.1v-4.8
			c2.2,1.6,4.5,4,8.8,4c3.9,0,6.7-2.2,6.7-6c0-3.2-3.4-5.6-7-5.6h-2.9v-3.9h2.9c4.1,0,7-1.9,7-5.1c0-3.4-3.2-5.7-7.1-5.7
			c-3.4,0-5.6,1.7-7.4,3.6v-4.8c1.7-1.6,4.6-2.7,7.6-2.7C768.2,1254.1,772.9,1258.1,772.9,1263.5z"/>
		<path class="st4" d="M801.5,1271.2c0,8.4-4,17.1-12.4,17.1s-12.4-8.7-12.4-17.1s4-17.1,12.4-17.1S801.5,1262.8,801.5,1271.2z
			 M781,1271.2c0,6.3,2.8,12.8,8.2,12.8s8.2-6.4,8.2-12.8s-2.8-12.8-8.2-12.8S781,1264.8,781,1271.2z"/>
		<path class="st4" d="M826.6,1256.9c-8.2,11.7-12.8,19.8-12.8,30.7h-5c0-11.3,6.4-19.6,12.6-28.7H804v-4.1h22.6V1256.9z"/>
	</g>
	<g>
		<rect x="713.7" y="1403.1" class="st5" width="150.7" height="92.7"/>
	</g>
	<g class="st3">
		<path class="st4" d="M775.5,1427.3v3.7h-5.1v7.2H766v-7.2h-14.9v-1.6c5.6-6,12.6-14,17.7-23.9h1.6v21.8H775.5z M766,1416.3
			c-2.6,4.1-5.3,7.9-8.1,11h8.1V1416.3z"/>
		<path class="st4" d="M801.5,1421.9c0,8.4-4,17.1-12.4,17.1s-12.4-8.7-12.4-17.1s4-17.1,12.4-17.1S801.5,1413.5,801.5,1421.9z
			 M781,1421.9c0,6.3,2.8,12.8,8.2,12.8s8.2-6.4,8.2-12.8s-2.8-12.8-8.2-12.8S781,1415.6,781,1421.9z"/>
		<path class="st4" d="M823,1405.5c-4,3.8-12,10.4-13.9,15.4c1.6-2,4.2-4,7.2-4c6.4,0,10.3,4.9,10.3,10.2c0,5.7-4.2,11.8-11.1,11.8
			c-6.5,0-11.8-4.8-11.8-12.6c0-9.7,9.3-17.4,12.7-20.8H823z M808,1427.7c0,4.4,3.7,7.4,7.4,7.4s7.2-2.9,7.2-7.4
			c0-4-3.5-6.7-7.2-6.7S808,1423.7,808,1427.7z"/>
	</g>
	<g>
		<rect x="563" y="1252.4" class="st5" width="150.7" height="92.7"/>
	</g>
	<g class="st3">
		<path class="st4" d="M622.2,1263.5c0,4.4-4,6.6-6.5,7.3c2.5,0.7,6.5,3.4,6.5,7.8c0,5.5-4.5,9.7-11,9.7c-3.9,0-7-1.6-8.7-3.1v-4.8
			c2.2,1.6,4.5,4,8.8,4c3.9,0,6.7-2.2,6.7-6c0-3.2-3.4-5.6-7-5.6h-2.9v-3.9h2.9c4.1,0,7-1.9,7-5.1c0-3.4-3.2-5.7-7.1-5.7
			c-3.4,0-5.6,1.7-7.4,3.6v-4.8c1.7-1.6,4.6-2.7,7.6-2.7C617.5,1254.1,622.2,1258.1,622.2,1263.5z"/>
		<path class="st4" d="M650.8,1271.2c0,8.4-4,17.1-12.4,17.1s-12.4-8.7-12.4-17.1s4-17.1,12.4-17.1S650.8,1262.8,650.8,1271.2z
			 M630.2,1271.2c0,6.3,2.8,12.8,8.2,12.8s8.2-6.4,8.2-12.8s-2.8-12.8-8.2-12.8S630.2,1264.8,630.2,1271.2z"/>
		<path class="st4" d="M660.4,1258.9v8.7c1-0.4,2.1-0.7,4.2-0.7c5.4,0,10.1,4.3,10.1,10c0,6.6-5.1,11.3-12.1,11.3
			c-3.6,0-7.1-1.8-8.8-3.4v-4.8c1.9,1.5,4.9,4.2,8.8,4.2c4.4,0,7.9-2.8,7.9-7c0-4-3.8-6.5-8.2-6.5c-2.5,0-4.5,0.8-6.3,1.5v-17.5
			h17.3v4.1H660.4z"/>
	</g>
	<g>
		<rect x="563" y="1403.1" class="st5" width="150.7" height="92.7"/>
	</g>
	<g class="st3">
		<path class="st4" d="M624.8,1427.3v3.7h-5.1v7.2h-4.4v-7.2h-14.9v-1.6c5.6-6,12.6-14,17.7-23.9h1.6v21.8H624.8z M615.3,1416.3
			c-2.6,4.1-5.3,7.9-8.1,11h8.1V1416.3z"/>
		<path class="st4" d="M650.8,1421.9c0,8.4-4,17.1-12.4,17.1s-12.4-8.7-12.4-17.1s4-17.1,12.4-17.1S650.8,1413.5,650.8,1421.9z
			 M630.2,1421.9c0,6.3,2.8,12.8,8.2,12.8s8.2-6.4,8.2-12.8s-2.8-12.8-8.2-12.8S630.2,1415.6,630.2,1421.9z"/>
		<path class="st4" d="M676.5,1427.3v3.7h-5.1v7.2H667v-7.2H652v-1.6c5.6-6,12.6-14,17.7-23.9h1.6v21.8H676.5z M667,1416.3
			c-2.6,4.1-5.3,7.9-8.1,11h8.1V1416.3z"/>
	</g>
	<g>
		<rect x="412.2" y="1252.4" class="st5" width="150.7" height="92.7"/>
	</g>
	<g class="st3">
		<path class="st4" d="M471.4,1263.5c0,4.4-4,6.6-6.5,7.3c2.5,0.7,6.5,3.4,6.5,7.8c0,5.5-4.5,9.7-11,9.7c-3.9,0-7-1.6-8.7-3.1v-4.8
			c2.2,1.6,4.5,4,8.8,4c3.9,0,6.7-2.2,6.7-6c0-3.2-3.4-5.6-7-5.6h-2.9v-3.9h2.9c4.1,0,7-1.9,7-5.1c0-3.4-3.2-5.7-7.1-5.7
			c-3.4,0-5.6,1.7-7.4,3.6v-4.8c1.7-1.6,4.6-2.7,7.6-2.7C466.7,1254.1,471.4,1258.1,471.4,1263.5z"/>
		<path class="st4" d="M500.1,1271.2c0,8.4-4,17.1-12.4,17.1s-12.4-8.7-12.4-17.1s4-17.1,12.4-17.1S500.1,1262.8,500.1,1271.2z
			 M479.5,1271.2c0,6.3,2.8,12.8,8.2,12.8s8.2-6.4,8.2-12.8s-2.8-12.8-8.2-12.8S479.5,1264.8,479.5,1271.2z"/>
		<path class="st4" d="M523.1,1263.5c0,4.4-4,6.6-6.5,7.3c2.5,0.7,6.5,3.4,6.5,7.8c0,5.5-4.5,9.7-11,9.7c-3.9,0-7-1.6-8.7-3.1v-4.8
			c2.2,1.6,4.5,4,8.8,4c3.9,0,6.7-2.2,6.7-6c0-3.2-3.4-5.6-7-5.6h-2.9v-3.9h2.9c4.1,0,7-1.9,7-5.1c0-3.4-3.2-5.7-7.1-5.7
			c-3.4,0-5.6,1.7-7.4,3.6v-4.8c1.7-1.6,4.6-2.7,7.6-2.7C518.4,1254.1,523.1,1258.1,523.1,1263.5z"/>
	</g>
	<g>
		<rect x="412.2" y="1403.1" class="st5" width="150.7" height="92.7"/>
	</g>
	<g class="st3">
		<path class="st4" d="M474.1,1427.3v3.7h-5.1v7.2h-4.4v-7.2h-14.9v-1.6c5.6-6,12.6-14,17.7-23.9h1.6v21.8H474.1z M464.5,1416.3
			c-2.6,4.1-5.3,7.9-8.1,11h8.1V1416.3z"/>
		<path class="st4" d="M500.1,1421.9c0,8.4-4,17.1-12.4,17.1s-12.4-8.7-12.4-17.1s4-17.1,12.4-17.1S500.1,1413.5,500.1,1421.9z
			 M479.5,1421.9c0,6.3,2.8,12.8,8.2,12.8s8.2-6.4,8.2-12.8s-2.8-12.8-8.2-12.8S479.5,1415.6,479.5,1421.9z"/>
		<path class="st4" d="M523.3,1414.5c0,6.4-5.1,11-13.2,19.7h13.4v4.1h-20.5v-1.8c10-11.1,16.1-16.7,16.1-21c0-4.2-3.2-6.3-7.1-6.3
			c-3.2,0-6.2,2-8.1,3.7v-4.6c1.7-1.6,4.7-3.4,8.4-3.4C518.9,1404.8,523.3,1408.5,523.3,1414.5z"/>
	</g>
	<g>
		<rect x="261.5" y="1403.1" class="st5" width="150.7" height="92.7"/>
	</g>
	<g class="st3">
		<path class="st4" d="M323.3,1427.3v3.7h-5.1v7.2h-4.4v-7.2h-14.9v-1.6c5.6-6,12.6-14,17.7-23.9h1.6v21.8H323.3z M313.8,1416.3
			c-2.6,4.1-5.3,7.9-8.1,11h8.1V1416.3z"/>
		<path class="st4" d="M349.3,1421.9c0,8.4-4,17.1-12.4,17.1s-12.4-8.7-12.4-17.1s4-17.1,12.4-17.1S349.3,1413.5,349.3,1421.9z
			 M328.8,1421.9c0,6.3,2.8,12.8,8.2,12.8s8.2-6.4,8.2-12.8s-2.8-12.8-8.2-12.8S328.8,1415.6,328.8,1421.9z"/>
		<path class="st4" d="M375.2,1421.9c0,8.4-4,17.1-12.4,17.1s-12.4-8.7-12.4-17.1s4-17.1,12.4-17.1S375.2,1413.5,375.2,1421.9z
			 M354.6,1421.9c0,6.3,2.8,12.8,8.2,12.8s8.2-6.4,8.2-12.8s-2.8-12.8-8.2-12.8S354.6,1415.6,354.6,1421.9z"/>
	</g>
	<g>
		<rect x="14.2" y="1979.1" class="st6" width="41.4" height="200"/>
		<g>
			<rect x="62.2" y="1991.1" class="st4" width="29.4" height="27.5"/>
			<rect x="62.2" y="2039.5" class="st4" width="29.4" height="27.5"/>
			<rect x="62.1" y="2087.8" class="st4" width="29.4" height="27.5"/>
			<rect x="62.2" y="2136.1" class="st4" width="29.4" height="27.5"/>
		</g>
	</g>
	<g class="st3">
		<path class="st4" d="M35.8,2338.3c1,0.3,1.9,0.8,2.7,1.4c0.7,0.7,1.4,1.6,2,2.8l4.8,9.8h4v2.3h-7.8l-5.1-10.5
			c-1-2-1.9-3.3-2.7-3.9c-0.8-0.6-2-0.9-3.4-0.9h-4.9v13H30v2.3H16.6v-2.3h4.2V2324h-4.2v-2.4h16.7c3.2,0,5.7,0.8,7.4,2.3
			c1.7,1.5,2.6,3.7,2.6,6.5c0,2.3-0.6,4.1-1.9,5.4S38.3,2337.9,35.8,2338.3z M25.3,2336.9h6.5c2.2,0,3.9-0.5,4.9-1.6
			c1.1-1.1,1.6-2.7,1.6-4.9c0-2.2-0.5-3.8-1.6-4.9c-1.1-1-2.7-1.6-4.9-1.6h-6.5V2336.9z"/>
		<path class="st4" d="M71.7,2343.3H54.2v0.2c0,3.2,0.6,5.6,1.8,7.2c1.2,1.6,3,2.4,5.3,2.4c1.8,0,3.2-0.5,4.4-1.4
			c1.1-0.9,1.9-2.3,2.4-4.2h3.3c-0.6,2.6-1.8,4.5-3.6,5.8c-1.7,1.3-4,1.9-6.9,1.9c-3.4,0-6.2-1.1-8.3-3.4c-2.1-2.3-3.1-5.3-3.1-9
			c0-3.7,1-6.7,3.1-9c2-2.3,4.7-3.4,8.1-3.4c3.5,0,6.3,1.1,8.2,3.3S71.6,2339.2,71.7,2343.3z M66.9,2341c-0.1-2.7-0.7-4.8-1.7-6.2
			c-1.1-1.4-2.6-2.1-4.6-2.1c-1.9,0-3.3,0.7-4.4,2.1c-1.1,1.4-1.7,3.5-2,6.2H66.9z"/>
		<path class="st4" d="M96.7,2333.5v20.6c0,3.4-0.9,6-2.8,7.8c-1.9,1.8-4.5,2.8-7.9,2.8c-1.5,0-3-0.1-4.4-0.4
			c-1.4-0.3-2.8-0.7-4.1-1.3v-4.9h2.1c0.3,1.5,0.9,2.7,1.9,3.4s2.4,1.1,4.2,1.1c2.4,0,4.1-0.7,5.2-2c1.1-1.3,1.7-3.5,1.7-6.4v-3.2
			c-0.8,1.5-1.8,2.6-3,3.3c-1.2,0.7-2.8,1-4.6,1c-2.9,0-5.2-1.1-7.1-3.4c-1.8-2.3-2.8-5.3-2.8-9s0.9-6.7,2.7-8.9s4.2-3.4,7.1-3.4
			c1.8,0,3.3,0.3,4.6,1c1.2,0.7,2.2,1.8,3,3.3v-3.7h8v2.4H96.7z M92.7,2341.7c0-2.8-0.5-5-1.6-6.5s-2.7-2.2-4.7-2.2
			c-2.1,0-3.7,0.8-4.7,2.5c-1.1,1.6-1.6,4.1-1.6,7.4c0,3.2,0.5,5.7,1.6,7.4c1.1,1.7,2.6,2.5,4.7,2.5c2.1,0,3.6-0.7,4.7-2.2
			s1.6-3.6,1.6-6.5V2341.7z"/>
		<path class="st4" d="M110.5,2352.3h3.8v2.3h-11.8v-2.3h3.9v-18.8h-3.9v-2.4h8V2352.3z M105.3,2323.9c0-0.7,0.2-1.3,0.7-1.8
			c0.5-0.5,1.1-0.8,1.8-0.8c0.7,0,1.3,0.3,1.8,0.8c0.5,0.5,0.7,1.1,0.7,1.8c0,0.7-0.2,1.3-0.7,1.8s-1.1,0.7-1.8,0.7
			s-1.3-0.2-1.8-0.7S105.3,2324.6,105.3,2323.9z"/>
		<path class="st4" d="M116.9,2353.3v-5.5h2.3c0.1,1.8,0.6,3.1,1.6,3.9c1,0.9,2.6,1.3,4.6,1.3c1.8,0,3.2-0.3,4.2-1
			c1-0.7,1.4-1.7,1.4-3c0-1-0.4-1.9-1-2.5c-0.7-0.6-2.2-1.3-4.4-2l-2.9-1c-2-0.6-3.5-1.5-4.4-2.4c-0.9-1-1.4-2.2-1.4-3.7
			c0-2.2,0.8-3.8,2.4-5.1c1.6-1.2,3.8-1.8,6.5-1.8c1.2,0,2.5,0.2,3.9,0.5c1.4,0.3,2.8,0.8,4.2,1.4v5.1h-2.3
			c-0.1-1.5-0.6-2.7-1.6-3.6c-1-0.9-2.4-1.3-4.1-1.3c-1.7,0-3,0.3-3.9,0.9c-0.9,0.6-1.3,1.5-1.3,2.7c0,1,0.3,1.8,1,2.4s2,1.2,4,1.8
			l3.2,1c2.2,0.7,3.8,1.6,4.8,2.6c1,1,1.5,2.4,1.5,4c0,2.2-0.9,4-2.6,5.2c-1.7,1.3-4,1.9-7,1.9c-1.5,0-3-0.2-4.4-0.5
			C119.8,2354.5,118.4,2354,116.9,2353.3z"/>
		<path class="st4" d="M141.5,2333.5h-3.6v-2.4h3.6v-7.3h4.1v7.3h7.6v2.4h-7.6v14.9c0,2,0.2,3.3,0.6,3.8c0.4,0.6,1.1,0.8,2.1,0.8
			c1.1,0,1.8-0.3,2.3-0.9c0.5-0.6,0.7-1.6,0.8-3h3.1c-0.1,2.1-0.7,3.7-1.7,4.7c-1,1-2.6,1.5-4.8,1.5c-2.3,0-4-0.5-5-1.6
			s-1.5-2.8-1.5-5.3V2333.5z"/>
		<path class="st4" d="M175.4,2331.1v5.9h-2.3c-0.1-1.2-0.4-2-1-2.6c-0.6-0.6-1.4-0.9-2.5-0.9c-2,0-3.5,0.7-4.6,2.1
			c-1.1,1.4-1.6,3.4-1.6,6v10.7h4.7v2.3h-12.4v-2.3h3.7v-18.8h-3.9v-2.3h8v4.2c0.8-1.6,1.8-2.8,3.1-3.6c1.3-0.8,2.8-1.2,4.6-1.2
			c0.7,0,1.4,0.1,2.1,0.2C173.9,2330.8,174.6,2330.9,175.4,2331.1z"/>
		<path class="st4" d="M196.5,2340v12.3h3.6v2.3h-7.7v-2.5c-0.9,1.1-1.9,1.9-3.1,2.4c-1.2,0.5-2.6,0.8-4.1,0.8
			c-2.6,0-4.7-0.7-6.2-2.1c-1.5-1.4-2.3-3.3-2.3-5.6c0-2.4,0.9-4.3,2.6-5.7c1.8-1.3,4.2-2,7.4-2h5.7v-1.6c0-1.8-0.5-3.2-1.6-4.1
			s-2.6-1.5-4.6-1.5c-1.6,0-2.9,0.4-3.9,1.1c-1,0.7-1.6,1.8-1.8,3.3h-2.1v-4.7c1.4-0.6,2.8-1.1,4.1-1.4c1.3-0.3,2.6-0.5,3.9-0.5
			c3.3,0,5.7,0.8,7.4,2.4C195.7,2334.5,196.5,2336.9,196.5,2340z M192.5,2347.3v-5h-5.2c-2,0-3.5,0.4-4.5,1.3s-1.5,2.2-1.5,4
			c0,1.6,0.5,2.9,1.5,3.9c1,1,2.4,1.4,4.1,1.4c1.7,0,3.1-0.5,4.1-1.6C191.9,2350.3,192.5,2348.9,192.5,2347.3z"/>
		<path class="st4" d="M205.3,2333.5h-3.6v-2.4h3.6v-7.3h4.1v7.3h7.6v2.4h-7.6v14.9c0,2,0.2,3.3,0.6,3.8c0.4,0.6,1.1,0.8,2.1,0.8
			c1.1,0,1.8-0.3,2.3-0.9c0.5-0.6,0.7-1.6,0.8-3h3.1c-0.1,2.1-0.7,3.7-1.7,4.7c-1,1-2.6,1.5-4.8,1.5c-2.3,0-4-0.5-5-1.6
			s-1.5-2.8-1.5-5.3V2333.5z"/>
		<path class="st4" d="M227.2,2352.3h3.8v2.3h-11.8v-2.3h3.9v-18.8h-3.9v-2.4h8V2352.3z M222,2323.9c0-0.7,0.2-1.3,0.7-1.8
			c0.5-0.5,1.1-0.8,1.8-0.8c0.7,0,1.3,0.3,1.8,0.8c0.5,0.5,0.7,1.1,0.7,1.8c0,0.7-0.2,1.3-0.7,1.8c-0.5,0.5-1.1,0.7-1.8,0.7
			c-0.7,0-1.3-0.2-1.8-0.7C222.3,2325.1,222,2324.6,222,2323.9z"/>
		<path class="st4" d="M244.7,2355.3c-3.4,0-6.2-1.1-8.2-3.4c-2.1-2.3-3.1-5.3-3.1-9s1-6.7,3.1-9c2.1-2.3,4.8-3.4,8.3-3.4
			s6.2,1.1,8.3,3.4c2.1,2.3,3.1,5.3,3.1,9s-1,6.7-3.1,9C250.9,2354.2,248.1,2355.3,244.7,2355.3z M244.7,2353.1
			c2.2,0,3.8-0.9,4.9-2.6c1.1-1.7,1.7-4.3,1.7-7.6s-0.6-5.9-1.7-7.6s-2.8-2.6-4.9-2.6s-3.8,0.9-4.9,2.6s-1.7,4.3-1.7,7.6
			s0.6,5.9,1.7,7.6C240.9,2352.2,242.5,2353.1,244.7,2353.1z"/>
		<path class="st4" d="M259.2,2354.6v-2.3h3.7v-18.8H259v-2.4h8v4.2c0.8-1.6,1.7-2.8,2.9-3.6s2.6-1.2,4.2-1.2c2.6,0,4.5,0.7,5.7,2.2
			c1.2,1.5,1.8,3.8,1.8,7v12.6h3.6v2.3H274v-2.3h3.5V2341c0-2.9-0.4-4.8-1.1-5.9c-0.7-1.1-2-1.6-3.7-1.6c-1.9,0-3.3,0.7-4.3,2.1
			c-1,1.4-1.5,3.4-1.5,6v10.7h3.5v2.3H259.2z"/>
	</g>
	<g>
		<rect x="14.1" y="2256.7" class="st6" width="200" height="41.4"/>
		<g>
			<rect x="26.1" y="2220.7" class="st4" width="27.5" height="29.4"/>
			<rect x="74.4" y="2220.7" class="st4" width="27.5" height="29.4"/>
			<rect x="122.8" y="2220.7" class="st4" width="27.5" height="29.4"/>
			<rect x="171.1" y="2220.7" class="st4" width="27.5" height="29.4"/>
		</g>
	</g>
	<g>
		<rect x="169.5" y="1091.5" class="st4" width="240.1" height="63.7"/>
		<polygon class="st4" points="387.3,1180.1 387.3,1067.9 448.3,1124 		"/>
	</g>
	<g class="st3">
		<path class="st7" d="M186.9,1140.2v-2.3h4.1v-27.5h-4.1v-2.3h25.9v7.1h-2.6v-4.5h-14.8v10.8h10.5v-4h2.6v10.7h-2.6v-4h-10.5v13.4
			h15.1v-4.5h2.6v7.1H186.9z"/>
		<path class="st7" d="M217.5,1140.2v-2.3h3.6v-18.3h-3.8v-2.3h7.7v4.1c0.7-1.5,1.7-2.7,2.9-3.5c1.2-0.8,2.5-1.2,4.1-1.2
			c2.5,0,4.4,0.7,5.6,2.2c1.2,1.4,1.8,3.7,1.8,6.8v12.3h3.5v2.3h-10.9v-2.3h3.4v-11c0-2.8-0.3-4.7-1-5.8c-0.7-1-1.9-1.6-3.6-1.6
			c-1.8,0-3.2,0.7-4.2,2c-1,1.3-1.4,3.3-1.4,5.9v10.5h3.4v2.3H217.5z"/>
		<path class="st7" d="M247.9,1119.7h-3.5v-2.3h3.5v-7.1h4v7.1h7.4v2.3h-7.4v14.5c0,1.9,0.2,3.2,0.6,3.7s1.1,0.8,2.1,0.8
			c1,0,1.8-0.3,2.3-0.9c0.5-0.6,0.7-1.6,0.8-3h3c-0.1,2.1-0.7,3.6-1.7,4.6c-1,1-2.6,1.4-4.6,1.4c-2.3,0-3.9-0.5-4.8-1.5
			c-0.9-1-1.4-2.7-1.4-5.2V1119.7z"/>
		<path class="st7" d="M280.9,1117.3v5.7h-2.3c-0.1-1.1-0.4-2-0.9-2.5c-0.6-0.6-1.4-0.8-2.5-0.8c-2,0-3.4,0.7-4.5,2
			c-1,1.3-1.6,3.3-1.6,5.8v10.5h4.6v2.3h-12.1v-2.3h3.6v-18.3h-3.8v-2.3h7.7v4.1c0.8-1.6,1.8-2.8,3-3.5c1.2-0.8,2.7-1.2,4.5-1.2
			c0.6,0,1.3,0,2,0.2S280.1,1117.1,280.9,1117.3z"/>
		<path class="st7" d="M301.4,1125.9v12h3.5v2.3h-7.5v-2.5c-0.9,1.1-1.9,1.8-3,2.3s-2.5,0.8-4,0.8c-2.5,0-4.6-0.7-6-2
			c-1.5-1.3-2.2-3.2-2.2-5.5c0-2.4,0.9-4.2,2.6-5.5c1.7-1.3,4.1-2,7.2-2h5.6v-1.6c0-1.7-0.5-3.1-1.6-4s-2.5-1.4-4.4-1.4
			c-1.6,0-2.8,0.4-3.8,1.1c-0.9,0.7-1.5,1.8-1.7,3.2h-2v-4.6c1.4-0.6,2.7-1,4-1.3s2.6-0.4,3.8-0.4c3.2,0,5.6,0.8,7.2,2.4
			S301.4,1122.9,301.4,1125.9z M297.5,1133v-4.8h-5.1c-2,0-3.4,0.4-4.4,1.3c-1,0.8-1.4,2.1-1.4,3.9c0,1.6,0.5,2.9,1.5,3.8
			c1,0.9,2.3,1.4,4,1.4c1.6,0,3-0.5,4-1.5C297,1136,297.5,1134.7,297.5,1133z"/>
		<path class="st7" d="M307,1140.2v-2.3h3.6v-18.3h-3.8v-2.3h7.7v4.1c0.7-1.5,1.7-2.7,2.9-3.5c1.2-0.8,2.5-1.2,4.1-1.2
			c2.5,0,4.4,0.7,5.6,2.2c1.2,1.4,1.8,3.7,1.8,6.8v12.3h3.5v2.3h-10.9v-2.3h3.4v-11c0-2.8-0.3-4.7-1-5.8c-0.7-1-1.9-1.6-3.6-1.6
			c-1.8,0-3.2,0.7-4.2,2c-1,1.3-1.4,3.3-1.4,5.9v10.5h3.4v2.3H307z"/>
		<path class="st7" d="M355.3,1133.4c-0.6,2.4-1.6,4.3-3.2,5.6c-1.6,1.3-3.7,1.9-6.2,1.9c-3.3,0-6-1.1-8-3.3c-2-2.2-3-5.1-3-8.8
			c0-3.7,1-6.6,3-8.8c2-2.2,4.7-3.3,8-3.3c1.4,0,2.9,0.2,4.3,0.5c1.4,0.3,2.9,0.9,4.3,1.5v5.9h-2.3c-0.3-2-1-3.5-2-4.4
			s-2.5-1.4-4.3-1.4c-2.1,0-3.8,0.8-4.8,2.5c-1.1,1.7-1.6,4.1-1.6,7.4c0,3.3,0.5,5.8,1.6,7.4c1.1,1.7,2.7,2.5,4.9,2.5
			c1.7,0,3.1-0.4,4.1-1.3c1-0.9,1.7-2.2,2.1-4H355.3z"/>
		<path class="st7" d="M380.2,1129.2h-17.1v0.2c0,3.1,0.6,5.4,1.7,7c1.2,1.6,2.9,2.4,5.1,2.4c1.7,0,3.2-0.5,4.3-1.4
			c1.1-0.9,1.9-2.3,2.3-4.1h3.2c-0.6,2.5-1.8,4.4-3.5,5.7c-1.7,1.3-3.9,1.9-6.7,1.9c-3.3,0-6-1.1-8.1-3.3c-2-2.2-3-5.1-3-8.8
			c0-3.6,1-6.5,3-8.7c2-2.2,4.6-3.3,7.9-3.3c3.5,0,6.1,1.1,8,3.2C379.2,1122.1,380.2,1125.2,380.2,1129.2z M375.6,1126.9
			c-0.1-2.7-0.6-4.7-1.7-6s-2.5-2-4.5-2c-1.8,0-3.3,0.7-4.3,2c-1,1.4-1.7,3.4-1.9,6H375.6z"/>
	</g>
</g>
</svg>
