<?xml version="1.0" encoding="utf-8"?>
<!-- Generator: Adobe Illustrator 22.0.1, SVG Export Plug-In . SVG Version: 6.00 Build 0)  -->
<svg version="1.1" id="Layer_1" xmlns="http://www.w3.org/2000/svg" xmlns:xlink="http://www.w3.org/1999/xlink" x="0px" y="0px"
	 viewBox="0 0 2135.2 2606.2" style="enable-background:new 0 0 2135.2 2606.2;" xml:space="preserve">
<style type="text/css">
	.st0{opacity:0.4;}
	.st1{fill:#FBE0B5;}
	.st2{opacity:0.8;enable-background:new    ;}
	.st3{enable-background:new    ;}
	.st4{fill:#828282;}
	.st5{fill:none;}
	.st6{fill:#A0A0A0;}
	.st7{opacity:0.1;enable-background:new    ;}
	.st8{fill:#FFFFFF;}
</style>
<g id="Layer_4">
	<g class="st0">
		<g>
			<rect x="415.6" y="200" class="st1" width="1476" height="2114"/>
		</g>
		<g>
			<g>
				<path class="st1" d="M1654.1,2364v-50h-46.4C1607.7,2314,1606.6,2358,1654.1,2364z"/>
			</g>
			<g>
				<path class="st1" d="M1563.7,2364v-50h46.4C1610.1,2314,1611.2,2358,1563.7,2364z"/>
			</g>
		</g>
		<g>
			<g>
				<path class="st1" d="M1549.1,2364v-50h-46.4C1502.7,2314,1501.6,2358,1549.1,2364z"/>
			</g>
			<g>
				<path class="st1" d="M1458.7,2364v-50h46.4C1505.1,2314,1506.2,2358,1458.7,2364z"/>
			</g>
		</g>
		<g>
			<g>
				<path class="st1" d="M864.1,2364v-50h-46.4C817.7,2314,816.6,2358,864.1,2364z"/>
			</g>
			<g>
				<path class="st1" d="M773.7,2364v-50h46.4C820.1,2314,821.2,2358,773.7,2364z"/>
			</g>
		</g>
		<g>
			<g>
				<path class="st1" d="M759.1,2364v-50h-46.4C712.7,2314,711.6,2358,759.1,2364z"/>
			</g>
			<g>
				<path class="st1" d="M668.7,2364v-50h46.4C715.1,2314,716.2,2358,668.7,2364z"/>
			</g>
		</g>
		<g>
			<g>
				<path class="st1" d="M365.9,2077.8h50v-46.4C415.9,2031.4,371.9,2030.3,365.9,2077.8z"/>
			</g>
			<g>
				<path class="st1" d="M365.9,1987.4h50v46.4C415.9,2033.7,371.9,2034.9,365.9,1987.4z"/>
			</g>
		</g>
		<g>
			<g>
				<path class="st1" d="M365.9,1972.8h50v-46.4C415.9,1926.4,371.9,1925.3,365.9,1972.8z"/>
			</g>
			<g>
				<path class="st1" d="M365.9,1882.4h50v46.4C415.9,1928.7,371.9,1929.9,365.9,1882.4z"/>
			</g>
		</g>
		<g>
			<g>
				<path class="st1" d="M365.9,1354.7h50v-46.4C415.9,1308.4,371.9,1307.2,365.9,1354.7z"/>
			</g>
			<g>
				<path class="st1" d="M365.9,1264.4h50v46.4C415.9,1310.7,371.9,1311.9,365.9,1264.4z"/>
			</g>
		</g>
		<g>
			<g>
				<path class="st1" d="M365.9,1249.7h50v-46.4C415.9,1203.4,371.9,1202.2,365.9,1249.7z"/>
			</g>
			<g>
				<path class="st1" d="M365.9,1159.4h50v46.4C415.9,1205.7,371.9,1206.8,365.9,1159.4z"/>
			</g>
		</g>
		<g>
			<g>
				<path class="st1" d="M365.9,634.7h50v-46.4C415.9,588.4,371.9,587.2,365.9,634.7z"/>
			</g>
			<g>
				<path class="st1" d="M365.9,544.4h50v46.4C415.9,590.7,371.9,591.9,365.9,544.4z"/>
			</g>
		</g>
		<g>
			<g>
				<path class="st1" d="M365.9,529.7h50v-46.4C415.9,483.4,371.9,482.2,365.9,529.7z"/>
			</g>
			<g>
				<path class="st1" d="M365.9,439.4h50v46.4C415.9,485.7,371.9,486.8,365.9,439.4z"/>
			</g>
		</g>
		<g>
			<g>
				<path class="st1" d="M774.6,150v50H821C821,200,822.1,156,774.6,150z"/>
			</g>
			<g>
				<path class="st1" d="M865,150v50h-46.4C818.7,200,817.5,156,865,150z"/>
			</g>
		</g>
		<g>
			<g>
				<path class="st1" d="M1113.6,150v50h46.4C1160,200,1161.1,156,1113.6,150z"/>
			</g>
			<g>
				<path class="st1" d="M1204,150v50h-46.4C1157.7,200,1156.5,156,1204,150z"/>
			</g>
		</g>
		<g>
			<g>
				<path class="st1" d="M1510.4,150v50h46.4C1556.7,200,1557.8,156,1510.4,150z"/>
			</g>
			<g>
				<path class="st1" d="M1600.7,150v50h-46.4C1554.4,200,1553.2,156,1600.7,150z"/>
			</g>
		</g>
		<g>
			<g>
				<path class="st1" d="M1204.1,2364v-50h-46.4C1157.7,2314,1156.6,2358,1204.1,2364z"/>
			</g>
			<g>
				<path class="st1" d="M1113.7,2364v-50h46.4C1160.1,2314,1161.2,2358,1113.7,2364z"/>
			</g>
		</g>
	</g>
</g>
<g id="Layer_3">
	<g class="st2">
		<rect x="550.6" y="1331" class="st1" width="150.7" height="150.7"/>
	</g>
	<g class="st2">
		<rect x="1605.8" y="429.6" class="st1" width="150.7" height="150.7"/>
	</g>
	<g class="st2">
		<rect x="1605.8" y="580.3" class="st1" width="150.7" height="150.7"/>
	</g>
	<g class="st2">
		<rect x="1455" y="429.6" class="st1" width="150.7" height="150.7"/>
	</g>
	<g class="st2">
		<rect x="1455.1" y="580.3" class="st1" width="150.7" height="150.7"/>
	</g>
	<g class="st2">
		<rect x="1304.3" y="429.5" class="st1" width="150.7" height="150.7"/>
	</g>
	<g class="st2">
		<rect x="1304.3" y="580.3" class="st1" width="150.7" height="150.7"/>
	</g>
	<g class="st2">
		<rect x="1153.5" y="429.6" class="st1" width="150.7" height="150.7"/>
	</g>
	<g class="st2">
		<rect x="1153.6" y="580.3" class="st1" width="150.7" height="150.7"/>
	</g>
	<g class="st2">
		<rect x="1002.8" y="429.6" class="st1" width="150.7" height="150.7"/>
	</g>
	<g class="st2">
		<rect x="1002.8" y="580.4" class="st1" width="150.7" height="150.7"/>
	</g>
	<g class="st2">
		<rect x="852" y="429.6" class="st1" width="150.7" height="150.7"/>
	</g>
	<g class="st2">
		<rect x="852.1" y="580.3" class="st1" width="150.7" height="150.7"/>
	</g>
	<g class="st2">
		<rect x="701.3" y="429.6" class="st1" width="150.7" height="150.7"/>
	</g>
	<g class="st2">
		<rect x="701.3" y="580.3" class="st1" width="150.7" height="150.7"/>
	</g>
	<g class="st2">
		<rect x="550.6" y="429.5" class="st1" width="150.7" height="150.7"/>
	</g>
	<g class="st2">
		<rect x="550.6" y="580.3" class="st1" width="150.7" height="150.7"/>
	</g>
	<g class="st2">
		<rect x="1605.8" y="1781" class="st1" width="150.7" height="150.7"/>
	</g>
	<g class="st2">
		<rect x="1605.7" y="1931.7" class="st1" width="150.7" height="150.7"/>
	</g>
	<g class="st2">
		<rect x="1455" y="1781" class="st1" width="150.7" height="150.7"/>
	</g>
	<g class="st2">
		<rect x="1455" y="1931.8" class="st1" width="150.7" height="150.7"/>
	</g>
	<g class="st2">
		<rect x="1304.3" y="1781" class="st1" width="150.7" height="150.7"/>
	</g>
	<g class="st2">
		<rect x="1304.2" y="1931.7" class="st1" width="150.7" height="150.7"/>
	</g>
	<g class="st2">
		<rect x="1153.6" y="1781" class="st1" width="150.7" height="150.7"/>
	</g>
	<g class="st2">
		<rect x="1153.5" y="1931.8" class="st1" width="150.7" height="150.7"/>
	</g>
	<g class="st2">
		<rect x="1002.8" y="1781.1" class="st1" width="150.7" height="150.7"/>
	</g>
	<g class="st2">
		<rect x="1002.8" y="1931.8" class="st1" width="150.7" height="150.7"/>
	</g>
	<g class="st2">
		<rect x="852.1" y="1781" class="st1" width="150.7" height="150.7"/>
	</g>
	<g class="st2">
		<rect x="852" y="1931.7" class="st1" width="150.7" height="150.7"/>
	</g>
	<g class="st2">
		<rect x="701.3" y="1781" class="st1" width="150.7" height="150.7"/>
	</g>
	<g class="st2">
		<rect x="701.3" y="1931.8" class="st1" width="150.7" height="150.7"/>
	</g>
	<g class="st2">
		<rect x="550.6" y="1781" class="st1" width="150.7" height="150.7"/>
	</g>
	<g class="st2">
		<rect x="550.5" y="1931.7" class="st1" width="150.7" height="150.7"/>
	</g>
	<g class="st2">
		<rect x="1153.5" y="882.6" class="st1" width="150.7" height="150.7"/>
	</g>
	<g class="st2">
		<rect x="1153.5" y="1033.3" class="st1" width="150.7" height="150.7"/>
	</g>
	<g class="st2">
		<rect x="1002.8" y="882.6" class="st1" width="150.7" height="150.7"/>
	</g>
	<g class="st2">
		<rect x="1002.8" y="1033.3" class="st1" width="150.7" height="150.7"/>
	</g>
	<g class="st2">
		<rect x="852" y="882.5" class="st1" width="150.7" height="150.7"/>
	</g>
	<g class="st2">
		<rect x="852.1" y="1033.3" class="st1" width="150.7" height="150.7"/>
	</g>
	<g class="st2">
		<rect x="701.3" y="882.6" class="st1" width="150.7" height="150.7"/>
	</g>
	<g class="st2">
		<rect x="701.3" y="1033.3" class="st1" width="150.7" height="150.7"/>
	</g>
	<g class="st2">
		<rect x="550.5" y="882.5" class="st1" width="150.7" height="150.7"/>
	</g>
	<g class="st2">
		<rect x="550.6" y="1033.3" class="st1" width="150.7" height="150.7"/>
	</g>
	<g class="st2">
		<rect x="1153.6" y="1331" class="st1" width="150.7" height="150.7"/>
	</g>
	<g class="st2">
		<rect x="1153.5" y="1481.8" class="st1" width="150.7" height="150.7"/>
	</g>
	<g class="st2">
		<rect x="1002.8" y="1331.1" class="st1" width="150.7" height="150.7"/>
	</g>
	<g class="st2">
		<rect x="1002.8" y="1481.8" class="st1" width="150.7" height="150.7"/>
	</g>
	<g class="st2">
		<rect x="852.1" y="1331" class="st1" width="150.7" height="150.7"/>
	</g>
	<g class="st2">
		<rect x="852" y="1481.8" class="st1" width="150.7" height="150.7"/>
	</g>
	<g class="st2">
		<rect x="701.4" y="1331.1" class="st1" width="150.7" height="150.7"/>
	</g>
	<g class="st2">
		<rect x="701.3" y="1481.8" class="st1" width="150.7" height="150.7"/>
	</g>
	<g class="st2">
		<rect x="550.6" y="1331" class="st1" width="150.7" height="150.7"/>
	</g>
	<g class="st2">
		<rect x="550.6" y="1481.7" class="st1" width="150.7" height="150.7"/>
	</g>
</g>
<g id="Layer_1_1_">
	<g class="st3">
		<path class="st4" d="M1499.7,1195.9v-3.5h6.3v-41.6h-14.4v7.7h-4v-11.6h43.5v11.6h-4v-7.7h-14.4v41.6h6.3v3.5H1499.7z"/>
		<path class="st4" d="M1561.9,1161v8.7h-3.5c-0.1-1.7-0.6-3-1.4-3.9s-2.1-1.3-3.7-1.3c-3,0-5.3,1-6.8,3.1c-1.6,2.1-2.4,5-2.4,8.9
			v16h7v3.5h-18.5v-3.5h5.5v-28h-5.8v-3.4h11.8v6.2c1.2-2.4,2.7-4.2,4.6-5.4c1.9-1.2,4.1-1.8,6.8-1.8c1,0,2,0.1,3.1,0.2
			C1559.6,1160.5,1560.7,1160.7,1561.9,1161z"/>
		<path class="st4" d="M1574.2,1192.5h5.7v3.5h-17.5v-3.5h5.8v-27.9h-5.8v-3.5h11.8V1192.5z M1566.5,1150.2c0-1,0.4-1.9,1.1-2.6
			s1.6-1.1,2.6-1.1c1,0,1.9,0.4,2.6,1.1c0.7,0.7,1.1,1.6,1.1,2.6c0,1-0.4,1.9-1.1,2.6c-0.7,0.7-1.6,1.1-2.6,1.1
			c-1,0-1.9-0.4-2.6-1.1C1566.9,1152.1,1566.5,1151.2,1566.5,1150.2z"/>
		<path class="st4" d="M1587.3,1192.5v-44.1h-5.8v-3.5h11.9v21.6c1.2-2.2,2.7-3.8,4.5-4.8c1.8-1,4.1-1.6,6.8-1.6
			c4.3,0,7.8,1.7,10.5,5.1c2.7,3.4,4.1,7.8,4.1,13.3s-1.4,9.9-4.1,13.3c-2.7,3.4-6.2,5.1-10.5,5.1c-2.7,0-5-0.5-6.8-1.6
			c-1.8-1-3.3-2.7-4.5-4.8v5.5h-11.9v-3.5H1587.3z M1593.3,1180.2c0,4.2,0.8,7.4,2.4,9.6c1.6,2.2,3.9,3.3,7,3.3c3.1,0,5.4-1.2,7-3.7
			s2.4-6.1,2.4-10.9c0-4.8-0.8-8.5-2.4-10.9c-1.6-2.5-3.9-3.7-7-3.7c-3.1,0-5.4,1.1-7,3.3c-1.6,2.2-2.4,5.4-2.4,9.6V1180.2z"/>
		<path class="st4" d="M1653.4,1174.1v18.3h5.4v3.5h-11.4v-3.8c-1.3,1.6-2.9,2.8-4.6,3.6c-1.8,0.8-3.8,1.1-6.1,1.1
			c-3.9,0-7-1-9.2-3.1c-2.3-2.1-3.4-4.8-3.4-8.3c0-3.6,1.3-6.4,3.9-8.4c2.6-2,6.3-3,11-3h8.5v-2.4c0-2.6-0.8-4.7-2.4-6.2
			c-1.6-1.5-3.9-2.2-6.8-2.2c-2.4,0-4.3,0.5-5.7,1.6s-2.3,2.7-2.7,4.9h-3.1v-7.1c2.1-0.9,4.1-1.6,6.1-2c2-0.4,3.9-0.7,5.8-0.7
			c4.8,0,8.5,1.2,11,3.6C1652.2,1166.1,1653.4,1169.6,1653.4,1174.1z M1647.4,1185v-7.4h-7.8c-3,0-5.2,0.6-6.7,1.9
			c-1.5,1.3-2.2,3.3-2.2,5.9c0,2.4,0.7,4.4,2.2,5.8c1.5,1.4,3.5,2.1,6,2.1c2.5,0,4.5-0.8,6.1-2.3
			C1646.6,1189.5,1647.4,1187.5,1647.4,1185z"/>
		<path class="st4" d="M1672.6,1192.5h5.7v3.5h-17.6v-3.5h5.8v-44.1h-5.8v-3.5h11.9V1192.5z"/>
	</g>
	<g class="st3">
		<path class="st4" d="M1456.5,1265.4v-3.5h6.2v-42h-6.2v-3.5h19.1v3.5h-6.2v41.5h22.4v-8.2h4v12.2H1456.5z"/>
		<path class="st4" d="M1531.9,1248.6h-26v0.3c0,4.7,0.9,8.3,2.7,10.7c1.8,2.4,4.4,3.6,7.8,3.6c2.6,0,4.8-0.7,6.5-2.1
			c1.7-1.4,2.9-3.5,3.6-6.2h4.9c-1,3.8-2.7,6.7-5.3,8.6c-2.6,1.9-6,2.9-10.2,2.9c-5.1,0-9.2-1.7-12.3-5c-3.1-3.4-4.6-7.8-4.6-13.4
			c0-5.5,1.5-10,4.6-13.3c3-3.4,7-5.1,12-5.1c5.3,0,9.3,1.6,12.1,4.9S1531.8,1242.4,1531.9,1248.6z M1524.8,1245.2
			c-0.1-4.1-1-7.1-2.6-9.2c-1.6-2.1-3.9-3.1-6.8-3.1c-2.8,0-5,1-6.6,3.1c-1.6,2.1-2.6,5.1-2.9,9.2H1524.8z"/>
		<path class="st4" d="M1566.1,1243.6v18.3h5.4v3.5h-11.4v-3.8c-1.3,1.6-2.9,2.8-4.6,3.6c-1.8,0.8-3.8,1.1-6.1,1.1
			c-3.9,0-7-1-9.2-3.1c-2.3-2.1-3.4-4.8-3.4-8.3c0-3.6,1.3-6.4,3.9-8.4c2.6-2,6.3-3,11-3h8.5v-2.4c0-2.6-0.8-4.7-2.4-6.2
			c-1.6-1.5-3.9-2.2-6.8-2.2c-2.4,0-4.3,0.5-5.7,1.6c-1.4,1.1-2.3,2.7-2.7,4.9h-3.1v-7.1c2.1-0.9,4.1-1.6,6.1-2
			c2-0.4,3.9-0.7,5.8-0.7c4.8,0,8.5,1.2,11,3.6C1564.9,1235.6,1566.1,1239.1,1566.1,1243.6z M1560.1,1254.5v-7.4h-7.8
			c-3,0-5.2,0.6-6.7,1.9c-1.5,1.3-2.2,3.3-2.2,5.9c0,2.4,0.7,4.4,2.2,5.8s3.5,2.1,6,2.1c2.5,0,4.5-0.8,6.1-2.3
			C1559.3,1259,1560.1,1257,1560.1,1254.5z"/>
		<path class="st4" d="M1606.8,1262h5.8v3.5h-11.8v-5.5c-1.2,2.2-2.7,3.8-4.5,4.8c-1.8,1-4.1,1.6-6.8,1.6c-4.3,0-7.8-1.7-10.5-5.1
			c-2.7-3.4-4.1-7.8-4.1-13.3s1.4-9.9,4.1-13.3c2.7-3.4,6.2-5.1,10.5-5.1c2.7,0,5,0.5,6.8,1.6c1.8,1,3.3,2.7,4.5,4.8v-18.2h-5.7
			v-3.5h11.8V1262z M1600.7,1249.7v-3.4c0-4.2-0.8-7.4-2.4-9.6c-1.6-2.2-3.9-3.3-7-3.3c-3.1,0-5.5,1.2-7,3.7
			c-1.6,2.5-2.4,6.1-2.4,10.9c0,4.8,0.8,8.5,2.4,10.9c1.6,2.5,3.9,3.7,7,3.7c3.1,0,5.4-1.1,7-3.3
			C1599.9,1257.1,1600.7,1253.9,1600.7,1249.7z"/>
		<path class="st4" d="M1649,1248.6h-26v0.3c0,4.7,0.9,8.3,2.7,10.7c1.8,2.4,4.4,3.6,7.8,3.6c2.6,0,4.8-0.7,6.5-2.1
			c1.7-1.4,2.9-3.5,3.6-6.2h4.9c-1,3.8-2.7,6.7-5.3,8.6c-2.6,1.9-6,2.9-10.2,2.9c-5.1,0-9.2-1.7-12.3-5c-3.1-3.4-4.6-7.8-4.6-13.4
			c0-5.5,1.5-10,4.6-13.3c3-3.4,7-5.1,12-5.1c5.3,0,9.3,1.6,12.1,4.9S1648.9,1242.4,1649,1248.6z M1641.9,1245.2
			c-0.1-4.1-1-7.1-2.6-9.2c-1.6-2.1-3.9-3.1-6.8-3.1c-2.8,0-5,1-6.6,3.1c-1.6,2.1-2.6,5.1-2.9,9.2H1641.9z"/>
		<path class="st4" d="M1682.6,1230.5v8.7h-3.5c-0.1-1.7-0.6-3-1.4-3.9s-2.1-1.3-3.7-1.3c-3,0-5.3,1-6.8,3.1c-1.6,2.1-2.4,5-2.4,8.9
			v16h7v3.5h-18.5v-3.5h5.5v-28h-5.8v-3.4h11.8v6.2c1.2-2.4,2.7-4.2,4.6-5.4s4.1-1.8,6.8-1.8c1,0,2,0.1,3.1,0.2
			C1680.2,1230,1681.3,1230.2,1682.6,1230.5z"/>
		<path class="st4" d="M1684.4,1263.5v-8.1h3.5c0.1,2.6,0.9,4.6,2.4,5.8c1.5,1.3,3.8,1.9,6.8,1.9c2.7,0,4.8-0.5,6.2-1.5
			c1.4-1,2.1-2.5,2.1-4.4c0-1.5-0.5-2.8-1.6-3.7s-3.2-1.9-6.6-3l-4.4-1.5c-3-1-5.2-2.2-6.5-3.6c-1.3-1.4-2-3.3-2-5.5
			c0-3.2,1.2-5.7,3.5-7.5c2.3-1.8,5.6-2.7,9.7-2.7c1.8,0,3.8,0.2,5.8,0.7s4.1,1.2,6.3,2.1v7.6h-3.5c-0.1-2.3-0.9-4-2.4-5.3
			c-1.5-1.3-3.5-1.9-6.1-1.9c-2.5,0-4.5,0.4-5.8,1.3c-1.3,0.9-2,2.2-2,4c0,1.5,0.5,2.6,1.5,3.5s3,1.8,5.9,2.7l4.8,1.5
			c3.3,1,5.7,2.3,7.1,3.9s2.2,3.5,2.2,6c0,3.3-1.3,5.9-3.8,7.8c-2.5,1.9-6,2.8-10.5,2.8c-2.3,0-4.5-0.2-6.6-0.7
			C1688.7,1265.2,1686.5,1264.5,1684.4,1263.5z"/>
	</g>
	<g class="st3">
		<path class="st4" d="M1464.9,1334.9v-3.5h6.2v-42h-6.2v-3.5h19.1v3.5h-6.2v41.5h22.4v-8.2h4v12.2H1464.9z"/>
		<path class="st4" d="M1524.1,1335.9c-5.1,0-9.2-1.7-12.2-5c-3.1-3.4-4.6-7.8-4.6-13.4s1.5-10,4.6-13.4c3.1-3.3,7.2-5,12.3-5
			s9.2,1.7,12.3,5c3.1,3.3,4.6,7.8,4.6,13.4s-1.5,10-4.6,13.4S1529.2,1335.9,1524.1,1335.9z M1524.1,1332.6c3.2,0,5.7-1.3,7.3-3.8
			c1.7-2.6,2.5-6.3,2.5-11.3c0-5-0.8-8.8-2.5-11.3c-1.7-2.5-4.1-3.8-7.3-3.8s-5.7,1.3-7.3,3.8c-1.7,2.5-2.5,6.3-2.5,11.3
			c0,5,0.8,8.8,2.5,11.3C1518.4,1331.4,1520.9,1332.6,1524.1,1332.6z"/>
		<path class="st4" d="M1566.2,1300h11.3v31.4h5.7v3.5h-11.8v-6.2c-1.1,2.3-2.6,4.1-4.3,5.3c-1.8,1.2-3.8,1.8-6.2,1.8
			c-3.9,0-6.7-1.1-8.6-3.3c-1.8-2.2-2.7-5.7-2.7-10.4v-18.7h-5.5v-3.5h11.5v20.3c0,4.2,0.5,7.2,1.6,8.7c1,1.6,2.9,2.4,5.6,2.4
			c2.8,0,4.9-1,6.4-3.1c1.5-2.1,2.2-5,2.2-9v-15.9h-5.3V1300z"/>
		<path class="st4" d="M1586.5,1334.9v-3.5h5.5v-27.9h-5.8v-3.5h11.8v6.2c1.1-2.4,2.6-4.1,4.4-5.4c1.8-1.2,3.9-1.8,6.2-1.8
			c3.9,0,6.7,1.1,8.5,3.3c1.8,2.2,2.7,5.7,2.7,10.3v18.7h5.4v3.5h-16.7v-3.5h5.2v-16.8c0-4.3-0.5-7.2-1.6-8.8
			c-1.1-1.6-2.9-2.4-5.5-2.4c-2.8,0-4.9,1-6.4,3.1c-1.5,2-2.2,5-2.2,8.9v16h5.3v3.5H1586.5z"/>
		<path class="st4" d="M1660.4,1303.6v30.6c0,5-1.4,8.9-4.1,11.6c-2.8,2.7-6.7,4.1-11.8,4.1c-2.3,0-4.5-0.2-6.6-0.6
			c-2.1-0.4-4.1-1-6-1.9v-7.3h3.2c0.4,2.3,1.3,3.9,2.8,5c1.5,1.1,3.6,1.6,6.3,1.6c3.5,0,6.1-1,7.8-3c1.7-2,2.5-5.1,2.5-9.4v-4.7
			c-1.2,2.2-2.7,3.8-4.5,4.8c-1.8,1-4.1,1.6-6.8,1.6c-4.3,0-7.8-1.7-10.5-5.1c-2.7-3.4-4.1-7.8-4.1-13.3s1.4-9.9,4.1-13.3
			c2.7-3.4,6.2-5.1,10.5-5.1c2.7,0,5,0.5,6.8,1.6c1.8,1,3.3,2.7,4.5,4.8v-5.5h11.8v3.5H1660.4z M1654.4,1315.8
			c0-4.2-0.8-7.4-2.4-9.6c-1.6-2.2-3.9-3.3-7-3.3c-3.1,0-5.5,1.2-7,3.7c-1.6,2.5-2.4,6.1-2.4,10.9c0,4.8,0.8,8.5,2.4,10.9
			s3.9,3.7,7,3.7c3.1,0,5.4-1.1,7-3.3c1.6-2.2,2.4-5.4,2.4-9.6V1315.8z"/>
		<path class="st4" d="M1702.7,1318.1h-26v0.3c0,4.7,0.9,8.3,2.7,10.7c1.8,2.4,4.4,3.6,7.8,3.6c2.6,0,4.8-0.7,6.5-2.1
			c1.7-1.4,2.9-3.5,3.6-6.2h4.9c-1,3.8-2.7,6.7-5.3,8.6c-2.6,1.9-6,2.9-10.2,2.9c-5.1,0-9.2-1.7-12.3-5c-3.1-3.4-4.6-7.8-4.6-13.4
			c0-5.5,1.5-10,4.6-13.3c3-3.4,7-5.1,12-5.1c5.3,0,9.3,1.6,12.1,4.9C1701.1,1307.2,1702.6,1311.9,1702.7,1318.1z M1695.6,1314.7
			c-0.1-4.1-1-7.1-2.6-9.2s-3.9-3.1-6.8-3.1c-2.8,0-5,1-6.6,3.1c-1.6,2.1-2.6,5.1-2.9,9.2H1695.6z"/>
	</g>
	<g>
		<rect x="1607.9" y="485.7" class="st5" width="150.7" height="92.7"/>
	</g>
	<g class="st3">
		<path class="st4" d="M1666.9,520.8h-17.7v-3.9h6.5v-21.3c-2,1.7-4.1,2.1-6.2,2.5V494c3.8-1,6.6-3.4,8.4-5.9h2.1v28.8h6.8V520.8z"
			/>
		<path class="st4" d="M1692.8,520.8H1675v-3.9h6.5v-21.3c-2,1.7-4.1,2.1-6.2,2.5V494c3.8-1,6.6-3.4,8.4-5.9h2.1v28.8h6.8V520.8z"/>
		<path class="st4" d="M1705.3,492.2v8.7c1-0.4,2.1-0.7,4.2-0.7c5.4,0,10.1,4.3,10.1,10c0,6.6-5.1,11.3-12.1,11.3
			c-3.6,0-7.1-1.8-8.8-3.4v-4.8c1.9,1.5,4.9,4.2,8.8,4.2c4.4,0,7.9-2.8,7.9-7c0-4-3.8-6.5-8.2-6.5c-2.5,0-4.5,0.8-6.3,1.5v-17.5
			h17.3v4.1H1705.3z"/>
	</g>
	<g>
		<rect x="1607.9" y="636.4" class="st5" width="150.7" height="92.7"/>
	</g>
	<g class="st3">
		<path class="st4" d="M1667.3,647.8c0,6.4-5.1,11-13.2,19.7h13.4v4.1H1647v-1.8c10-11.1,16.1-16.7,16.1-21c0-4.2-3.2-6.3-7.1-6.3
			c-3.2,0-6.2,2-8.1,3.7v-4.6c1.7-1.6,4.7-3.4,8.4-3.4C1662.9,638.1,1667.3,641.8,1667.3,647.8z"/>
		<path class="st4" d="M1692.8,671.6H1675v-3.9h6.5v-21.3c-2,1.7-4.1,2.1-6.2,2.5v-4.2c3.8-1,6.6-3.4,8.4-5.9h2.1v28.8h6.8V671.6z"
			/>
		<path class="st4" d="M1721.4,660.6v3.7h-5.1v7.2h-4.4v-7.2h-14.9v-1.6c5.6-6,12.6-14,17.7-23.9h1.6v21.8H1721.4z M1711.9,649.6
			c-2.6,4.1-5.3,7.9-8.1,11h8.1V649.6z"/>
	</g>
	<g>
		<rect x="1457.1" y="485.7" class="st5" width="150.7" height="92.7"/>
	</g>
	<g class="st3">
		<path class="st4" d="M1516.2,520.8h-17.7v-3.9h6.5v-21.3c-2,1.7-4.1,2.1-6.2,2.5V494c3.8-1,6.6-3.4,8.4-5.9h2.1v28.8h6.8V520.8z"
			/>
		<path class="st4" d="M1542,520.8h-17.7v-3.9h6.5v-21.3c-2,1.7-4.1,2.1-6.2,2.5V494c3.8-1,6.6-3.4,8.4-5.9h2.1v28.8h6.8V520.8z"/>
		<path class="st4" d="M1568,496.8c0,4.4-4,6.6-6.5,7.3c2.5,0.7,6.5,3.4,6.5,7.8c0,5.5-4.5,9.7-11,9.7c-3.9,0-7-1.6-8.7-3.1v-4.8
			c2.2,1.6,4.5,4,8.8,4c3.9,0,6.7-2.2,6.7-6c0-3.2-3.4-5.6-7-5.6h-2.9v-3.9h2.9c4.1,0,7-1.9,7-5.1c0-3.4-3.2-5.7-7.1-5.7
			c-3.4,0-5.6,1.7-7.4,3.6v-4.8c1.7-1.6,4.6-2.7,7.6-2.7C1563.3,487.4,1568,491.4,1568,496.8z"/>
	</g>
	<g>
		<rect x="1457.1" y="636.4" class="st5" width="150.7" height="92.7"/>
	</g>
	<g class="st3">
		<path class="st4" d="M1516.5,647.8c0,6.4-5.1,11-13.2,19.7h13.4v4.1h-20.5v-1.8c10-11.1,16.1-16.7,16.1-21c0-4.2-3.2-6.3-7.1-6.3
			c-3.2,0-6.2,2-8.1,3.7v-4.6c1.7-1.6,4.7-3.4,8.4-3.4C1512.1,638.1,1516.5,641.8,1516.5,647.8z"/>
		<path class="st4" d="M1542,671.6h-17.7v-3.9h6.5v-21.3c-2,1.7-4.1,2.1-6.2,2.5v-4.2c3.8-1,6.6-3.4,8.4-5.9h2.1v28.8h6.8V671.6z"/>
		<path class="st4" d="M1568.2,647.8c0,6.4-5.1,11-13.2,19.7h13.4v4.1H1548v-1.8c10-11.1,16.1-16.7,16.1-21c0-4.2-3.2-6.3-7.1-6.3
			c-3.2,0-6.2,2-8.1,3.7v-4.6c1.7-1.6,4.7-3.4,8.4-3.4C1563.8,638.1,1568.2,641.8,1568.2,647.8z"/>
	</g>
	<g>
		<rect x="1306.4" y="485.7" class="st5" width="150.7" height="92.7"/>
	</g>
	<g class="st3">
		<path class="st4" d="M1365.4,520.8h-17.7v-3.9h6.5v-21.3c-2,1.7-4.1,2.1-6.2,2.5V494c3.8-1,6.6-3.4,8.4-5.9h2.1v28.8h6.8V520.8z"
			/>
		<path class="st4" d="M1391.3,520.8h-17.7v-3.9h6.5v-21.3c-2,1.7-4.1,2.1-6.2,2.5V494c3.8-1,6.6-3.4,8.4-5.9h2.1v28.8h6.8V520.8z"
			/>
		<path class="st4" d="M1417.1,520.8h-17.7v-3.9h6.5v-21.3c-2,1.7-4.1,2.1-6.2,2.5V494c3.8-1,6.6-3.4,8.4-5.9h2.1v28.8h6.8V520.8z"
			/>
	</g>
	<g>
		<rect x="1306.4" y="636.4" class="st5" width="150.7" height="92.7"/>
	</g>
	<g class="st3">
		<path class="st4" d="M1365.8,647.8c0,6.4-5.1,11-13.2,19.7h13.4v4.1h-20.5v-1.8c10-11.1,16.1-16.7,16.1-21c0-4.2-3.2-6.3-7.1-6.3
			c-3.2,0-6.2,2-8.1,3.7v-4.6c1.7-1.6,4.7-3.4,8.4-3.4C1361.4,638.1,1365.8,641.8,1365.8,647.8z"/>
		<path class="st4" d="M1391.3,671.6h-17.7v-3.9h6.5v-21.3c-2,1.7-4.1,2.1-6.2,2.5v-4.2c3.8-1,6.6-3.4,8.4-5.9h2.1v28.8h6.8V671.6z"
			/>
		<path class="st4" d="M1420.1,655.2c0,8.4-4,17.1-12.4,17.1s-12.4-8.7-12.4-17.1s4-17.1,12.4-17.1S1420.1,646.8,1420.1,655.2z
			 M1399.5,655.2c0,6.3,2.8,12.8,8.2,12.8s8.2-6.4,8.2-12.8s-2.8-12.8-8.2-12.8S1399.5,648.9,1399.5,655.2z"/>
	</g>
	<g>
		<rect x="1155.6" y="485.7" class="st5" width="150.7" height="92.7"/>
	</g>
	<g class="st3">
		<path class="st4" d="M1214.7,520.8H1197v-3.9h6.5v-21.3c-2,1.7-4.1,2.1-6.2,2.5V494c3.8-1,6.6-3.4,8.4-5.9h2.1v28.8h6.8V520.8z"/>
		<path class="st4" d="M1243.5,504.5c0,8.4-4,17.1-12.4,17.1s-12.4-8.7-12.4-17.1s4-17.1,12.4-17.1S1243.5,496.1,1243.5,504.5z
			 M1222.9,504.5c0,6.3,2.8,12.8,8.2,12.8s8.2-6.4,8.2-12.8s-2.8-12.8-8.2-12.8S1222.9,498.1,1222.9,504.5z"/>
		<path class="st4" d="M1249.3,520.8c4-3.8,12-10.4,13.9-15.4c-1.6,2-4.2,4-7.2,4c-6.4,0-10.3-4.9-10.3-10.2
			c0-5.7,4.2-11.8,11.1-11.8c6.5,0,11.8,4.8,11.8,12.6c0,9.7-9.3,17.4-12.7,20.8H1249.3z M1264.3,498.7c0-4.4-3.7-7.4-7.4-7.4
			s-7.2,2.9-7.2,7.4c0,4,3.5,6.7,7.2,6.7S1264.3,502.7,1264.3,498.7z"/>
	</g>
	<g>
		<rect x="1155.6" y="636.4" class="st5" width="150.7" height="92.7"/>
	</g>
	<g class="st3">
		<path class="st4" d="M1215,647.8c0,6.4-5.1,11-13.2,19.7h13.4v4.1h-20.5v-1.8c10-11.1,16.1-16.7,16.1-21c0-4.2-3.2-6.3-7.1-6.3
			c-3.2,0-6.2,2-8.1,3.7v-4.6c1.7-1.6,4.7-3.4,8.4-3.4C1210.6,638.1,1215,641.8,1215,647.8z"/>
		<path class="st4" d="M1243.5,655.2c0,8.4-4,17.1-12.4,17.1s-12.4-8.7-12.4-17.1s4-17.1,12.4-17.1S1243.5,646.8,1243.5,655.2z
			 M1222.9,655.2c0,6.3,2.8,12.8,8.2,12.8s8.2-6.4,8.2-12.8s-2.8-12.8-8.2-12.8S1222.9,648.9,1222.9,655.2z"/>
		<path class="st4" d="M1266.6,646.8c0,3.8-2.1,6-4.7,7.5c3.1,1.4,5.7,4.4,5.7,8.1c0,5.5-4.3,9.9-10.8,9.9s-10.8-4.4-10.8-9.9
			c0-3.7,2.6-6.7,5.7-8.1c-2.6-1.5-4.7-3.8-4.7-7.5c0-5.1,4.3-8.7,9.8-8.7S1266.6,641.7,1266.6,646.8z M1250.2,662.2
			c0,3.3,2.9,6.2,6.6,6.2s6.6-2.9,6.6-6.2s-3.4-5.9-6.6-5.9S1250.2,658.9,1250.2,662.2z M1251.2,647.3c0,3,2.9,4.9,5.7,4.9
			s5.7-1.9,5.7-4.9s-2.9-5.2-5.7-5.2S1251.2,644.3,1251.2,647.3z"/>
	</g>
	<g>
		<rect x="1155.6" y="938.7" class="st5" width="150.7" height="92.7"/>
	</g>
	<g class="st3">
		<path class="st4" d="M1215,950c0,6.4-5.1,11-13.2,19.7h13.4v4.1h-20.5v-1.8c10-11.1,16.1-16.7,16.1-21c0-4.2-3.2-6.3-7.1-6.3
			c-3.2,0-6.2,2-8.1,3.7v-4.6c1.7-1.6,4.7-3.4,8.4-3.4C1210.6,940.4,1215,944.1,1215,950z"/>
		<path class="st4" d="M1243.5,957.5c0,8.4-4,17.1-12.4,17.1s-12.4-8.7-12.4-17.1s4-17.1,12.4-17.1S1243.5,949.1,1243.5,957.5z
			 M1222.9,957.5c0,6.3,2.8,12.8,8.2,12.8s8.2-6.4,8.2-12.8s-2.8-12.8-8.2-12.8S1222.9,951.1,1222.9,957.5z"/>
		<path class="st4" d="M1249.3,973.8c4-3.8,12-10.4,13.9-15.4c-1.6,2-4.2,4-7.2,4c-6.4,0-10.3-4.9-10.3-10.2
			c0-5.7,4.2-11.8,11.1-11.8c6.5,0,11.8,4.8,11.8,12.6c0,9.7-9.3,17.4-12.7,20.8H1249.3z M1264.3,951.7c0-4.4-3.7-7.4-7.4-7.4
			s-7.2,2.9-7.2,7.4c0,4,3.5,6.7,7.2,6.7S1264.3,955.7,1264.3,951.7z"/>
	</g>
	<g>
		<rect x="1155.6" y="1089.4" class="st5" width="150.7" height="92.7"/>
	</g>
	<g class="st3">
		<path class="st4" d="M1214.8,1100.5c0,4.4-4,6.6-6.5,7.3c2.5,0.7,6.5,3.4,6.5,7.8c0,5.5-4.5,9.7-11,9.7c-3.9,0-7-1.6-8.7-3.1v-4.8
			c2.2,1.6,4.5,4,8.8,4c3.9,0,6.7-2.2,6.7-6c0-3.2-3.4-5.6-7-5.6h-2.9v-3.9h2.9c4.1,0,7-1.9,7-5.1c0-3.4-3.2-5.7-7.1-5.7
			c-3.4,0-5.6,1.7-7.4,3.6v-4.8c1.7-1.6,4.6-2.7,7.6-2.7C1210.1,1091.1,1214.8,1095.1,1214.8,1100.5z"/>
		<path class="st4" d="M1243.5,1108.2c0,8.4-4,17.1-12.4,17.1s-12.4-8.7-12.4-17.1s4-17.1,12.4-17.1S1243.5,1099.8,1243.5,1108.2z
			 M1222.9,1108.2c0,6.3,2.8,12.8,8.2,12.8s8.2-6.4,8.2-12.8s-2.8-12.8-8.2-12.8S1222.9,1101.9,1222.9,1108.2z"/>
		<path class="st4" d="M1266.6,1099.8c0,3.8-2.1,6-4.7,7.5c3.1,1.4,5.7,4.4,5.7,8.1c0,5.5-4.3,9.9-10.8,9.9s-10.8-4.4-10.8-9.9
			c0-3.7,2.6-6.7,5.7-8.1c-2.6-1.5-4.7-3.8-4.7-7.5c0-5.1,4.3-8.7,9.8-8.7S1266.6,1094.7,1266.6,1099.8z M1250.2,1115.2
			c0,3.3,2.9,6.2,6.6,6.2s6.6-2.9,6.6-6.2s-3.4-5.9-6.6-5.9S1250.2,1111.9,1250.2,1115.2z M1251.2,1100.3c0,3,2.9,4.9,5.7,4.9
			s5.7-1.9,5.7-4.9s-2.9-5.2-5.7-5.2S1251.2,1097.3,1251.2,1100.3z"/>
	</g>
	<g>
		<rect x="1004.9" y="485.7" class="st5" width="150.7" height="92.7"/>
	</g>
	<g class="st3">
		<path class="st4" d="M1063.9,520.8h-17.7v-3.9h6.5v-21.3c-2,1.7-4.1,2.1-6.2,2.5V494c3.8-1,6.6-3.4,8.4-5.9h2.1v28.8h6.8V520.8z"
			/>
		<path class="st4" d="M1092.7,504.5c0,8.4-4,17.1-12.4,17.1s-12.4-8.7-12.4-17.1s4-17.1,12.4-17.1S1092.7,496.1,1092.7,504.5z
			 M1072.2,504.5c0,6.3,2.8,12.8,8.2,12.8s8.2-6.4,8.2-12.8s-2.8-12.8-8.2-12.8S1072.2,498.1,1072.2,504.5z"/>
		<path class="st4" d="M1117.8,490.2c-8.2,11.7-12.8,19.8-12.8,30.7h-5c0-11.3,6.4-19.6,12.6-28.7h-17.4v-4.1h22.6V490.2z"/>
	</g>
	<g>
		<rect x="1004.9" y="636.4" class="st5" width="150.7" height="92.7"/>
	</g>
	<g class="st3">
		<path class="st4" d="M1064.3,647.8c0,6.4-5.1,11-13.2,19.7h13.4v4.1H1044v-1.8c10-11.1,16.1-16.7,16.1-21c0-4.2-3.2-6.3-7.1-6.3
			c-3.2,0-6.2,2-8.1,3.7v-4.6c1.7-1.6,4.7-3.4,8.4-3.4C1059.9,638.1,1064.3,641.8,1064.3,647.8z"/>
		<path class="st4" d="M1092.7,655.2c0,8.4-4,17.1-12.4,17.1s-12.4-8.7-12.4-17.1s4-17.1,12.4-17.1S1092.7,646.8,1092.7,655.2z
			 M1072.2,655.2c0,6.3,2.8,12.8,8.2,12.8s8.2-6.4,8.2-12.8s-2.8-12.8-8.2-12.8S1072.2,648.9,1072.2,655.2z"/>
		<path class="st4" d="M1114.2,638.9c-4,3.8-12,10.4-13.9,15.4c1.6-2,4.2-4,7.2-4c6.4,0,10.3,4.9,10.3,10.2
			c0,5.7-4.2,11.8-11.1,11.8c-6.5,0-11.8-4.8-11.8-12.6c0-9.7,9.3-17.4,12.7-20.8H1114.2z M1099.2,661c0,4.4,3.7,7.4,7.4,7.4
			s7.2-2.9,7.2-7.4c0-4-3.5-6.7-7.2-6.7S1099.2,657,1099.2,661z"/>
	</g>
	<g>
		<rect x="854.2" y="485.7" class="st5" width="150.7" height="92.7"/>
	</g>
	<g class="st3">
		<path class="st4" d="M913.2,520.8h-17.7v-3.9h6.5v-21.3c-2,1.7-4.1,2.1-6.2,2.5V494c3.8-1,6.6-3.4,8.4-5.9h2.1v28.8h6.8V520.8z"/>
		<path class="st4" d="M942,504.5c0,8.4-4,17.1-12.4,17.1s-12.4-8.7-12.4-17.1s4-17.1,12.4-17.1S942,496.1,942,504.5z M921.4,504.5
			c0,6.3,2.8,12.8,8.2,12.8s8.2-6.4,8.2-12.8s-2.8-12.8-8.2-12.8S921.4,498.1,921.4,504.5z"/>
		<path class="st4" d="M951.6,492.2v8.7c1-0.4,2.1-0.7,4.2-0.7c5.4,0,10.1,4.3,10.1,10c0,6.6-5.1,11.3-12.1,11.3
			c-3.6,0-7.1-1.8-8.8-3.4v-4.8c1.9,1.5,4.9,4.2,8.8,4.2c4.4,0,7.9-2.8,7.9-7c0-4-3.8-6.5-8.2-6.5c-2.5,0-4.5,0.8-6.3,1.5v-17.5
			h17.3v4.1H951.6z"/>
	</g>
	<g>
		<rect x="854.2" y="636.4" class="st5" width="150.7" height="92.7"/>
	</g>
	<g class="st3">
		<path class="st4" d="M913.5,647.8c0,6.4-5.1,11-13.2,19.7h13.4v4.1h-20.5v-1.8c10-11.1,16.1-16.7,16.1-21c0-4.2-3.2-6.3-7.1-6.3
			c-3.2,0-6.2,2-8.1,3.7v-4.6c1.7-1.6,4.7-3.4,8.4-3.4C909.2,638.1,913.5,641.8,913.5,647.8z"/>
		<path class="st4" d="M942,655.2c0,8.4-4,17.1-12.4,17.1s-12.4-8.7-12.4-17.1s4-17.1,12.4-17.1S942,646.8,942,655.2z M921.4,655.2
			c0,6.3,2.8,12.8,8.2,12.8s8.2-6.4,8.2-12.8s-2.8-12.8-8.2-12.8S921.4,648.9,921.4,655.2z"/>
		<path class="st4" d="M967.7,660.6v3.7h-5.1v7.2h-4.4v-7.2h-14.9v-1.6c5.6-6,12.6-14,17.7-23.9h1.6v21.8H967.7z M958.2,649.6
			c-2.6,4.1-5.3,7.9-8.1,11h8.1V649.6z"/>
	</g>
	<g>
		<rect x="703.4" y="485.7" class="st5" width="150.7" height="92.7"/>
	</g>
	<g class="st3">
		<path class="st4" d="M762.5,520.8h-17.7v-3.9h6.5v-21.3c-2,1.7-4.1,2.1-6.2,2.5V494c3.8-1,6.6-3.4,8.4-5.9h2.1v28.8h6.8V520.8z"/>
		<path class="st4" d="M791.2,504.5c0,8.4-4,17.1-12.4,17.1s-12.4-8.7-12.4-17.1s4-17.1,12.4-17.1S791.2,496.1,791.2,504.5z
			 M770.7,504.5c0,6.3,2.8,12.8,8.2,12.8s8.2-6.4,8.2-12.8s-2.8-12.8-8.2-12.8S770.7,498.1,770.7,504.5z"/>
		<path class="st4" d="M814.3,496.8c0,4.4-4,6.6-6.5,7.3c2.5,0.7,6.5,3.4,6.5,7.8c0,5.5-4.5,9.7-11,9.7c-3.9,0-7-1.6-8.7-3.1v-4.8
			c2.2,1.6,4.5,4,8.8,4c3.9,0,6.7-2.2,6.7-6c0-3.2-3.4-5.6-7-5.6h-2.9v-3.9h2.9c4.1,0,7-1.9,7-5.1c0-3.4-3.2-5.7-7.1-5.7
			c-3.4,0-5.6,1.7-7.4,3.6v-4.8c1.7-1.6,4.6-2.7,7.6-2.7C809.6,487.4,814.3,491.4,814.3,496.8z"/>
	</g>
	<g>
		<rect x="703.4" y="636.4" class="st5" width="150.7" height="92.7"/>
	</g>
	<g class="st3">
		<path class="st4" d="M762.8,647.8c0,6.4-5.1,11-13.2,19.7H763v4.1h-20.5v-1.8c10-11.1,16.1-16.7,16.1-21c0-4.2-3.2-6.3-7.1-6.3
			c-3.2,0-6.2,2-8.1,3.7v-4.6c1.7-1.6,4.7-3.4,8.4-3.4C758.4,638.1,762.8,641.8,762.8,647.8z"/>
		<path class="st4" d="M791.2,655.2c0,8.4-4,17.1-12.4,17.1s-12.4-8.7-12.4-17.1s4-17.1,12.4-17.1S791.2,646.8,791.2,655.2z
			 M770.7,655.2c0,6.3,2.8,12.8,8.2,12.8s8.2-6.4,8.2-12.8s-2.8-12.8-8.2-12.8S770.7,648.9,770.7,655.2z"/>
		<path class="st4" d="M814.5,647.8c0,6.4-5.1,11-13.2,19.7h13.4v4.1h-20.5v-1.8c10-11.1,16.1-16.7,16.1-21c0-4.2-3.2-6.3-7.1-6.3
			c-3.2,0-6.2,2-8.1,3.7v-4.6c1.7-1.6,4.7-3.4,8.4-3.4C810.1,638.1,814.5,641.8,814.5,647.8z"/>
	</g>
	<g>
		<rect x="552.7" y="485.7" class="st5" width="150.7" height="92.7"/>
	</g>
	<g class="st3">
		<path class="st4" d="M611.7,520.8H594v-3.9h6.5v-21.3c-2,1.7-4.1,2.1-6.2,2.5V494c3.8-1,6.6-3.4,8.4-5.9h2.1v28.8h6.8V520.8z"/>
		<path class="st4" d="M640.5,504.5c0,8.4-4,17.1-12.4,17.1s-12.4-8.7-12.4-17.1s4-17.1,12.4-17.1S640.5,496.1,640.5,504.5z
			 M619.9,504.5c0,6.3,2.8,12.8,8.2,12.8s8.2-6.4,8.2-12.8s-2.8-12.8-8.2-12.8S619.9,498.1,619.9,504.5z"/>
		<path class="st4" d="M663.4,520.8h-17.7v-3.9h6.5v-21.3c-2,1.7-4.1,2.1-6.2,2.5V494c3.8-1,6.6-3.4,8.4-5.9h2.1v28.8h6.8V520.8z"/>
	</g>
	<g>
		<rect x="552.7" y="636.4" class="st5" width="150.7" height="92.7"/>
	</g>
	<g class="st3">
		<path class="st4" d="M612.1,647.8c0,6.4-5.1,11-13.2,19.7h13.4v4.1h-20.5v-1.8c10-11.1,16.1-16.7,16.1-21c0-4.2-3.2-6.3-7.1-6.3
			c-3.2,0-6.2,2-8.1,3.7v-4.6c1.7-1.6,4.7-3.4,8.4-3.4C607.7,638.1,612.1,641.8,612.1,647.8z"/>
		<path class="st4" d="M640.5,655.2c0,8.4-4,17.1-12.4,17.1s-12.4-8.7-12.4-17.1s4-17.1,12.4-17.1S640.5,646.8,640.5,655.2z
			 M619.9,655.2c0,6.3,2.8,12.8,8.2,12.8s8.2-6.4,8.2-12.8s-2.8-12.8-8.2-12.8S619.9,648.9,619.9,655.2z"/>
		<path class="st4" d="M666.4,655.2c0,8.4-4,17.1-12.4,17.1s-12.4-8.7-12.4-17.1s4-17.1,12.4-17.1S666.4,646.8,666.4,655.2z
			 M645.8,655.2c0,6.3,2.8,12.8,8.2,12.8s8.2-6.4,8.2-12.8s-2.8-12.8-8.2-12.8S645.8,648.9,645.8,655.2z"/>
	</g>
	<g>
		<rect x="1607.9" y="1839.7" class="st5" width="150.7" height="92.7"/>
	</g>
	<g class="st3">
		<path class="st4" d="M1669.7,1863.9v3.7h-5.1v7.2h-4.4v-7.2h-14.9v-1.6c5.6-6,12.6-14,17.7-23.9h1.6v21.8H1669.7z M1660.2,1852.9
			c-2.6,4.1-5.3,7.9-8.1,11h8.1V1852.9z"/>
		<path class="st4" d="M1692.8,1874.8H1675v-3.9h6.5v-21.3c-2,1.7-4.1,2.1-6.2,2.5v-4.2c3.8-1,6.6-3.4,8.4-5.9h2.1v28.8h6.8V1874.8z
			"/>
		<path class="st4" d="M1705.3,1846.2v8.7c1-0.4,2.1-0.7,4.2-0.7c5.4,0,10.1,4.3,10.1,10c0,6.6-5.1,11.3-12.1,11.3
			c-3.6,0-7.1-1.8-8.8-3.4v-4.8c1.9,1.5,4.9,4.2,8.8,4.2c4.4,0,7.9-2.8,7.9-7c0-4-3.8-6.5-8.2-6.5c-2.5,0-4.5,0.8-6.3,1.5v-17.5
			h17.3v4.1H1705.3z"/>
	</g>
	<g>
		<rect x="1607.9" y="1990.4" class="st5" width="150.7" height="92.7"/>
	</g>
	<g class="st3">
		<path class="st4" d="M1653.6,1996.9v8.7c1-0.4,2.1-0.7,4.2-0.7c5.4,0,10.1,4.3,10.1,10c0,6.6-5.1,11.3-12.1,11.3
			c-3.6,0-7.1-1.8-8.8-3.4v-4.8c1.9,1.5,4.9,4.2,8.8,4.2c4.4,0,7.9-2.8,7.9-7c0-4-3.8-6.5-8.2-6.5c-2.5,0-4.5,0.8-6.3,1.5v-17.5
			h17.3v4.1H1653.6z"/>
		<path class="st4" d="M1692.8,2025.6H1675v-3.9h6.5v-21.3c-2,1.7-4.1,2.1-6.2,2.5v-4.2c3.8-1,6.6-3.4,8.4-5.9h2.1v28.8h6.8V2025.6z
			"/>
		<path class="st4" d="M1721.4,2014.6v3.7h-5.1v7.2h-4.4v-7.2h-14.9v-1.6c5.6-6,12.6-14,17.7-23.9h1.6v21.8H1721.4z M1711.9,2003.6
			c-2.6,4.1-5.3,7.9-8.1,11h8.1V2003.6z"/>
	</g>
	<g>
		<rect x="1457.1" y="1839.7" class="st5" width="150.7" height="92.7"/>
	</g>
	<g class="st3">
		<path class="st4" d="M1519,1863.9v3.7h-5.1v7.2h-4.4v-7.2h-14.9v-1.6c5.6-6,12.6-14,17.7-23.9h1.6v21.8H1519z M1509.4,1852.9
			c-2.6,4.1-5.3,7.9-8.1,11h8.1V1852.9z"/>
		<path class="st4" d="M1542,1874.8h-17.7v-3.9h6.5v-21.3c-2,1.7-4.1,2.1-6.2,2.5v-4.2c3.8-1,6.6-3.4,8.4-5.9h2.1v28.8h6.8V1874.8z"
			/>
		<path class="st4" d="M1568,1850.8c0,4.4-4,6.6-6.5,7.3c2.5,0.7,6.5,3.4,6.5,7.8c0,5.5-4.5,9.7-11,9.7c-3.9,0-7-1.6-8.7-3.1v-4.8
			c2.2,1.6,4.5,4,8.8,4c3.9,0,6.7-2.2,6.7-6c0-3.2-3.4-5.6-7-5.6h-2.9v-3.9h2.9c4.1,0,7-1.9,7-5.1c0-3.4-3.2-5.7-7.1-5.7
			c-3.4,0-5.6,1.7-7.4,3.6v-4.8c1.7-1.6,4.6-2.7,7.6-2.7C1563.3,1841.4,1568,1845.4,1568,1850.8z"/>
	</g>
	<g>
		<rect x="1457.1" y="1990.4" class="st5" width="150.7" height="92.7"/>
	</g>
	<g class="st3">
		<path class="st4" d="M1502.9,1996.9v8.7c1-0.4,2.1-0.7,4.2-0.7c5.4,0,10.1,4.3,10.1,10c0,6.6-5.1,11.3-12.1,11.3
			c-3.6,0-7.1-1.8-8.8-3.4v-4.8c1.9,1.5,4.9,4.2,8.8,4.2c4.4,0,7.9-2.8,7.9-7c0-4-3.8-6.5-8.2-6.5c-2.5,0-4.5,0.8-6.3,1.5v-17.5
			h17.3v4.1H1502.9z"/>
		<path class="st4" d="M1542,2025.6h-17.7v-3.9h6.5v-21.3c-2,1.7-4.1,2.1-6.2,2.5v-4.2c3.8-1,6.6-3.4,8.4-5.9h2.1v28.8h6.8V2025.6z"
			/>
		<path class="st4" d="M1568.2,2001.8c0,6.4-5.1,11-13.2,19.7h13.4v4.1H1548v-1.8c10-11.1,16.1-16.7,16.1-21c0-4.2-3.2-6.3-7.1-6.3
			c-3.2,0-6.2,2-8.1,3.7v-4.6c1.7-1.6,4.7-3.4,8.4-3.4C1563.8,1992.1,1568.2,1995.8,1568.2,2001.8z"/>
	</g>
	<g>
		<rect x="1306.4" y="1839.7" class="st5" width="150.7" height="92.7"/>
	</g>
	<g class="st3">
		<path class="st4" d="M1368.2,1863.9v3.7h-5.1v7.2h-4.4v-7.2h-14.9v-1.6c5.6-6,12.6-14,17.7-23.9h1.6v21.8H1368.2z M1358.7,1852.9
			c-2.6,4.1-5.3,7.9-8.1,11h8.1V1852.9z"/>
		<path class="st4" d="M1391.3,1874.8h-17.7v-3.9h6.5v-21.3c-2,1.7-4.1,2.1-6.2,2.5v-4.2c3.8-1,6.6-3.4,8.4-5.9h2.1v28.8h6.8V1874.8
			z"/>
		<path class="st4" d="M1417.1,1874.8h-17.7v-3.9h6.5v-21.3c-2,1.7-4.1,2.1-6.2,2.5v-4.2c3.8-1,6.6-3.4,8.4-5.9h2.1v28.8h6.8V1874.8
			z"/>
	</g>
	<g>
		<rect x="1306.4" y="1990.4" class="st5" width="150.7" height="92.7"/>
	</g>
	<g class="st3">
		<path class="st4" d="M1352.1,1996.9v8.7c1-0.4,2.1-0.7,4.2-0.7c5.4,0,10.1,4.3,10.1,10c0,6.6-5.1,11.3-12.1,11.3
			c-3.6,0-7.1-1.8-8.8-3.4v-4.8c1.9,1.5,4.9,4.2,8.8,4.2c4.4,0,7.9-2.8,7.9-7c0-4-3.8-6.5-8.2-6.5c-2.5,0-4.5,0.8-6.3,1.5v-17.5
			h17.3v4.1H1352.1z"/>
		<path class="st4" d="M1391.3,2025.6h-17.7v-3.9h6.5v-21.3c-2,1.7-4.1,2.1-6.2,2.5v-4.2c3.8-1,6.6-3.4,8.4-5.9h2.1v28.8h6.8V2025.6
			z"/>
		<path class="st4" d="M1420.1,2009.2c0,8.4-4,17.1-12.4,17.1s-12.4-8.7-12.4-17.1s4-17.1,12.4-17.1S1420.1,2000.8,1420.1,2009.2z
			 M1399.5,2009.2c0,6.3,2.8,12.8,8.2,12.8s8.2-6.4,8.2-12.8s-2.8-12.8-8.2-12.8S1399.5,2002.9,1399.5,2009.2z"/>
	</g>
	<g>
		<rect x="1155.6" y="1839.7" class="st5" width="150.7" height="92.7"/>
	</g>
	<g class="st3">
		<path class="st4" d="M1217.5,1863.9v3.7h-5.1v7.2h-4.4v-7.2H1193v-1.6c5.6-6,12.6-14,17.7-23.9h1.6v21.8H1217.5z M1208,1852.9
			c-2.6,4.1-5.3,7.9-8.1,11h8.1V1852.9z"/>
		<path class="st4" d="M1243.5,1858.5c0,8.4-4,17.1-12.4,17.1s-12.4-8.7-12.4-17.1s4-17.1,12.4-17.1S1243.5,1850.1,1243.5,1858.5z
			 M1222.9,1858.5c0,6.3,2.8,12.8,8.2,12.8s8.2-6.4,8.2-12.8s-2.8-12.8-8.2-12.8S1222.9,1852.1,1222.9,1858.5z"/>
		<path class="st4" d="M1249.3,1874.8c4-3.8,12-10.4,13.9-15.4c-1.6,2-4.2,4-7.2,4c-6.4,0-10.3-4.9-10.3-10.2
			c0-5.7,4.2-11.8,11.1-11.8c6.5,0,11.8,4.8,11.8,12.6c0,9.7-9.3,17.4-12.7,20.8H1249.3z M1264.3,1852.7c0-4.4-3.7-7.4-7.4-7.4
			s-7.2,2.9-7.2,7.4c0,4,3.5,6.7,7.2,6.7S1264.3,1856.7,1264.3,1852.7z"/>
	</g>
	<g>
		<rect x="1155.6" y="1990.4" class="st5" width="150.7" height="92.7"/>
	</g>
	<g class="st3">
		<path class="st4" d="M1201.4,1996.9v8.7c1-0.4,2.1-0.7,4.2-0.7c5.4,0,10.1,4.3,10.1,10c0,6.6-5.1,11.3-12.1,11.3
			c-3.6,0-7.1-1.8-8.8-3.4v-4.8c1.9,1.5,4.9,4.2,8.8,4.2c4.4,0,7.9-2.8,7.9-7c0-4-3.8-6.5-8.2-6.5c-2.5,0-4.5,0.8-6.3,1.5v-17.5
			h17.3v4.1H1201.4z"/>
		<path class="st4" d="M1243.5,2009.2c0,8.4-4,17.1-12.4,17.1s-12.4-8.7-12.4-17.1s4-17.1,12.4-17.1S1243.5,2000.8,1243.5,2009.2z
			 M1222.9,2009.2c0,6.3,2.8,12.8,8.2,12.8s8.2-6.4,8.2-12.8s-2.8-12.8-8.2-12.8S1222.9,2002.9,1222.9,2009.2z"/>
		<path class="st4" d="M1266.6,2000.8c0,3.8-2.1,6-4.7,7.5c3.1,1.4,5.7,4.4,5.7,8.1c0,5.5-4.3,9.9-10.8,9.9s-10.8-4.4-10.8-9.9
			c0-3.7,2.6-6.7,5.7-8.1c-2.6-1.5-4.7-3.8-4.7-7.5c0-5.1,4.3-8.7,9.8-8.7S1266.6,1995.7,1266.6,2000.8z M1250.2,2016.2
			c0,3.3,2.9,6.2,6.6,6.2s6.6-2.9,6.6-6.2s-3.4-5.9-6.6-5.9S1250.2,2012.9,1250.2,2016.2z M1251.2,2001.3c0,3,2.9,4.9,5.7,4.9
			s5.7-1.9,5.7-4.9s-2.9-5.2-5.7-5.2S1251.2,1998.3,1251.2,2001.3z"/>
	</g>
	<g>
		<rect x="1004.9" y="1839.7" class="st5" width="150.7" height="92.7"/>
	</g>
	<g class="st3">
		<path class="st4" d="M1066.7,1863.9v3.7h-5.1v7.2h-4.4v-7.2h-14.9v-1.6c5.6-6,12.6-14,17.7-23.9h1.6v21.8H1066.7z M1057.2,1852.9
			c-2.6,4.1-5.3,7.9-8.1,11h8.1V1852.9z"/>
		<path class="st4" d="M1092.7,1858.5c0,8.4-4,17.1-12.4,17.1s-12.4-8.7-12.4-17.1s4-17.1,12.4-17.1S1092.7,1850.1,1092.7,1858.5z
			 M1072.2,1858.5c0,6.3,2.8,12.8,8.2,12.8s8.2-6.4,8.2-12.8s-2.8-12.8-8.2-12.8S1072.2,1852.1,1072.2,1858.5z"/>
		<path class="st4" d="M1117.8,1844.2c-8.2,11.7-12.8,19.8-12.8,30.7h-5c0-11.3,6.4-19.6,12.6-28.7h-17.4v-4.1h22.6V1844.2z"/>
	</g>
	<g>
		<rect x="1004.9" y="1990.4" class="st5" width="150.7" height="92.7"/>
	</g>
	<g class="st3">
		<path class="st4" d="M1050.7,1996.9v8.7c1-0.4,2.1-0.7,4.2-0.7c5.4,0,10.1,4.3,10.1,10c0,6.6-5.1,11.3-12.1,11.3
			c-3.6,0-7.1-1.8-8.8-3.4v-4.8c1.9,1.5,4.9,4.2,8.8,4.2c4.4,0,7.9-2.8,7.9-7c0-4-3.8-6.5-8.2-6.5c-2.5,0-4.5,0.8-6.3,1.5v-17.5
			h17.3v4.1H1050.7z"/>
		<path class="st4" d="M1092.7,2009.2c0,8.4-4,17.1-12.4,17.1s-12.4-8.7-12.4-17.1s4-17.1,12.4-17.1S1092.7,2000.8,1092.7,2009.2z
			 M1072.2,2009.2c0,6.3,2.8,12.8,8.2,12.8s8.2-6.4,8.2-12.8s-2.8-12.8-8.2-12.8S1072.2,2002.9,1072.2,2009.2z"/>
		<path class="st4" d="M1114.2,1992.9c-4,3.8-12,10.4-13.9,15.4c1.6-2,4.2-4,7.2-4c6.4,0,10.3,4.9,10.3,10.2
			c0,5.7-4.2,11.8-11.1,11.8c-6.5,0-11.8-4.8-11.8-12.6c0-9.7,9.3-17.4,12.7-20.8H1114.2z M1099.2,2015c0,4.4,3.7,7.4,7.4,7.4
			s7.2-2.9,7.2-7.4c0-4-3.5-6.7-7.2-6.7S1099.2,2011,1099.2,2015z"/>
	</g>
	<g>
		<rect x="854.2" y="1839.7" class="st5" width="150.7" height="92.7"/>
	</g>
	<g class="st3">
		<path class="st4" d="M916,1863.9v3.7h-5.1v7.2h-4.4v-7.2h-14.9v-1.6c5.6-6,12.6-14,17.7-23.9h1.6v21.8H916z M906.5,1852.9
			c-2.6,4.1-5.3,7.9-8.1,11h8.1V1852.9z"/>
		<path class="st4" d="M942,1858.5c0,8.4-4,17.1-12.4,17.1s-12.4-8.7-12.4-17.1s4-17.1,12.4-17.1S942,1850.1,942,1858.5z
			 M921.4,1858.5c0,6.3,2.8,12.8,8.2,12.8s8.2-6.4,8.2-12.8s-2.8-12.8-8.2-12.8S921.4,1852.1,921.4,1858.5z"/>
		<path class="st4" d="M951.6,1846.2v8.7c1-0.4,2.1-0.7,4.2-0.7c5.4,0,10.1,4.3,10.1,10c0,6.6-5.1,11.3-12.1,11.3
			c-3.6,0-7.1-1.8-8.8-3.4v-4.8c1.9,1.5,4.9,4.2,8.8,4.2c4.4,0,7.9-2.8,7.9-7c0-4-3.8-6.5-8.2-6.5c-2.5,0-4.5,0.8-6.3,1.5v-17.5
			h17.3v4.1H951.6z"/>
	</g>
	<g>
		<rect x="854.2" y="1990.4" class="st5" width="150.7" height="92.7"/>
	</g>
	<g class="st3">
		<path class="st4" d="M899.9,1996.9v8.7c1-0.4,2.1-0.7,4.2-0.7c5.4,0,10.1,4.3,10.1,10c0,6.6-5.1,11.3-12.1,11.3
			c-3.6,0-7.1-1.8-8.8-3.4v-4.8c1.9,1.5,4.9,4.2,8.8,4.2c4.4,0,7.9-2.8,7.9-7c0-4-3.8-6.5-8.2-6.5c-2.5,0-4.5,0.8-6.3,1.5v-17.5
			h17.3v4.1H899.9z"/>
		<path class="st4" d="M942,2009.2c0,8.4-4,17.1-12.4,17.1s-12.4-8.7-12.4-17.1s4-17.1,12.4-17.1S942,2000.8,942,2009.2z
			 M921.4,2009.2c0,6.3,2.8,12.8,8.2,12.8s8.2-6.4,8.2-12.8s-2.8-12.8-8.2-12.8S921.4,2002.9,921.4,2009.2z"/>
		<path class="st4" d="M967.7,2014.6v3.7h-5.1v7.2h-4.4v-7.2h-14.9v-1.6c5.6-6,12.6-14,17.7-23.9h1.6v21.8H967.7z M958.2,2003.6
			c-2.6,4.1-5.3,7.9-8.1,11h8.1V2003.6z"/>
	</g>
	<g>
		<rect x="703.4" y="1839.7" class="st5" width="150.7" height="92.7"/>
	</g>
	<g class="st3">
		<path class="st4" d="M765.2,1863.9v3.7h-5.1v7.2h-4.4v-7.2h-14.9v-1.6c5.6-6,12.6-14,17.7-23.9h1.6v21.8H765.2z M755.7,1852.9
			c-2.6,4.1-5.3,7.9-8.1,11h8.1V1852.9z"/>
		<path class="st4" d="M791.2,1858.5c0,8.4-4,17.1-12.4,17.1s-12.4-8.7-12.4-17.1s4-17.1,12.4-17.1S791.2,1850.1,791.2,1858.5z
			 M770.7,1858.5c0,6.3,2.8,12.8,8.2,12.8s8.2-6.4,8.2-12.8s-2.8-12.8-8.2-12.8S770.7,1852.1,770.7,1858.5z"/>
		<path class="st4" d="M814.3,1850.8c0,4.4-4,6.6-6.5,7.3c2.5,0.7,6.5,3.4,6.5,7.8c0,5.5-4.5,9.7-11,9.7c-3.9,0-7-1.6-8.7-3.1v-4.8
			c2.2,1.6,4.5,4,8.8,4c3.9,0,6.7-2.2,6.7-6c0-3.2-3.4-5.6-7-5.6h-2.9v-3.9h2.9c4.1,0,7-1.9,7-5.1c0-3.4-3.2-5.7-7.1-5.7
			c-3.4,0-5.6,1.7-7.4,3.6v-4.8c1.7-1.6,4.6-2.7,7.6-2.7C809.6,1841.4,814.3,1845.4,814.3,1850.8z"/>
	</g>
	<g>
		<rect x="703.4" y="1990.4" class="st5" width="150.7" height="92.7"/>
	</g>
	<g class="st3">
		<path class="st4" d="M749.2,1996.9v8.7c1-0.4,2.1-0.7,4.2-0.7c5.4,0,10.1,4.3,10.1,10c0,6.6-5.1,11.3-12.1,11.3
			c-3.6,0-7.1-1.8-8.8-3.4v-4.8c1.9,1.5,4.9,4.2,8.8,4.2c4.4,0,7.9-2.8,7.9-7c0-4-3.8-6.5-8.2-6.5c-2.5,0-4.5,0.8-6.3,1.5v-17.5
			h17.3v4.1H749.2z"/>
		<path class="st4" d="M791.2,2009.2c0,8.4-4,17.1-12.4,17.1s-12.4-8.7-12.4-17.1s4-17.1,12.4-17.1S791.2,2000.8,791.2,2009.2z
			 M770.7,2009.2c0,6.3,2.8,12.8,8.2,12.8s8.2-6.4,8.2-12.8s-2.8-12.8-8.2-12.8S770.7,2002.9,770.7,2009.2z"/>
		<path class="st4" d="M814.5,2001.8c0,6.4-5.1,11-13.2,19.7h13.4v4.1h-20.5v-1.8c10-11.1,16.1-16.7,16.1-21c0-4.2-3.2-6.3-7.1-6.3
			c-3.2,0-6.2,2-8.1,3.7v-4.6c1.7-1.6,4.7-3.4,8.4-3.4C810.1,1992.1,814.5,1995.8,814.5,2001.8z"/>
	</g>
	<g>
		<rect x="552.7" y="1839.7" class="st5" width="150.7" height="92.7"/>
	</g>
	<g class="st3">
		<path class="st4" d="M614.5,1863.9v3.7h-5.1v7.2H605v-7.2H590v-1.6c5.6-6,12.6-14,17.7-23.9h1.6v21.8H614.5z M605,1852.9
			c-2.6,4.1-5.3,7.9-8.1,11h8.1V1852.9z"/>
		<path class="st4" d="M640.5,1858.5c0,8.4-4,17.1-12.4,17.1s-12.4-8.7-12.4-17.1s4-17.1,12.4-17.1S640.5,1850.1,640.5,1858.5z
			 M619.9,1858.5c0,6.3,2.8,12.8,8.2,12.8s8.2-6.4,8.2-12.8s-2.8-12.8-8.2-12.8S619.9,1852.1,619.9,1858.5z"/>
		<path class="st4" d="M663.4,1874.8h-17.7v-3.9h6.5v-21.3c-2,1.7-4.1,2.1-6.2,2.5v-4.2c3.8-1,6.6-3.4,8.4-5.9h2.1v28.8h6.8V1874.8z
			"/>
	</g>
	<g>
		<rect x="552.7" y="1990.4" class="st5" width="150.7" height="92.7"/>
	</g>
	<g class="st3">
		<path class="st4" d="M598.4,1996.9v8.7c1-0.4,2.1-0.7,4.2-0.7c5.4,0,10.1,4.3,10.1,10c0,6.6-5.1,11.3-12.1,11.3
			c-3.6,0-7.1-1.8-8.8-3.4v-4.8c1.9,1.5,4.9,4.2,8.8,4.2c4.4,0,7.9-2.8,7.9-7c0-4-3.8-6.5-8.2-6.5c-2.5,0-4.5,0.8-6.3,1.5v-17.5
			h17.3v4.1H598.4z"/>
		<path class="st4" d="M640.5,2009.2c0,8.4-4,17.1-12.4,17.1s-12.4-8.7-12.4-17.1s4-17.1,12.4-17.1S640.5,2000.8,640.5,2009.2z
			 M619.9,2009.2c0,6.3,2.8,12.8,8.2,12.8s8.2-6.4,8.2-12.8s-2.8-12.8-8.2-12.8S619.9,2002.9,619.9,2009.2z"/>
		<path class="st4" d="M666.4,2009.2c0,8.4-4,17.1-12.4,17.1s-12.4-8.7-12.4-17.1s4-17.1,12.4-17.1S666.4,2000.8,666.4,2009.2z
			 M645.8,2009.2c0,6.3,2.8,12.8,8.2,12.8s8.2-6.4,8.2-12.8s-2.8-12.8-8.2-12.8S645.8,2002.9,645.8,2009.2z"/>
	</g>
	<g>
		<rect x="1004.9" y="938.7" class="st5" width="150.7" height="92.7"/>
	</g>
	<g class="st3">
		<path class="st4" d="M1064.3,950.1c0,6.4-5.1,11-13.2,19.7h13.4v4.1H1044v-1.8c10-11.1,16.1-16.7,16.1-21c0-4.2-3.2-6.3-7.1-6.3
			c-3.2,0-6.2,2-8.1,3.7v-4.6c1.7-1.6,4.7-3.4,8.4-3.4C1059.9,940.4,1064.3,944.1,1064.3,950.1z"/>
		<path class="st4" d="M1092.7,957.5c0,8.4-4,17.1-12.4,17.1s-12.4-8.7-12.4-17.1s4-17.1,12.4-17.1S1092.7,949.1,1092.7,957.5z
			 M1072.2,957.5c0,6.3,2.8,12.8,8.2,12.8s8.2-6.4,8.2-12.8s-2.8-12.8-8.2-12.8S1072.2,951.2,1072.2,957.5z"/>
		<path class="st4" d="M1117.8,943.2c-8.2,11.7-12.8,19.8-12.8,30.7h-5c0-11.3,6.4-19.6,12.6-28.7h-17.4v-4.1h22.6V943.2z"/>
	</g>
	<g>
		<rect x="1004.9" y="1089.4" class="st5" width="150.7" height="92.7"/>
	</g>
	<g class="st3">
		<path class="st4" d="M1064.1,1100.6c0,4.4-4,6.6-6.5,7.3c2.5,0.7,6.5,3.4,6.5,7.8c0,5.5-4.5,9.7-11,9.7c-3.9,0-7-1.6-8.7-3.1v-4.8
			c2.2,1.6,4.5,4,8.8,4c3.9,0,6.7-2.2,6.7-6c0-3.2-3.4-5.6-7-5.6h-2.9v-3.9h2.9c4.1,0,7-1.9,7-5.1c0-3.4-3.2-5.7-7.1-5.7
			c-3.4,0-5.6,1.7-7.4,3.6v-4.8c1.7-1.6,4.6-2.7,7.6-2.7C1059.4,1091.2,1064.1,1095.2,1064.1,1100.6z"/>
		<path class="st4" d="M1092.7,1108.2c0,8.4-4,17.1-12.4,17.1s-12.4-8.7-12.4-17.1s4-17.1,12.4-17.1S1092.7,1099.8,1092.7,1108.2z
			 M1072.2,1108.2c0,6.3,2.8,12.8,8.2,12.8s8.2-6.4,8.2-12.8s-2.8-12.8-8.2-12.8S1072.2,1101.9,1072.2,1108.2z"/>
		<path class="st4" d="M1114.2,1091.9c-4,3.8-12,10.4-13.9,15.4c1.6-2,4.2-4,7.2-4c6.4,0,10.3,4.9,10.3,10.2
			c0,5.7-4.2,11.8-11.1,11.8c-6.5,0-11.8-4.8-11.8-12.6c0-9.7,9.3-17.4,12.7-20.8H1114.2z M1099.2,1114c0,4.4,3.7,7.4,7.4,7.4
			s7.2-2.9,7.2-7.4c0-4-3.5-6.7-7.2-6.7S1099.2,1110,1099.2,1114z"/>
	</g>
	<g>
		<rect x="854.2" y="938.7" class="st5" width="150.7" height="92.7"/>
	</g>
	<g class="st3">
		<path class="st4" d="M913.5,950.1c0,6.4-5.1,11-13.2,19.7h13.4v4.1h-20.5v-1.8c10-11.1,16.1-16.7,16.1-21c0-4.2-3.2-6.3-7.1-6.3
			c-3.2,0-6.2,2-8.1,3.7v-4.6c1.7-1.6,4.7-3.4,8.4-3.4C909.2,940.4,913.5,944.1,913.5,950.1z"/>
		<path class="st4" d="M942,957.5c0,8.4-4,17.1-12.4,17.1s-12.4-8.7-12.4-17.1s4-17.1,12.4-17.1S942,949.1,942,957.5z M921.4,957.5
			c0,6.3,2.8,12.8,8.2,12.8s8.2-6.4,8.2-12.8s-2.8-12.8-8.2-12.8S921.4,951.2,921.4,957.5z"/>
		<path class="st4" d="M951.6,945.2v8.7c1-0.4,2.1-0.7,4.2-0.7c5.4,0,10.1,4.3,10.1,10c0,6.6-5.1,11.3-12.1,11.3
			c-3.6,0-7.1-1.8-8.8-3.4v-4.8c1.9,1.5,4.9,4.2,8.8,4.2c4.4,0,7.9-2.8,7.9-7c0-4-3.8-6.5-8.2-6.5c-2.5,0-4.5,0.8-6.3,1.5v-17.5
			h17.3v4.1H951.6z"/>
	</g>
	<g>
		<rect x="854.2" y="1089.4" class="st5" width="150.7" height="92.7"/>
	</g>
	<g class="st3">
		<path class="st4" d="M913.4,1100.6c0,4.4-4,6.6-6.5,7.3c2.5,0.7,6.5,3.4,6.5,7.8c0,5.5-4.5,9.7-11,9.7c-3.9,0-7-1.6-8.7-3.1v-4.8
			c2.2,1.6,4.5,4,8.8,4c3.9,0,6.7-2.2,6.7-6c0-3.2-3.4-5.6-7-5.6h-2.9v-3.9h2.9c4.1,0,7-1.9,7-5.1c0-3.4-3.2-5.7-7.1-5.7
			c-3.4,0-5.6,1.7-7.4,3.6v-4.8c1.7-1.6,4.6-2.7,7.6-2.7C908.7,1091.2,913.4,1095.2,913.4,1100.6z"/>
		<path class="st4" d="M942,1108.2c0,8.4-4,17.1-12.4,17.1s-12.4-8.7-12.4-17.1s4-17.1,12.4-17.1S942,1099.8,942,1108.2z
			 M921.4,1108.2c0,6.3,2.8,12.8,8.2,12.8s8.2-6.4,8.2-12.8s-2.8-12.8-8.2-12.8S921.4,1101.9,921.4,1108.2z"/>
		<path class="st4" d="M967.7,1113.7v3.7h-5.1v7.2h-4.4v-7.2h-14.9v-1.6c5.6-6,12.6-14,17.7-23.9h1.6v21.8H967.7z M958.2,1102.6
			c-2.6,4.1-5.3,7.9-8.1,11h8.1V1102.6z"/>
	</g>
	<g>
		<rect x="703.4" y="938.7" class="st5" width="150.7" height="92.7"/>
	</g>
	<g class="st3">
		<path class="st4" d="M762.8,950.1c0,6.4-5.1,11-13.2,19.7H763v4.1h-20.5v-1.8c10-11.1,16.1-16.7,16.1-21c0-4.2-3.2-6.3-7.1-6.3
			c-3.2,0-6.2,2-8.1,3.7v-4.6c1.7-1.6,4.7-3.4,8.4-3.4C758.4,940.4,762.8,944.1,762.8,950.1z"/>
		<path class="st4" d="M791.2,957.5c0,8.4-4,17.1-12.4,17.1s-12.4-8.7-12.4-17.1s4-17.1,12.4-17.1S791.2,949.1,791.2,957.5z
			 M770.7,957.5c0,6.3,2.8,12.8,8.2,12.8s8.2-6.4,8.2-12.8s-2.8-12.8-8.2-12.8S770.7,951.2,770.7,957.5z"/>
		<path class="st4" d="M814.3,949.8c0,4.4-4,6.6-6.5,7.3c2.5,0.7,6.5,3.4,6.5,7.8c0,5.5-4.5,9.7-11,9.7c-3.9,0-7-1.6-8.7-3.1v-4.8
			c2.2,1.6,4.5,4,8.8,4c3.9,0,6.7-2.2,6.7-6c0-3.2-3.4-5.6-7-5.6h-2.9v-3.9h2.9c4.1,0,7-1.9,7-5.1c0-3.4-3.2-5.7-7.1-5.7
			c-3.4,0-5.6,1.7-7.4,3.6v-4.8c1.7-1.6,4.6-2.7,7.6-2.7C809.6,940.4,814.3,944.4,814.3,949.8z"/>
	</g>
	<g>
		<rect x="703.4" y="1089.4" class="st5" width="150.7" height="92.7"/>
	</g>
	<g class="st3">
		<path class="st4" d="M762.6,1100.6c0,4.4-4,6.6-6.5,7.3c2.5,0.7,6.5,3.4,6.5,7.8c0,5.5-4.5,9.7-11,9.7c-3.9,0-7-1.6-8.7-3.1v-4.8
			c2.2,1.6,4.5,4,8.8,4c3.9,0,6.7-2.2,6.7-6c0-3.2-3.4-5.6-7-5.6h-2.9v-3.9h2.9c4.1,0,7-1.9,7-5.1c0-3.4-3.2-5.7-7.1-5.7
			c-3.4,0-5.6,1.7-7.4,3.6v-4.8c1.7-1.6,4.6-2.7,7.6-2.7C757.9,1091.2,762.6,1095.2,762.6,1100.6z"/>
		<path class="st4" d="M791.2,1108.2c0,8.4-4,17.1-12.4,17.1s-12.4-8.7-12.4-17.1s4-17.1,12.4-17.1S791.2,1099.8,791.2,1108.2z
			 M770.7,1108.2c0,6.3,2.8,12.8,8.2,12.8s8.2-6.4,8.2-12.8s-2.8-12.8-8.2-12.8S770.7,1101.9,770.7,1108.2z"/>
		<path class="st4" d="M814.5,1100.8c0,6.4-5.1,11-13.2,19.7h13.4v4.1h-20.5v-1.8c10-11.1,16.1-16.7,16.1-21c0-4.2-3.2-6.3-7.1-6.3
			c-3.2,0-6.2,2-8.1,3.7v-4.6c1.7-1.6,4.7-3.4,8.4-3.4C810.1,1091.2,814.5,1094.9,814.5,1100.8z"/>
	</g>
	<g>
		<rect x="552.7" y="938.7" class="st5" width="150.7" height="92.7"/>
	</g>
	<g class="st3">
		<path class="st4" d="M612.1,950.1c0,6.4-5.1,11-13.2,19.7h13.4v4.1h-20.5v-1.8c10-11.1,16.1-16.7,16.1-21c0-4.2-3.2-6.3-7.1-6.3
			c-3.2,0-6.2,2-8.1,3.7v-4.6c1.7-1.6,4.7-3.4,8.4-3.4C607.7,940.4,612.1,944.1,612.1,950.1z"/>
		<path class="st4" d="M640.5,957.5c0,8.4-4,17.1-12.4,17.1s-12.4-8.7-12.4-17.1s4-17.1,12.4-17.1S640.5,949.1,640.5,957.5z
			 M619.9,957.5c0,6.3,2.8,12.8,8.2,12.8s8.2-6.4,8.2-12.8s-2.8-12.8-8.2-12.8S619.9,951.2,619.9,957.5z"/>
		<path class="st4" d="M663.4,973.9h-17.7V970h6.5v-21.3c-2,1.7-4.1,2.1-6.2,2.5V947c3.8-1,6.6-3.4,8.4-5.9h2.1V970h6.8V973.9z"/>
	</g>
	<g>
		<rect x="552.7" y="1387.2" class="st5" width="150.7" height="92.7"/>
	</g>
	<g class="st3">
		<path class="st4" d="M611.9,1398.3c0,4.4-4,6.6-6.5,7.3c2.5,0.7,6.5,3.4,6.5,7.8c0,5.5-4.5,9.7-11,9.7c-3.9,0-7-1.6-8.7-3.1v-4.8
			c2.2,1.6,4.5,4,8.8,4c3.9,0,6.7-2.2,6.7-6c0-3.2-3.4-5.6-7-5.6h-2.9v-3.9h2.9c4.1,0,7-1.9,7-5.1c0-3.4-3.2-5.7-7.1-5.7
			c-3.4,0-5.6,1.7-7.4,3.6v-4.8c1.7-1.6,4.6-2.7,7.6-2.7C607.2,1388.9,611.9,1392.9,611.9,1398.3z"/>
		<path class="st4" d="M640.5,1406c0,8.4-4,17.1-12.4,17.1s-12.4-8.7-12.4-17.1s4-17.1,12.4-17.1S640.5,1397.6,640.5,1406z
			 M619.9,1406c0,6.3,2.8,12.8,8.2,12.8s8.2-6.4,8.2-12.8s-2.8-12.8-8.2-12.8S619.9,1399.6,619.9,1406z"/>
		<path class="st4" d="M663.4,1422.3h-17.7v-3.9h6.5v-21.3c-2,1.7-4.1,2.1-6.2,2.5v-4.2c3.8-1,6.6-3.4,8.4-5.9h2.1v28.8h6.8V1422.3z
			"/>
	</g>
	<g>
		<rect x="552.7" y="1089.4" class="st5" width="150.7" height="92.7"/>
	</g>
	<g class="st3">
		<path class="st4" d="M611.9,1100.6c0,4.4-4,6.6-6.5,7.3c2.5,0.7,6.5,3.4,6.5,7.8c0,5.5-4.5,9.7-11,9.7c-3.9,0-7-1.6-8.7-3.1v-4.8
			c2.2,1.6,4.5,4,8.8,4c3.9,0,6.7-2.2,6.7-6c0-3.2-3.4-5.6-7-5.6h-2.9v-3.9h2.9c4.1,0,7-1.9,7-5.1c0-3.4-3.2-5.7-7.1-5.7
			c-3.4,0-5.6,1.7-7.4,3.6v-4.8c1.7-1.6,4.6-2.7,7.6-2.7C607.2,1091.2,611.9,1095.2,611.9,1100.6z"/>
		<path class="st4" d="M640.5,1108.2c0,8.4-4,17.1-12.4,17.1s-12.4-8.7-12.4-17.1s4-17.1,12.4-17.1S640.5,1099.8,640.5,1108.2z
			 M619.9,1108.2c0,6.3,2.8,12.8,8.2,12.8s8.2-6.4,8.2-12.8s-2.8-12.8-8.2-12.8S619.9,1101.9,619.9,1108.2z"/>
		<path class="st4" d="M666.4,1108.2c0,8.4-4,17.1-12.4,17.1s-12.4-8.7-12.4-17.1s4-17.1,12.4-17.1S666.4,1099.8,666.4,1108.2z
			 M645.8,1108.2c0,6.3,2.8,12.8,8.2,12.8s8.2-6.4,8.2-12.8s-2.8-12.8-8.2-12.8S645.8,1101.9,645.8,1108.2z"/>
	</g>
	<g>
		<rect x="1155.6" y="1387.1" class="st5" width="150.7" height="92.7"/>
	</g>
	<g class="st3">
		<path class="st4" d="M1214.8,1398.3c0,4.4-4,6.6-6.5,7.3c2.5,0.7,6.5,3.4,6.5,7.8c0,5.5-4.5,9.7-11,9.7c-3.9,0-7-1.6-8.7-3.1v-4.8
			c2.2,1.6,4.5,4,8.8,4c3.9,0,6.7-2.2,6.7-6c0-3.2-3.4-5.6-7-5.6h-2.9v-3.9h2.9c4.1,0,7-1.9,7-5.1c0-3.4-3.2-5.7-7.1-5.7
			c-3.4,0-5.6,1.7-7.4,3.6v-4.8c1.7-1.6,4.6-2.7,7.6-2.7C1210.1,1388.8,1214.8,1392.9,1214.8,1398.3z"/>
		<path class="st4" d="M1243.5,1405.9c0,8.4-4,17.1-12.4,17.1s-12.4-8.7-12.4-17.1s4-17.1,12.4-17.1S1243.5,1397.5,1243.5,1405.9z
			 M1222.9,1405.9c0,6.3,2.8,12.8,8.2,12.8s8.2-6.4,8.2-12.8s-2.8-12.8-8.2-12.8S1222.9,1399.6,1222.9,1405.9z"/>
		<path class="st4" d="M1249.3,1422.3c4-3.8,12-10.4,13.9-15.4c-1.6,2-4.2,4-7.2,4c-6.4,0-10.3-4.9-10.3-10.2
			c0-5.7,4.2-11.8,11.1-11.8c6.5,0,11.8,4.8,11.8,12.6c0,9.7-9.3,17.4-12.7,20.8H1249.3z M1264.3,1400.2c0-4.4-3.7-7.4-7.4-7.4
			s-7.2,2.9-7.2,7.4c0,4,3.5,6.7,7.2,6.7S1264.3,1404.1,1264.3,1400.2z"/>
	</g>
	<g>
		<rect x="577.1" y="1686.5" class="st5" width="75.3" height="46.4"/>
	</g>
	<g class="st3">
		<path class="st6" d="M604.2,1691.3L604.2,1691.3l-4.4,2.5l-0.6-2.4l5.5-3.2h2.6v26h-3V1691.3z"/>
		<path class="st6" d="M626.4,1701.1c0,9.5-3,13.4-6.8,13.4c-4,0-6.5-4.8-6.5-13.3c0-8.8,2.6-13.4,6.8-13.4
			C624.2,1687.8,626.4,1692.8,626.4,1701.1z M616.2,1701.2c0,6.3,1.1,10.7,3.6,10.7c2.4,0,3.4-4.4,3.4-10.7c0-6.1-1-10.7-3.5-10.7
			S616.2,1694.9,616.2,1701.2z"/>
		<path class="st6" d="M633.7,1686.9c-0.8,3.2-2.6,7.4-3.6,9.2l-1.8,0.3c0.8-2.3,1.9-6.4,2.3-9.2L633.7,1686.9z"/>
	</g>
	<g>
		<rect x="577.1" y="2181.5" class="st5" width="75.3" height="46.4"/>
	</g>
	<g class="st3">
		<path class="st6" d="M604.2,2186.3L604.2,2186.3l-4.4,2.5l-0.6-2.4l5.5-3.2h2.6v26h-3V2186.3z"/>
		<path class="st6" d="M625.4,2185.9h-7l-1.1,6.9c0.3-0.1,0.6-0.1,1-0.1c1.4,0,3.6,0.6,5,2c1.4,1.4,2.2,3.3,2.2,5.9
			c0,5.2-3.2,8.9-7.9,8.9c-1.6,0-3.4-0.4-4.4-1.1l0.7-2.5c0.8,0.5,2.2,1,3.6,1c2.6,0,4.9-2,4.9-6c0-4.1-2.5-5.8-5.9-5.8
			c-1,0-1.6,0-2,0.1l1.6-12h9.3V2185.9z"/>
		<path class="st6" d="M633.7,2181.9c-0.8,3.2-2.6,7.4-3.6,9.2l-1.8,0.3c0.8-2.3,1.9-6.4,2.3-9.2L633.7,2181.9z"/>
	</g>
	<g>
		<rect x="577.1" y="293.5" class="st5" width="75.3" height="46.4"/>
	</g>
	<g class="st3">
		<path class="st6" d="M604.2,298.3L604.2,298.3l-4.4,2.5l-0.6-2.4l5.5-3.2h2.6v26h-3V298.3z"/>
		<path class="st6" d="M625.4,297.9h-7l-1.1,6.9c0.3-0.1,0.6-0.1,1-0.1c1.4,0,3.6,0.6,5,2c1.4,1.4,2.2,3.3,2.2,5.9
			c0,5.2-3.2,8.9-7.9,8.9c-1.6,0-3.4-0.4-4.4-1.1l0.7-2.5c0.8,0.5,2.2,1,3.6,1c2.6,0,4.9-2,4.9-6c0-4.1-2.5-5.8-5.9-5.8
			c-1,0-1.6,0-2,0.1l1.6-12h9.3V297.9z"/>
		<path class="st6" d="M633.7,293.9c-0.8,3.2-2.6,7.4-3.6,9.2l-1.8,0.3c0.8-2.3,1.9-6.4,2.3-9.2L633.7,293.9z"/>
	</g>
	<g>
		<rect x="577.1" y="1235" class="st5" width="75.3" height="46.4"/>
	</g>
	<g class="st3">
		<path class="st6" d="M604.2,1239.8L604.2,1239.8l-4.4,2.5l-0.6-2.4l5.5-3.2h2.6v26h-3V1239.8z"/>
		<path class="st6" d="M626.4,1249.6c0,9.5-3,13.4-6.8,13.4c-4,0-6.5-4.8-6.5-13.3c0-8.8,2.6-13.4,6.8-13.4
			C624.2,1236.4,626.4,1241.4,626.4,1249.6z M616.2,1249.7c0,6.3,1.1,10.7,3.6,10.7c2.4,0,3.4-4.4,3.4-10.7c0-6.1-1-10.7-3.5-10.7
			S616.2,1243.4,616.2,1249.7z"/>
		<path class="st6" d="M633.7,1235.4c-0.8,3.2-2.6,7.4-3.6,9.2l-1.8,0.3c0.8-2.3,1.9-6.4,2.3-9.2L633.7,1235.4z"/>
	</g>
	<g>
		<rect x="577.1" y="783.5" class="st5" width="75.3" height="46.4"/>
	</g>
	<g class="st3">
		<path class="st6" d="M604.2,788.3L604.2,788.3l-4.4,2.5l-0.6-2.4l5.5-3.2h2.6v26h-3V788.3z"/>
		<path class="st6" d="M626.4,798.1c0,9.5-3,13.4-6.8,13.4c-4,0-6.5-4.8-6.5-13.3c0-8.8,2.6-13.4,6.8-13.4
			C624.2,784.9,626.4,789.9,626.4,798.1z M616.2,798.2c0,6.3,1.1,10.7,3.6,10.7c2.4,0,3.4-4.4,3.4-10.7c0-6.1-1-10.7-3.5-10.7
			S616.2,792,616.2,798.2z"/>
		<path class="st6" d="M633.7,783.9c-0.8,3.2-2.6,7.4-3.6,9.2l-1.8,0.3c0.8-2.3,1.9-6.4,2.3-9.2L633.7,783.9z"/>
	</g>
	<g>
		<rect x="450.7" y="566.9" class="st5" width="75.3" height="46.4"/>
	</g>
	<g class="st3">
		<path class="st6" d="M480.2,592.2c0.7,0,1.2-0.1,1.9-0.2c1.3-0.3,2.6-1,3.6-2c1.4-1.6,2.6-4,3-7.4h-0.1c-1,1.2-2.3,2.2-4.2,2.2
			c-3.2,0-5.7-3-5.7-7.7c0-4.8,2.6-8.8,6.6-8.8c4.4,0,6.5,4.7,6.5,10.4c0,5.1-1.3,9.2-3.4,12c-1.5,2.1-3.7,3.4-6,4
			c-0.8,0.2-1.5,0.2-2.2,0.2V592.2z M481.7,576.8c0,3.8,1.4,5.7,3.5,5.7c1.3,0,2.6-0.9,3.2-2.3c0.2-0.4,0.2-0.8,0.2-1.7
			c0-5.4-1.6-7.8-3.6-7.8C483.5,570.6,481.7,572.3,481.7,576.8z"/>
		<path class="st6" d="M499.1,567.3c-0.8,3.2-2.6,7.4-3.6,9.2l-1.8,0.3c0.8-2.3,1.9-6.4,2.3-9.2L499.1,567.3z"/>
	</g>
	<g>
		<rect x="450.7" y="1999.3" class="st5" width="75.3" height="46.4"/>
	</g>
	<g class="st3">
		<path class="st6" d="M480.2,2024.7c0.7,0,1.2-0.1,1.9-0.2c1.3-0.3,2.6-1,3.6-2c1.4-1.6,2.6-4,3-7.4h-0.1c-1,1.2-2.3,2.2-4.2,2.2
			c-3.2,0-5.7-3-5.7-7.7c0-4.8,2.6-8.8,6.6-8.8c4.4,0,6.5,4.7,6.5,10.4c0,5.1-1.3,9.2-3.4,12c-1.5,2.1-3.7,3.4-6,4
			c-0.8,0.2-1.5,0.2-2.2,0.2V2024.7z M481.7,2009.2c0,3.8,1.4,5.7,3.5,5.7c1.3,0,2.6-0.9,3.2-2.3c0.2-0.4,0.2-0.8,0.2-1.7
			c0-5.4-1.6-7.8-3.6-7.8C483.5,2003.1,481.7,2004.8,481.7,2009.2z"/>
		<path class="st6" d="M499.1,1999.7c-0.8,3.2-2.6,7.4-3.6,9.2l-1.8,0.3c0.8-2.3,1.9-6.4,2.3-9.2L499.1,1999.7z"/>
	</g>
	<g>
		<rect x="1155.6" y="1537.9" class="st5" width="150.7" height="92.7"/>
	</g>
	<g class="st3">
		<path class="st4" d="M1217.5,1562.1v3.7h-5.1v7.2h-4.4v-7.2H1193v-1.6c5.6-6,12.6-14,17.7-23.9h1.6v21.8H1217.5z M1208,1551.1
			c-2.6,4.1-5.3,7.9-8.1,11h8.1V1551.1z"/>
		<path class="st4" d="M1243.5,1556.7c0,8.4-4,17.1-12.4,17.1s-12.4-8.7-12.4-17.1s4-17.1,12.4-17.1S1243.5,1548.3,1243.5,1556.7z
			 M1222.9,1556.7c0,6.3,2.8,12.8,8.2,12.8s8.2-6.4,8.2-12.8s-2.8-12.8-8.2-12.8S1222.9,1550.3,1222.9,1556.7z"/>
		<path class="st4" d="M1266.6,1548.3c0,3.8-2.1,6-4.7,7.5c3.1,1.4,5.7,4.4,5.7,8.1c0,5.5-4.3,9.9-10.8,9.9s-10.8-4.4-10.8-9.9
			c0-3.7,2.6-6.7,5.7-8.1c-2.6-1.5-4.7-3.8-4.7-7.5c0-5.1,4.3-8.7,9.8-8.7S1266.6,1543.2,1266.6,1548.3z M1250.2,1563.7
			c0,3.3,2.9,6.2,6.6,6.2s6.6-2.9,6.6-6.2s-3.4-5.9-6.6-5.9S1250.2,1560.4,1250.2,1563.7z M1251.2,1548.8c0,3,2.9,4.9,5.7,4.9
			s5.7-1.9,5.7-4.9s-2.9-5.2-5.7-5.2S1251.2,1545.7,1251.2,1548.8z"/>
	</g>
	<g>
		<rect x="1004.9" y="1387.2" class="st5" width="150.7" height="92.7"/>
	</g>
	<g class="st3">
		<path class="st4" d="M1064.1,1398.3c0,4.4-4,6.6-6.5,7.3c2.5,0.7,6.5,3.4,6.5,7.8c0,5.5-4.5,9.7-11,9.7c-3.9,0-7-1.6-8.7-3.1v-4.8
			c2.2,1.6,4.5,4,8.8,4c3.9,0,6.7-2.2,6.7-6c0-3.2-3.4-5.6-7-5.6h-2.9v-3.9h2.9c4.1,0,7-1.9,7-5.1c0-3.4-3.2-5.7-7.1-5.7
			c-3.4,0-5.6,1.7-7.4,3.6v-4.8c1.7-1.6,4.6-2.7,7.6-2.7C1059.4,1388.9,1064.1,1392.9,1064.1,1398.3z"/>
		<path class="st4" d="M1092.7,1406c0,8.4-4,17.1-12.4,17.1s-12.4-8.7-12.4-17.1s4-17.1,12.4-17.1S1092.7,1397.6,1092.7,1406z
			 M1072.2,1406c0,6.3,2.8,12.8,8.2,12.8s8.2-6.4,8.2-12.8s-2.8-12.8-8.2-12.8S1072.2,1399.6,1072.2,1406z"/>
		<path class="st4" d="M1117.8,1391.7c-8.2,11.7-12.8,19.8-12.8,30.7h-5c0-11.3,6.4-19.6,12.6-28.7h-17.4v-4.1h22.6V1391.7z"/>
	</g>
	<g>
		<rect x="1004.9" y="1537.9" class="st5" width="150.7" height="92.7"/>
	</g>
	<g class="st3">
		<path class="st4" d="M1066.7,1562.1v3.7h-5.1v7.2h-4.4v-7.2h-14.9v-1.6c5.6-6,12.6-14,17.7-23.9h1.6v21.8H1066.7z M1057.2,1551.1
			c-2.6,4.1-5.3,7.9-8.1,11h8.1V1551.1z"/>
		<path class="st4" d="M1092.7,1556.7c0,8.4-4,17.1-12.4,17.1s-12.4-8.7-12.4-17.1s4-17.1,12.4-17.1S1092.7,1548.3,1092.7,1556.7z
			 M1072.2,1556.7c0,6.3,2.8,12.8,8.2,12.8s8.2-6.4,8.2-12.8s-2.8-12.8-8.2-12.8S1072.2,1550.4,1072.2,1556.7z"/>
		<path class="st4" d="M1114.2,1540.4c-4,3.8-12,10.4-13.9,15.4c1.6-2,4.2-4,7.2-4c6.4,0,10.3,4.9,10.3,10.2
			c0,5.7-4.2,11.8-11.1,11.8c-6.5,0-11.8-4.8-11.8-12.6c0-9.7,9.3-17.4,12.7-20.8H1114.2z M1099.2,1562.5c0,4.4,3.7,7.4,7.4,7.4
			s7.2-2.9,7.2-7.4c0-4-3.5-6.7-7.2-6.7S1099.2,1558.5,1099.2,1562.5z"/>
	</g>
	<g>
		<rect x="854.2" y="1387.2" class="st5" width="150.7" height="92.7"/>
	</g>
	<g class="st3">
		<path class="st4" d="M913.4,1398.3c0,4.4-4,6.6-6.5,7.3c2.5,0.7,6.5,3.4,6.5,7.8c0,5.5-4.5,9.7-11,9.7c-3.9,0-7-1.6-8.7-3.1v-4.8
			c2.2,1.6,4.5,4,8.8,4c3.9,0,6.7-2.2,6.7-6c0-3.2-3.4-5.6-7-5.6h-2.9v-3.9h2.9c4.1,0,7-1.9,7-5.1c0-3.4-3.2-5.7-7.1-5.7
			c-3.4,0-5.6,1.7-7.4,3.6v-4.8c1.7-1.6,4.6-2.7,7.6-2.7C908.7,1388.9,913.4,1392.9,913.4,1398.3z"/>
		<path class="st4" d="M942,1406c0,8.4-4,17.1-12.4,17.1s-12.4-8.7-12.4-17.1s4-17.1,12.4-17.1S942,1397.6,942,1406z M921.4,1406
			c0,6.3,2.8,12.8,8.2,12.8s8.2-6.4,8.2-12.8s-2.8-12.8-8.2-12.8S921.4,1399.6,921.4,1406z"/>
		<path class="st4" d="M951.6,1393.7v8.7c1-0.4,2.1-0.7,4.2-0.7c5.4,0,10.1,4.3,10.1,10c0,6.6-5.1,11.3-12.1,11.3
			c-3.6,0-7.1-1.8-8.8-3.4v-4.8c1.9,1.5,4.9,4.2,8.8,4.2c4.4,0,7.9-2.8,7.9-7c0-4-3.8-6.5-8.2-6.5c-2.5,0-4.5,0.8-6.3,1.5v-17.5
			h17.3v4.1H951.6z"/>
	</g>
	<g>
		<rect x="854.2" y="1537.9" class="st5" width="150.7" height="92.7"/>
	</g>
	<g class="st3">
		<path class="st4" d="M916,1562.1v3.7h-5.1v7.2h-4.4v-7.2h-14.9v-1.6c5.6-6,12.6-14,17.7-23.9h1.6v21.8H916z M906.5,1551.1
			c-2.6,4.1-5.3,7.9-8.1,11h8.1V1551.1z"/>
		<path class="st4" d="M942,1556.7c0,8.4-4,17.1-12.4,17.1s-12.4-8.7-12.4-17.1s4-17.1,12.4-17.1S942,1548.3,942,1556.7z
			 M921.4,1556.7c0,6.3,2.8,12.8,8.2,12.8s8.2-6.4,8.2-12.8s-2.8-12.8-8.2-12.8S921.4,1550.4,921.4,1556.7z"/>
		<path class="st4" d="M967.7,1562.1v3.7h-5.1v7.2h-4.4v-7.2h-14.9v-1.6c5.6-6,12.6-14,17.7-23.9h1.6v21.8H967.7z M958.2,1551.1
			c-2.6,4.1-5.3,7.9-8.1,11h8.1V1551.1z"/>
	</g>
	<g>
		<rect x="703.4" y="1387.2" class="st5" width="150.7" height="92.7"/>
	</g>
	<g class="st3">
		<path class="st4" d="M762.6,1398.3c0,4.4-4,6.6-6.5,7.3c2.5,0.7,6.5,3.4,6.5,7.8c0,5.5-4.5,9.7-11,9.7c-3.9,0-7-1.6-8.7-3.1v-4.8
			c2.2,1.6,4.5,4,8.8,4c3.9,0,6.7-2.2,6.7-6c0-3.2-3.4-5.6-7-5.6h-2.9v-3.9h2.9c4.1,0,7-1.9,7-5.1c0-3.4-3.2-5.7-7.1-5.7
			c-3.4,0-5.6,1.7-7.4,3.6v-4.8c1.7-1.6,4.6-2.7,7.6-2.7C757.9,1388.9,762.6,1392.9,762.6,1398.3z"/>
		<path class="st4" d="M791.2,1406c0,8.4-4,17.1-12.4,17.1s-12.4-8.7-12.4-17.1s4-17.1,12.4-17.1S791.2,1397.6,791.2,1406z
			 M770.7,1406c0,6.3,2.8,12.8,8.2,12.8s8.2-6.4,8.2-12.8s-2.8-12.8-8.2-12.8S770.7,1399.6,770.7,1406z"/>
		<path class="st4" d="M814.3,1398.3c0,4.4-4,6.6-6.5,7.3c2.5,0.7,6.5,3.4,6.5,7.8c0,5.5-4.5,9.7-11,9.7c-3.9,0-7-1.6-8.7-3.1v-4.8
			c2.2,1.6,4.5,4,8.8,4c3.9,0,6.7-2.2,6.7-6c0-3.2-3.4-5.6-7-5.6h-2.9v-3.9h2.9c4.1,0,7-1.9,7-5.1c0-3.4-3.2-5.7-7.1-5.7
			c-3.4,0-5.6,1.7-7.4,3.6v-4.8c1.7-1.6,4.6-2.7,7.6-2.7C809.6,1388.9,814.3,1392.9,814.3,1398.3z"/>
	</g>
	<g>
		<rect x="703.4" y="1537.9" class="st5" width="150.7" height="92.7"/>
	</g>
	<g class="st3">
		<path class="st4" d="M765.2,1562.1v3.7h-5.1v7.2h-4.4v-7.2h-14.9v-1.6c5.6-6,12.6-14,17.7-23.9h1.6v21.8H765.2z M755.7,1551.1
			c-2.6,4.1-5.3,7.9-8.1,11h8.1V1551.1z"/>
		<path class="st4" d="M791.2,1556.7c0,8.4-4,17.1-12.4,17.1s-12.4-8.7-12.4-17.1s4-17.1,12.4-17.1S791.2,1548.3,791.2,1556.7z
			 M770.7,1556.7c0,6.3,2.8,12.8,8.2,12.8s8.2-6.4,8.2-12.8s-2.8-12.8-8.2-12.8S770.7,1550.4,770.7,1556.7z"/>
		<path class="st4" d="M814.5,1549.3c0,6.4-5.1,11-13.2,19.7h13.4v4.1h-20.5v-1.8c10-11.1,16.1-16.7,16.1-21c0-4.2-3.2-6.3-7.1-6.3
			c-3.2,0-6.2,2-8.1,3.7v-4.6c1.7-1.6,4.7-3.4,8.4-3.4C810.1,1539.6,814.5,1543.3,814.5,1549.3z"/>
	</g>
	<g>
		<rect x="552.7" y="1537.9" class="st5" width="150.7" height="92.7"/>
	</g>
	<g class="st3">
		<path class="st4" d="M614.5,1562.1v3.7h-5.1v7.2H605v-7.2H590v-1.6c5.6-6,12.6-14,17.7-23.9h1.6v21.8H614.5z M605,1551.1
			c-2.6,4.1-5.3,7.9-8.1,11h8.1V1551.1z"/>
		<path class="st4" d="M640.5,1556.7c0,8.4-4,17.1-12.4,17.1s-12.4-8.7-12.4-17.1s4-17.1,12.4-17.1S640.5,1548.3,640.5,1556.7z
			 M619.9,1556.7c0,6.3,2.8,12.8,8.2,12.8s8.2-6.4,8.2-12.8s-2.8-12.8-8.2-12.8S619.9,1550.4,619.9,1556.7z"/>
		<path class="st4" d="M666.4,1556.7c0,8.4-4,17.1-12.4,17.1s-12.4-8.7-12.4-17.1s4-17.1,12.4-17.1S666.4,1548.3,666.4,1556.7z
			 M645.8,1556.7c0,6.3,2.8,12.8,8.2,12.8s8.2-6.4,8.2-12.8s-2.8-12.8-8.2-12.8S645.8,1550.4,645.8,1556.7z"/>
	</g>
	<g>
		<g class="st7">
			<rect x="305.4" y="2113.9" class="st4" width="41.4" height="200"/>
		</g>
		<g>
			<g>
				<rect x="353.3" y="2126" class="st4" width="29.4" height="27.5"/>
			</g>
			<g>
				<rect x="353.4" y="2174.3" class="st4" width="29.4" height="27.5"/>
			</g>
			<g>
				<rect x="353.3" y="2222.6" class="st4" width="29.4" height="27.5"/>
			</g>
			<g>
				<rect x="353.3" y="2271" class="st4" width="29.4" height="27.5"/>
			</g>
		</g>
	</g>
	<g class="st3">
		<path class="st4" d="M327,2473.1c1,0.3,1.9,0.8,2.7,1.4c0.7,0.7,1.4,1.6,2,2.8l4.8,9.8h4v2.3h-7.8l-5.1-10.5c-1-2-1.9-3.3-2.7-3.9
			c-0.8-0.6-2-0.9-3.4-0.9h-4.9v13h4.7v2.3h-13.3v-2.3h4.2v-28.3h-4.2v-2.4h16.7c3.2,0,5.7,0.8,7.4,2.3c1.7,1.5,2.6,3.7,2.6,6.5
			c0,2.3-0.6,4.1-1.9,5.4S329.5,2472.8,327,2473.1z M316.5,2471.8h6.5c2.2,0,3.9-0.5,4.9-1.6c1.1-1.1,1.6-2.7,1.6-4.9
			c0-2.2-0.5-3.8-1.6-4.9c-1.1-1-2.7-1.6-4.9-1.6h-6.5V2471.8z"/>
		<path class="st4" d="M362.9,2478.1h-17.5v0.2c0,3.2,0.6,5.6,1.8,7.2c1.2,1.6,3,2.4,5.3,2.4c1.8,0,3.2-0.5,4.4-1.4
			c1.1-0.9,1.9-2.3,2.4-4.2h3.3c-0.6,2.6-1.8,4.5-3.6,5.8c-1.7,1.3-4,1.9-6.9,1.9c-3.4,0-6.2-1.1-8.3-3.4c-2.1-2.3-3.1-5.3-3.1-9
			c0-3.7,1-6.7,3.1-9c2-2.3,4.7-3.4,8.1-3.4c3.5,0,6.3,1.1,8.2,3.3S362.8,2474,362.9,2478.1z M358.1,2475.8
			c-0.1-2.7-0.7-4.8-1.7-6.2c-1.1-1.4-2.6-2.1-4.6-2.1c-1.9,0-3.3,0.7-4.4,2.1c-1.1,1.4-1.7,3.5-2,6.2H358.1z"/>
		<path class="st4" d="M387.9,2468.3v20.6c0,3.4-0.9,6-2.8,7.8c-1.9,1.8-4.5,2.8-7.9,2.8c-1.5,0-3-0.1-4.4-0.4
			c-1.4-0.3-2.8-0.7-4.1-1.3v-4.9h2.1c0.3,1.5,0.9,2.7,1.9,3.4s2.4,1.1,4.2,1.1c2.4,0,4.1-0.7,5.2-2c1.1-1.3,1.7-3.5,1.7-6.4v-3.2
			c-0.8,1.5-1.8,2.6-3,3.3c-1.2,0.7-2.8,1-4.6,1c-2.9,0-5.2-1.1-7.1-3.4c-1.8-2.3-2.8-5.3-2.8-9s0.9-6.7,2.7-8.9s4.2-3.4,7.1-3.4
			c1.8,0,3.3,0.3,4.6,1c1.2,0.7,2.2,1.8,3,3.3v-3.7h8v2.4H387.9z M383.8,2476.6c0-2.8-0.5-5-1.6-6.5s-2.7-2.2-4.7-2.2
			c-2.1,0-3.7,0.8-4.7,2.5c-1.1,1.6-1.6,4.1-1.6,7.4c0,3.2,0.5,5.7,1.6,7.4c1.1,1.7,2.6,2.5,4.7,2.5c2.1,0,3.6-0.7,4.7-2.2
			s1.6-3.6,1.6-6.5V2476.6z"/>
		<path class="st4" d="M401.7,2487.1h3.8v2.3h-11.8v-2.3h3.9v-18.8h-3.9v-2.4h8V2487.1z M396.5,2458.7c0-0.7,0.2-1.3,0.7-1.8
			c0.5-0.5,1.1-0.8,1.8-0.8c0.7,0,1.3,0.3,1.8,0.8c0.5,0.5,0.7,1.1,0.7,1.8c0,0.7-0.2,1.3-0.7,1.8s-1.1,0.7-1.8,0.7
			s-1.3-0.2-1.8-0.7S396.5,2459.4,396.5,2458.7z"/>
		<path class="st4" d="M408.1,2488.2v-5.5h2.3c0.1,1.8,0.6,3.1,1.6,3.9c1,0.9,2.6,1.3,4.6,1.3c1.8,0,3.2-0.3,4.2-1
			c1-0.7,1.4-1.7,1.4-3c0-1-0.4-1.9-1-2.5c-0.7-0.6-2.2-1.3-4.4-2l-2.9-1c-2-0.6-3.5-1.5-4.4-2.4c-0.9-1-1.4-2.2-1.4-3.7
			c0-2.2,0.8-3.8,2.4-5.1c1.6-1.2,3.8-1.8,6.5-1.8c1.2,0,2.5,0.2,3.9,0.5c1.4,0.3,2.8,0.8,4.2,1.4v5.1h-2.3
			c-0.1-1.5-0.6-2.7-1.6-3.6c-1-0.9-2.4-1.3-4.1-1.3c-1.7,0-3,0.3-3.9,0.9c-0.9,0.6-1.3,1.5-1.3,2.7c0,1,0.3,1.8,1,2.4s2,1.2,4,1.8
			l3.2,1c2.2,0.7,3.8,1.6,4.8,2.6c1,1,1.5,2.4,1.5,4c0,2.2-0.9,4-2.6,5.2c-1.7,1.3-4,1.9-7,1.9c-1.5,0-3-0.2-4.4-0.5
			C411,2489.3,409.6,2488.8,408.1,2488.2z"/>
		<path class="st4" d="M432.7,2468.3h-3.6v-2.4h3.6v-7.3h4.1v7.3h7.6v2.4h-7.6v14.9c0,2,0.2,3.3,0.6,3.8c0.4,0.6,1.1,0.8,2.1,0.8
			c1.1,0,1.8-0.3,2.3-0.9c0.5-0.6,0.7-1.6,0.8-3h3.1c-0.1,2.1-0.7,3.7-1.7,4.7c-1,1-2.6,1.5-4.8,1.5c-2.3,0-4-0.5-5-1.6
			s-1.5-2.8-1.5-5.3V2468.3z"/>
		<path class="st4" d="M466.6,2465.9v5.9h-2.3c-0.1-1.2-0.4-2-1-2.6c-0.6-0.6-1.4-0.9-2.5-0.9c-2,0-3.5,0.7-4.6,2.1
			c-1.1,1.4-1.6,3.4-1.6,6v10.7h4.7v2.3h-12.4v-2.3h3.7v-18.8h-3.9v-2.3h8v4.2c0.8-1.6,1.8-2.8,3.1-3.6c1.3-0.8,2.8-1.2,4.6-1.2
			c0.7,0,1.4,0.1,2.1,0.2C465.1,2465.6,465.8,2465.7,466.6,2465.9z"/>
		<path class="st4" d="M487.7,2474.8v12.3h3.6v2.3h-7.7v-2.5c-0.9,1.1-1.9,1.9-3.1,2.4c-1.2,0.5-2.6,0.8-4.1,0.8
			c-2.6,0-4.7-0.7-6.2-2.1c-1.5-1.4-2.3-3.3-2.3-5.6c0-2.4,0.9-4.3,2.6-5.7c1.8-1.3,4.2-2,7.4-2h5.7v-1.6c0-1.8-0.5-3.2-1.6-4.1
			s-2.6-1.5-4.6-1.5c-1.6,0-2.9,0.4-3.9,1.1c-1,0.7-1.6,1.8-1.8,3.3h-2.1v-4.7c1.4-0.6,2.8-1.1,4.1-1.4c1.3-0.3,2.6-0.5,3.9-0.5
			c3.3,0,5.7,0.8,7.4,2.4C486.9,2469.4,487.7,2471.7,487.7,2474.8z M483.6,2482.1v-5h-5.2c-2,0-3.5,0.4-4.5,1.3s-1.5,2.2-1.5,4
			c0,1.6,0.5,2.9,1.5,3.9c1,1,2.4,1.4,4.1,1.4c1.7,0,3.1-0.5,4.1-1.6C483.1,2485.1,483.6,2483.8,483.6,2482.1z"/>
		<path class="st4" d="M496.5,2468.3h-3.6v-2.4h3.6v-7.3h4.1v7.3h7.6v2.4h-7.6v14.9c0,2,0.2,3.3,0.6,3.8c0.4,0.6,1.1,0.8,2.1,0.8
			c1.1,0,1.8-0.3,2.3-0.9c0.5-0.6,0.7-1.6,0.8-3h3.1c-0.1,2.1-0.7,3.7-1.7,4.7c-1,1-2.6,1.5-4.8,1.5c-2.3,0-4-0.5-5-1.6
			s-1.5-2.8-1.5-5.3V2468.3z"/>
		<path class="st4" d="M518.4,2487.1h3.8v2.3h-11.8v-2.3h3.9v-18.8h-3.9v-2.4h8V2487.1z M513.2,2458.7c0-0.7,0.2-1.3,0.7-1.8
			c0.5-0.5,1.1-0.8,1.8-0.8c0.7,0,1.3,0.3,1.8,0.8c0.5,0.5,0.7,1.1,0.7,1.8c0,0.7-0.2,1.3-0.7,1.8s-1.1,0.7-1.8,0.7
			s-1.3-0.2-1.8-0.7S513.2,2459.4,513.2,2458.7z"/>
		<path class="st4" d="M535.9,2490.1c-3.4,0-6.2-1.1-8.2-3.4s-3.1-5.3-3.1-9s1-6.7,3.1-9c2.1-2.3,4.8-3.4,8.3-3.4
			c3.4,0,6.2,1.1,8.3,3.4c2.1,2.3,3.1,5.3,3.1,9s-1,6.7-3.1,9S539.3,2490.1,535.9,2490.1z M535.9,2487.9c2.2,0,3.8-0.9,4.9-2.6
			c1.1-1.7,1.7-4.3,1.7-7.6s-0.6-5.9-1.7-7.6c-1.1-1.7-2.8-2.6-4.9-2.6c-2.2,0-3.8,0.9-4.9,2.6s-1.7,4.3-1.7,7.6s0.6,5.9,1.7,7.6
			C532.1,2487,533.7,2487.9,535.9,2487.9z"/>
		<path class="st4" d="M550.4,2489.5v-2.3h3.7v-18.8h-3.9v-2.4h8v4.2c0.8-1.6,1.7-2.8,2.9-3.6c1.2-0.8,2.6-1.2,4.2-1.2
			c2.6,0,4.5,0.7,5.7,2.2c1.2,1.5,1.8,3.8,1.8,7v12.6h3.6v2.3h-11.2v-2.3h3.5v-11.3c0-2.9-0.4-4.8-1.1-5.9c-0.7-1.1-2-1.6-3.7-1.6
			c-1.9,0-3.3,0.7-4.3,2.1s-1.5,3.4-1.5,6v10.7h3.5v2.3H550.4z"/>
	</g>
	<g>
		<g class="st7">
			<rect x="305.3" y="2391.5" class="st4" width="200" height="41.4"/>
		</g>
		<g>
			<g>
				<rect x="317.3" y="2355.5" class="st4" width="27.5" height="29.4"/>
			</g>
			<g>
				<rect x="365.6" y="2355.5" class="st4" width="27.5" height="29.4"/>
			</g>
			<g>
				<rect x="414" y="2355.5" class="st4" width="27.5" height="29.4"/>
			</g>
			<g>
				<rect x="462.3" y="2355.5" class="st4" width="27.5" height="29.4"/>
			</g>
		</g>
	</g>
	<g>
		<g>
			<rect x="71.1" y="1226.3" class="st4" width="240.1" height="63.7"/>
		</g>
		<g>
			<polygon class="st4" points="288.9,1314.9 288.9,1202.7 349.9,1258.8 			"/>
		</g>
	</g>
	<g class="st3">
		<path class="st8" d="M102.7,1275v-2.3h4.1v-27.5h-4.1v-2.3h25.9v7.1h-2.6v-4.5h-14.8v10.8h10.5v-4h2.6v10.7h-2.6v-4h-10.5v13.4
			h15.1v-4.5h2.6v7.1H102.7z"/>
		<path class="st8" d="M133.3,1275v-2.3h3.6v-18.3h-3.8v-2.3h7.7v4.1c0.7-1.5,1.7-2.7,2.9-3.5c1.2-0.8,2.5-1.2,4.1-1.2
			c2.5,0,4.4,0.7,5.6,2.2c1.2,1.4,1.8,3.7,1.8,6.8v12.3h3.5v2.3h-10.9v-2.3h3.4v-11c0-2.8-0.3-4.7-1-5.8c-0.7-1-1.9-1.6-3.6-1.6
			c-1.8,0-3.2,0.7-4.2,2c-1,1.3-1.4,3.3-1.4,5.9v10.5h3.4v2.3H133.3z"/>
		<path class="st8" d="M163.6,1254.5h-3.5v-2.3h3.5v-7.1h4v7.1h7.4v2.3h-7.4v14.5c0,1.9,0.2,3.2,0.6,3.7s1.1,0.8,2.1,0.8
			c1,0,1.8-0.3,2.3-0.9c0.5-0.6,0.7-1.6,0.8-3h3c-0.1,2.1-0.7,3.6-1.7,4.6c-1,1-2.6,1.4-4.6,1.4c-2.3,0-3.9-0.5-4.8-1.5
			c-0.9-1-1.4-2.7-1.4-5.2V1254.5z"/>
		<path class="st8" d="M196.7,1252.1v5.7h-2.3c-0.1-1.1-0.4-2-0.9-2.5c-0.6-0.6-1.4-0.8-2.5-0.8c-2,0-3.4,0.7-4.5,2
			c-1,1.3-1.6,3.3-1.6,5.8v10.5h4.6v2.3h-12.1v-2.3h3.6v-18.3h-3.8v-2.3h7.7v4.1c0.8-1.6,1.8-2.8,3-3.5c1.2-0.8,2.7-1.2,4.5-1.2
			c0.6,0,1.3,0,2,0.2S195.9,1251.9,196.7,1252.1z"/>
		<path class="st8" d="M217.2,1260.8v12h3.5v2.3h-7.5v-2.5c-0.9,1.1-1.9,1.8-3,2.3s-2.5,0.8-4,0.8c-2.5,0-4.6-0.7-6-2
			c-1.5-1.3-2.2-3.2-2.2-5.5c0-2.4,0.9-4.2,2.6-5.5c1.7-1.3,4.1-2,7.2-2h5.6v-1.6c0-1.7-0.5-3.1-1.6-4s-2.5-1.4-4.4-1.4
			c-1.6,0-2.8,0.4-3.8,1.1c-0.9,0.7-1.5,1.8-1.7,3.2h-2v-4.6c1.4-0.6,2.7-1,4-1.3s2.6-0.4,3.8-0.4c3.2,0,5.6,0.8,7.2,2.4
			S217.2,1257.8,217.2,1260.8z M213.2,1267.9v-4.8h-5.1c-2,0-3.4,0.4-4.4,1.3c-1,0.8-1.4,2.1-1.4,3.9c0,1.6,0.5,2.9,1.5,3.8
			c1,0.9,2.3,1.4,4,1.4c1.6,0,3-0.5,4-1.5C212.7,1270.8,213.2,1269.5,213.2,1267.9z"/>
		<path class="st8" d="M222.8,1275v-2.3h3.6v-18.3h-3.8v-2.3h7.7v4.1c0.7-1.5,1.7-2.7,2.9-3.5c1.2-0.8,2.5-1.2,4.1-1.2
			c2.5,0,4.4,0.7,5.6,2.2c1.2,1.4,1.8,3.7,1.8,6.8v12.3h3.5v2.3h-10.9v-2.3h3.4v-11c0-2.8-0.3-4.7-1-5.8c-0.7-1-1.9-1.6-3.6-1.6
			c-1.8,0-3.2,0.7-4.2,2c-1,1.3-1.4,3.3-1.4,5.9v10.5h3.4v2.3H222.8z"/>
		<path class="st8" d="M271.1,1268.2c-0.6,2.4-1.6,4.3-3.2,5.6c-1.6,1.3-3.7,1.9-6.2,1.9c-3.3,0-6-1.1-8-3.3c-2-2.2-3-5.1-3-8.8
			c0-3.7,1-6.6,3-8.8c2-2.2,4.7-3.3,8-3.3c1.4,0,2.9,0.2,4.3,0.5c1.4,0.3,2.9,0.9,4.3,1.5v5.9H268c-0.3-2-1-3.5-2-4.4
			s-2.5-1.4-4.3-1.4c-2.1,0-3.8,0.8-4.8,2.5c-1.1,1.7-1.6,4.1-1.6,7.4c0,3.3,0.5,5.8,1.6,7.4c1.1,1.7,2.7,2.5,4.9,2.5
			c1.7,0,3.1-0.4,4.1-1.3c1-0.9,1.7-2.2,2.1-4H271.1z"/>
		<path class="st8" d="M296,1264h-17.1v0.2c0,3.1,0.6,5.4,1.7,7c1.2,1.6,2.9,2.4,5.1,2.4c1.7,0,3.2-0.5,4.3-1.4
			c1.1-0.9,1.9-2.3,2.3-4.1h3.2c-0.6,2.5-1.8,4.4-3.5,5.7c-1.7,1.3-3.9,1.9-6.7,1.9c-3.3,0-6-1.1-8.1-3.3c-2-2.2-3-5.1-3-8.8
			c0-3.6,1-6.5,3-8.7c2-2.2,4.6-3.3,7.9-3.3c3.5,0,6.1,1.1,8,3.2C295,1256.9,295.9,1260,296,1264z M291.3,1261.7
			c-0.1-2.7-0.6-4.7-1.7-6s-2.5-2-4.5-2c-1.8,0-3.3,0.7-4.3,2c-1,1.4-1.7,3.4-1.9,6H291.3z"/>
	</g>
</g>
</svg>
