<?xml version="1.0" encoding="utf-8"?>
<!-- Generator: Adobe Illustrator 21.1.0, SVG Export Plug-In . SVG Version: 6.00 Build 0)  -->
<svg version="1.1" id="Layer_2" xmlns="http://www.w3.org/2000/svg" xmlns:xlink="http://www.w3.org/1999/xlink" x="0px" y="0px"
	 viewBox="0 0 300 112.3" style="enable-background:new 0 0 300 112.3;" xml:space="preserve">
<style type="text/css">
	.st0{fill:#FEECCE;}
	.st1{fill:#F26C51;}
</style>
<g>
	<path class="st0" d="M168.4,46.2l-6.1,3.7c-2-3.1-5.2-4.9-9.2-4.9c-6.4,0-11.2,4.7-11.2,11.6c0,7.1,4.9,11.6,11.2,11.6
		c3.9,0,7.1-1.8,9.3-4.9l5.8,4.2c-3.1,4.6-8.5,7.5-15,7.5c-10.9,0-18.7-7.7-18.7-18.4c0-10.7,7.7-18.4,18.7-18.4
		C159.7,38.2,165.5,41.2,168.4,46.2"/>
</g>
<polygon class="st0" points="205.8,74.4 199.1,74.4 181.1,50.6 181.1,74.4 174,74.4 174,38.8 180.6,38.8 198.7,62.6 198.7,38.8 
	205.8,38.8 "/>
<rect x="214.4" y="38.8" class="st0" width="4.5" height="35.5"/>
<g>
	<path class="st0" d="M258.6,44.2l-3.3,3.2c-2.5-2.9-6.2-4.8-10.5-4.8c-7.8,0-13.7,5.7-13.7,14c0,8.3,5.9,14,13.5,14
		c7.3,0,11.7-4.2,12.4-11.2h-10.7v-4.2h15.5c0,0.4,0.1,0.8,0.1,1.1c0,10.3-6.5,18.5-17.3,18.5c-9.3,0-18.2-6.7-18.2-18.3
		c0-10.7,7.8-18.3,18.4-18.3C250.5,38.3,255.4,40.5,258.6,44.2"/>
</g>
<path class="st0" d="M274.6,60.4h13.8l-6.9-17.2L274.6,60.4z M298.8,74.4H294l-3.9-9.7h-17.2l-3.9,9.7h-4.6l14.4-35.5h5.6
	L298.8,74.4z"/>
<path class="st0" d="M12.1,87.6L12.1,87.6c3.8,5.5,8.5,10.1,13.8,13.7c1.2-4.9,1.6-9.9,1.2-15C22,86,17,86.4,12.1,87.6 M14.7,56.6
	c-3.3-3.8-7.1-7.1-11.4-9.7c-1.2,6.3-1.2,12.9,0,19.4C7.6,63.7,11.4,60.4,14.7,56.6 M12.1,25.7L12.1,25.7c4.9,1.2,9.9,1.6,15,1.2
	c0.4-5-0.1-10-1.2-15C20.4,15.7,15.8,20.4,12.1,25.7 M87.7,101.3c5.5-3.8,10.1-8.5,13.7-13.8c-4.9-1.2-9.9-1.6-15-1.2
	C86.2,91.4,86.6,96.4,87.7,101.3 M110.3,46.9c-4.3,2.7-8.1,5.9-11.4,9.7c3.3,3.8,7.1,7.1,11.4,9.7C111.4,60,111.5,53.4,110.3,46.9
	 M47.1,110.1c6.3,1.2,12.9,1.2,19.4,0c-2.7-4.3-5.9-8.1-9.7-11.4C53,102,49.7,105.8,47.1,110.1 M66.5,3.1L66.5,3.1
	c-6.3-1.2-12.9-1.2-19.4,0c2.7,4.3,5.9,8.1,9.7,11.4C60.6,11.3,63.8,7.4,66.5,3.1 M87.7,11.9c5.3,3.7,10,8.3,13.8,13.7
	c-4.9,1.2-9.9,1.6-15,1.2C86.2,21.9,86.6,16.8,87.7,11.9"/>
<path class="st1" d="M23.3,70.5c-1.1-2.7-2.4-5.2-4-7.7C15.5,67,11,70.6,6.1,73.5L5.3,74c0.4,1.2,0.8,2.3,1.3,3.5
	c0.5,1.1,1,2.3,1.5,3.3L9,80.5c5.6-1.4,11.2-2,16.9-1.8C25.3,75.9,24.4,73.1,23.3,70.5 M32.6,7.9l0.2,0.9c1.4,5.6,2,11.2,1.8,16.9
	c5.6-1.3,11-3.5,15.9-6.6c-4.2-3.9-7.8-8.3-10.7-13.3l-0.5-0.8c-1.2,0.4-2.3,0.8-3.5,1.3C34.8,6.9,33.7,7.4,32.6,7.9 M6.1,39.7
	c5,2.9,9.4,6.5,13.3,10.7c1.5-2.4,2.9-5,4-7.7c1.1-2.7,2-5.4,2.6-8.3c-5.7,0.2-11.4-0.4-16.9-1.8l-0.9-0.2c-1.1,2.2-2,4.5-2.8,6.8
	L6.1,39.7z M107.5,73.5c-5-2.9-9.4-6.5-13.3-10.7c-1.5,2.4-2.9,5-4,7.7c-1.1,2.7-2,5.4-2.6,8.3c5.7-0.2,11.4,0.4,16.9,1.8l0.9,0.2
	c1.1-2.2,2-4.5,2.8-6.8L107.5,73.5z M39.9,107.3c2.9-5,6.5-9.4,10.7-13.3c-2.4-1.5-5-2.9-7.7-4c-2.7-1.1-5.4-2-8.3-2.6
	c0.2,5.7-0.4,11.4-1.8,16.9l-0.2,0.9c2.2,1.1,4.5,2,6.8,2.8L39.9,107.3z M80.9,105.3l-0.2-0.9c-1.4-5.6-2-11.2-1.8-16.9
	c-5.6,1.3-11,3.5-15.9,6.6c4.2,3.9,7.8,8.3,10.7,13.3l0.5,0.8c1.2-0.4,2.3-0.8,3.5-1.3C78.7,106.4,79.8,105.8,80.9,105.3
	 M104.6,32.7c-5.6,1.4-11.2,2-16.9,1.8c0.6,2.8,1.5,5.6,2.6,8.3c1.1,2.7,2.4,5.2,4,7.7c3.9-4.2,8.3-7.8,13.3-10.7l0.8-0.5
	c-0.4-1.2-0.8-2.3-1.3-3.5c-0.5-1.1-1-2.3-1.5-3.3L104.6,32.7z M80.7,8.8l0.2-0.9c-2.2-1.1-4.5-2-6.8-2.8l-0.5,0.8
	c-2.9,5-6.5,9.4-10.7,13.3c2.4,1.5,5,2.9,7.7,4c2.7,1.1,5.4,2,8.3,2.6C78.7,20.1,79.3,14.4,80.7,8.8 M89.2,56.5L89.2,56.5v0.1
	c-2.4,3.4-4.4,7.1-6,10.9c-1.6,3.8-2.8,7.8-3.5,11.9l-0.1,0l0,0.1c-8.2,1.5-16,4.7-22.8,9.5l-0.1,0l-0.1,0c-3.4-2.4-7.1-4.4-10.9-6
	s-7.8-2.8-11.9-3.5l0-0.1l-0.1,0c-0.7-4.1-1.9-8.1-3.5-11.9c-1.6-3.8-3.6-7.5-6-10.9l0-0.1l0-0.1c2.4-3.4,4.4-7.1,6-10.9
	c1.6-3.8,2.8-7.8,3.5-11.9l0.1,0l0-0.1c8.2-1.5,16-4.7,22.8-9.5l0.1,0l0.1,0c3.4,2.4,7.1,4.4,10.9,6c3.8,1.6,7.8,2.8,11.9,3.5l0,0.1
	l0.1,0c0.7,4.1,1.9,8.1,3.5,11.9C84.9,49.5,86.9,53.1,89.2,56.5"/>
</svg>
