<?xml version="1.0" encoding="utf-8"?>
<!-- Generator: Adobe Illustrator 21.1.0, SVG Export Plug-In . SVG Version: 6.00 Build 0)  -->
<svg version="1.1" id="Layer_1" xmlns="http://www.w3.org/2000/svg" xmlns:xlink="http://www.w3.org/1999/xlink" x="0px" y="0px"
	 viewBox="0 0 100 25" style="enable-background:new 0 0 100 25;" xml:space="preserve">
<polygon points="43.5,23.5 39.6,23.5 28.8,9.4 28.8,23.5 24.6,23.5 24.6,2.3 28.5,2.3 39.3,16.5 39.3,2.3 43.5,2.3 "/>
<rect x="48.6" y="2.3" width="2.7" height="21.2"/>
<path d="M84.5,15.2h8.3L88.7,5L84.5,15.2z M99,23.5h-2.9l-2.3-5.8H83.5l-2.3,5.8h-2.8l8.6-21.2h3.3L99,23.5z"/>
<path d="M21.2,6.7l-3.6,2.2C16.4,7.1,14.5,6,12.1,6c-3.8,0-6.7,2.8-6.7,6.9c0,4.3,3,6.9,6.7,6.9c2.3,0,4.3-1.1,5.5-2.9l3.5,2.5
	c-1.9,2.8-5.1,4.5-8.9,4.5C5.6,23.9,1,19.3,1,12.9s4.6-11,11.1-11C16,1.9,19.5,3.7,21.2,6.7"/>
<path d="M75,5.5l-2,1.9c-1.5-1.8-3.7-2.8-6.3-2.8c-4.7,0-8.2,3.4-8.2,8.4c0,5,3.5,8.4,8.1,8.4c4.3,0,7-2.5,7.4-6.7h-6.4v-2.5H77
	c0,0.2,0,0.5,0,0.7c0,6.2-3.9,11-10.3,11c-5.6,0-10.9-4-10.9-10.9c0-6.4,4.7-10.9,11-10.9C70.2,2,73.1,3.3,75,5.5"/>
</svg>
