<?xml version="1.0" encoding="utf-8"?>
<!-- Generator: Adobe Illustrator 21.1.0, SVG Export Plug-In . SVG Version: 6.00 Build 0)  -->
<svg version="1.1" id="Layer_1" xmlns="http://www.w3.org/2000/svg" xmlns:xlink="http://www.w3.org/1999/xlink" x="0px" y="0px"
	 viewBox="0 0 100 100" style="enable-background:new 0 0 100 100;" xml:space="preserve">
<style type="text/css">
	.st0{fill:#FFEECD;}
	.st1{fill:#F26C51;}
</style>
<path class="st0" d="M11.1,77.2L11.1,77.2c3.3,4.8,7.4,8.8,12,12c1-4.3,1.4-8.7,1.1-13C19.7,75.9,15.3,76.2,11.1,77.2 M13.4,50.3
	c-2.9-3.3-6.2-6.1-10-8.5c-1,5.5-1,11.2,0,16.9C7.1,56.4,10.5,53.6,13.4,50.3 M11.1,23.3L11.1,23.3c4.3,1,8.7,1.4,13,1.1
	c0.3-4.4-0.1-8.8-1.1-13C18.3,14.6,14.3,18.7,11.1,23.3 M77,89.2c4.8-3.3,8.8-7.4,12-12c-4.3-1-8.7-1.4-13-1.1
	C75.6,80.5,76,84.9,77,89.2 M96.6,41.8c-3.7,2.3-7.1,5.2-10,8.5c2.9,3.3,6.2,6.1,10,8.5C97.6,53.2,97.6,47.5,96.6,41.8 M41.5,96.9
	c5.5,1,11.2,1,16.9,0c-2.3-3.7-5.2-7.1-8.5-10C46.7,89.8,43.9,93.1,41.5,96.9 M58.5,3.7L58.5,3.7c-5.5-1-11.2-1-16.9,0
	c2.3,3.7,5.2,7.1,8.5,10C53.3,10.7,56.1,7.4,58.5,3.7 M77,11.3c4.6,3.2,8.7,7.2,12,12c-4.3,1-8.7,1.4-13,1.1
	C75.6,20,76,15.6,77,11.3"/>
<path class="st1" d="M20.8,62.3c-1-2.3-2.1-4.6-3.5-6.7C14,59.3,10.1,62.4,5.8,65l-0.7,0.4c0.3,1,0.7,2,1.1,3c0.4,1,0.9,2,1.3,2.9
	l0.8-0.2c4.8-1.3,9.8-1.8,14.8-1.6C22.6,67.1,21.8,64.7,20.8,62.3 M29,7.8l0.2,0.8c1.3,4.8,1.8,9.8,1.6,14.8
	c4.9-1.1,9.6-3.1,13.9-5.8c-3.7-3.4-6.8-7.2-9.3-11.5l-0.4-0.7c-1,0.3-2,0.7-3,1.1C30.9,6.9,29.9,7.4,29,7.8 M5.8,35.5
	c4.3,2.5,8.2,5.7,11.6,9.3c1.3-2.1,2.5-4.4,3.5-6.7c1-2.3,1.7-4.7,2.3-7.2c-5,0.2-9.9-0.3-14.8-1.6l-0.8-0.2c-1,1.9-1.8,3.9-2.5,5.9
	L5.8,35.5z M94.2,65c-4.3-2.5-8.2-5.7-11.6-9.3c-1.3,2.1-2.5,4.4-3.5,6.7c-1,2.3-1.7,4.7-2.3,7.2c5-0.2,9.9,0.3,14.8,1.6l0.8,0.2
	c1-1.9,1.8-3.9,2.5-5.9L94.2,65z M35.3,94.4c2.5-4.3,5.7-8.2,9.3-11.6c-2.1-1.3-4.4-2.5-6.7-3.5c-2.3-1-4.7-1.7-7.2-2.3
	c0.2,5-0.3,9.9-1.6,14.8L29,92.7c1.9,1,3.9,1.8,5.9,2.5L35.3,94.4z M71,92.7l-0.2-0.8c-1.3-4.8-1.8-9.8-1.6-14.8
	c-4.9,1.1-9.6,3.1-13.9,5.8c3.7,3.4,6.8,7.2,9.3,11.5l0.4,0.7c1-0.3,2-0.7,3-1.1C69.1,93.6,70.1,93.2,71,92.7 M91.6,29.4
	c-4.8,1.3-9.8,1.8-14.8,1.6c0.6,2.5,1.3,4.9,2.3,7.2c1,2.3,2.1,4.6,3.5,6.7c3.4-3.7,7.2-6.8,11.5-9.3l0.7-0.4c-0.3-1-0.7-2-1.1-3
	c-0.4-1-0.9-2-1.3-2.9L91.6,29.4z M70.8,8.6L71,7.8c-1.9-1-3.9-1.8-5.9-2.5l-0.4,0.7c-2.5,4.3-5.7,8.2-9.3,11.6
	c2.1,1.3,4.4,2.5,6.7,3.5c2.3,1,4.7,1.7,7.2,2.3C69.1,18.4,69.6,13.5,70.8,8.6 M78.3,50.2L78.3,50.2v0.1c-2.1,3-3.8,6.2-5.2,9.5
	c-1.4,3.3-2.4,6.8-3,10.4l-0.1,0l0,0.1c-7.1,1.3-13.9,4.1-19.9,8.2l-0.1,0l-0.1,0c-3-2.1-6.2-3.8-9.5-5.2c-3.3-1.4-6.8-2.4-10.4-3
	l0-0.1l-0.1,0c-0.6-3.6-1.7-7.1-3-10.4c-1.4-3.3-3.1-6.5-5.2-9.5l0-0.1l0-0.1c2.1-3,3.8-6.2,5.2-9.5c1.4-3.3,2.4-6.8,3-10.4l0.1,0
	l0-0.1c7.1-1.3,13.9-4.1,19.9-8.2l0.1,0l0.1,0c3,2.1,6.2,3.8,9.5,5.2c3.3,1.4,6.8,2.4,10.4,3l0,0.1l0.1,0c0.6,3.6,1.7,7.1,3,10.4
	C74.5,44,76.2,47.2,78.3,50.2"/>
</svg>
