<?xml version="1.0" encoding="utf-8"?>
<!-- Generator: Adobe Illustrator 21.1.0, SVG Export Plug-In . SVG Version: 6.00 Build 0)  -->
<svg version="1.1" id="Layer_1" xmlns="http://www.w3.org/2000/svg" xmlns:xlink="http://www.w3.org/1999/xlink" x="0px" y="0px"
	 viewBox="0 0 300 75.8" style="enable-background:new 0 0 300 75.8;" xml:space="preserve">
<style type="text/css">
	.st0{fill:#FEECCE;}
</style>
<path class="st0" d="M91.2,74.5H68.7L56.9,32.4L45.1,74.5H22.6L2.4,2.7h19.6L34.1,51L46.9,2.7h20.4L80,51L92,2.7h19.5L91.2,74.5z
	 M139,74.5h-19.1V2.7H139V74.5z M213,11.3l-13.4,13.6c-3.6-3.6-8.4-5.5-13.4-5.3c-10,0-17,7.8-17,19c0,13.2,8.4,19.6,17.3,19.6
	c8.9,0,14-3.5,15.9-10.6h-16.5V33.4h35c0.3,2.1,0.4,4.3,0.4,6.4c0,23.9-17.4,36-34,36c-22.1,0-37.7-15.4-37.7-37.2
	c0-21.8,15.6-37.2,37.7-37.2C198.5,1.3,207.1,5.1,213,11.3z M298.8,19.5l-17,9.5c-3-5.8-9.1-9.3-15.5-9.1c-9.7,0-17,7.6-17,18.6
	c0,12.3,8.4,18.6,17,18.6c6.5,0.1,12.6-3.4,15.9-9.1l15.6,11.2c-6.6,10.2-17.4,16.5-31.4,16.5c-21.8,0-37.2-15.4-37.2-37.2
	c0-21.8,15.4-37.2,37.2-37.2C280.4,1.3,292.6,8,298.8,19.5z"/>
</svg>
